<svg xmlns="http://www.w3.org/2000/svg" viewBox="0 0 30 30">
  <title>User Navigation</title>
  <g id="User_Navigation" data-name="User Navigation">
    <g>
      <circle cx="13" cy="7" r="7" style="fill: #303c42"/>
      <path d="M20.33,25.68l2.77-7.38a.5.5,0,0,0-.24-.62A21.86,21.86,0,0,0,13,15,22,22,0,0,0,2.87,17.81,5.53,5.53,0,0,0,0,22.71V24a2,2,0,0,0,2,2H19.86A.5.5,0,0,0,20.33,25.68Z" style="fill: #303c42"/>
      <path d="M30,29.32l-4.5-12a.52.52,0,0,0-.94,0l-4.5,12a.5.5,0,0,0,.67.63L25,28,29.3,30a.5.5,0,0,0,.2,0,.5.5,0,0,0,.47-.68Z" style="fill: #303c42"/>
    </g>
  </g>
</svg>
