<svg xmlns="http://www.w3.org/2000/svg" viewBox="0 0 30 30">
  <title>Eco User</title>
  <g id="Eco_User" data-name="Eco User">
    <g>
      <circle cx="13" cy="7" r="7" style="fill: #303c42"/>
      <path d="M23.72,19.11a.5.5,0,0,0,.1-.85,5.25,5.25,0,0,0-.69-.45A22,22,0,0,0,13,15,22,22,0,0,0,2.87,17.81,5.53,5.53,0,0,0,0,22.71V24a2,2,0,0,0,2,2H17.54a.5.5,0,0,0,.5-.45C18.3,23,20.47,20.54,23.72,19.11Z" style="fill: #303c42"/>
      <path d="M28.71,19C24.32,19,19,22.15,19,26.07a.5.5,0,0,0,.88.32,16.7,16.7,0,0,1,5.45-4.23.5.5,0,1,1,.45.89,15.65,15.65,0,0,0-6.71,6.19.5.5,0,0,0,.86.51c.16-.26.33-.52.49-.76a3.7,3.7,0,0,0,2.5,1C26.84,30,30,24.69,30,20.29A1.29,1.29,0,0,0,28.71,19Z" style="fill: #303c42"/>
    </g>
  </g>
</svg>
