<svg xmlns="http://www.w3.org/2000/svg" viewBox="0 0 30 30">
  <title>Cup 1</title>
  <g id="Cup_1" data-name="Cup 1">
    <path d="M26,4H23a2,2,0,0,0-2-2H9A2,2,0,0,0,7,4H4A2,2,0,0,0,2,6,5.44,5.44,0,0,0,3,9.15a20,20,0,0,0,5.45,5.49c.88,2.67,2.29,5.09,4.56,6V23.5A1.5,1.5,0,0,1,11.5,25,2.5,2.5,0,0,0,9,27.5a.5.5,0,0,0,.5.5h11a.5.5,0,0,0,.5-.5A2.5,2.5,0,0,0,18.5,25,1.5,1.5,0,0,1,17,23.5V20.63c2.27-.9,3.68-3.31,4.56-6A20,20,0,0,0,27,9.15,5.44,5.44,0,0,0,28,6,2,2,0,0,0,26,4ZM3.81,8.58A4.44,4.44,0,0,1,3,6,1,1,0,0,1,4,5H7a37.06,37.06,0,0,0,1,8.13A22,22,0,0,1,3.81,8.58Zm22.38,0A22,22,0,0,1,22,13.13,37.06,37.06,0,0,0,23,5h3a1,1,0,0,1,1,1A4.44,4.44,0,0,1,26.19,8.58Z" style="fill: #303c42"/>
  </g>
</svg>
