<svg xmlns="http://www.w3.org/2000/svg" viewBox="0 0 30 30">
  <title>Pram 1</title>
  <g id="Pram_1" data-name="Pram 1">
    <g>
      <path d="M28,9a2,2,0,0,0-2,2v2H.5a.5.5,0,0,0-.5.5A13.49,13.49,0,0,0,6.47,25a2.52,2.52,0,1,0,2,1,13.31,13.31,0,0,0,8.72.43,2.47,2.47,0,0,0-.23,1,2.5,2.5,0,1,0,3.3-2.36A13.5,13.5,0,0,0,27,13.5V11a1,1,0,0,1,2,0v.5a.5.5,0,0,0,1,0V11A2,2,0,0,0,28,9Z" style="fill: #303c42"/>
      <path d="M13.17,10.69a.5.5,0,0,0,.83-.38V.5a.5.5,0,0,0-.5-.5A13.32,13.32,0,0,0,5.11,2.95a.5.5,0,0,0,0,.77Z" style="fill: #303c42"/>
      <path d="M.67,12H11.81a.5.5,0,0,0,.33-.88L4.28,4.33a.5.5,0,0,0-.69,0A13.45,13.45,0,0,0,.18,11.42.5.5,0,0,0,.67,12Z" style="fill: #303c42"/>
    </g>
  </g>
</svg>
