<svg xmlns="http://www.w3.org/2000/svg" viewBox="0 0 30 30">
  <title>Band</title>
  <g id="Band">
    <path d="M26,9H21V4a2,2,0,0,0-2-2H11A2,2,0,0,0,9,4V9H4a2,2,0,0,0-2,2v8a2,2,0,0,0,2,2H9v5a2,2,0,0,0,2,2h8a2,2,0,0,0,2-2V21h5a2,2,0,0,0,2-2V11A2,2,0,0,0,26,9ZM11,18a1,1,0,1,1,1,1A1,1,0,0,1,11,18Zm8-6a1,1,0,1,1-1-1A1,1,0,0,1,19,12Zm-3,3a1,1,0,1,1-1-1A1,1,0,0,1,16,15Zm-3-3a1,1,0,1,1-1-1A1,1,0,0,1,13,12Zm4,6a1,1,0,1,1,1,1A1,1,0,0,1,17,18ZM19,4V9H11V4ZM4,11H9v8H4Zm7,15V21h8v5Zm10-7V11h5v8Z" style="fill: #303c42"/>
  </g>
</svg>
