<svg xmlns="http://www.w3.org/2000/svg" viewBox="0 0 30 30">
  <title>Bow Tie</title>
  <g id="Bow_Tie" data-name="Bow Tie">
    <g>
      <path d="M17.89,10.19A.5.5,0,0,0,17.5,10h-5a.5.5,0,0,0-.39.19A8.31,8.31,0,0,0,10.5,15a8.31,8.31,0,0,0,1.61,4.81.5.5,0,0,0,.39.19h5a.5.5,0,0,0,.39-.19A8.31,8.31,0,0,0,19.5,15,8.31,8.31,0,0,0,17.89,10.19Z" style="fill: #303c42"/>
      <path d="M27.65,5C26,5,20.78,7.87,18.92,9a.5.5,0,0,0-.15.73A9.23,9.23,0,0,1,20,12.22a.5.5,0,0,0,.79.23A8,8,0,0,1,24.43,11a.5.5,0,0,1,.14,1s-4.07.62-4.07,3,4,3,4.07,3a.5.5,0,0,1,.42.57.54.54,0,0,1-.56.42,8,8,0,0,1-3.6-1.45.5.5,0,0,0-.79.23,9.23,9.23,0,0,1-1.27,2.52.5.5,0,0,0,.15.73c1.86,1.1,7.06,4,8.73,4C28.74,25,30,23.86,30,15S28.74,5,27.65,5Z" style="fill: #303c42"/>
      <path d="M9.91,17.65a.5.5,0,0,0-.77-.25A11,11,0,0,1,4.56,19H4.5a.5.5,0,0,1-.06-1c1.41-.17,5.06-1,5.06-3s-3.65-2.84-5.06-3a.5.5,0,0,1-.25-.89.48.48,0,0,1,.36-.1,11,11,0,0,1,4.58,1.6.5.5,0,0,0,.77-.25A9.37,9.37,0,0,1,11.23,9.7.5.5,0,0,0,11.08,9C9.22,7.87,4,5,2.35,5,1.26,5,0,6.14,0,15S1.26,25,2.35,25c1.67,0,6.87-2.87,8.73-4a.5.5,0,0,0,.15-.73A9.24,9.24,0,0,1,9.91,17.65Z" style="fill: #303c42"/>
    </g>
  </g>
</svg>
