<svg xmlns="http://www.w3.org/2000/svg" viewBox="0 0 30 30">
  <title>Protect Cart</title>
  <g id="Protect_Cart" data-name="Protect Cart">
    <g>
      <circle cx="23.5" cy="27.5" r="2.5" style="fill: #303c42"/>
      <path d="M10.39,19H22a2,2,0,0,0,1.81-1.14l3.68-7.74A5,5,0,0,0,28,8a2,2,0,0,0-2-2H23.49a.5.5,0,0,0-.5.48c-.14,4.19-1.4,5.89-5.87,7.89a1.5,1.5,0,0,1-1.22,0c-4.47-2-5.73-3.69-5.87-7.89A.5.5,0,0,0,9.51,6H6.83L6.46,4.72A1,1,0,0,0,5.5,4h-3a.5.5,0,0,0-.5.5v1a.5.5,0,0,0,.5.5H4.75L8.32,18.22,6.81,19.74A2.5,2.5,0,0,0,6.6,23a2.59,2.59,0,0,0,2.09,1H25.5a.5.5,0,0,0,.5-.5v-1a.5.5,0,0,0-.5-.5H8.59a.5.5,0,0,1-.36-.85Z" style="fill: #303c42"/>
      <circle cx="9.5" cy="27.5" r="2.5" style="fill: #303c42"/>
      <path d="M16.3,13.46a.5.5,0,0,0,.41,0C21.31,11.4,22,9.87,22,5.7V2.07a.5.5,0,0,0-.35-.48L16.65,0a.5.5,0,0,0-.3,0l-5,1.57a.5.5,0,0,0-.35.48V5.7C11,9.87,11.69,11.4,16.3,13.46ZM13,4a.5.5,0,0,1,.35-.48l3-.94A.5.5,0,0,1,17,3.1V6.5h2.48A.5.5,0,0,1,20,7c-.1,2.16-.77,3-3.26,4.22a.5.5,0,0,1-.48,0A.5.5,0,0,1,16,10.8V7.5H13.5A.5.5,0,0,1,13,7Z" style="fill: #303c42"/>
    </g>
  </g>
</svg>
