<svg xmlns="http://www.w3.org/2000/svg" viewBox="0 0 30 30">
  <title>Fragment Chart</title>
  <g id="Fragment_Chart" data-name="Fragment Chart">
    <path d="M29.5,26H29V1.5a.5.5,0,0,0-.81-.39L23.37,5,18.6,4a.5.5,0,0,0-.34.06L11.73,7.76a.5.5,0,0,0-.15.14L7.75,13H4V.5A.5.5,0,0,0,3.5,0h-1A.5.5,0,0,0,2,.5V26H.5a.5.5,0,0,0-.5.5v1a.5.5,0,0,0,.5.5H2v1.5a.5.5,0,0,0,.5.5h1a.5.5,0,0,0,.5-.5V28H29.5a.5.5,0,0,0,.5-.5v-1A.5.5,0,0,0,29.5,26ZM4,19.31l4.48-2.24,3.27,1.87a.5.5,0,0,0,.64-.12l6.27-7.71L23.31,13a.5.5,0,0,0,.44,0L28,10.38v3.91L23.29,19H18.5a.5.5,0,0,0-.26.07L12,22.88,8.83,20.12a.5.5,0,0,0-.66,0L4,23.95Z" style="fill: #303c42"/>
  </g>
</svg>
