<svg xmlns="http://www.w3.org/2000/svg" viewBox="0 0 30 30">
  <title>Pie Chart 1</title>
  <g id="Pie_Chart_1" data-name="Pie Chart 1">
    <g>
      <path d="M16,14.5H29.45a.5.5,0,0,0,.5-.53A15,15,0,0,0,16,.05a.51.51,0,0,0-.38.13.5.5,0,0,0-.16.37V14A.5.5,0,0,0,16,14.5Z" style="fill: #303c42"/>
      <path d="M29.45,15.5h-12a.5.5,0,0,0-.35.85l8.51,8.51a.5.5,0,0,0,.35.15h0a.5.5,0,0,0,.36-.17A14.84,14.84,0,0,0,29.95,16a.5.5,0,0,0-.5-.53Z" style="fill: #303c42"/>
      <path d="M14.65,15.35A.51.51,0,0,1,14.5,15V.55a.5.5,0,0,0-.16-.37A.52.52,0,0,0,14,.05,15,15,0,1,0,24.84,26.3a.5.5,0,0,0,0-.73Z" style="fill: #303c42"/>
    </g>
  </g>
</svg>
