<svg xmlns="http://www.w3.org/2000/svg" viewBox="0 0 30 30">
  <title>Condom 1</title>
  <g id="Condom_1" data-name="Condom 1">
    <path d="M26,2h-.59a.5.5,0,0,0-.47.33,1,1,0,0,1-1.87,0A.5.5,0,0,0,22.59,2h-.18a.5.5,0,0,0-.47.33,1,1,0,0,1-1.87,0A.5.5,0,0,0,19.59,2h-.18a.5.5,0,0,0-.47.33,1,1,0,0,1-1.87,0A.5.5,0,0,0,16.59,2h-.18a.5.5,0,0,0-.47.33,1,1,0,0,1-1.87,0A.5.5,0,0,0,13.59,2h-.18a.5.5,0,0,0-.47.33,1,1,0,0,1-1.87,0A.5.5,0,0,0,10.59,2h-.18a.5.5,0,0,0-.47.33,1,1,0,0,1-1.87,0A.5.5,0,0,0,7.59,2H7.41a.5.5,0,0,0-.47.33,1,1,0,0,1-1.87,0A.5.5,0,0,0,4.59,2H4A2,2,0,0,0,2,4V26a2,2,0,0,0,2,2h.59a.5.5,0,0,0,.47-.33,1,1,0,0,1,1.87,0,.5.5,0,0,0,.47.33h.18a.5.5,0,0,0,.47-.33,1,1,0,0,1,1.87,0,.5.5,0,0,0,.47.33h.18a.5.5,0,0,0,.47-.33,1,1,0,0,1,1.87,0,.5.5,0,0,0,.47.33h.18a.5.5,0,0,0,.47-.33,1,1,0,0,1,1.87,0,.5.5,0,0,0,.47.33h.18a.5.5,0,0,0,.47-.33,1,1,0,0,1,1.87,0,.5.5,0,0,0,.47.33h.18a.5.5,0,0,0,.47-.33,1,1,0,0,1,1.87,0,.5.5,0,0,0,.47.33h.18a.5.5,0,0,0,.47-.33,1,1,0,0,1,1.87,0,.5.5,0,0,0,.47.33H26a2,2,0,0,0,2-2V4A2,2,0,0,0,26,2ZM15,8a7,7,0,0,1,7,7,.5.5,0,0,1-1,0,6,6,0,1,0-6,6,.5.5,0,0,1,0,1A7,7,0,0,1,15,8Zm0,17A10,10,0,0,1,5,15a.5.5,0,0,1,1,0,9,9,0,1,0,9-9,.5.5,0,0,1,0-1,10,10,0,0,1,0,20Z" style="fill: #303c42"/>
  </g>
</svg>
