<svg xmlns="http://www.w3.org/2000/svg" viewBox="0 0 30 30">
  <title>Protection Helmet</title>
  <g id="Protection_Helmet" data-name="Protection Helmet">
    <path d="M28,18V18A12.78,12.78,0,0,0,21.63,7a.5.5,0,0,0-.75.4l-.38,5.7a.51.51,0,0,1-.53.47h0A.5.5,0,0,1,19.5,13l.5-7.5A.5.5,0,0,0,19.5,5H16.72a2,2,0,0,0-3.44,0H10.5a.5.5,0,0,0-.5.53l.5,7.5a.49.49,0,0,1-.12.36.52.52,0,0,1-.38.17.5.5,0,0,1-.5-.47L9.12,7.4A.5.5,0,0,0,8.37,7,12.78,12.78,0,0,0,2,18V18c-1.34.54-2,1.16-2,1.9C0,22.22,7.27,26,15,26s15-3.78,15-6.06C30,19.2,29.34,18.58,28,18ZM15,5a1,1,0,0,1,1,1v9a1,1,0,0,1-2,0V6A1,1,0,0,1,15,5Z" style="fill: #303c42"/>
  </g>
</svg>
