<svg xmlns="http://www.w3.org/2000/svg" viewBox="0 0 30 30">
  <title>Cylinder Hat</title>
  <g id="Cylinder_Hat" data-name="Cylinder Hat">
    <path d="M25,14.39V11.87a34.8,34.8,0,0,1,.86-6.44A.74.74,0,0,0,26,5c0-1.86-8.42-2-11-2S4,3.14,4,5a.74.74,0,0,0,.14.42A34.8,34.8,0,0,1,5,11.87v2.52c-2.41.47-5,1.59-5,5.46S6.87,27,15,27s15-3.28,15-7.16S27.41,14.86,25,14.39ZM6,17.68C7.18,18.22,9.78,19,15,19s7.82-.79,9-1.33V19a.66.66,0,0,1-.36.59C22.79,20,20.25,21,15,21s-7.79-1-8.64-1.44A.66.66,0,0,1,6,19Z" style="fill: #303c42"/>
  </g>
</svg>
