<svg xmlns="http://www.w3.org/2000/svg" viewBox="0 0 30 30">
  <title>Pencil with Ruler</title>
  <g id="Pencil_with_Ruler" data-name="Pencil with Ruler">
    <g>
      <path d="M24.4,11.67a.5.5,0,0,0,.71,0l2.23-2.22a2.29,2.29,0,0,0,0-3.23L23.76,2.65a2.34,2.34,0,0,0-3.23,0L18.31,4.88a.5.5,0,0,0,0,.71Z" style="fill: #303c42"/>
      <path d="M21.23,15.53l2.45-2.44a.5.5,0,0,0,0-.71L21.35,10a.5.5,0,0,0-.71,0l-12,12a.5.5,0,0,0,.17.82l1.17.47v1.8l-2.93.72L4.31,23.08l1.06-3.61h1.7l.23,1.37a.5.5,0,0,0,.34.39l.15,0a.5.5,0,0,0,.35-.15L19.94,9.33a.5.5,0,0,0,0-.71L17.61,6.29a.5.5,0,0,0-.35-.15h0a.5.5,0,0,0-.35.15L14.46,8.75,7.85,2.15a.5.5,0,0,0-.71,0l-5,5a.5.5,0,0,0,0,.71L3.44,9.15a.5.5,0,0,0,.71,0l1.5-1.5a.5.5,0,1,1,.71.71l-1.5,1.5a.5.5,0,0,0,0,.71l1.09,1.09a.5.5,0,0,0,.71,0l1.5-1.5a.5.5,0,0,1,.71.71l-1.5,1.5a.5.5,0,0,0,0,.71l1.42,1.42L4.65,18.63v0a.49.49,0,0,0-.12.2L3.27,23.09,2,27.34A.5.5,0,0,0,2.5,28h.12L7,26.88,10.62,26l0,0,.09,0,.08-.05,0,0,4.66-4.64,1.43,1.43a.5.5,0,0,0,.71,0l1.5-1.5a.51.51,0,0,1,.71,0,.5.5,0,0,1,0,.71l-1.5,1.5a.5.5,0,0,0,0,.71l1.09,1.09a.5.5,0,0,0,.71,0l1.5-1.5a.5.5,0,0,1,.71.71l-1.5,1.5a.5.5,0,0,0,0,.71l1.29,1.29a.5.5,0,0,0,.71,0l5-5a.5.5,0,0,0,0-.71Z" style="fill: #303c42"/>
    </g>
  </g>
</svg>
