<svg xmlns="http://www.w3.org/2000/svg" viewBox="0 0 30 30">
  <title>Coffee Can</title>
  <g id="Coffee_Can" data-name="Coffee Can">
    <path d="M30,12a8,8,0,0,0-8-8H.5A.5.5,0,0,0,.31,5l3.2,1.28a1,1,0,0,1,.43,1.52l-.73,1,0,0a11.54,11.54,0,0,0,.69,16.6,2.43,2.43,0,0,0,1.63.6h13a2.43,2.43,0,0,0,1.63-.6,11.74,11.74,0,0,0,3.44-5.56A7.93,7.93,0,0,0,30,12Zm-8.59,8H2.59A9.48,9.48,0,0,1,2,16.75,9.89,9.89,0,0,1,12,7a9.89,9.89,0,0,1,10,9.75A9.48,9.48,0,0,1,21.41,20ZM24,17.68c0-.31,0-.61,0-.93A11.71,11.71,0,0,0,18,6.59V6h4a6,6,0,0,1,6,6A5.94,5.94,0,0,1,24,17.68Z" style="fill: #303c42"/>
  </g>
</svg>
