<svg xmlns="http://www.w3.org/2000/svg" viewBox="0 0 30 30">
  <title>Champagne Bottle</title>
  <g id="Champagne_Bottle" data-name="Champagne Bottle">
    <g>
      <circle cx="15" cy="14" r="1" style="fill: #303c42"/>
      <path d="M19.82,12.82c-.17-.34-.34-.68-.52-1a13.07,13.07,0,0,1-1.8-6.33,1.5,1.5,0,0,0,.36-1.17l-.37-3A1.5,1.5,0,0,0,16,0H14a1.5,1.5,0,0,0-1.49,1.31l-.37,3a1.5,1.5,0,0,0,.36,1.17,13.07,13.07,0,0,1-1.8,6.33c-.18.34-.35.67-.52,1A11.26,11.26,0,0,0,9,18.15V28a2,2,0,0,0,2,2h8a2,2,0,0,0,2-2V18.15A11.26,11.26,0,0,0,19.82,12.82ZM13.47,6h3.05a13.82,13.82,0,0,0,1.89,6.27l.4.77c-2.2,4.58-3.47,5-3.82,5s-1.62-.37-3.82-5l.4-.77A13.82,13.82,0,0,0,13.47,6ZM20,25.5a.5.5,0,0,1-.5.5h-9a.5.5,0,0,1-.5-.5v-5a.5.5,0,0,1,.5-.5h9a.5.5,0,0,1,.5.5Z" style="fill: #303c42"/>
    </g>
  </g>
</svg>
