<svg xmlns="http://www.w3.org/2000/svg" viewBox="0 0 30 30">
  <title>Feather</title>
  <g id="Feather">
    <path d="M28,2.47A.5.5,0,0,0,27.68,2a.51.51,0,0,0-.53.11,28.45,28.45,0,0,1-9.85,6.4.5.5,0,0,0-.26.27L16.56,10c-.07-.19-.15-.38-.23-.55a.5.5,0,0,0-.65-.23,17.52,17.52,0,0,0-5,3.12.5.5,0,0,0-.16.35,3.46,3.46,0,0,0,.21,1.26,1.49,1.49,0,0,1-.61-.3.51.51,0,0,0-.37-.11.5.5,0,0,0-.34.19,16.91,16.91,0,0,0-3,6.58.5.5,0,0,0,.82.48c2.46-2.24,4.16-3.54,5.66-4.68a59.24,59.24,0,0,0,7.51-6.65.51.51,0,0,1,.71,0,.5.5,0,0,1,0,.71,60,60,0,0,1-7.62,6.74,76.11,76.11,0,0,0-6.24,5.23h0c-1.53,1.42-3.21,3.06-5.12,5a.5.5,0,1,0,.71.7c1.47-1.5,2.79-2.81,4-4A5.65,5.65,0,0,0,8.12,24c2.33,0,6.25-1.13,11.7-6.51C28.3,9.11,28,2.74,28,2.47Z" style="fill: #303c42"/>
  </g>
</svg>
