<svg xmlns="http://www.w3.org/2000/svg" viewBox="0 0 30 30">
  <title>Figs</title>
  <g id="Figs">
    <g>
      <path d="M20.67,8A7.82,7.82,0,0,1,17,.88a.9.9,0,0,0-.21-.69A.71.71,0,0,0,16.36,0h0c-1.16,0-3.82.76-3.85,2A7.14,7.14,0,0,1,9.11,8.11,15.57,15.57,0,0,0,2,20.54C2,26.46,6.86,30,15,30s13-3.54,13-9.46A15.72,15.72,0,0,0,20.67,8ZM15,27c-3,0-10-.56-10-5.77,0-3.37,2.45-7.39,5.7-9.34a11.79,11.79,0,0,0,3.88-3.66A.5.5,0,0,1,15,8a.53.53,0,0,1,.42.21,11.39,11.39,0,0,0,3.72,3.56c3.35,1.93,5.87,6,5.87,9.46C25,26.44,18,27,15,27Z" style="fill: #303c42"/>
      <circle cx="14.5" cy="25.5" r="0.5" style="fill: #303c42"/>
      <circle cx="11.5" cy="22.5" r="0.5" style="fill: #303c42"/>
      <circle cx="17.5" cy="25.5" r="0.5" style="fill: #303c42"/>
      <circle cx="10.5" cy="19.5" r="0.5" style="fill: #303c42"/>
      <circle cx="8.5" cy="21.5" r="0.5" style="fill: #303c42"/>
      <circle cx="6.5" cy="20.5" r="0.5" style="fill: #303c42"/>
      <circle cx="8.5" cy="18.5" r="0.5" style="fill: #303c42"/>
      <circle cx="9.5" cy="14.5" r="0.5" style="fill: #303c42"/>
      <circle cx="12.5" cy="13.5" r="0.5" style="fill: #303c42"/>
      <circle cx="12.5" cy="16.5" r="0.5" style="fill: #303c42"/>
      <circle cx="15.5" cy="16.5" r="0.5" style="fill: #303c42"/>
      <circle cx="14.5" cy="14.5" r="0.5" style="fill: #303c42"/>
      <circle cx="13.5" cy="11.5" r="0.5" style="fill: #303c42"/>
      <circle cx="16.5" cy="12.5" r="0.5" style="fill: #303c42"/>
      <circle cx="15.5" cy="10.5" r="0.5" style="fill: #303c42"/>
      <circle cx="19.5" cy="13.5" r="0.5" style="fill: #303c42"/>
      <circle cx="19.5" cy="15.5" r="0.5" style="fill: #303c42"/>
      <circle cx="17.5" cy="17.5" r="0.5" style="fill: #303c42"/>
      <circle cx="17.5" cy="14.5" r="0.5" style="fill: #303c42"/>
      <circle cx="16.5" cy="19.5" r="0.5" style="fill: #303c42"/>
      <circle cx="21.5" cy="15.5" r="0.5" style="fill: #303c42"/>
      <circle cx="24" cy="19.5" r="0.5" style="fill: #303c42"/>
      <circle cx="8" cy="16" r="0.5" style="fill: #303c42"/>
      <circle cx="12.5" cy="20.5" r="0.5" style="fill: #303c42"/>
      <circle cx="19.5" cy="17.5" r="0.5" style="fill: #303c42"/>
      <circle cx="21.5" cy="18.5" r="0.5" style="fill: #303c42"/>
      <circle cx="21.5" cy="20.5" r="0.5" style="fill: #303c42"/>
      <circle cx="21.5" cy="22.5" r="0.5" style="fill: #303c42"/>
      <circle cx="23.5" cy="21.5" r="0.5" style="fill: #303c42"/>
      <circle cx="14.5" cy="20.5" r="0.5" style="fill: #303c42"/>
      <circle cx="13.5" cy="18.5" r="0.5" style="fill: #303c42"/>
      <circle cx="10.5" cy="17.5" r="0.5" style="fill: #303c42"/>
      <circle cx="16.5" cy="23.5" r="0.5" style="fill: #303c42"/>
      <circle cx="18.5" cy="20.5" r="0.5" style="fill: #303c42"/>
      <circle cx="9.5" cy="23.5" r="0.5" style="fill: #303c42"/>
      <circle cx="12.5" cy="24.5" r="0.5" style="fill: #303c42"/>
      <circle cx="10.5" cy="25.5" r="0.5" style="fill: #303c42"/>
      <circle cx="14.5" cy="22.5" r="0.5" style="fill: #303c42"/>
      <circle cx="7.5" cy="23.5" r="0.5" style="fill: #303c42"/>
      <circle cx="18.5" cy="22.5" r="0.5" style="fill: #303c42"/>
      <circle cx="22.5" cy="24" r="0.5" style="fill: #303c42"/>
      <circle cx="20.5" cy="24.5" r="0.5" style="fill: #303c42"/>
    </g>
  </g>
</svg>
