<svg xmlns="http://www.w3.org/2000/svg" viewBox="0 0 30 30">
  <title>Reload Folder</title>
  <g id="Reload_Folder" data-name="Reload Folder">
    <g>
      <path d="M7,9.5v11A1.5,1.5,0,0,0,8.5,22h13A1.5,1.5,0,0,0,23,20.5v-10A1.5,1.5,0,0,0,21.5,9H15.65l-1.37-.92A.5.5,0,0,0,14,8H8.5A1.5,1.5,0,0,0,7,9.5Z" style="fill: #303c42"/>
      <path d="M18.72.48s-.78-.2-1-.23A19.16,19.16,0,0,0,15,0a.5.5,0,0,0-.35.85l3.5,3.5A.5.5,0,0,0,19,3.92l-.22-1.35a13,13,0,0,1,.09,24.84.5.5,0,0,0-.34.6l.26,1a.51.51,0,0,0,.63.36A15,15,0,0,0,18.72.48Z" style="fill: #303c42"/>
      <path d="M11.86,25.65a.5.5,0,0,0-.85.44l.22,1.35A13,13,0,0,1,11.14,2.6a.5.5,0,0,0,.34-.6l-.26-1a.51.51,0,0,0-.63-.36,15,15,0,0,0,.69,28.85s.78.2,1,.23A19.17,19.17,0,0,0,15,30a.5.5,0,0,0,.35-.85Z" style="fill: #303c42"/>
    </g>
  </g>
</svg>
