<svg xmlns="http://www.w3.org/2000/svg" viewBox="0 0 30 30">
  <title>Chocholate</title>
  <g id="Chocholate">
    <path d="M25.81,14.11a.5.5,0,0,0-.43-.09L24,14.38V.5a.5.5,0,0,0-.5-.5H5.5A.5.5,0,0,0,5,.5V14.17L4.69,14A.5.5,0,0,0,4,14.5v15a.5.5,0,0,0,.5.5h21a.5.5,0,0,0,.5-.5v-15A.5.5,0,0,0,25.81,14.11ZM13,5V2h3V5Zm0,6V8h3v3Zm3,3v3H13V14Zm3-3V8h3v3ZM7,11V8h3v3ZM19,5V2h3V5Zm0,9h3v1c-.93.28-2,.62-3,1ZM7,5V2h3V5Zm0,9h3v2.44c-.93-.47-2-1-3-1.42Zm18,3.16a8.94,8.94,0,0,0-1.73.73h0l-.2.11-.12.06h0a44.37,44.37,0,0,0-7.22,5.56l-1.68-4c1.58-1.78,7.92-3.71,11-4.5ZM5,15.25c3.44,1.46,7,3.26,7.85,4L9.4,21.77C8.73,20.64,7,17.93,5,17.19Z" style="fill: #303c42"/>
  </g>
</svg>
