<svg xmlns="http://www.w3.org/2000/svg" viewBox="0 0 30 30">
  <title>iWatch Side</title>
  <g id="iWatch_Side" data-name="iWatch Side">
    <g>
      <path d="M14.5,0A11.13,11.13,0,0,0,6.79,3.2a.5.5,0,0,0,.28.86A4.43,4.43,0,0,1,9,4.77a.5.5,0,0,0,.58,0A8,8,0,0,1,14.5,3C19.74,3,24,8.38,24,15s-4.26,12-9.5,12a8,8,0,0,1-4.91-1.75.5.5,0,0,0-.58,0,4.43,4.43,0,0,1-1.94.71.5.5,0,0,0-.28.86A11.13,11.13,0,0,0,14.5,30C21.39,30,27,23.27,27,15S21.39,0,14.5,0Z" style="fill: #303c42"/>
      <path d="M10,21.5V8.5a3.5,3.5,0,0,0-7,0v13a3.5,3.5,0,0,0,7,0ZM6.5,8.5a1,1,0,1,1-1,1A1,1,0,0,1,6.5,8.5ZM8,19.5a1.5,1.5,0,0,1-3,0v-4a1.5,1.5,0,0,1,3,0Z" style="fill: #303c42"/>
    </g>
  </g>
</svg>
