<svg xmlns="http://www.w3.org/2000/svg" viewBox="0 0 30 30">
  <title>iWatch</title>
  <g id="iWatch">
    <g>
      <path d="M8.67,5H20.33a.5.5,0,0,0,.5-.54l-.33-4A.5.5,0,0,0,20,0H9a.5.5,0,0,0-.5.46l-.33,4a.5.5,0,0,0,.5.54Z" style="fill: #303c42"/>
      <path d="M20.33,25H8.67a.5.5,0,0,0-.5.54l.33,4A.5.5,0,0,0,9,30H20a.5.5,0,0,0,.5-.46l.33-4a.5.5,0,0,0-.5-.54Z" style="fill: #303c42"/>
      <path d="M23.5,10H23V8a2,2,0,0,0-2-2H8A2,2,0,0,0,6,8V22a2,2,0,0,0,2,2H21a2,2,0,0,0,2-2V20a.5.5,0,0,0,.5-.5v-3A.5.5,0,0,0,23,16V14h.5a.5.5,0,0,0,.5-.5v-3A.5.5,0,0,0,23.5,10ZM21,22H8V8H21Z" style="fill: #303c42"/>
    </g>
  </g>
</svg>
