<svg xmlns="http://www.w3.org/2000/svg" viewBox="0 0 30 30">
  <title>Salt Pot</title>
  <g id="Salt_Pot" data-name="Salt Pot">
    <path d="M23,9.5A1.5,1.5,0,0,0,21.5,8H21A6,6,0,0,0,9,8H8.5a1.5,1.5,0,0,0-.05,3L7,26a2,2,0,0,0,2,2H21a2,2,0,0,0,2-2L21.55,11A1.5,1.5,0,0,0,23,9.5ZM16,4a.5.5,0,1,1-.5.5A.5.5,0,0,1,16,4ZM15,2.5a.5.5,0,1,1-.5.5A.5.5,0,0,1,15,2.5ZM14,4a.5.5,0,1,1-.5.5A.5.5,0,0,1,14,4ZM8,9.5A.5.5,0,0,1,8.5,9h13a.5.5,0,0,1,0,1H8.5A.5.5,0,0,1,8,9.5Zm7,9a2.39,2.39,0,0,1,2.5,2.25A2.39,2.39,0,0,1,15,23H13a.5.5,0,0,1,0-1h2a1.39,1.39,0,0,0,1.5-1.25A1.39,1.39,0,0,0,15,19.5a2.39,2.39,0,0,1-2.5-2.25A2.39,2.39,0,0,1,15,15h2a.5.5,0,0,1,0,1H15a1.39,1.39,0,0,0-1.5,1.25A1.39,1.39,0,0,0,15,18.5Z" style="fill: #303c42"/>
  </g>
</svg>
