<svg xmlns="http://www.w3.org/2000/svg" viewBox="0 0 30 30">
  <title>Mary Go Round</title>
  <g id="Mary_Go_Round" data-name="Mary Go Round">
    <path d="M29.95,29.28A5.88,5.88,0,0,0,25,26V25h1.72a1.5,1.5,0,0,0,1.46-1.14L29,20.62A.5.5,0,0,0,28.5,20H25V14h1.55a3,3,0,0,0,2.91-2.27L30,9.62a.5.5,0,0,0-.09-.43A.49.49,0,0,0,29.62,9h0c-.1,0-9.42-2.54-13.86-7.4A1,1,0,0,0,16,1a1,1,0,1,0-2,0,1,1,0,0,0,.23.62C9.8,6.48.47,9,.37,9h0a.49.49,0,0,0-.27.16A.5.5,0,0,0,0,9.62l.53,2.11A3,3,0,0,0,3.45,14H5v6H1.5a.5.5,0,0,0-.48.62l.81,3.24A1.5,1.5,0,0,0,3.28,25H5v1A5.88,5.88,0,0,0,.05,29.28.5.5,0,0,0,.5,30h29a.5.5,0,0,0,.45-.72ZM17,16.73l-.68.32L13,18.62V16.18l.68-.32L17,14.29ZM17.9,9H12.1A18.06,18.06,0,0,0,15,3.38,18.06,18.06,0,0,0,17.9,9ZM13,23.27l.68-.32L17,21.38v2.44l-.68.32L13,25.71ZM24,20H20.5a.5.5,0,0,0-.48.62l.81,3.24A1.5,1.5,0,0,0,22.28,25H24v1H18V14h6ZM7.72,25a1.5,1.5,0,0,0,1.46-1.14L10,20.62A.5.5,0,0,0,9.5,20H6V14h6V26H6V25Z" style="fill: #303c42"/>
  </g>
</svg>
