<svg xmlns="http://www.w3.org/2000/svg" viewBox="0 0 30 30">
  <title>Luggage</title>
  <g id="Luggage">
    <path d="M29.5,24H28V9.5A5.51,5.51,0,0,0,22.5,4H20V3a2,2,0,0,0-2-2H16a1,1,0,0,0-2,0H12a2,2,0,0,0-2,2V4H7.5A5.51,5.51,0,0,0,2,9.5V24H.5a.5.5,0,0,0-.5.5v2a.5.5,0,0,0,.5.5H4.28A2,2,0,0,0,4,28a2,2,0,0,0,4,0,2,2,0,0,0-.28-1H22.28A2,2,0,0,0,22,28a2,2,0,0,0,4,0,2,2,0,0,0-.28-1H29.5a.5.5,0,0,0,.5-.5v-2A.5.5,0,0,0,29.5,24ZM18,12H12v-.5a.5.5,0,0,1,.5-.5h5a.5.5,0,0,1,.5.5ZM4,9.5A3.5,3.5,0,0,1,7.5,6h15A3.5,3.5,0,0,1,26,9.5V24H23.72A2,2,0,0,0,24,23V14a2,2,0,0,0-2-2H19v-.5A1.5,1.5,0,0,0,17.5,10h-5A1.5,1.5,0,0,0,11,11.5V12H8a2,2,0,0,0-2,2v9a2,2,0,0,0,.28,1H4Z" style="fill: #303c42"/>
  </g>
</svg>
