<svg xmlns="http://www.w3.org/2000/svg" viewBox="0 0 30 30">
  <title>Mail Delivered 2</title>
  <g id="Mail_Delivered_2" data-name="Mail Delivered 2">
    <g>
      <path d="M15.33,17.54a.86.86,0,0,0,.8-.5L22,3.73a.5.5,0,0,0-.38-.7,2,2,0,0,0-1.28.21L1,13.69A2,2,0,0,0,0,14.81a.5.5,0,0,0,.41.66l14.73,2.06Z" style="fill: #303c42"/>
      <path d="M29.76,16.4,23.53,4.84a.49.49,0,0,0-.46-.26.5.5,0,0,0-.44.3L17.05,17.43a1.85,1.85,0,0,1-1.7,1.11,1.93,1.93,0,0,1-.36,0L1.16,16.58a.5.5,0,0,0-.51.73L4.79,25H3.5a.5.5,0,0,0-.5.5v1a.5.5,0,0,0,.5.5h22a.5.5,0,0,0,.5-.5v-1a.5.5,0,0,0-.5-.5H18l10.93-5.89a2,2,0,0,0,.81-2.71Z" style="fill: #303c42"/>
    </g>
  </g>
</svg>
