<svg xmlns="http://www.w3.org/2000/svg" viewBox="0 0 30 30">
  <title>Mask</title>
  <g id="Mask">
    <path d="M29.65,6a.5.5,0,0,0-.56.18C28,7.73,27.23,7.6,25.56,7.31A17,17,0,0,0,22.5,7c-2.41,0-4.05,1.46-5.37,2.64C16.3,10.37,15.59,11,15,11s-1.3-.63-2.13-1.36C11.55,8.46,9.91,7,7.5,7a17,17,0,0,0-3.06.31C2.77,7.6,2,7.73.91,6.21A.5.5,0,0,0,0,6.5c0,8.65,2.68,13.66,8,14.87a16.19,16.19,0,0,1,5.54,2.08A2.68,2.68,0,0,0,15,24a2.68,2.68,0,0,0,1.51-.55A16.19,16.19,0,0,1,22,21.37c5.28-1.22,8-6.22,8-14.87A.5.5,0,0,0,29.65,6ZM12,17.5a.5.5,0,0,1-.5.5A7.88,7.88,0,0,1,4,12.64.5.5,0,0,1,4.5,12H7c2.14,0,5,2.41,5,3.83Zm14-4.86A7.88,7.88,0,0,1,18.5,18a.5.5,0,0,1-.5-.5V15.83C18,14.41,20.82,12,23,12H25.5a.5.5,0,0,1,.48.64Z" style="fill: #303c42"/>
  </g>
</svg>
