<svg xmlns="http://www.w3.org/2000/svg" viewBox="0 0 30 30">
  <title>Spam Inbox</title>
  <g id="Spam_Inbox" data-name="Spam Inbox">
    <g>
      <path d="M27.93,16.24,26,13V4a2,2,0,0,0-2-2H6A2,2,0,0,0,4,4v9L2.07,16.24A.52.52,0,0,0,2,16.5V26a2,2,0,0,0,2,2H26a2,2,0,0,0,2-2V16.5A.46.46,0,0,0,27.93,16.24ZM8.5,8.41a1.49,1.49,0,0,1,.44-1.06l2.91-2.91A1.49,1.49,0,0,1,12.91,4h4.17a1.49,1.49,0,0,1,1.06.44l2.91,2.91a1.49,1.49,0,0,1,.44,1.06v3.71a1.5,1.5,0,0,1-.37,1l-3,3.38A1.5,1.5,0,0,1,17,17H12.91a1.49,1.49,0,0,1-1.06-.44L8.94,13.65a1.49,1.49,0,0,1-.44-1.06ZM6.5,15A3.5,3.5,0,0,1,10,18.5a.5.5,0,0,0,.5.5h9a.5.5,0,0,0,.5-.5A3.5,3.5,0,0,1,23.5,15h2a.49.49,0,0,0,.39-.21L26.62,16H23.5A2.5,2.5,0,0,0,21,18.5,1.5,1.5,0,0,1,19.5,20h-9A1.5,1.5,0,0,1,9,18.5,2.5,2.5,0,0,0,6.5,16H3.38l.72-1.21A.49.49,0,0,0,4.5,15Z" style="fill: #303c42"/>
      <path d="M15,13a.5.5,0,0,0,.5-.5v-6a.5.5,0,0,0-1,0v6A.5.5,0,0,0,15,13Z" style="fill: #303c42"/>
      <circle cx="15" cy="14.5" r="0.5" style="fill: #303c42"/>
    </g>
  </g>
</svg>
