<svg xmlns="http://www.w3.org/2000/svg" viewBox="0 0 30 30">
  <title>Money Bill</title>
  <g id="Money_Bill" data-name="Money Bill">
    <g>
      <path d="M26.5,11A3.5,3.5,0,0,1,23,7.5a.5.5,0,0,0-.5-.5H7.5a.5.5,0,0,0-.5.5A3.5,3.5,0,0,1,3.5,11a.5.5,0,0,0-.5.5v7a.5.5,0,0,0,.5.5A3.5,3.5,0,0,1,7,22.5a.5.5,0,0,0,.5.5h15a.5.5,0,0,0,.5-.5A3.5,3.5,0,0,1,26.5,19a.5.5,0,0,0,.5-.5v-7A.5.5,0,0,0,26.5,11ZM15,20a5,5,0,1,1,5-5A5,5,0,0,1,15,20Z" style="fill: #303c42"/>
      <path d="M28,4H2A2,2,0,0,0,0,6V24a2,2,0,0,0,2,2H28a2,2,0,0,0,2-2V6A2,2,0,0,0,28,4ZM2,24V6H28V24Z" style="fill: #303c42"/>
    </g>
  </g>
</svg>
