<svg id="Money_Vision" data-name="Money Vision" xmlns="http://www.w3.org/2000/svg" viewBox="0 0 30 30">
  <title>Money Vision</title>
  <g>
    <path id="_Compound_Path_" data-name="&lt;Compound Path&gt;" d="M29.95,14.68A15.68,15.68,0,0,0,15,4,15.68,15.68,0,0,0,.05,14.68a1,1,0,0,0,0,.63A15.68,15.68,0,0,0,15,26,15.68,15.68,0,0,0,29.95,15.32,1,1,0,0,0,29.95,14.68ZM15,24A13.69,13.69,0,0,1,2.06,15,13.69,13.69,0,0,1,15,6a13.69,13.69,0,0,1,12.94,9A13.69,13.69,0,0,1,15,24Z" style="fill: #303c42"/>
    <path id="_Compound_Path_2" data-name="&lt;Compound Path&gt;" d="M15,8a7,7,0,1,0,7,7A7,7,0,0,0,15,8Zm-.25,6.5h.5a1.89,1.89,0,0,1,1.75,2,1.93,1.93,0,0,1-1.5,2V19a.5.5,0,0,1-1,0v-.5h-1a.5.5,0,0,1,0-1h1.75c.41,0,.75-.46.75-1s-.34-1-.75-1h-.5a1.89,1.89,0,0,1-1.75-2,1.93,1.93,0,0,1,1.5-2V11a.5.5,0,0,1,1,0v.5h1a.5.5,0,0,1,0,1H14.75c-.41,0-.75.46-.75,1S14.34,14.5,14.75,14.5Z" style="fill: #303c42"/>
  </g>
</svg>
