<svg xmlns="http://www.w3.org/2000/svg" viewBox="0 0 30 30">
  <title>Envelope Stack 2</title>
  <g id="Envelope_Stack_2" data-name="Envelope Stack 2">
    <path d="M28,10H25.89L22.11,3a1.94,1.94,0,0,0-2.61-.78L1,12.13a1.92,1.92,0,0,0-.78,2.61L4,21.7V26a2,2,0,0,0,2,2H28a2,2,0,0,0,2-2V12A2,2,0,0,0,28,10Zm-3.25,0H18.41l2.7-6.65a.88.88,0,0,1,.12.14ZM20,3.11A.9.9,0,0,1,20.19,3l-2.82,7H7.11ZM14,21.5a.5.5,0,0,1-.5.5h-5a.5.5,0,0,1,0-1h5A.5.5,0,0,1,14,21.5ZM4,11.65A2,2,0,0,0,4,12v1.75l-2.76-.53A.92.92,0,0,1,1.49,13ZM1.11,14.26s0,0,0-.05l2.9.55V19.6ZM17.5,25h-9a.5.5,0,0,1,0-1h9a.5.5,0,1,1,0,1ZM26,20.5a.5.5,0,0,1-.5.5h-5a.5.5,0,0,1-.5-.5v-6a.5.5,0,0,1,.5-.5h5a.5.5,0,0,1,.5.5Z" style="fill: #303c42"/>
  </g>
</svg>
