<svg xmlns="http://www.w3.org/2000/svg" viewBox="0 0 30 30">
  <title>Post It</title>
  <g id="Post_It" data-name="Post It">
    <path d="M29.89,19.93h0l-5-16.15A2.56,2.56,0,0,0,22.38,2a2.66,2.66,0,0,0-.74.1L14.49,4.17A2.25,2.25,0,1,0,12.25,6.5,2.22,2.22,0,0,0,13,6.37l1.12,1.44a.5.5,0,1,0,.79-.61l-.67-.87,8-2.3a.63.63,0,0,1,.75.35l5,16.15a.44.44,0,0,1,0,.13.52.52,0,0,1-.4.48L10.8,26a.62.62,0,0,1-.75-.35L5,9.48a.44.44,0,0,1,0-.13.52.52,0,0,1,.4-.48L10,7.56a.5.5,0,0,0,.19-.86A3.27,3.27,0,0,1,9.51,6h0A3.24,3.24,0,0,1,9,4.47.5.5,0,0,0,8.53,4H2A2,2,0,0,0,0,6V25a2,2,0,0,0,2,2H8.56a2.59,2.59,0,0,0,2.06,1,2.66,2.66,0,0,0,.74-.1l16.79-4.84A2.53,2.53,0,0,0,30,20.65,2.44,2.44,0,0,0,29.89,19.93Z" style="fill: #303c42"/>
  </g>
</svg>
