<svg xmlns="http://www.w3.org/2000/svg" viewBox="0 0 30 30">
  <title>Edit Note 2</title>
  <g id="Edit_Note_2" data-name="Edit Note 2">
    <g>
      <path d="M27.3,3.95,26.05,2.7a2.43,2.43,0,0,0-3.36,0l-13,13.2h0l0,0a.49.49,0,0,0-.09.14h0L7,22.31a.5.5,0,0,0,.65.65l6.25-2.5a.5.5,0,0,0,.17-.11L27.3,7.3a2.37,2.37,0,0,0,0-3.36ZM14.52,18.54l-.32-.64a.5.5,0,0,0-.22-.22l-.63-.31L23.75,7,25,8.19ZM12.32,16a.5.5,0,0,0-.45-.28H11.2L21.81,5,23,6.25,12.64,16.66Zm-2.56,5-.82-.82,1.39-3.49h1.23l.49,1,0,0a.33.33,0,0,0,.18.18l0,0,1.1.55.39.78-.3.29Z" style="fill: #303c42"/>
      <path d="M20.69,15.68a.5.5,0,0,0-.54.11l-5.34,5.28a1.49,1.49,0,0,1-.5.33l-6.25,2.5a1.51,1.51,0,0,1-1.62-.33,1.5,1.5,0,0,1-.33-1.62l2.5-6.25a1.49,1.49,0,0,1,.33-.5L20.55,3.45a.5.5,0,0,0,0-.65A2,2,0,0,0,19,2H17.5a.5.5,0,0,0-.5.5v.89a.5.5,0,0,0,.17.37,1,1,0,0,1,.33.74,1,1,0,0,1-2,0,1,1,0,0,1,.33-.74A.5.5,0,0,0,16,3.39V2.5a.5.5,0,0,0-.5-.5h-3a.5.5,0,0,0-.5.5v.89a.5.5,0,0,0,.17.37,1,1,0,0,1,.33.74,1,1,0,0,1-2,0,1,1,0,0,1,.33-.74A.5.5,0,0,0,11,3.39V2.5a.5.5,0,0,0-.5-.5h-3a.5.5,0,0,0-.5.5v.89a.5.5,0,0,0,.17.37,1,1,0,0,1,.33.74,1,1,0,0,1-2,0,1,1,0,0,1,.33-.74A.5.5,0,0,0,6,3.39V2.5A.5.5,0,0,0,5.5,2H4A2,2,0,0,0,2,4V26a2,2,0,0,0,2,2H19a2,2,0,0,0,2-2V16.14A.5.5,0,0,0,20.69,15.68Z" style="fill: #303c42"/>
    </g>
  </g>
</svg>
