<svg xmlns="http://www.w3.org/2000/svg" viewBox="0 0 30 30">
  <title>Paper Shredder</title>
  <g id="Paper_Shredder" data-name="Paper Shredder">
    <path d="M26,10H23V6.5a.5.5,0,0,0-.15-.35l-4-4A.5.5,0,0,0,18.5,2H9A2,2,0,0,0,7,4v6H4a2,2,0,0,0-2,2v6a2,2,0,0,0,2,2H7a19.55,19.55,0,0,1-1.91,5.26.5.5,0,0,0,.88.47A19.77,19.77,0,0,0,8,20H9.48A31.37,31.37,0,0,1,8,26.34a.5.5,0,0,0,.31.64l.16,0A.5.5,0,0,0,9,26.66,31.42,31.42,0,0,0,10.48,20H12a57.88,57.88,0,0,1-1,7.4.5.5,0,0,0,.39.59h.1a.5.5,0,0,0,.49-.4A57.26,57.26,0,0,0,13,20H14.5v7.5a.5.5,0,0,0,1,0V20H17a57.26,57.26,0,0,0,1,7.6.5.5,0,0,0,.49.4h.1A.5.5,0,0,0,19,27.4,57.88,57.88,0,0,1,18,20h1.51A31.42,31.42,0,0,0,21,26.66a.5.5,0,0,0,.47.34l.16,0a.5.5,0,0,0,.31-.64A31.3,31.3,0,0,1,20.52,20H22a19.77,19.77,0,0,0,2,5.74.5.5,0,1,0,.88-.47A19.52,19.52,0,0,1,23,20h3a2,2,0,0,0,2-2V12A2,2,0,0,0,26,10ZM8,4A1,1,0,0,1,9,3h9V5a2,2,0,0,0,2,2h2v3H8ZM25,14a1,1,0,1,1,1-1A1,1,0,0,1,25,14Z" style="fill: #303c42"/>
  </g>
</svg>
