<svg xmlns="http://www.w3.org/2000/svg" viewBox="0 0 30 30">
  <title>Stewardess</title>
  <g id="Stewardess">
    <g>
      <path d="M12.41,7.49A4.85,4.85,0,0,1,15,8.5a.5.5,0,0,0,.5.5.5.5,0,0,0,.5-.5,4.78,4.78,0,0,1,2.59-1,.5.5,0,0,0-.18-1A7,7,0,0,0,15.5,7.6a7,7,0,0,0-2.91-1.1.5.5,0,0,0-.18,1Z" style="fill: #303c42"/>
      <path d="M10.7,17a.5.5,0,0,0-.2,0h-1a.5.5,0,1,0,0,1,1,1,0,1,0,2,0A1,1,0,0,0,10.7,17Z" style="fill: #303c42"/>
      <path d="M21,17.5a.5.5,0,0,0-.5-.5h-1a.5.5,0,0,0-.2,0,1,1,0,0,0-.8,1,1,1,0,0,0,2,0A.5.5,0,0,0,21,17.5Z" style="fill: #303c42"/>
      <path d="M29.94,26.76c-.3-.56-.59-1.08-.86-1.56-1.61-2.88-2.58-4.62-2.58-8.74a15.78,15.78,0,0,0-2.6-8.07A1.43,1.43,0,0,0,24,7.91l-1-5.5v0C22.82.75,19,0,15.5,0S8.18.75,8,2.39v0L7,8a1.31,1.31,0,0,0,0,.24A14.36,14.36,0,0,0,4,16a14.66,14.66,0,0,1-.26,2.85h0c-.06.2-.1.41-.14.61h0a20.25,20.25,0,0,1-2.41,5.28c-.36.63-.74,1.29-1.13,2a.5.5,0,0,0,.26.7c.08,0,2.14.8,10.17,1h0a.47.47,0,0,0,.15,0A8,8,0,0,0,15,30a8,8,0,0,0,4.33-1.53.5.5,0,0,0,.17,0h0c8-.24,10.08-1,10.17-1a.5.5,0,0,0,.26-.7ZM15.5,1C19.79,1,22,2.05,22,2.5S19.79,4,15.5,4,9,2.95,9,2.5,11.21,1,15.5,1ZM8.79,3.7C10.11,4.58,12.87,5,15.5,5s5.39-.42,6.71-1.3L23,8c0,.82-2.92,2-7.5,2S8,8.82,8,8.09ZM7.34,23.26a.5.5,0,0,0-.4-.26C6,22.91,5,20.89,5,20c0-1.24.09-1.74.61-2,3-.09,9.93-3.82,12.41-7.12l.33,0c.92,3.42,3.51,7.05,6,7.16.52.26.62.76.61,2,0,.89-1,2.91-1.94,3a.5.5,0,0,0-.4.26C20.92,26.53,17.63,29,15,29S9.08,26.53,7.34,23.26Z" style="fill: #303c42"/>
    </g>
  </g>
</svg>
