<svg xmlns="http://www.w3.org/2000/svg" viewBox="0 0 30 30">
  <title>Woman 4</title>
  <g id="Woman_4" data-name="Woman 4">
    <g>
      <path d="M10.7,15.53a.5.5,0,0,0-.2,0h-1a.5.5,0,0,0,0,1,1,1,0,1,0,2,0A1,1,0,0,0,10.7,15.53Z" style="fill: #303c42"/>
      <path d="M20.5,15.49h-1a.5.5,0,0,0-.2,0,1,1,0,0,0-.8,1,1,1,0,1,0,2,0,.5.5,0,0,0,0-1Z" style="fill: #303c42"/>
      <path d="M25.63,20.52A4.52,4.52,0,0,0,26,19c0-.18,0-.36,0-.54v-6C26,7.25,22.18,0,15,0a.5.5,0,0,0-.35.14L14.3.48C7.85.6,4,6.65,4,12.49c0,1.2,0,5.58,0,5.81s0,.47,0,.7a4.52,4.52,0,0,0,.37,1.53A11.62,11.62,0,0,0,2,26.5a.5.5,0,0,0,.86.34A3,3,0,0,1,4,26.17c0,1,.05,2.75.71,3.46A1.1,1.1,0,0,0,5.5,30,.5.5,0,0,0,6,29.59s.52-2.68,1.19-5.67c2,3,5.14,5.08,7.82,5.08s5.81-2.08,7.82-5.09c.67,3,1.18,5.66,1.18,5.69a.5.5,0,0,0,.49.41,1.1,1.1,0,0,0,.82-.37c.66-.71.73-2.44.71-3.46a3,3,0,0,1,1.11.67A.5.5,0,0,0,28,26.5,11.62,11.62,0,0,0,25.63,20.52ZM15,28c-2.63,0-5.92-2.47-7.66-5.75a.5.5,0,0,0-.4-.26c-.58,0-1.17-.81-1.54-1.6h0A3.68,3.68,0,0,1,5,19c0-1.31.1-1.79.7-2a.5.5,0,0,0,.3-.46c0-3,8.41-6.35,11.93-7.46C19,9.69,24,13,24,16.49a.5.5,0,0,0,.3.46c.6.26.7.73.7,2a3.69,3.69,0,0,1-.39,1.38h0c-.37.79-1,1.56-1.55,1.6a.5.5,0,0,0-.4.26C20.92,25.53,17.63,28,15,28Z" style="fill: #303c42"/>
    </g>
  </g>
</svg>
