<svg xmlns="http://www.w3.org/2000/svg" viewBox="0 0 30 30">
  <title>Man with Beard</title>
  <g id="Man_with_Beard" data-name="Man with Beard">
    <g>
      <path d="M10.5,15a1,1,0,1,0,1,1A1,1,0,0,0,10.5,15Z" style="fill: #303c42"/>
      <path d="M19.5,15a1,1,0,1,0,1,1A1,1,0,0,0,19.5,15Z" style="fill: #303c42"/>
      <path d="M26,13.13C26,9,23.68,2,15,2a.5.5,0,0,0-.35.15l-.35.35C4.75,2.62,4,10.65,4,13.13a12.8,12.8,0,0,0,.34,2.76A4.38,4.38,0,0,0,4,18c0,1.19,1.19,3.56,2.67,3.95C8.38,25.12,10.59,28,15,28s6.62-2.88,8.33-6.05C24.81,21.56,26,19.19,26,18a4.39,4.39,0,0,0-.34-2.11A12.8,12.8,0,0,0,26,13.13ZM13.5,23.5A.5.5,0,0,1,14,23h2a.5.5,0,0,1,0,1H14A.5.5,0,0,1,13.5,23.5Zm5.88-1.11A3,3,0,0,0,16.85,21H13.15a3,3,0,0,0-2.53,1.39,20.69,20.69,0,0,1-4.61-7C6.07,13.82,8.14,11,11.5,11a10,10,0,0,0,5.67-2A7.47,7.47,0,0,1,24,15.45,20.7,20.7,0,0,1,19.38,22.39ZM5,18a3.68,3.68,0,0,1,.21-1.61l1,4.17A4.57,4.57,0,0,1,5,18Zm18.75,2.56,1-4.17A3.69,3.69,0,0,1,25,18,4.57,4.57,0,0,1,23.75,20.56Z" style="fill: #303c42"/>
    </g>
  </g>
</svg>
