<svg xmlns="http://www.w3.org/2000/svg" viewBox="0 0 30 30">
  <title>Paws</title>
  <g id="Paws">
    <g>
      <path d="M5,22.5a1.73,1.73,0,0,0,.34-1.08,2.44,2.44,0,0,0-.06-.54,2.29,2.29,0,0,0-2-1.89,1.26,1.26,0,0,0-1,.5A1.73,1.73,0,0,0,2,20.57a2.41,2.41,0,0,0,.06.54A2.29,2.29,0,0,0,4,23,1.26,1.26,0,0,0,5,22.5Z" style="fill: #303c42"/>
      <path d="M4.56,16.59A2.74,2.74,0,0,0,6.88,19a1.46,1.46,0,0,0,1.07-.45,2.2,2.2,0,0,0,.55-1.62,3.29,3.29,0,0,0-.06-.53A2.74,2.74,0,0,0,6.12,14a1.46,1.46,0,0,0-1.07.45,2.2,2.2,0,0,0-.55,1.62,3.28,3.28,0,0,0,.06.53Z" style="fill: #303c42"/>
      <path d="M12.53,23.44a7.38,7.38,0,0,1-.72-.72,2.6,2.6,0,0,1-.22-.52A2.68,2.68,0,0,0,9,20a2.68,2.68,0,0,0-2.59,2.21,2.61,2.61,0,0,1-.22.52,7.33,7.33,0,0,1-.72.72A3.42,3.42,0,0,0,4,25.9a2,2,0,0,0,.54,1.49A2.31,2.31,0,0,0,6.23,28,3,3,0,0,0,8,27.4,1.75,1.75,0,0,1,9,27a1.75,1.75,0,0,1,1,.4,3,3,0,0,0,1.75.6,2.31,2.31,0,0,0,1.69-.61A2,2,0,0,0,14,25.9,3.42,3.42,0,0,0,12.53,23.44Z" style="fill: #303c42"/>
      <path d="M14.65,19a2.29,2.29,0,0,0-2,1.89,2.46,2.46,0,0,0-.06.54A1.73,1.73,0,0,0,13,22.5a1.26,1.26,0,0,0,1,.5,2.29,2.29,0,0,0,2-1.89,2.41,2.41,0,0,0,.06-.54,1.73,1.73,0,0,0-.34-1.08A1.26,1.26,0,0,0,14.65,19Z" style="fill: #303c42"/>
      <path d="M11.12,19a2.74,2.74,0,0,0,2.32-2.41h0a3.28,3.28,0,0,0,.06-.52,2.2,2.2,0,0,0-.55-1.62A1.46,1.46,0,0,0,11.88,14a2.74,2.74,0,0,0-2.32,2.41,3.28,3.28,0,0,0-.06.52,2.2,2.2,0,0,0,.55,1.62A1.46,1.46,0,0,0,11.12,19Z" style="fill: #303c42"/>
      <path d="M16,11a1.26,1.26,0,0,0,1-.5,1.73,1.73,0,0,0,.34-1.08,2.44,2.44,0,0,0-.06-.54,2.29,2.29,0,0,0-2-1.89,1.26,1.26,0,0,0-1,.5A1.73,1.73,0,0,0,14,8.57a2.41,2.41,0,0,0,.06.54A2.29,2.29,0,0,0,16,11Z" style="fill: #303c42"/>
      <path d="M16.56,4.59A2.74,2.74,0,0,0,18.88,7a1.46,1.46,0,0,0,1.07-.45,2.2,2.2,0,0,0,.55-1.62,3.29,3.29,0,0,0-.06-.53A2.74,2.74,0,0,0,18.12,2a1.46,1.46,0,0,0-1.07.45,2.2,2.2,0,0,0-.55,1.62,3.28,3.28,0,0,0,.06.53Z" style="fill: #303c42"/>
      <path d="M24.53,11.44a7.38,7.38,0,0,1-.72-.72,2.6,2.6,0,0,1-.22-.52,2.62,2.62,0,0,0-5.17,0,2.61,2.61,0,0,1-.22.52,7.33,7.33,0,0,1-.72.72A3.42,3.42,0,0,0,16,13.9a2,2,0,0,0,.54,1.49,2.31,2.31,0,0,0,1.69.61A3,3,0,0,0,20,15.4a1.51,1.51,0,0,1,2,0,3,3,0,0,0,1.75.6,2.31,2.31,0,0,0,1.69-.61A2,2,0,0,0,26,13.9,3.42,3.42,0,0,0,24.53,11.44Z" style="fill: #303c42"/>
      <path d="M27.66,7.5a1.26,1.26,0,0,0-1-.5,2.29,2.29,0,0,0-2,1.89,2.46,2.46,0,0,0-.06.54A1.73,1.73,0,0,0,25,10.5a1.26,1.26,0,0,0,1,.5,2.29,2.29,0,0,0,2-1.89A2.41,2.41,0,0,0,28,8.57,1.73,1.73,0,0,0,27.66,7.5Z" style="fill: #303c42"/>
      <path d="M23.12,7a2.74,2.74,0,0,0,2.32-2.41h0a3.28,3.28,0,0,0,.06-.52,2.2,2.2,0,0,0-.55-1.62A1.46,1.46,0,0,0,23.88,2a2.74,2.74,0,0,0-2.32,2.41,3.28,3.28,0,0,0-.06.52,2.2,2.2,0,0,0,.55,1.62A1.46,1.46,0,0,0,23.12,7Z" style="fill: #303c42"/>
    </g>
  </g>
</svg>
