<svg xmlns="http://www.w3.org/2000/svg" viewBox="0 0 30 30">
  <title>Image Folder 1</title>
  <g id="Image_Folder_1" data-name="Image Folder 1">
    <g>
      <circle cx="11" cy="15" r="2" style="fill: #303c42"/>
      <path d="M29.62,10.83A2,2,0,0,0,28,10H26V8a2,2,0,0,0-2-2H11.71L9.85,4.15A.5.5,0,0,0,9.5,4H2A2,2,0,0,0,0,6V24s0,0,0,0a2,2,0,0,0,2,2H24.38a2,2,0,0,0,1.91-1.42l3.6-11.94A2,2,0,0,0,29.62,10.83Zm-.68,1.5L25.49,23.79l-7.64-7.64a.5.5,0,0,0-.71,0l-4.09,4.09a.5.5,0,0,0,0,.71l.5.5a.5.5,0,0,1,0,.71.51.51,0,0,1-.71,0l-3.5-3.5A.46.46,0,0,0,9,18.5a.5.5,0,0,0-.35.15C6.31,21,2.81,24.54,2.33,25H2a1,1,0,0,1-1-1.3l4.59-12A1,1,0,0,1,6.58,11H28a1,1,0,0,1,.94,1.33Z" style="fill: #303c42"/>
    </g>
  </g>
</svg>
