<svg xmlns="http://www.w3.org/2000/svg" viewBox="0 0 30 30">
  <title>Macro</title>
  <g id="Macro">
    <g>
      <path d="M27.7,14a.5.5,0,0,0-.54.09L17,23.37V16a5.51,5.51,0,0,0,5-5.48v-8a.5.5,0,0,0-.85-.35L18.47,4.82l-3.15-2.7a.5.5,0,0,0-.65,0l-3.15,2.7L8.85,2.15A.5.5,0,0,0,8,2.5v8A5.51,5.51,0,0,0,13,16V27.5a.5.5,0,0,0,.5.5h6A8.51,8.51,0,0,0,28,19.5v-5A.5.5,0,0,0,27.7,14Z" style="fill: #303c42"/>
      <path d="M2.83,14.13A.5.5,0,0,0,2,14.5v5A8.51,8.51,0,0,0,10.5,28h1a.5.5,0,0,0,.5-.5v-5a.5.5,0,0,0-.17-.37Z" style="fill: #303c42"/>
    </g>
  </g>
</svg>
