<svg xmlns="http://www.w3.org/2000/svg" viewBox="0 0 30 30">
  <title>Image Location</title>
  <g id="Image_Location" data-name="Image Location">
    <g>
      <path d="M26,6H22.74a1.49,1.49,0,0,1-1.34-.83L20.5,3.38A2.49,2.49,0,0,0,18.26,2H11.74A2.49,2.49,0,0,0,9.5,3.38L8.61,5.17A1.49,1.49,0,0,1,7.26,6H4A2,2,0,0,0,2,8V22a2,2,0,0,0,2,2h6.31l4.36,3.87a.5.5,0,0,0,.66,0L19.69,24H26a2,2,0,0,0,2-2V8A2,2,0,0,0,26,6ZM15,20a6,6,0,1,1,6-6A6,6,0,0,1,15,20ZM25,10a1,1,0,1,1,1-1A1,1,0,0,1,25,10Z" style="fill: #303c42"/>
      <circle cx="15" cy="14" r="5" style="fill: #303c42"/>
    </g>
  </g>
</svg>
