<svg xmlns="http://www.w3.org/2000/svg" viewBox="0 0 30 30">
  <title>Camera Iris 1</title>
  <g id="Camera_Iris_1" data-name="Camera Iris 1">
    <g>
      <path d="M28,7H22.74a1.49,1.49,0,0,1-1.34-.83L20.5,4.38A2.49,2.49,0,0,0,18.26,3H11.74A2.49,2.49,0,0,0,9.5,4.38L8.61,6.17A1.49,1.49,0,0,1,7.26,7H2A2,2,0,0,0,0,9V25a2,2,0,0,0,2,2H28a2,2,0,0,0,2-2V9A2,2,0,0,0,28,7ZM15,26A10,10,0,1,1,25,16,10,10,0,0,1,15,26ZM26,12a1,1,0,1,1,1-1A1,1,0,0,1,26,12Z" style="fill: #303c42"/>
      <path d="M18.32,13.25a.5.5,0,0,0,0,.5l3.75,6.49a.5.5,0,0,0,.43.25h0a.5.5,0,0,0,.43-.26,9,9,0,0,0,.66-6.88.5.5,0,0,0-.48-.35H18.75A.5.5,0,0,0,18.32,13.25Z" style="fill: #303c42"/>
      <path d="M17,7.23a.5.5,0,0,0-.54.24l-2.18,3.78a.5.5,0,0,0,.43.75H22.2a.5.5,0,0,0,.42-.77A9.05,9.05,0,0,0,17,7.23Z" style="fill: #303c42"/>
      <path d="M15.72,20.25a.5.5,0,0,0-.43-.25H7.8a.5.5,0,0,0-.42.77,9.05,9.05,0,0,0,5.62,4h.11a.5.5,0,0,0,.43-.25l2.18-3.78A.5.5,0,0,0,15.72,20.25Z" style="fill: #303c42"/>
      <path d="M10.53,14.25a.5.5,0,0,0,.87,0l3.74-6.48a.5.5,0,0,0,0-.51A.49.49,0,0,0,14.69,7,8.93,8.93,0,0,0,8.41,9.88a.5.5,0,0,0-.07.59Z" style="fill: #303c42"/>
      <path d="M19.47,17.75a.52.52,0,0,0-.87,0l-3.74,6.48a.5.5,0,0,0,.43.75h0a8.93,8.93,0,0,0,6.27-2.87.5.5,0,0,0,.07-.59Z" style="fill: #303c42"/>
      <path d="M11.68,18.75a.5.5,0,0,0,0-.5L7.93,11.76a.49.49,0,0,0-.44-.25.5.5,0,0,0-.43.26,9,9,0,0,0-.66,6.88.5.5,0,0,0,.48.35h4.38A.5.5,0,0,0,11.68,18.75Z" style="fill: #303c42"/>
    </g>
  </g>
</svg>
