<svg xmlns="http://www.w3.org/2000/svg" viewBox="0 0 30 30">
  <title>Dog House</title>
  <g id="Dog_House" data-name="Dog House">
    <path d="M27.83,13.12l-12.5-11a.5.5,0,0,0-.66,0l-12.5,11A.5.5,0,0,0,2.5,14H4.05L5.42,26.22a2,2,0,0,0,2,1.78H10a.5.5,0,0,0,.5-.56L9.69,21a5.36,5.36,0,1,1,10.63,0l-.8,6.42A.5.5,0,0,0,20,28h2.58a2,2,0,0,0,2-1.78L25.95,14H27.5a.5.5,0,0,0,.33-.88ZM15.33,7.34a1,1,0,0,1,1.26-.64.92.92,0,0,1,.57.48,1,1,0,0,1,0,.8,1.07,1.07,0,0,1-1,.68,1,1,0,0,1-.28,0,.92.92,0,0,1-.57-.48A1,1,0,0,1,15.33,7.34Zm-2.57-.16a.92.92,0,0,1,.57-.48,1.05,1.05,0,0,1,1.26.64,1,1,0,0,1,0,.8.92.92,0,0,1-.57.48,1,1,0,0,1-.28,0,1.07,1.07,0,0,1-1-.68A1,1,0,0,1,12.77,7.18ZM11.55,10h0A1,1,0,1,1,12.9,8.63,1,1,0,0,1,13,10a.91.91,0,0,1-.65.26A1.09,1.09,0,0,1,11.55,10Zm5.92,1.72A1.66,1.66,0,0,1,15,12.77a1.72,1.72,0,0,1-1.23.18,1.64,1.64,0,0,1-1.25-1.26A1.57,1.57,0,0,1,13.45,10a1.7,1.7,0,0,1,.69-1.19A1.51,1.51,0,0,1,15,8.5h0a1.51,1.51,0,0,1,.86.26,1.44,1.44,0,0,1,.63,1.12A1.67,1.67,0,0,1,17.47,11.69Zm1-1.72h0a1.09,1.09,0,0,1-.76.32.91.91,0,0,1-.65-.26,1,1,0,0,1,1.47-1.48A1,1,0,0,1,18.46,10Z" style="fill: #303c42"/>
  </g>
</svg>
