<svg xmlns="http://www.w3.org/2000/svg" viewBox="0 0 30 30">
  <title>Post Office</title>
  <g id="Post_Office" data-name="Post Office">
    <path d="M26.79,8.09l-11.5-8a.5.5,0,0,0-.57,0l-11.5,8A.5.5,0,0,0,3.5,9H4V28a2,2,0,0,0,2,2H9.5a.5.5,0,0,0,.5-.5v-11a.5.5,0,0,1,.5-.5h9a.5.5,0,0,1,.5.5v11a.5.5,0,0,0,.5.5H24a2,2,0,0,0,2-2V9h.5a.5.5,0,0,0,.29-.91ZM20,13.5A1.5,1.5,0,0,1,18.5,15h-7A1.5,1.5,0,0,1,10,13.5V10.86a.5.5,0,0,1,.81-.39l2.56,2A3,3,0,0,0,15,13a3,3,0,0,0,1.72-.54l2.49-1.8a.5.5,0,0,1,.79.4ZM19.79,9l-3.64,2.64A2.13,2.13,0,0,1,15,12a1.89,1.89,0,0,1-1-.27l0,0-3.71-3A.5.5,0,0,1,10,8.24,1.49,1.49,0,0,1,11.5,7h7A1.5,1.5,0,0,1,20,8.5.68.68,0,0,1,19.79,9Z" style="fill: #303c42"/>
  </g>
</svg>
