<svg xmlns="http://www.w3.org/2000/svg" viewBox="0 0 30 30">
  <title>Presentation</title>
  <g id="Presentation">
    <g>
      <rect x="6" y="12" width="4" height="5" rx="0.5" ry="0.5" style="fill: #303c42"/>
      <rect x="13" y="9" width="4" height="8" rx="0.5" ry="0.5" style="fill: #303c42"/>
      <rect x="20" y="6" width="4" height="11" rx="0.5" ry="0.5" style="fill: #303c42"/>
      <path d="M27,2H3A1,1,0,0,0,2,3V19a2,2,0,0,0,2,2H14.5v5.15A1,1,0,0,0,14,27a1,1,0,0,0,2,0,1,1,0,0,0-.5-.85V21H26a2,2,0,0,0,2-2V3A1,1,0,0,0,27,2ZM4,19V4H26V19Z" style="fill: #303c42"/>
    </g>
  </g>
</svg>
