<svg xmlns="http://www.w3.org/2000/svg" viewBox="0 0 30 30">
  <title>Earthquake</title>
  <g id="Earthquake">
    <g>
      <path d="M11.41,13.21a.5.5,0,0,0-.12-.12l-5-3.55a.5.5,0,0,0-.61,0L.18,14.11A.5.5,0,0,0,.5,15H4V27.5a.5.5,0,0,0,.5.5h6a.5.5,0,0,0,.5-.5V16h1.43a.5.5,0,0,0,.41-.79Z" style="fill: #303c42"/>
      <path d="M29.82,14.11l-14.5-12a.5.5,0,0,0-.64,0L9.18,6.67a.5.5,0,0,0,0,.78l4.9,3.87,1.45,3.38.06.1.75,1a.5.5,0,0,0,.4.2H19v1.75a.5.5,0,0,0,.23.42l1.9,1.19,2.64,4.29-4-2.85a.5.5,0,0,0-.79.41V27.5a.5.5,0,0,0,.5.5h6a.5.5,0,0,0,.5-.5V15h3.5a.5.5,0,0,0,.32-.89Z" style="fill: #303c42"/>
    </g>
  </g>
</svg>
