<svg xmlns="http://www.w3.org/2000/svg" viewBox="0 0 30 30">
  <title>House 1</title>
  <g id="House_1" data-name="House 1">
    <g>
      <path d="M29.82,14.11,26,11V4.5a.5.5,0,0,0-.5-.5h-4a.5.5,0,0,0-.5.5V6.82l-5.68-4.7a.5.5,0,0,0-.64,0l-14.5,12a.5.5,0,0,0-.07.7l2,2.5a.5.5,0,0,0,.34.19.49.49,0,0,0,.37-.11L15,7.15,27.18,17.38a.5.5,0,0,0,.32.12h0a.5.5,0,0,0,.34-.19l2-2.5A.5.5,0,0,0,29.82,14.11Z" style="fill: #303c42"/>
      <path d="M15.32,8.73a.5.5,0,0,0-.64,0L4.18,17.55a.5.5,0,0,0-.18.38V27.5a.5.5,0,0,0,.5.5h6a.5.5,0,0,0,.5-.5V17h8V27.5a.5.5,0,0,0,.5.5h6a.5.5,0,0,0,.5-.5V17.93a.5.5,0,0,0-.18-.38Z" style="fill: #303c42"/>
    </g>
  </g>
</svg>
