<svg xmlns="http://www.w3.org/2000/svg" viewBox="0 0 30 30">
  <title>Recycle PET</title>
  <g id="Recycle_PET" data-name="Recycle PET">
    <g>
      <path d="M18,12.5h1.5V18a.5.5,0,0,0,1,0V12.5H22a.5.5,0,0,0,0-1H18a.5.5,0,0,0,0,1Z" style="fill: #303c42"/>
      <path d="M13,12v6a.5.5,0,0,0,.5.5h3a.5.5,0,0,0,0-1H14v-2h2a.5.5,0,0,0,0-1H14v-2h2.5a.5.5,0,0,0,0-1h-3A.5.5,0,0,0,13,12Z" style="fill: #303c42"/>
      <path d="M10,11.5H8.5A.5.5,0,0,0,8,12v6a.5.5,0,0,0,1,0V15.5h1a2,2,0,0,0,0-4Zm0,3H9v-2h1a1,1,0,0,1,0,2Z" style="fill: #303c42"/>
      <path d="M20.59,1.22,20.12,1a.5.5,0,0,0-.65.28l-.37.93a.5.5,0,0,0,.28.65l.46.19a12.84,12.84,0,0,1,8,14.07H25.5a.5.5,0,0,0-.48.65l1.72,5.29a.5.5,0,0,0,.41.34h.06a.5.5,0,0,0,.42-.23,14.88,14.88,0,0,0,1.86-4.29h0A15,15,0,0,0,20.59,1.22Z" style="fill: #303c42"/>
      <path d="M24,25a.5.5,0,0,0-.7-.08l-.39.31a12.84,12.84,0,0,1-16.18-.12l1.16-2a.5.5,0,0,0-.33-.74L2.1,21.18a.5.5,0,0,0-.5.19l0,.05a.5.5,0,0,0,0,.48,14.88,14.88,0,0,0,2.78,3.75v0a15,15,0,0,0,19.78,1.11l.39-.31a.5.5,0,0,0,.08-.7Z" style="fill: #303c42"/>
      <path d="M2.21,17.32l-.07-.5A12.84,12.84,0,0,1,10.33,2.88l1.16,2a.5.5,0,0,0,.8.08L16,.85A.5.5,0,0,0,16.1.32l0-.06A.5.5,0,0,0,15.66,0,14.88,14.88,0,0,0,11,.55h0A15,15,0,0,0,.16,17.12l.07.49A.5.5,0,0,0,.79,18l1-.14A.5.5,0,0,0,2.21,17.32Z" style="fill: #303c42"/>
    </g>
  </g>
</svg>
