<svg xmlns="http://www.w3.org/2000/svg" viewBox="0 0 30 30">
  <title>Recycle 1</title>
  <g id="Recycle_1" data-name="Recycle 1">
    <g>
      <path d="M12.5,19H8.22l1.49-2.83,1.56.78a.5.5,0,0,0,.69-.62l-2.5-7A.5.5,0,0,0,9,9H.5a.5.5,0,0,0-.31.89l2.19,1.76L.28,16.21a2.66,2.66,0,0,0,.12,2.6L5,26.16A4.28,4.28,0,0,0,8.5,28h4a.5.5,0,0,0,.5-.5v-8A.5.5,0,0,0,12.5,19Z" style="fill: #303c42"/>
      <path d="M5.31,6l6.93,3.78a.5.5,0,0,0,.65-.15l2.92-4.09,1.61,2.34-2,1a.5.5,0,0,0,.13.94l6.93,1.26h.09a.5.5,0,0,0,.47-.32L26,3.18a.5.5,0,0,0-.71-.62L23.36,3.62,21.84,1.35A3,3,0,0,0,19.33,0H11.85a5.08,5.08,0,0,0-4,1.64l-2.7,3.6A.5.5,0,0,0,5.31,6Z" style="fill: #303c42"/>
      <path d="M29.71,16.19,26.81,11a.5.5,0,0,0-.68-.19L20.5,13.93a.5.5,0,0,0-.18.7L23,19H20V17.5a.5.5,0,0,0-.88-.32l-5,6a.5.5,0,0,0,0,.64l5,6A.5.5,0,0,0,20,29.5V28h1.29a4.25,4.25,0,0,0,3.5-1.86l4.81-7.33A2.67,2.67,0,0,0,29.71,16.19Z" style="fill: #303c42"/>
    </g>
  </g>
</svg>
