<svg xmlns="http://www.w3.org/2000/svg" viewBox="0 0 30 30">
  <title>Recycle Bin 1</title>
  <g id="Recycle_Bin_1" data-name="Recycle Bin 1">
    <g>
      <path d="M24.26,6H5.74a.5.5,0,0,0-.5.56l1.68,14a.5.5,0,0,0,.55.44L8,21a5,5,0,0,1,3.86,8.18.5.5,0,0,0,.39.82h7.93a2,2,0,0,0,2-1.76l2.6-21.68a.5.5,0,0,0-.5-.56ZM10.5,15.5h0a.49.49,0,0,1-.21,0l0,0a.49.49,0,0,1-.12-.1l0,0,0-.05a.48.48,0,0,1,0-.09.48.48,0,0,1,0-.1A.47.47,0,0,1,10,15s0,0,0-.06v0a5,5,0,0,1,9.14-2.72.5.5,0,1,1-.83.56A4,4,0,0,0,12,12.33l.81.81,0,0,0,0a.49.49,0,0,1,.06.13l0,0a.49.49,0,0,1,0,.23s0,0,0,0l0,0a.48.48,0,0,1-.08.15l-.05.06,0,0-2,1.5h0A.49.49,0,0,1,10.5,15.5ZM20,15.06v0a5,5,0,0,1-9.14,2.72.5.5,0,0,1,.83-.56,4,4,0,0,0,6.28.43l-.81-.81,0,0,0,0a.47.47,0,0,1,0-.08l0-.07a.48.48,0,0,1,0-.15.48.48,0,0,1,0,0h0a.5.5,0,0,1,.06-.2l0,0a.49.49,0,0,1,.1-.12l2-1.5.05,0,.09,0,.1,0h.09l.1,0,.09,0,.07,0,.08.07,0,0,0,.05a.48.48,0,0,1,0,.09.48.48,0,0,1,0,.1A.47.47,0,0,1,20,15S20,15,20,15.06Z" style="fill: #303c42"/>
      <path d="M8,22a4,4,0,1,0,4,4A4,4,0,0,0,8,22Zm0,4.5a.5.5,0,1,1,.5-.5A.5.5,0,0,1,8,26.5Z" style="fill: #303c42"/>
      <path d="M24,0H6A2,2,0,0,0,4,2V4.5a.5.5,0,0,0,.5.5h21a.5.5,0,0,0,.5-.5V2A2,2,0,0,0,24,0Z" style="fill: #303c42"/>
    </g>
  </g>
</svg>
