<svg xmlns="http://www.w3.org/2000/svg" viewBox="0 0 30 30">
  <title>Reflect Vertical</title>
  <g id="Reflect_Vertical" data-name="Reflect Vertical">
    <g>
      <path d="M5,8a1,1,0,0,0,.72-.3A12.62,12.62,0,0,1,21.63,6.16l-1,1A.5.5,0,0,0,21,8h3.5a.5.5,0,0,0,.5-.5V4a.5.5,0,0,0-.85-.35L23.07,4.72A14.53,14.53,0,0,0,4.28,6.3,1,1,0,0,0,5,8Z" style="fill: #303c42"/>
      <path d="M2.85,7.15A.5.5,0,0,0,2,7.5v20a.5.5,0,0,0,.31.46.5.5,0,0,0,.19,0,.5.5,0,0,0,.35-.15l10-10a.5.5,0,0,0,0-.71Z" style="fill: #303c42"/>
      <path d="M27.69,7a.5.5,0,0,0-.54.11l-10,10a.5.5,0,0,0,0,.71l10,10a.5.5,0,0,0,.35.15.5.5,0,0,0,.19,0A.5.5,0,0,0,28,27.5V7.5A.5.5,0,0,0,27.69,7Z" style="fill: #303c42"/>
      <path d="M15,25a1,1,0,0,0-1,1v1a1,1,0,0,0,2,0V26A1,1,0,0,0,15,25Z" style="fill: #303c42"/>
      <path d="M15,11.11a1,1,0,0,0-1,1v2.32a1,1,0,0,0,2,0V12.11A1,1,0,0,0,15,11.11Z" style="fill: #303c42"/>
      <path d="M15,18.08a1,1,0,0,0-1,1V21.4a1,1,0,0,0,2,0V19.08A1,1,0,0,0,15,18.08Z" style="fill: #303c42"/>
      <path d="M15,5.47a1,1,0,0,0-1,1v1a1,1,0,0,0,2,0v-1A1,1,0,0,0,15,5.47Z" style="fill: #303c42"/>
    </g>
  </g>
</svg>
