<svg xmlns="http://www.w3.org/2000/svg" viewBox="0 0 30 30">
  <title>Virus</title>
  <g id="Virus">
    <path d="M27.35,11.51h.19a.5.5,0,1,0-.09-1,1.13,1.13,0,0,1-.75-.22,2.05,2.05,0,0,0-1-.33,7.86,7.86,0,0,0-1-2.29H25a2.08,2.08,0,0,0,1.29-.28.5.5,0,1,0-.52-.86,1.11,1.11,0,0,1-.73.14,2,2,0,0,0-1,.14,8,8,0,0,0-1.9-1.63l.25-.12a2,2,0,0,0,1-.82.5.5,0,1,0-.84-.55,1.07,1.07,0,0,1-.6.44,2,2,0,0,0-.81.55A7.84,7.84,0,0,0,18.84,4a2.1,2.1,0,0,1,.18-.3,2.45,2.45,0,0,0,.48-1.18.5.5,0,1,0-1-.12,1.48,1.48,0,0,1-.31.74A2.3,2.3,0,0,0,17.8,4a8.3,8.3,0,0,0-2.45.46,2,2,0,0,1,.07-.27,2,2,0,0,0,0-1.33.5.5,0,0,0-1,.31,1.07,1.07,0,0,1,0,.74,2,2,0,0,0-.09,1,8.12,8.12,0,0,0-2,1.45,2.31,2.31,0,0,1-.06-.27,2.09,2.09,0,0,0-.55-1.22.5.5,0,1,0-.73.68,1.12,1.12,0,0,1,.3.7,2,2,0,0,0,.33.91,7.68,7.68,0,0,0-1.19,2.18,2.14,2.14,0,0,1-.18-.23,2.08,2.08,0,0,0-1-.84.5.5,0,0,0-.36.93,1.1,1.1,0,0,1,.56.49,2,2,0,0,0,.71.67A7.51,7.51,0,0,0,10,11.79,9.92,9.92,0,0,1,9.93,13l-.1-.11a2,2,0,0,0-1.31-.69.5.5,0,1,0-.12,1,1,1,0,0,1,.71.39,2.91,2.91,0,0,0,.61.5,1.76,1.76,0,0,1-.45.91,5,5,0,0,0-2.08.45,2,2,0,0,1,0-.3,2.14,2.14,0,0,0-.1-1.3.5.5,0,1,0-.92.38,1.16,1.16,0,0,1,0,.74,1.9,1.9,0,0,0,0,1A5.5,5.5,0,0,0,4.7,17.8a2,2,0,0,1-.15-.26,2.12,2.12,0,0,0-.86-1,.5.5,0,1,0-.51.86,1.14,1.14,0,0,1,.48.57,1.92,1.92,0,0,0,.62.79A5.81,5.81,0,0,0,4,20.56a5.48,5.48,0,0,0,0,.55L3.82,21a1.89,1.89,0,0,0-1.36-.47.5.5,0,1,0,.08,1,.93.93,0,0,1,.69.27,1.83,1.83,0,0,0,1,.43,5.44,5.44,0,0,0,1.23,2.08l-.29.06a2.12,2.12,0,0,0-1.2.51.5.5,0,0,0,.66.75,1.15,1.15,0,0,1,.69-.28A1.92,1.92,0,0,0,6.28,25a5.41,5.41,0,0,0,2.2.93,2.28,2.28,0,0,1-.26.3,2.28,2.28,0,0,0-.71,1.19.5.5,0,0,0,.38.59H8a.5.5,0,0,0,.49-.4,1.32,1.32,0,0,1,.45-.7A2.18,2.18,0,0,0,9.54,26a25.8,25.8,0,0,0,3.36-.23,2.52,2.52,0,0,1-.12.24,2,2,0,0,0-.3,1.32.5.5,0,0,0,.5.44H13a.5.5,0,0,0,.43-.56,1,1,0,0,1,.18-.72,2.09,2.09,0,0,0,.3-.9A19.71,19.71,0,0,0,16.5,25a2.58,2.58,0,0,1-.07.25,2.05,2.05,0,0,0,0,1.37.5.5,0,0,0,.48.35l.15,0a.5.5,0,0,0,.33-.63,1.07,1.07,0,0,1,0-.77,2.09,2.09,0,0,0,.13-.93,15.24,15.24,0,0,0,2.34-1.17,2.16,2.16,0,0,1,0,.28A2,2,0,0,0,20.1,25a.5.5,0,0,0,.86-.51,1,1,0,0,1-.12-.73,2,2,0,0,0-.1-1,12.71,12.71,0,0,0,1.92-1.7,2.35,2.35,0,0,1,.07.27,2.09,2.09,0,0,0,.63,1.21.5.5,0,1,0,.69-.73,1.1,1.1,0,0,1-.34-.69,2.06,2.06,0,0,0-.36-.88,12.15,12.15,0,0,0,1.33-2.21,2.06,2.06,0,0,1,.15.25,2,2,0,0,0,.94,1,.5.5,0,1,0,.44-.9,1,1,0,0,1-.5-.54,2,2,0,0,0-.62-.75,13.72,13.72,0,0,0,.67-2.49l.19.18a2,2,0,0,0,1.18.68h.09a.5.5,0,0,0,.09-1,1.06,1.06,0,0,1-.65-.39,2.1,2.1,0,0,0-.75-.54C26,13,26,12.48,26,11.91a7.94,7.94,0,0,0-.05-.9l.26.13A2.15,2.15,0,0,0,27.35,11.51ZM9,23a2,2,0,1,1,2-2A2,2,0,0,1,9,23Zm6-1a2,2,0,1,1,2-2A2,2,0,0,1,15,22Zm3-6a4,4,0,1,1,4-4A4,4,0,0,1,18,16Z" style="fill: #303c42"/>
  </g>
</svg>
