<svg xmlns="http://www.w3.org/2000/svg" viewBox="0 0 30 30">
  <title>Key</title>
  <g id="Key">
    <path d="M27.08,2.93A10,10,0,0,0,10.24,12.1l-1.13.56a.5.5,0,0,0-.13.8l.91.91-.76.76H8.07a.5.5,0,0,0-.5.5v1.05l-1,1H5.55a.5.5,0,0,0-.5.5v1.05l-1,1H3a.5.5,0,0,0-.5.5v1.05L.15,24.1a.5.5,0,0,0-.15.35v5a.5.5,0,0,0,.5.5h5a.5.5,0,0,0,.35-.15l9.73-9.73.91.91a.49.49,0,0,0,.43.14.5.5,0,0,0,.37-.27l.56-1.13A10,10,0,0,0,27.08,2.93ZM13.86,16.85l-9,9a.5.5,0,0,1-.71-.71l9-9a.5.5,0,0,1,.71.71ZM23,10a3,3,0,1,1,3-3A3,3,0,0,1,23,10Z" style="fill: #303c42"/>
  </g>
</svg>
