<svg xmlns="http://www.w3.org/2000/svg" viewBox="0 0 30 30">
  <title>Send Invoice</title>
  <g id="Send_Invoice" data-name="Send Invoice">
    <path d="M28,11.48a.49.49,0,0,0-.07-.24l0,0a.49.49,0,0,0-.1-.11L25,9V6a2,2,0,0,0-2-2H18.4L16.6,2.64a2.36,2.36,0,0,0-3.16,0L11.6,4H7A2,2,0,0,0,5,6V9L2.2,11.11a.49.49,0,0,0-.1.11l0,0a.49.49,0,0,0-.07.24V26a2,2,0,0,0,2,2H26a2,2,0,0,0,2-2V11.48ZM21.5,8a.5.5,0,0,1,0,1h-6a.5.5,0,0,1,0-1Zm.5,4.5a.5.5,0,0,1-.5.5h-6a.5.5,0,0,1,0-1h6A.5.5,0,0,1,22,12.5ZM14.07,3.39A1.43,1.43,0,0,1,15,3a1.48,1.48,0,0,1,1,.41l.78.59H13.26ZM13,16h4a.5.5,0,0,1,0,1H13a.5.5,0,0,1,0-1Zm-3-5.5A1.89,1.89,0,0,1,8,8.75,1.81,1.81,0,0,1,9.5,7.07V6.5a.5.5,0,1,1,1,0V7h1a.5.5,0,0,1,0,1H10c-.54,0-1,.34-1,.75s.46.75,1,.75a1.89,1.89,0,0,1,2,1.75,1.81,1.81,0,0,1-1.5,1.69v.56a.5.5,0,1,1-1,0V13h-1a.5.5,0,0,1,0-1H10c.54,0,1-.34,1-.75S10.54,10.51,10,10.51Zm6,10.12a1.34,1.34,0,0,1-1.9,0L3.3,11.53,5,10.24v1.18a.5.5,0,0,0,.18.38l9.52,8a.42.42,0,0,0,.59,0l9.53-8.07a.5.5,0,0,0,.18-.38V10.24l1.7,1.28Z" style="fill: #303c42"/>
  </g>
</svg>
