<svg xmlns="http://www.w3.org/2000/svg" viewBox="0 0 30 30">
  <title>Server Settings</title>
  <g id="Server_Settings" data-name="Server Settings">
    <g>
      <path d="M8.86,14.63a.5.5,0,0,0,.17-.4c0-.05,0-.11,0-.24a5,5,0,0,1,10-.46.5.5,0,0,0,.5.46h6a.5.5,0,0,0,.5-.5V11.7a.5.5,0,0,0-.38-.48L23,10.57c-.07-.18-.14-.36-.22-.53l1.37-2.28a.5.5,0,0,0-.08-.61L20.86,3.89a.5.5,0,0,0-.61-.08L18,5.18,17.43,5l-.65-2.59A.5.5,0,0,0,16.3,2H11.7a.5.5,0,0,0-.48.38L10.57,5,10,5.18,7.75,3.81a.5.5,0,0,0-.61.08L3.89,7.14a.5.5,0,0,0-.08.61L5.18,10c-.08.17-.15.35-.22.53l-2.59.65A.5.5,0,0,0,2,11.7v4.6a.5.5,0,0,0,.38.48L5,17.43c.07.18.14.36.22.53L3.81,20.25a.5.5,0,0,0,.08.61l3.25,3.25a.5.5,0,0,0,.35.14.51.51,0,0,0,.21,0A.5.5,0,0,0,8,23.76V23.5a2.49,2.49,0,0,1,.65-1.67.5.5,0,0,0,0-.67A2.49,2.49,0,0,1,8,19.5v-3A2.5,2.5,0,0,1,8.86,14.63Z" style="fill: #303c42"/>
      <path d="M26.5,15h-16A1.5,1.5,0,0,0,9,16.5v3A1.5,1.5,0,0,0,10.5,21h16A1.5,1.5,0,0,0,28,19.5v-3A1.5,1.5,0,0,0,26.5,15ZM12,18.5a.5.5,0,0,1-1,0v-1a.5.5,0,0,1,1,0Zm2,0a.5.5,0,0,1-1,0v-1a.5.5,0,0,1,1,0Zm2,0a.5.5,0,0,1-1,0v-1a.5.5,0,0,1,1,0Zm6,.5a1,1,0,1,1,1-1A1,1,0,0,1,22,19Zm3,0a1,1,0,1,1,1-1A1,1,0,0,1,25,19Z" style="fill: #303c42"/>
      <path d="M26.5,22h-16A1.5,1.5,0,0,0,9,23.5v3A1.5,1.5,0,0,0,10.5,28h16A1.5,1.5,0,0,0,28,26.5v-3A1.5,1.5,0,0,0,26.5,22ZM12,25.5a.5.5,0,0,1-1,0v-1a.5.5,0,0,1,1,0Zm2,0a.5.5,0,0,1-1,0v-1a.5.5,0,0,1,1,0Zm2,0a.5.5,0,0,1-1,0v-1a.5.5,0,0,1,1,0Zm6,.5a1,1,0,1,1,1-1A1,1,0,0,1,22,26Zm3,0a1,1,0,1,1,1-1A1,1,0,0,1,25,26Z" style="fill: #303c42"/>
    </g>
  </g>
</svg>
