<svg xmlns="http://www.w3.org/2000/svg" viewBox="0 0 30 30">
  <title>Gear 2</title>
  <g id="Gear_2" data-name="Gear 2">
    <path d="M26.08,16.64a10.45,10.45,0,0,0,0-3.29l3.24-2.71a.5.5,0,0,0,.11-.63l-2.9-5a.5.5,0,0,0-.6-.22L22,6.22a11.16,11.16,0,0,0-2.85-1.64L18.39.41A.5.5,0,0,0,17.89,0h-5.8a.5.5,0,0,0-.49.41l-.73,4.16A11.16,11.16,0,0,0,8,6.22l-4-1.45a.5.5,0,0,0-.6.22L.55,10a.5.5,0,0,0,.11.63l3.24,2.71a10.45,10.45,0,0,0,0,3.29L.66,19.35A.5.5,0,0,0,.55,20l2.9,5a.5.5,0,0,0,.6.22l4-1.45a11.17,11.17,0,0,0,2.85,1.64l.73,4.16a.5.5,0,0,0,.49.41h5.8a.5.5,0,0,0,.49-.41l.73-4.16A11.17,11.17,0,0,0,22,23.78l4,1.45a.5.5,0,0,0,.6-.22l2.9-5a.5.5,0,0,0-.11-.63ZM15,21a6,6,0,1,1,6-6A6,6,0,0,1,15,21Z" style="fill: #303c42"/>
  </g>
</svg>
