<svg xmlns="http://www.w3.org/2000/svg" viewBox="0 0 30 30">
  <title>Drop Delivery</title>
  <g id="Drop_Delivery" data-name="Drop Delivery">
    <path d="M25.88,11.81l.05-.08,0-.09a.49.49,0,0,0,0-.1.47.47,0,0,0,0,0A11.27,11.27,0,0,0,15,0,11.27,11.27,0,0,0,4,11.5a.47.47,0,0,0,0,0,.48.48,0,0,0,0,.1l0,.09.05.08.07.07,0,0L13.35,18H9.5a.5.5,0,0,0-.5.5v11a.5.5,0,0,0,.5.5h11a.5.5,0,0,0,.5-.5v-11a.5.5,0,0,0-.5-.5H16.65l9.13-6.08,0,0ZM18,9.83A5.28,5.28,0,0,0,15,9a5.28,5.28,0,0,0-3,.83C12.26,4.69,13.7,1,15,1S17.74,4.69,18,9.83Zm0,1.59-3,6-3-6c.09-.69,1.33-1.42,3-1.42S17.89,10.73,18,11.42ZM8,10c1.72,0,3,.79,3,1.5v0a1.53,1.53,0,0,0,0,.19h0L13.71,17,5.05,11.27C5.29,10.63,6.47,10,8,10Zm10.95,1.72h0a1.53,1.53,0,0,0,0-.19v0c0-.71,1.28-1.5,3-1.5,1.53,0,2.71.63,2.95,1.27L16.29,17ZM12.31,27H10.83l6.86-6h1.48ZM10,29V28H20v1Zm10-9H10V19H20Z" style="fill: #303c42"/>
  </g>
</svg>
