<svg xmlns="http://www.w3.org/2000/svg" viewBox="0 0 30 30">
  <title>Add to Basket</title>
  <g id="Add_to_Basket" data-name="Add to Basket">
    <g>
      <path d="M15,17a6.5,6.5,0,1,0,6.5,6.5A6.51,6.51,0,0,0,15,17Zm2.5,7h-2v2a.5.5,0,0,1-1,0V24h-2a.5.5,0,0,1,0-1h2V21a.5.5,0,0,1,1,0v2h2a.5.5,0,0,1,0,1Z" style="fill: #303c42"/>
      <path d="M29.5,9H23.64L17.21.2a.5.5,0,0,0-.7-.11L15.7.69a.5.5,0,0,0-.11.7L21.15,9H8.85L14.4,1.39a.5.5,0,0,0-.11-.7L13.49.1a.5.5,0,0,0-.7.11L6.36,9H.5a.5.5,0,0,0-.5.5v1a.5.5,0,0,0,.5.5h.64l4,11.65A2,2,0,0,0,7,24a.52.52,0,0,0,.37-.14.5.5,0,0,0,.15-.36,7.5,7.5,0,0,1,15,0,.5.5,0,0,0,.5.5h0a2,2,0,0,0,1.8-1.33l4-11.65h.64a.5.5,0,0,0,.5-.5v-1A.5.5,0,0,0,29.5,9Z" style="fill: #303c42"/>
    </g>
  </g>
</svg>
