<svg xmlns="http://www.w3.org/2000/svg" viewBox="0 0 30 30">
  <title>Stereo Speaker</title>
  <g id="Stereo_Speaker" data-name="Stereo Speaker">
    <g>
      <path d="M12,4H2A2,2,0,0,0,0,6V24a2,2,0,0,0,2,2H12a2,2,0,0,0,2-2V6A2,2,0,0,0,12,4ZM7,6A3,3,0,1,1,4,9,3,3,0,0,1,7,6ZM7,24a5,5,0,1,1,5-5A5,5,0,0,1,7,24Z" style="fill: #303c42"/>
      <circle cx="7" cy="19" r="1" style="fill: #303c42"/>
      <path d="M28,4H18a2,2,0,0,0-2,2V24a2,2,0,0,0,2,2H28a2,2,0,0,0,2-2V6A2,2,0,0,0,28,4ZM23,6a3,3,0,1,1-3,3A3,3,0,0,1,23,6Zm0,18a5,5,0,1,1,5-5A5,5,0,0,1,23,24Z" style="fill: #303c42"/>
      <circle cx="23" cy="19" r="1" style="fill: #303c42"/>
    </g>
  </g>
</svg>
