<svg xmlns="http://www.w3.org/2000/svg" viewBox="0 0 30 30">
  <title>Sphere</title>
  <g id="Sphere">
    <g>
      <path d="M30,15A15,15,0,0,0,15,0l-.4,0-.1,0A4,4,0,0,0,14,.05,15,15,0,0,0,0,15c0,.13,0,.86.05,1A15,15,0,0,0,14,29.95a4,4,0,0,0,.54.05l.1,0,.4,0A15,15,0,0,0,29.95,16C30,15.86,30,15.13,30,15Zm-2,0c0,.28,0,.56,0,.84C27.69,17.38,25.63,19,22.36,20a1,1,0,0,0,.32-.59c.09-.63.17-1.28.22-1.95a1,1,0,1,0-2-.16c0,.62-.12,1.23-.2,1.82a1,1,0,0,0,.81,1.12A26.13,26.13,0,0,1,15,21a27,27,0,0,1-5.46-.54A27,27,0,0,1,9,15a26.17,26.17,0,0,1,.77-6.49,1,1,0,0,0,1,.79h.15q.88-.13,1.82-.21A1,1,0,0,0,13.62,8a1,1,0,0,0-1.08-.92c-.67.05-1.32.13-1.95.22a1,1,0,0,0-.57.32c1-3.26,2.6-5.33,4.14-5.59.28,0,.55,0,.84,0A13,13,0,0,1,28,15ZM9.95,3C8.15,5.74,7,10,7,15a29.66,29.66,0,0,0,.4,4.91c-3.13-1-5.1-2.56-5.36-4.07,0-.28,0-.55,0-.84A13,13,0,0,1,9.95,3ZM3,20.05a16.44,16.44,0,0,0,4.85,2.07A16.44,16.44,0,0,0,9.95,27,13.08,13.08,0,0,1,3,20.05ZM15,28c-.28,0-.56,0-.84,0-1.51-.26-3.06-2.23-4.07-5.36A29.66,29.66,0,0,0,15,23c5,0,9.26-1.15,12-2.95A13,13,0,0,1,15,28Z" style="fill: #303c42"/>
      <path d="M17.28,9.09c.62,0,1.23.12,1.82.2h.15a1,1,0,0,0,.14-2q-.95-.14-1.95-.22a1,1,0,0,0-.16,2Z" style="fill: #303c42"/>
      <path d="M23.47,10.39a13.78,13.78,0,0,1,1.61.72A1,1,0,1,0,26,9.35a15.76,15.76,0,0,0-1.85-.83,1,1,0,1,0-.71,1.87Z" style="fill: #303c42"/>
      <path d="M4.43,11.24a1,1,0,0,0,.47-.12,13.8,13.8,0,0,1,1.61-.72A1,1,0,0,0,5.8,8.53,15.81,15.81,0,0,0,4,9.36a1,1,0,0,0,.47,1.88Z" style="fill: #303c42"/>
      <path d="M20.9,22.89a1,1,0,0,0-1.29.58,13.85,13.85,0,0,1-.72,1.61,1,1,0,1,0,1.77.94,15.91,15.91,0,0,0,.83-1.84A1,1,0,0,0,20.9,22.89Z" style="fill: #303c42"/>
      <path d="M20.71,10.89c.09.59.16,1.19.21,1.81a1,1,0,0,0,1,.92H22a1,1,0,0,0,.92-1.08c-.05-.66-.13-1.32-.22-2a1,1,0,1,0-2,.29Z" style="fill: #303c42"/>
      <path d="M19.6,6.51a1,1,0,1,0,1.87-.71A16,16,0,0,0,20.64,4a1,1,0,1,0-1.76.94A14.07,14.07,0,0,1,19.6,6.51Z" style="fill: #303c42"/>
    </g>
  </g>
</svg>
