<svg xmlns="http://www.w3.org/2000/svg" viewBox="0 0 30 30">
  <title>Water Bottle</title>
  <g id="Water_Bottle" data-name="Water Bottle">
    <path d="M20.75,12.21a.5.5,0,0,0,.25-.43V6.5a.5.5,0,0,0-.15-.35l-1-1A.57.57,0,0,0,19.5,5H19V3.5a.5.5,0,0,0-.5-.5H16V.5a.5.5,0,0,0-.85-.35l-1,1A.5.5,0,0,0,14,1.5V3H11.5a.5.5,0,0,0-.5.5V5h-.5a.6.6,0,0,0-.36.15l-1,1A.5.5,0,0,0,9,6.5v5.28a.5.5,0,0,0,.25.43,1.48,1.48,0,0,1,0,2.58.5.5,0,0,0-.25.43V27.79A2.21,2.21,0,0,0,11.21,30h7.59A2.21,2.21,0,0,0,21,27.79V15.22a.5.5,0,0,0-.25-.43,1.48,1.48,0,0,1,0-2.58ZM15,23a2.41,2.41,0,0,1-2.5-2.3c0-2,2-4.42,2.12-4.52a.52.52,0,0,1,.77,0c.09.1,2.12,2.56,2.12,4.52A2.41,2.41,0,0,1,15,23Z" style="fill: #303c42"/>
  </g>
</svg>
