<svg xmlns="http://www.w3.org/2000/svg" viewBox="0 0 30 30">
  <title>Disable Flash Drive</title>
  <g id="Disable_Flash_Drive" data-name="Disable Flash Drive">
    <g>
      <path d="M21.5,7a.5.5,0,0,0-.15-.35l-.5-.5A.5.5,0,0,0,20.5,6c-.26,0-.27,0-1.86,1.65a.5.5,0,0,0,0,.7l.5.5a.5.5,0,0,0,.71,0l1.5-1.5A.5.5,0,0,0,21.5,7Z" style="fill: #303c42"/>
      <path d="M21.15,10.85l.5.5a.5.5,0,0,0,.71,0l1.5-1.5a.5.5,0,0,0,0-.71l-.5-.5A.5.5,0,0,0,23,8.5c-.26,0-.27,0-1.86,1.65A.5.5,0,0,0,21.15,10.85Z" style="fill: #303c42"/>
      <path d="M14,21.5a7.5,7.5,0,0,1,9.18-7.3h.11a.5.5,0,0,0,.35-.15l4.21-4.21a.5.5,0,0,0,0-.71l-7-7a.5.5,0,0,0-.71,0L15,7.29l-.15-.15a.5.5,0,0,0-.71,0L3.8,17.49a6.16,6.16,0,0,0,8.71,8.71l1.77-1.77a.5.5,0,0,0,.12-.51A7.46,7.46,0,0,1,14,21.5ZM20.5,3.21,26.79,9.5l-3.66,3.66A8.44,8.44,0,0,0,21.5,13c-.25,0-.51,0-.75,0l-5-5ZM8.5,25.5a4,4,0,1,1,4-4A4,4,0,0,1,8.5,25.5Z" style="fill: #303c42"/>
      <path d="M21.5,15A6.5,6.5,0,1,0,28,21.5,6.51,6.51,0,0,0,21.5,15ZM17,21.5a4.46,4.46,0,0,1,.7-2.39l6.19,6.19a4.46,4.46,0,0,1-2.39.7A4.5,4.5,0,0,1,17,21.5Zm8.3,2.39L19.11,17.7A4.46,4.46,0,0,1,21.5,17,4.5,4.5,0,0,1,26,21.5,4.46,4.46,0,0,1,25.3,23.89Z" style="fill: #303c42"/>
    </g>
  </g>
</svg>
