<svg xmlns="http://www.w3.org/2000/svg" viewBox="0 0 30 30">
  <title>Save Backup</title>
  <g id="Save_Backup" data-name="Save Backup">
    <g>
      <rect x="14" y="1" width="4" height="7" rx="0.5" ry="0.5" style="fill: #303c42"/>
      <path d="M15.76,21H3V11H21v4.76a.5.5,0,0,0,.19.4.51.51,0,0,0,.43.09A7.53,7.53,0,0,1,23.5,16a.5.5,0,0,0,.5-.5V4a.5.5,0,0,0-.15-.35l-3-3A.5.5,0,0,0,20,1V7a2,2,0,0,1-2,2H6A2,2,0,0,1,4,7V.5A.5.5,0,0,0,3.5,0H2A2,2,0,0,0,0,2V21a2,2,0,0,0,2,2H15.57a.5.5,0,0,0,.5-.44,7.41,7.41,0,0,1,.18-.94.5.5,0,0,0-.48-.62Z" style="fill: #303c42"/>
      <path d="M23.5,17A6.5,6.5,0,1,0,30,23.5,6.51,6.51,0,0,0,23.5,17Zm2.4,8.8a.5.5,0,0,1-.7.1l-2-1.5A.5.5,0,0,1,23,24V20a.5.5,0,0,1,1,0v3.75l1.8,1.35A.5.5,0,0,1,25.9,25.8Z" style="fill: #303c42"/>
    </g>
  </g>
</svg>
