<svg xmlns="http://www.w3.org/2000/svg" viewBox="0 0 30 30">
  <title>Cloud Check</title>
  <g id="Cloud_Check" data-name="Cloud Check">
    <g>
      <path d="M24.5,12a.5.5,0,0,1,0-1c.21,0,.41,0,.61,0h.06a.48.48,0,0,0,.51-.5.5.5,0,0,0-.07-.26,10,10,0,0,0-17.81-3,.5.5,0,0,0,.34.78,7.88,7.88,0,0,1,3.62,1.47.5.5,0,0,1,.11.7.51.51,0,0,1-.7.11A7,7,0,1,0,7,23h.77a.48.48,0,0,0,.51-.5.5.5,0,0,0-.07-.25,7.5,7.5,0,1,1,14.54.13.5.5,0,0,0,.48.63H24.5a5.5,5.5,0,0,0,0-11Z" style="fill: #303c42"/>
      <path d="M15.5,14A6.5,6.5,0,1,0,22,20.5,6.51,6.51,0,0,0,15.5,14Zm3.85,4.35-5,5a.5.5,0,0,1-.71,0l-2-2a.5.5,0,0,1,.71-.71L14,22.29l4.65-4.65a.5.5,0,0,1,.71.71Z" style="fill: #303c42"/>
    </g>
  </g>
</svg>
