<svg xmlns="http://www.w3.org/2000/svg" viewBox="0 0 30 30">
  <title>Dron 2</title>
  <g id="Dron_2" data-name="Dron 2">
    <g>
      <path d="M23.13,24.37a.5.5,0,0,0,.35-.15l.74-.74a.5.5,0,0,0,0-.71,11,11,0,0,1,0-15.56.5.5,0,0,0,0-.71l-.74-.74a.5.5,0,0,0-.71,0A10.93,10.93,0,0,1,15,9,10.93,10.93,0,0,1,7.22,5.78a.5.5,0,0,0-.71,0l-.74.74a.5.5,0,0,0,0,.71,11,11,0,0,1,0,15.56.5.5,0,0,0,0,.71l.74.74a.5.5,0,0,0,.71,0,11,11,0,0,1,15.56,0A.5.5,0,0,0,23.13,24.37ZM15,18a3,3,0,1,1,3-3A3,3,0,0,1,15,18Z" style="fill: #303c42"/>
      <path d="M7,12a.5.5,0,0,0,0-1,4,4,0,1,1,4-4,.5.5,0,0,0,1,0,5,5,0,1,0-5,5Z" style="fill: #303c42"/>
      <path d="M18.5,7.5A.5.5,0,0,0,19,7a4,4,0,1,1,4,4,.5.5,0,0,0,0,1,5,5,0,1,0-5-5A.5.5,0,0,0,18.5,7.5Z" style="fill: #303c42"/>
      <path d="M11.5,22.5a.5.5,0,0,0-.5.5,4,4,0,1,1-4-4,.5.5,0,0,0,0-1,5,5,0,1,0,5,5A.5.5,0,0,0,11.5,22.5Z" style="fill: #303c42"/>
      <path d="M23,18a.5.5,0,0,0,0,1,4,4,0,1,1-4,4,.5.5,0,0,0-1,0,5,5,0,1,0,5-5Z" style="fill: #303c42"/>
    </g>
  </g>
</svg>
