<svg xmlns="http://www.w3.org/2000/svg" viewBox="0 0 30 30">
  <title>Kitchen Timer</title>
  <g id="Kitchen_Timer" data-name="Kitchen Timer">
    <g>
      <path d="M4.49,18h21a.49.49,0,0,0,.49-.51C25.67,10.6,20.8,0,15,0S4.33,10.6,4,17.48a.49.49,0,0,0,.49.51ZM20,14.5a.49.49,0,0,1,1,0v1a.49.49,0,0,1-1,0Zm-5.5,0a.49.49,0,0,1,1,0v1a.49.49,0,0,1-1,0ZM9,14.5a.49.49,0,0,1,1,0v1a.49.49,0,0,1-1,0Z" style="fill: #303c42"/>
      <path d="M25.45,19H4.55a.49.49,0,0,0-.48.54,14,14,0,0,0,6.31,10.38.48.48,0,0,0,.25.07h8.75a.48.48,0,0,0,.25-.07,14,14,0,0,0,6.31-10.38.49.49,0,0,0-.48-.54ZM15,22a1,1,0,1,1,1-1A1,1,0,0,1,15,22Z" style="fill: #303c42"/>
    </g>
  </g>
</svg>
