<svg xmlns="http://www.w3.org/2000/svg" viewBox="0 0 30 30">
  <title>Plane Lift Off</title>
  <g id="Plane_Lift_Off" data-name="Plane Lift Off">
    <g>
      <rect x="10" y="24" width="20" height="2" rx="0.5" ry="0.5" style="fill: #303c42"/>
      <path d="M20.61,18.35a.5.5,0,0,0,.55.11l2.49-1.06a.5.5,0,0,0,.3-.54L22.78,9.68a45.54,45.54,0,0,0,3.59-3.21A5.59,5.59,0,0,0,28,3.36a1,1,0,0,0-.26-.71c-.72-.71-4.61-1.4-9.1,1.29A30.42,30.42,0,0,0,15.74,6H4.33A.5.5,0,0,0,4,6.14l-2.06,2a.5.5,0,0,0,.2.84l7.3,2.21L8.1,12.25c-.72.58-1.41,1.14-2,1.69l-4.38-1a.5.5,0,0,0-.46.13L.15,14.13a.5.5,0,0,0-.05.65l2.08,2.91a1.61,1.61,0,0,0,1.28,2.6A1.63,1.63,0,0,0,4,20.17a83.89,83.89,0,0,0,12.51-6Z" style="fill: #303c42"/>
    </g>
  </g>
</svg>
