<svg xmlns="http://www.w3.org/2000/svg" viewBox="0 0 30 30">
  <title>Beatle</title>
  <g id="Beatle">
    <g>
      <path d="M29,21H1a.5.5,0,0,0,0,1v3a2,2,0,0,0,4,0V22.4a45.83,45.83,0,0,0,9.22.58h3.27A39.24,39.24,0,0,0,25,22.4V25a2,2,0,0,0,4,0V22a.5.5,0,0,0,0-1Z" style="fill: #303c42"/>
      <path d="M1,11a1,1,0,0,0,.77-.38L4,11.36v.24a.5.5,0,0,0,.4.49c2.48.49,4.83,2.85,5.86,5.89A3,3,0,0,0,13,20a2.12,2.12,0,0,0,1.38-.49.5.5,0,0,0,.12-.33V9.51a.5.5,0,0,0-.15-.36A.54.54,0,0,0,14,9a33.87,33.87,0,0,0-8.71,1.2l1.5-4.61C7.5,5.09,10.91,4,15,4s7.5,1.09,8.22,1.61l1.5,4.61A33.87,33.87,0,0,0,16,9a.5.5,0,0,0-.51.5v9.72a.5.5,0,0,0,.15.36A2.49,2.49,0,0,0,17,20a3,3,0,0,0,2.74-2c1-3,3.38-5.4,5.86-5.89a.5.5,0,0,0,.4-.49v-.24l2.23-.74A1,1,0,0,0,29,11a1,1,0,1,0-.92-1.39l-2.26.75-1.7-5.21A.51.51,0,0,0,24,5c-.8-.78-4.79-2-9-2S6.8,4.18,6,5a.51.51,0,0,0-.13.2l-1.7,5.21L1.92,9.61A1,1,0,1,0,1,11Z" style="fill: #303c42"/>
      <path d="M26.28,13c-1.93.13-4.48,2-5.59,5.28a3.78,3.78,0,0,1-.47.92.5.5,0,0,0,.41.78h8.66a.5.5,0,0,0,.45-.29A2.75,2.75,0,0,0,30,18.55C30,16,28.88,13.27,26.28,13ZM26,19.5a2,2,0,1,1,2-2A2,2,0,0,1,26,19.5Z" style="fill: #303c42"/>
      <path d="M9.37,20a.5.5,0,0,0,.41-.78,3.78,3.78,0,0,1-.47-.92C8.2,15,5.66,13.15,3.64,13,1.13,13.27,0,16,0,18.55a2.75,2.75,0,0,0,.26,1.16A.5.5,0,0,0,.71,20ZM4,15.5a2,2,0,1,1-2,2A2,2,0,0,1,4,15.5Z" style="fill: #303c42"/>
    </g>
  </g>
</svg>
