<svg xmlns="http://www.w3.org/2000/svg" viewBox="0 0 30 30">
  <title>Bicycle 1</title>
  <g id="Bicycle_1" data-name="Bicycle 1">
    <path d="M24,12a6,6,0,0,0-2,.35L20.45,9.28h0L19.31,7H23a1,1,0,0,1,0,2h-.5a.5.5,0,0,0,0,1H23a2,2,0,0,0,0-4H18.5a.5.5,0,0,0-.45.72L19.19,9h-7l-.54-2H13.5a.5.5,0,0,0,0-1h-5a.5.5,0,0,0,0,1h2.12l.7,2.59L9,12.81a6,6,0,1,0,2.76,6.89l.78.09A2,2,0,1,0,15.87,18L20,10.57l1.11,2.19A6,6,0,1,0,24,12ZM6,22a4,4,0,0,1,0-8,4,4,0,0,1,1.81.45L5.09,18.21a.5.5,0,0,0,.35.79l4.27.47A4,4,0,0,1,6,22Zm4-4a3.93,3.93,0,0,1,0,.49L6.41,18.1,8.63,15A4,4,0,0,1,10,18Zm-.18-4.62,1.83-2.54,1.87,6.93a2,2,0,0,0-.88,1L12,18.71a5.93,5.93,0,0,0-2.14-5.34ZM15,17.57a2,2,0,0,0-.49-.07h0l-2-7.5h6.69ZM24,22a4,4,0,0,1-2-7.45l2,3.94A.5.5,0,1,0,24.9,18l-2-3.88A4,4,0,0,1,24,14a4,4,0,0,1,0,8Z" style="fill: #303c42"/>
  </g>
</svg>
