<svg xmlns="http://www.w3.org/2000/svg" viewBox="0 0 30 30">
  <title>Cocktail</title>
  <g id="Cocktail">
    <path d="M28,9.66,25.69,2.35A.5.5,0,0,0,25.14,2h0L17.41,3.37a.5.5,0,0,0-.24.87l2.66,2.33h0l0,0,1.53.91L19.63,10H15.2L16,8.06a.5.5,0,0,0-.13-.55l-.62-.57,1-.12a.5.5,0,0,0,.25-.89L15.36,5l.7-.22a.5.5,0,1,0-.3-1l-1.59.5a.5.5,0,0,0-.16.87L15,6,14,6.06a.5.5,0,0,0-.28.86L14.92,8l-.8,2H12.45l-1-6.08a.5.5,0,0,0-.24-.35l-2.5-1.5a.5.5,0,1,0-.51.86l2.3,1.38.9,5.69H10a4,4,0,0,0-8,0,4,4,0,0,0,2.17,3.54A10.69,10.69,0,0,0,4,15.36C4,21.33,8.92,28,15.5,28S27,21.33,27,15.36a9.8,9.8,0,0,0-1.36-5.11.5.5,0,0,0-.43-.24H20.87L22.3,8l1.61,1h0L24,9l3.34,1.24a.5.5,0,0,0,.17,0A.5.5,0,0,0,28,9.66ZM5.79,10a.5.5,0,0,0-.43.24,9.37,9.37,0,0,0-1,2.27A3,3,0,0,1,3,10a3,3,0,0,1,6,0ZM11.5,25a.5.5,0,1,1,.5-.5A.5.5,0,0,1,11.5,25Zm1,1.5A.5.5,0,1,1,13,26,.5.5,0,0,1,12.5,26.5Zm1-1.5a.5.5,0,1,1,.5-.5A.5.5,0,0,1,13.5,25ZM20,13.34a.5.5,0,0,0-.41-.34.49.49,0,0,0-.48.22l-1.3,1.95L17.09,11h4.8l-1,5.06Zm1.09-7.2,3.44-2.51-.72,4.14Z" style="fill: #303c42"/>
  </g>
</svg>
