<svg xmlns="http://www.w3.org/2000/svg" viewBox="0 0 30 30">
  <title>TV 2</title>
  <g id="TV_2" data-name="TV 2">
    <path d="M26,8H16.62l6.63-5.1a.5.5,0,1,0-.61-.79L15.21,7.82,7.78,2.1a.5.5,0,1,0-.61.79L13.81,8H4a2,2,0,0,0-2,2V25a2,2,0,0,0,2,2v.5a.5.5,0,0,0,.5.5h21a.5.5,0,0,0,.5-.5V27a2,2,0,0,0,2-2V10A2,2,0,0,0,26,8Zm-.29,15.41a2.5,2.5,0,0,1-2.29,2.22c-1.77.14-5.21.37-8.42.37s-6.65-.23-8.46-.37a2.49,2.49,0,0,1-2.29-2.2A49.91,49.91,0,0,1,4,18a49.86,49.86,0,0,1,.26-5.43,2.49,2.49,0,0,1,2.28-2.2C8.3,10.23,11.73,10,15,10s6.31.2,8.42.36a2.5,2.5,0,0,1,2.29,2.23A51.56,51.56,0,0,1,26,18,51.16,51.16,0,0,1,25.71,23.41Z" style="fill: #303c42"/>
  </g>
</svg>
