<svg xmlns="http://www.w3.org/2000/svg" viewBox="0 0 30 30">
  <title>USB Cable</title>
  <g id="USB_Cable" data-name="USB Cable">
    <g>
      <path d="M21,9.15V.5a.5.5,0,0,0-.5-.5H9.5A.5.5,0,0,0,9,.5V9.15a1.73,1.73,0,0,0-1,1.58v6.48a11.93,11.93,0,0,0,.79,4.29l1.6,4.17a.5.5,0,0,0,.47.32H13v3.5a.5.5,0,0,0,.5.5h3a.5.5,0,0,0,.5-.5V26h2.14a.5.5,0,0,0,.47-.32l1.6-4.17A11.93,11.93,0,0,0,22,17.21V10.73A1.73,1.73,0,0,0,21,9.15ZM10,1H20V9H10Z" style="fill: #303c42"/>
      <rect x="11" y="2" width="2" height="4" rx="0.5" ry="0.5" style="fill: #303c42"/>
      <rect x="17" y="2" width="2" height="4" rx="0.5" ry="0.5" style="fill: #303c42"/>
    </g>
  </g>
</svg>
