<svg xmlns="http://www.w3.org/2000/svg" viewBox="0 0 30 30">
  <title>Gameboy 1</title>
  <g id="Gameboy_1" data-name="Gameboy 1">
    <path d="M24,0H6A2,2,0,0,0,4,2V28a2,2,0,0,0,2,2H20.5A5.51,5.51,0,0,0,26,24.5V2A2,2,0,0,0,24,0ZM10.5,24h-1a.5.5,0,0,1-.5-.5V21H6.5a.5.5,0,0,1-.5-.5v-1a.5.5,0,0,1,.5-.5H9V16.5a.5.5,0,0,1,.5-.5h1a.5.5,0,0,1,.5.5V19h2.5a.5.5,0,0,1,.5.5v1a.5.5,0,0,1-.5.5H11v2.5A.5.5,0,0,1,10.5,24ZM15,25.32,13.71,26a.5.5,0,0,1-.43-.9l1.33-.63a.5.5,0,1,1,.43.9Zm2.67,0L16.38,26A.5.5,0,0,1,16,25l1.33-.63a.5.5,0,1,1,.43.9ZM19,22a1,1,0,1,1,1-1A1,1,0,0,1,19,22Zm3-2a1,1,0,1,1,1-1A1,1,0,0,1,22,20Zm2-6.5A1.5,1.5,0,0,1,22.5,15H6.5a.5.5,0,0,1-.5-.5V2.5A.5.5,0,0,1,6.5,2h17a.5.5,0,0,1,.5.5Z" style="fill: #303c42"/>
  </g>
</svg>
