<svg xmlns="http://www.w3.org/2000/svg" viewBox="0 0 30 30">
  <title>Space Invadors</title>
  <g id="Space_Invadors" data-name="Space Invadors">
    <path d="M29.5,15H28V13.5a.5.5,0,0,0-.5-.5H25V9.5a.5.5,0,0,0-.5-.5H23V8h2.5a.5.5,0,0,0,.5-.5v-3a.5.5,0,0,0-.5-.5h-3a.5.5,0,0,0-.5.5V7H19.5a.5.5,0,0,0-.5.5V9H11V7.5a.5.5,0,0,0-.5-.5H8V4.5A.5.5,0,0,0,7.5,4h-3a.5.5,0,0,0-.5.5v3a.5.5,0,0,0,.5.5H7V9H5.5a.5.5,0,0,0-.5.5V13H2.5a.5.5,0,0,0-.5.5V15H.5a.5.5,0,0,0-.5.5v8a.5.5,0,0,0,.5.5h3a.5.5,0,0,0,.5-.5V19H6v4.5a.5.5,0,0,0,.5.5H9v1.5a.5.5,0,0,0,.5.5h4a.5.5,0,0,0,.5-.5v-2a.5.5,0,0,0-.5-.5H10V21H20v2H16.5a.5.5,0,0,0-.5.5v2a.5.5,0,0,0,.5.5h4a.5.5,0,0,0,.5-.5V24h2.5a.5.5,0,0,0,.5-.5V19h2v4.5a.5.5,0,0,0,.5.5h3a.5.5,0,0,0,.5-.5v-8A.5.5,0,0,0,29.5,15ZM11,14.5a.5.5,0,0,1-.5.5h-3a.5.5,0,0,1-.5-.5v-3a.5.5,0,0,1,.5-.5h3a.5.5,0,0,1,.5.5Zm12,0a.5.5,0,0,1-.5.5h-3a.5.5,0,0,1-.5-.5v-3a.5.5,0,0,1,.5-.5h3a.5.5,0,0,1,.5.5Z" style="fill: #303c42"/>
  </g>
</svg>
