<svg xmlns="http://www.w3.org/2000/svg" viewBox="0 0 30 30">
  <title>Half Moon 2</title>
  <g id="Half_Moon_2" data-name="Half Moon 2">
    <path d="M20,15A16.13,16.13,0,0,1,25.81,2.44a.5.5,0,0,0-.09-.84A14.83,14.83,0,0,0,19,0a15,15,0,0,0,0,30,14.83,14.83,0,0,0,6.73-1.61.5.5,0,0,0,.09-.84A16.13,16.13,0,0,1,20,15ZM8,13c0-1.68.88-3,2-3s2,1.32,2,3-.88,3-2,3S8,14.68,8,13Zm4.68,9.48a1.25,1.25,0,0,1-1,.52,3.09,3.09,0,0,1-2.47-2.35,2.39,2.39,0,0,1,.16-2.13,1.25,1.25,0,0,1,1-.52,3.09,3.09,0,0,1,2.47,2.35A2.39,2.39,0,0,1,12.68,22.47Z" style="fill: #303c42"/>
  </g>
</svg>
