<svg xmlns="http://www.w3.org/2000/svg" viewBox="0 0 24 24">
  <title>Abulance</title>
  <g id="Abulance">
    <path d="M23.25,15.07,18,12l5.26-3.07a.5.5,0,0,0,.19-.67l-2.5-4.5a.5.5,0,0,0-.31-.24.49.49,0,0,0-.39.06L15,6.78V.5a.5.5,0,0,0-.5-.5h-5A.5.5,0,0,0,9,.5V6.78L3.76,3.57a.5.5,0,0,0-.39-.06.5.5,0,0,0-.31.24L.57,8.13a.5.5,0,0,0,.18.68L6,12,.75,15.06a.5.5,0,0,0-.19.67l2.5,4.5a.5.5,0,0,0,.7.18L9,17.22V23.5a.5.5,0,0,0,.5.5h5a.5.5,0,0,0,.5-.5V17.22l5.24,3.2a.5.5,0,0,0,.7-.18l2.5-4.5A.5.5,0,0,0,23.25,15.07Z" style="fill: #303c42"/>
  </g>
</svg>
