<svg xmlns="http://www.w3.org/2000/svg" viewBox="0 0 24 24">
  <title>Battery 4</title>
  <g id="Battery_4" data-name="Battery 4">
    <path d="M18,3H16V.5a.47.47,0,0,0-.47-.5h-7A.5.5,0,0,0,8,.5V3H6A2,2,0,0,0,4,5V22a2,2,0,0,0,2,2H18a2,2,0,0,0,2-2V5A2,2,0,0,0,18,3Zm0,18.5a.5.5,0,0,1-.5.5H6.5a.5.5,0,0,1-.5-.5V19a.5.5,0,0,1,.5-.5h11a.5.5,0,0,1,.5.5ZM18,17a.5.5,0,0,1-.5.5H6.5A.5.5,0,0,1,6,17V14.5a.5.5,0,0,1,.5-.5h11a.5.5,0,0,1,.5.5Zm0-4.5a.5.5,0,0,1-.5.5H6.5a.5.5,0,0,1-.5-.5V10a.5.5,0,0,1,.5-.5h11a.5.5,0,0,1,.5.5ZM18,8a.5.5,0,0,1-.5.5H6.5A.5.5,0,0,1,6,8V5.5A.5.5,0,0,1,6.5,5h11a.5.5,0,0,1,.5.5Z" style="fill: #303c42"/>
  </g>
</svg>
