<svg xmlns="http://www.w3.org/2000/svg" viewBox="0 0 24 24">
  <title>Bit Coin</title>
  <g id="Bit_Coin" data-name="Bit Coin">
    <g>
      <path d="M12.75,12.5H11V15h1.75a1.25,1.25,0,0,0,0-2.5Z" style="fill: #303c42"/>
      <path d="M12.25,11.5a1.25,1.25,0,1,0,0-2.5H11v2.5Z" style="fill: #303c42"/>
      <path d="M12,0A12,12,0,1,0,24,12,12,12,0,0,0,12,0Zm0,21a9,9,0,1,1,9-9A9,9,0,0,1,12,21Z" style="fill: #303c42"/>
      <path d="M12,4a8,8,0,1,0,8,8A8,8,0,0,0,12,4Zm1.5,11.86v.64a.5.5,0,0,1-1,0V16h-1v.5a.5.5,0,0,1-1,0V16h-1a.5.5,0,1,1,0-1H10V9H9.5a.5.5,0,0,1,0-1h1V7.5a.5.5,0,0,1,1,0V8h.75l.25,0V7.5a.5.5,0,0,1,1,0v.88a2.25,2.25,0,0,1,.38,3.42,2.24,2.24,0,0,1-.38,4.06Z" style="fill: #303c42"/>
    </g>
  </g>
</svg>
