<svg xmlns="http://www.w3.org/2000/svg" viewBox="0 0 24 24">
  <title>Carambola</title>
  <g id="Carambola">
    <path d="M23,9.35A.5.5,0,0,0,22.62,9c-2.44-.59-4.57-1.11-7.63-.21-.13-3.34-1.26-5.31-2.55-7.58a.52.52,0,0,0-.87,0C10.27,3.5,9.15,5.47,9,8.81,5.95,7.92,3.82,8.43,1.38,9a.5.5,0,0,0-.27.81C3,12.06,4.43,13.65,7.23,14.74c-1.69,2.65-2,4.81-2.23,7.71a.5.5,0,0,0,.7.5A14.07,14.07,0,0,0,12,18.35,14.07,14.07,0,0,0,18.3,23a.5.5,0,0,0,.7-.5c-.24-2.9-.54-5.06-2.23-7.71,2.81-1.09,4.27-2.68,6.12-4.92A.5.5,0,0,0,23,9.35ZM7.86,12.13a.5.5,0,0,1,.28-.87,3.21,3.21,0,0,1,1.22.14,3.17,3.17,0,0,1,1.07.6.5.5,0,0,1-.28.87H9.91a3.24,3.24,0,0,1-1-.15A3.19,3.19,0,0,1,7.86,12.13Zm2.94,3.71a3.18,3.18,0,0,1-.9.83.5.5,0,0,1-.25.07.5.5,0,0,1-.49-.6,3.1,3.1,0,0,1,1.42-1.95.5.5,0,0,1,.74.54A3.18,3.18,0,0,1,10.8,15.83ZM12,11.49a.5.5,0,0,1-.46-.3,3.1,3.1,0,0,1,0-2.41.52.52,0,0,1,.91,0,3.1,3.1,0,0,1,0,2.41A.5.5,0,0,1,12,11.49Zm2.65,5.14a.5.5,0,0,1-.29.1.5.5,0,0,1-.25-.07,3.1,3.1,0,0,1-1.42-1.95.5.5,0,0,1,.74-.54,3.1,3.1,0,0,1,1.42,1.95A.5.5,0,0,1,14.65,16.64Zm1.49-4.51a3.19,3.19,0,0,1-1.07.6h0a3.24,3.24,0,0,1-1,.15h-.24a.5.5,0,0,1-.28-.87,3.17,3.17,0,0,1,1.07-.6,3.21,3.21,0,0,1,1.22-.14.5.5,0,0,1,.28.87Z" style="fill: #303c42"/>
  </g>
</svg>
