<svg xmlns="http://www.w3.org/2000/svg" viewBox="0 0 24 24">
  <title>Pie Chart 1</title>
  <g id="Pie_Chart_1" data-name="Pie Chart 1">
    <g>
      <path d="M13,11.5H23.45a.5.5,0,0,0,.5-.54A12,12,0,0,0,13,.05a.5.5,0,0,0-.38.13.5.5,0,0,0-.16.37V11A.5.5,0,0,0,13,11.5Z" style="fill: #303c42"/>
      <path d="M23.45,12.5h-9a.5.5,0,0,0-.35.85l6.39,6.39a.5.5,0,0,0,.35.15h0a.5.5,0,0,0,.36-.18A11.91,11.91,0,0,0,23.95,13a.5.5,0,0,0-.5-.54Z" style="fill: #303c42"/>
      <path d="M11.65,12.35A.51.51,0,0,1,11.5,12V.55a.5.5,0,0,0-.16-.37A.49.49,0,0,0,11,.05a12,12,0,1,0,8.76,21.14.5.5,0,0,0,0-.74Z" style="fill: #303c42"/>
    </g>
  </g>
</svg>
