<svg xmlns="http://www.w3.org/2000/svg" viewBox="0 0 24 24">
  <title>Condom 1</title>
  <g id="Condom_1" data-name="Condom 1">
    <path d="M21,1h-.65a.5.5,0,0,0-.43.24.47.47,0,0,1-.83,0A.5.5,0,0,0,18.65,1H17.35a.5.5,0,0,0-.43.24.47.47,0,0,1-.83,0A.5.5,0,0,0,15.65,1H14.35a.5.5,0,0,0-.43.24.47.47,0,0,1-.83,0A.5.5,0,0,0,12.65,1H11.35a.5.5,0,0,0-.43.24.47.47,0,0,1-.83,0A.5.5,0,0,0,9.65,1H8.35a.5.5,0,0,0-.43.24.47.47,0,0,1-.83,0A.5.5,0,0,0,6.65,1H5.35a.5.5,0,0,0-.43.24.47.47,0,0,1-.83,0A.5.5,0,0,0,3.65,1H3A2,2,0,0,0,1,3V21a2,2,0,0,0,2,2h.65a.5.5,0,0,0,.43-.24.47.47,0,0,1,.83,0,.5.5,0,0,0,.43.24H6.65a.5.5,0,0,0,.43-.24.47.47,0,0,1,.83,0,.5.5,0,0,0,.43.24H9.65a.5.5,0,0,0,.43-.24.47.47,0,0,1,.83,0,.5.5,0,0,0,.43.24h1.31a.5.5,0,0,0,.43-.24.47.47,0,0,1,.83,0,.5.5,0,0,0,.43.24h1.31a.5.5,0,0,0,.43-.24.47.47,0,0,1,.83,0,.5.5,0,0,0,.43.24h1.31a.5.5,0,0,0,.43-.24.47.47,0,0,1,.83,0,.5.5,0,0,0,.43.24H21a2,2,0,0,0,2-2V3A2,2,0,0,0,21,1ZM12,6a6,6,0,0,1,6,6,.5.5,0,0,1-1,0,5,5,0,1,0-5,5,.5.5,0,0,1,0,1A6,6,0,0,1,12,6Zm0,14a8,8,0,0,1-8-8,.5.5,0,0,1,1,0,7,7,0,1,0,7-7,.5.5,0,0,1,0-1,8,8,0,1,1,0,16Z" style="fill: #303c42"/>
  </g>
</svg>
