<svg xmlns="http://www.w3.org/2000/svg" viewBox="0 0 24 24">
  <title>Protection Helmet</title>
  <g id="Protection_Helmet" data-name="Protection Helmet">
    <path d="M22,14.23V14a10,10,0,0,0-4.35-8.24.5.5,0,0,0-.78.37l-.37,4.49a.51.51,0,0,1-.54.46h0a.5.5,0,0,1-.46-.54l.5-6A.5.5,0,0,0,15.5,4H13.72a2,2,0,0,0-3.44,0H8.5a.5.5,0,0,0-.5.54l.5,6a.5.5,0,0,1-.12.36.52.52,0,0,1-.38.18.5.5,0,0,1-.5-.46L7.13,6.13a.5.5,0,0,0-.78-.37A10,10,0,0,0,2,14v.23C.66,14.71,0,15.29,0,16c0,1.88,5.61,5,12,5s12-3.12,12-5C24,15.29,23.34,14.71,22,14.23ZM12,4a1,1,0,0,1,1,1v7a1,1,0,0,1-1,1,1,1,0,0,1-1-1V5A1,1,0,0,1,12,4Z" style="fill: #303c42"/>
  </g>
</svg>
