<svg xmlns="http://www.w3.org/2000/svg" viewBox="0 0 24 24">
  <title>Cylinder Hat</title>
  <g id="Cylinder_Hat" data-name="Cylinder Hat">
    <path d="M20,11.42V9.5a29.59,29.59,0,0,1,.9-5.7s0,0,0,0A.49.49,0,0,0,21,3.5C21,2.26,16.11,2,12,2S3,2.26,3,3.5a.48.48,0,0,0,.08.26s0,0,0,0A28.75,28.75,0,0,1,4,9.5v1.92c-2.76.59-4,2-4,4.58,0,3.25,5.5,6,12,6s12-2.75,12-6C24,13.43,22.76,12,20,11.42Zm-1,4a.48.48,0,0,1-.24.43C18,16.31,16.07,17,12,17s-6-.69-6.76-1.11A.48.48,0,0,1,5,15.46V14.25A23.58,23.58,0,0,0,12,15a23.58,23.58,0,0,0,7-.75Z" style="fill: #303c42"/>
  </g>
</svg>
