<svg xmlns="http://www.w3.org/2000/svg" viewBox="0 0 24 24">
  <title>Pencil with Ruler</title>
  <g id="Pencil_with_Ruler" data-name="Pencil with Ruler">
    <g>
      <path d="M19.86,9.23a.5.5,0,0,0,.71,0L22.41,7.4a2,2,0,0,0,0-2.83l-3-3a2,2,0,0,0-2.83,0L14.75,3.42a.5.5,0,0,0,0,.71Z" style="fill: #303c42"/>
      <path d="M17.75,12l1.4-1.38a.5.5,0,0,0,0-.71L17.31,8.09a.51.51,0,0,0-.71,0L7.09,17.6a.5.5,0,0,0,.13.8l.78.39V20.1l-2.39.68L3.19,18.37,3.88,16H5.19l.39.78a.5.5,0,0,0,.37.27H6a.5.5,0,0,0,.35-.15l9.51-9.51a.5.5,0,0,0,0-.71L14.05,4.84a.5.5,0,0,0-.35-.15h0a.5.5,0,0,0-.35.15L12,6.23,6.87,1.15a.5.5,0,0,0-.71,0l-5,5a.5.5,0,0,0,0,.71L2,7.65a.5.5,0,0,0,.71,0l2-2a.51.51,0,0,1,.71,0,.5.5,0,0,1,0,.71l-2,2a.5.5,0,0,0,0,.71L4,9.65a.5.5,0,0,0,.71,0l2-2a.51.51,0,0,1,.71,0,.5.5,0,0,1,0,.71l-2,2a.5.5,0,0,0,0,.71l.91.91L3.15,15.13v0a.49.49,0,0,0-.12.2l-.87,3L1,22.34A.5.5,0,0,0,1.5,23l.14,0,4-1.13,3-.87h0l.09,0,.08-.05h0L12,17.7l.93.93a.5.5,0,0,0,.71,0l2-2a.51.51,0,0,1,.71,0,.5.5,0,0,1,0,.71l-2,2a.5.5,0,0,0,0,.71l.59.59a.5.5,0,0,0,.71,0l2-2a.51.51,0,0,1,.71,0,.5.5,0,0,1,0,.71l-2,2a.5.5,0,0,0,0,.71l.79.79a.5.5,0,0,0,.71,0l5-5a.5.5,0,0,0,0-.71Z" style="fill: #303c42"/>
    </g>
  </g>
</svg>
