<svg xmlns="http://www.w3.org/2000/svg" viewBox="0 0 24 24">
  <title>Champagne Bottle</title>
  <g id="Champagne_Bottle" data-name="Champagne Bottle">
    <g>
      <circle cx="12" cy="11" r="1" style="fill: #303c42"/>
      <path d="M16,10.22c-.15-.31-.32-.62-.48-.93A10.5,10.5,0,0,1,14,4.41a1.49,1.49,0,0,0,.31-1.1l-.25-2A1.5,1.5,0,0,0,12.62,0H11.38A1.5,1.5,0,0,0,9.89,1.31l-.25,2A1.49,1.49,0,0,0,10,4.41a10.5,10.5,0,0,1-1.5,4.88c-.17.31-.33.61-.48.93A9.1,9.1,0,0,0,7,14.5V22a2,2,0,0,0,2,2h6a2,2,0,0,0,2-2V14.5A9.1,9.1,0,0,0,16,10.22ZM10.91,5l.23,0h1.73l.23,0a11.52,11.52,0,0,0,1.58,4.79l.35.67C13.27,13.73,12.27,14,12,14s-1.27-.27-3-3.56l.35-.67A11.52,11.52,0,0,0,10.91,5ZM16,20.5a.5.5,0,0,1-.5.5h-7a.5.5,0,0,1-.5-.5v-4a.5.5,0,0,1,.5-.5h7a.5.5,0,0,1,.5.5Z" style="fill: #303c42"/>
    </g>
  </g>
</svg>
