<svg xmlns="http://www.w3.org/2000/svg" viewBox="0 0 24 24">
  <title>Figs</title>
  <g id="Figs">
    <g>
      <path d="M16.79,6.32A6.08,6.08,0,0,1,13.62.8h0a.82.82,0,0,0-.2-.62A.62.62,0,0,0,13,0c-.93,0-3,.39-3,1.48a6,6,0,0,1-3,5,12.33,12.33,0,0,0-6,10C1,21.16,5.11,24,12,24s11-2.84,11-7.61C23,12.6,20.39,8.36,16.79,6.32ZM12,21c-2.41,0-8-.45-8-4.61A9.47,9.47,0,0,1,8.55,9,8.73,8.73,0,0,0,11.43,6.2.5.5,0,0,1,11.84,6a.46.46,0,0,1,.42.21,9.39,9.39,0,0,0,3,2.75A9.43,9.43,0,0,1,20,16.39C20,20.55,14.41,21,12,21Z" style="fill: #303c42"/>
      <circle cx="11" cy="11.5" r="0.5" style="fill: #303c42"/>
      <circle cx="7" cy="11.5" r="0.5" style="fill: #303c42"/>
      <circle cx="5" cy="16.5" r="0.5" style="fill: #303c42"/>
      <circle cx="9.5" cy="10.5" r="0.5" style="fill: #303c42"/>
      <circle cx="14" cy="14.5" r="0.5" style="fill: #303c42"/>
      <circle cx="12" cy="15.5" r="0.5" style="fill: #303c42"/>
      <circle cx="8" cy="16.5" r="0.5" style="fill: #303c42"/>
      <circle cx="6.5" cy="17.5" r="0.5" style="fill: #303c42"/>
      <circle cx="6.5" cy="14.5" r="0.5" style="fill: #303c42"/>
      <circle cx="12" cy="13.5" r="0.5" style="fill: #303c42"/>
      <circle cx="12" cy="17.5" r="0.5" style="fill: #303c42"/>
      <circle cx="11.5" cy="20" r="0.5" style="fill: #303c42"/>
      <circle cx="14" cy="16.5" r="0.5" style="fill: #303c42"/>
      <circle cx="13" cy="10.5" r="0.5" style="fill: #303c42"/>
      <circle cx="13" cy="8.5" r="0.5" style="fill: #303c42"/>
      <circle cx="11" cy="8.5" r="0.5" style="fill: #303c42"/>
      <circle cx="10" cy="15.5" r="0.5" style="fill: #303c42"/>
      <circle cx="14" cy="18.5" r="0.5" style="fill: #303c42"/>
      <circle cx="16" cy="19.5" r="0.5" style="fill: #303c42"/>
      <circle cx="10" cy="18.5" r="0.5" style="fill: #303c42"/>
      <circle cx="8" cy="19.5" r="0.5" style="fill: #303c42"/>
      <circle cx="15" cy="12.5" r="0.5" style="fill: #303c42"/>
      <circle cx="15.5" cy="10" r="0.5" style="fill: #303c42"/>
      <circle cx="16" cy="15.5" r="0.5" style="fill: #303c42"/>
      <circle cx="18.5" cy="15.5" r="0.5" style="fill: #303c42"/>
      <circle cx="17" cy="13.5" r="0.5" style="fill: #303c42"/>
      <circle cx="17" cy="11.5" r="0.5" style="fill: #303c42"/>
      <circle cx="16" cy="17.5" r="0.5" style="fill: #303c42"/>
      <circle cx="18.5" cy="17.5" r="0.5" style="fill: #303c42"/>
      <circle cx="9" cy="13.5" r="0.5" style="fill: #303c42"/>
      <circle cx="8.5" cy="12" r="0.5" style="fill: #303c42"/>
      <circle cx="6" cy="13" r="0.5" style="fill: #303c42"/>
    </g>
  </g>
</svg>
