<svg xmlns="http://www.w3.org/2000/svg" viewBox="0 0 24 24">
  <title>Film Roll</title>
  <g id="Film_Roll" data-name="Film Roll">
    <g>
      <path d="M12.5,8.5A2.5,2.5,0,0,0,14.79,7a5.45,5.45,0,0,0-4.57,0A2.5,2.5,0,0,0,12.5,8.5Z" style="fill: #303c42"/>
      <path d="M9.17,10.92a2.5,2.5,0,0,0-.72-2.64A5.45,5.45,0,0,0,7,12.63,2.5,2.5,0,0,0,9.17,10.92Z" style="fill: #303c42"/>
      <path d="M14.56,14.83a2.5,2.5,0,0,0-1,2.56,5.45,5.45,0,0,0,3.7-2.69A2.5,2.5,0,0,0,14.56,14.83Z" style="fill: #303c42"/>
      <path d="M15.83,10.92A2.5,2.5,0,0,0,18,12.63a5.45,5.45,0,0,0-1.41-4.35A2.5,2.5,0,0,0,15.83,10.92Z" style="fill: #303c42"/>
      <path d="M24,23a24.66,24.66,0,0,1-5.54-.6,11.76,11.76,0,1,0-1.37.68A24.65,24.65,0,0,0,24,24a.5.5,0,0,0,0-1ZM18.21,6.65a3.5,3.5,0,1,1-1.08.17A3.49,3.49,0,0,1,18.21,6.65ZM12.5,2.5A3.5,3.5,0,1,1,9,6,3.5,3.5,0,0,1,12.5,2.5Zm-9,6.56a3.5,3.5,0,1,1,2.25,4.41A3.49,3.49,0,0,1,3.46,9.06ZM6.92,19.69a3.5,3.5,0,0,1-.77-4.89A3.51,3.51,0,0,1,9,13.35a3.5,3.5,0,0,1,2.83,5.56L11.7,19a22.52,22.52,0,0,1-2.17-2.42,5.49,5.49,0,0,0,1.89.77,2.48,2.48,0,0,0-3.5-2.77l-.2.08h0a.5.5,0,0,0-.16.56A15.34,15.34,0,0,0,11,19.71a3.43,3.43,0,0,1-4,0ZM11.5,12a1,1,0,1,1,1,1A1,1,0,0,1,11.5,12Zm1.7,6.91A3.5,3.5,0,1,1,16,20.35,3.5,3.5,0,0,1,13.2,18.91Z" style="fill: #303c42"/>
    </g>
  </g>
</svg>
