<svg xmlns="http://www.w3.org/2000/svg" viewBox="0 0 24 24">
  <title>Chocholate</title>
  <g id="Chocholate">
    <path d="M21.81,11.11a.49.49,0,0,0-.43-.09l-.38.1V5.5a.5.5,0,0,0-.5-.5H16V.5a.5.5,0,0,0-.5-.5H5.5A.5.5,0,0,0,5,.5V11.16L4.69,11A.5.5,0,0,0,4,11.5V22a2,2,0,0,0,2,2H20a2,2,0,0,0,2-2V11.5A.5.5,0,0,0,21.81,11.11ZM21,13.67c-2.41.74-5.93,3.76-7.27,5l-1.19-3c1.29-1.35,6-2.85,8.46-3.49ZM12,4V2h2V4Zm0,5V7h2V9ZM7,9V7H9V9Zm6.11,5H12V12h2v1.54C13.69,13.69,13.39,13.84,13.11,14ZM17,12h1l-1,.32Zm0-3V7h2V9ZM7,4V2H9V4Zm2,8v.91c-.57-.27-1.23-.58-2-.91Zm2.28,3.29h0L8.4,16.84A8.77,8.77,0,0,0,5,13.72V12.24A42,42,0,0,1,11.28,15.29Z" style="fill: #303c42"/>
  </g>
</svg>
