<svg xmlns="http://www.w3.org/2000/svg" viewBox="0 0 24 24">
  <title>Headset</title>
  <g id="Headset">
    <g>
      <path d="M16,0c-1.68,0-3,2-3,4.5S14.32,9,16,9a4.9,4.9,0,0,0,3.36-2,.44.44,0,0,1,.7-.08.5.5,0,0,1,.08.7,6.7,6.7,0,0,1-1.9,1.65.5.5,0,0,0-.25.43V18.5a1.5,1.5,0,0,0,1,1.41V21.5a.5.5,0,0,0,.5.5v1.5a.5.5,0,0,0,1,0V22a.5.5,0,0,0,.5-.5V19.91a1.5,1.5,0,0,0,1-1.41v-9C22,4.92,20.12,0,16,0Z" style="fill: #303c42"/>
      <path d="M8,0C3.88,0,2,4.92,2,9.5v9a1.5,1.5,0,0,0,1,1.41V21.5a.5.5,0,0,0,.5.5v1.5a.5.5,0,0,0,1,0V22a.5.5,0,0,0,.5-.5V19.91A1.5,1.5,0,0,0,6,18.5V9.74a.5.5,0,0,0-.25-.43,6.7,6.7,0,0,1-1.9-1.65A.5.5,0,0,1,3.93,7a.44.44,0,0,1,.7.08A4.9,4.9,0,0,0,8,9c1.68,0,3-2,3-4.5S9.68,0,8,0Z" style="fill: #303c42"/>
    </g>
  </g>
</svg>
