<svg xmlns="http://www.w3.org/2000/svg" viewBox="0 0 24 24">
  <title>Matches</title>
  <g id="Matches">
    <path d="M19,7.28V2a2,2,0,0,0-2-2H7A2,2,0,0,0,5,2V7.28A2,2,0,0,0,4,9V22a2,2,0,0,0,2,2H18a2,2,0,0,0,2-2V9A2,2,0,0,0,19,7.28ZM12,20a3.94,3.94,0,0,1-4-3.87c0-.07,0-.15,0-.22A3,3,0,0,1,9.46,13a.5.5,0,0,1,.71.47,1.5,1.5,0,0,0,.2.77,6.46,6.46,0,0,1,.33-1.5,5.78,5.78,0,0,1,2.18-2.69.5.5,0,0,1,.78.41,3.23,3.23,0,0,0,1,2.15A5.27,5.27,0,0,1,16,15.72c0,.2,0,.3,0,.4A3.94,3.94,0,0,1,12,20ZM17,7H16V4.94a.69.69,0,0,0,.24-.15A1.07,1.07,0,0,0,16.5,4c0-.87-.42-1.5-1-1.5s-1,.63-1,1.5a1.07,1.07,0,0,0,.26.78.69.69,0,0,0,.24.15V7H13.67V4.94a.69.69,0,0,0,.24-.15A1.07,1.07,0,0,0,14.17,4c0-.87-.42-1.5-1-1.5s-1,.63-1,1.5a1.07,1.07,0,0,0,.26.78.69.69,0,0,0,.24.15V7H11.33V4.94a.69.69,0,0,0,.24-.15A1.07,1.07,0,0,0,11.83,4c0-.87-.42-1.5-1-1.5s-1,.63-1,1.5a1.07,1.07,0,0,0,.26.78.69.69,0,0,0,.24.15V7H9V4.94a.69.69,0,0,0,.24-.15A1.07,1.07,0,0,0,9.5,4c0-.87-.42-1.5-1-1.5s-1,.63-1,1.5a1.07,1.07,0,0,0,.26.78A.69.69,0,0,0,8,4.93V7H7V2H17Z" style="fill: #303c42"/>
  </g>
</svg>
