<svg xmlns="http://www.w3.org/2000/svg" viewBox="0 0 24 24">
  <title>Chip</title>
  <g id="Chip">
    <g>
      <path d="M12,0A12,12,0,1,0,24,12,12,12,0,0,0,12,0Zm6,4.47,1.22-.71a11,11,0,0,1,3.51,6.05l-1.24.71a1.5,1.5,0,0,1-2-.55l-2-3.46A1.5,1.5,0,0,1,18,4.47ZM8.5,1.58a10.84,10.84,0,0,1,7,0V3A1.5,1.5,0,0,1,14,4.5H10A1.5,1.5,0,0,1,8.5,3ZM4.73,3.76,6,4.47a1.5,1.5,0,0,1,.55,2L4.5,10a1.5,1.5,0,0,1-2,.55L1.22,9.82A11,11,0,0,1,4.73,3.76ZM6,19.53l-1.22.71a11,11,0,0,1-3.51-6.05l1.24-.71a1.5,1.5,0,0,1,2,.55l2,3.46A1.5,1.5,0,0,1,6,19.53Zm9.54,2.89a10.84,10.84,0,0,1-7,0V21A1.5,1.5,0,0,1,10,19.5h4A1.5,1.5,0,0,1,15.5,21ZM12,18a6,6,0,1,1,6-6A6,6,0,0,1,12,18Zm7.27,2.24L18,19.53a1.5,1.5,0,0,1-.55-2l2-3.46a1.5,1.5,0,0,1,2-.55l1.24.71A11,11,0,0,1,19.27,20.24Z" style="fill: #303c42"/>
      <path d="M11.75,10H13.5a.5.5,0,0,0,0-1h-1V8.5a.5.5,0,0,0-1,0V9a1.75,1.75,0,0,0,.25,3.47h.5a.75.75,0,0,1,0,1.5H10.5a.5.5,0,0,0,0,1h1v.5a.5.5,0,0,0,1,0V15a1.75,1.75,0,0,0-.25-3.47h-.5a.75.75,0,0,1,0-1.5Z" style="fill: #303c42"/>
    </g>
  </g>
</svg>
