<svg xmlns="http://www.w3.org/2000/svg" viewBox="0 0 24 24">
  <title>Mail Delivered 2 </title>
  <g id="Mail_Delivered_2" data-name="Mail Delivered 2">
    <g>
      <path d="M12.18,13.9h0a1,1,0,0,0,.47-.14,1,1,0,0,0,.39-.44l4-10.64A.5.5,0,0,0,16.67,2a2,2,0,0,0-1.14.26L.87,10.76A2,2,0,0,0,0,11.7a.5.5,0,0,0,0,.44.5.5,0,0,0,.37.25L12.11,13.9Z" style="fill: #303c42"/>
      <path d="M23.73,12.51l-5.07-8.8a.51.51,0,0,0-.48-.25.5.5,0,0,0-.43.32L14,13.74l0,.09a2,2,0,0,1-1.78,1.08H12l-11-1.42a.5.5,0,0,0-.48.22.5.5,0,0,0,0,.53L3.89,20H2.39a.5.5,0,0,0-.5.5v1a.5.5,0,0,0,.5.5h19.1a.5.5,0,0,0,.5-.5v-1a.5.5,0,0,0-.5-.5h-6.7L23,15.24A2,2,0,0,0,23.73,12.51Z" style="fill: #303c42"/>
    </g>
  </g>
</svg>
