<svg xmlns="http://www.w3.org/2000/svg" viewBox="0 0 24 24">
  <title>Map Rose 1</title>
  <g id="Map_Rose_1" data-name="Map Rose 1">
    <path d="M23.61,11.51l-2.68-.58a9,9,0,0,0-7.86-7.86L12.49.39a.5.5,0,0,0-1,0l-.58,2.68a9,9,0,0,0-7.86,7.86l-2.68.58a.5.5,0,0,0,0,1l2.68.58a9,9,0,0,0,7.86,7.86l.58,2.68a.5.5,0,0,0,1,0l.58-2.68a9,9,0,0,0,7.86-7.86l2.68-.58a.5.5,0,0,0,0-1Zm-4.78-1-3.18-.69,1.28-2a.5.5,0,0,0-.69-.69l-2,1.28-.69-3.18A7,7,0,0,1,18.83,10.47Zm-8.35-5.3L9.78,8.36l-2-1.28a.5.5,0,0,0-.69.69l1.28,2-3.18.69A7,7,0,0,1,10.47,5.17Zm-5.3,8.35,3.18.69-1.28,2a.5.5,0,0,0,.69.69l2-1.28.69,3.18A7,7,0,0,1,5.17,13.53Zm8.35,5.3.69-3.18,2,1.28a.5.5,0,0,0,.69-.69l-1.28-2,3.18-.69A7,7,0,0,1,13.53,18.83Z" style="fill: #303c42"/>
  </g>
</svg>
