<svg xmlns="http://www.w3.org/2000/svg" viewBox="0 0 24 24">
  <title>Medicine 2</title>
  <g id="Medicine_2" data-name="Medicine 2">
    <g>
      <path d="M8.5,15h7a.5.5,0,0,0,0-1h-7a.5.5,0,0,0,0,1Z" style="fill: #303c42"/>
      <path d="M15.5,17h-7a.5.5,0,0,0,0,1h7a.5.5,0,0,0,0-1Z" style="fill: #303c42"/>
      <path d="M20,5V2a2,2,0,0,0-2-2H6A2,2,0,0,0,4,2V5A2,2,0,0,0,5.4,6.9L5,7.27a3.47,3.47,0,0,0-1,2c0,.08,0,.47,0,.47V22a2,2,0,0,0,2,2H18a2,2,0,0,0,2-2V9.74a3.48,3.48,0,0,0-1-2.48L18.6,6.9A2,2,0,0,0,20,5ZM18,5H15.5V2H18ZM6,10H17.5V21H6Zm4.5-5V2h3V5ZM6,2H8.5V5H6Z" style="fill: #303c42"/>
    </g>
  </g>
</svg>
