<svg xmlns="http://www.w3.org/2000/svg" viewBox="0 0 24 24">
  <title>Personal Mail</title>
  <g id="Personal_Mail" data-name="Personal Mail">
    <g>
      <path d="M18.5,10a5.5,5.5,0,0,0-.73,10.95h0A.5.5,0,0,0,18,21l.12,0,.38,0a5.5,5.5,0,1,0,0-11Zm3.34,8.49a6.86,6.86,0,0,0-3.34-1,6.86,6.86,0,0,0-3.34,1,4.5,4.5,0,1,1,6.68,0Z" style="fill: #303c42"/>
      <circle cx="18.5" cy="14.5" r="2.5" style="fill: #303c42"/>
      <path d="M9.07,10.86l.09.06A.75.75,0,0,0,9.5,11a.81.81,0,0,0,.44-.15l8.23-6.7a.5.5,0,0,0,0-.8A2,2,0,0,0,17,3H2a2,2,0,0,0-1.14.36.5.5,0,0,0,0,.8Z" style="fill: #303c42"/>
      <path d="M18.5,9a.5.5,0,0,0,.5-.5V5.82a.5.5,0,0,0-.82-.39l-7.67,6.24-.09.06a1.75,1.75,0,0,1-1.94-.06L.82,5.44A.5.5,0,0,0,0,5.82V15a2,2,0,0,0,2,2h9.58a.5.5,0,0,0,.5-.57A6.45,6.45,0,0,1,18.5,9Z" style="fill: #303c42"/>
    </g>
  </g>
</svg>
