<svg xmlns="http://www.w3.org/2000/svg" viewBox="0 0 24 24">
  <title>Spam Inbox</title>
  <g id="Spam_Inbox" data-name="Spam Inbox">
    <g>
      <path d="M22.92,13.22,21,10.35V3a2,2,0,0,0-2-2H5A2,2,0,0,0,3,3v7.35L1.08,13.22A.55.55,0,0,0,1,13.5V21a2,2,0,0,0,2,2H21a2,2,0,0,0,2-2V13.5A.52.52,0,0,0,22.92,13.22ZM6.5,6.9a1.36,1.36,0,0,1,.4-1L9.44,3.4a1.36,1.36,0,0,1,1-.4H13.6a1.36,1.36,0,0,1,1,.4L17.1,5.94a1.36,1.36,0,0,1,.4,1V10.1a1.36,1.36,0,0,1-.4,1L14.56,13.6a1.36,1.36,0,0,1-1,.4H10.4a1.36,1.36,0,0,1-1-.4L6.9,11.06a1.36,1.36,0,0,1-.4-1ZM8,14.57a.5.5,0,0,0,.5.43h7.07a.5.5,0,0,0,.5-.43A3,3,0,0,1,19,12h1.5a.49.49,0,0,0,.32-.12L21.57,13H19a2,2,0,0,0-2,2,1,1,0,0,1-1,1H8a1,1,0,0,1-1-1,2,2,0,0,0-2-2H2.43l.75-1.12A.49.49,0,0,0,3.5,12H5A3,3,0,0,1,8,14.57Z" style="fill: #303c42"/>
      <path d="M12,10a.5.5,0,0,0,.5-.5v-4a.5.5,0,0,0-1,0v4A.5.5,0,0,0,12,10Z" style="fill: #303c42"/>
      <circle cx="12" cy="11.5" r="0.5" style="fill: #303c42"/>
    </g>
  </g>
</svg>
