<svg xmlns="http://www.w3.org/2000/svg" viewBox="0 0 24 24">
  <title>Drum</title>
  <g id="Drum">
    <path d="M24,12a1.5,1.5,0,0,0-1.11-1.44A10.93,10.93,0,0,0,20.71,5.3a1.46,1.46,0,0,0-2-2,10.93,10.93,0,0,0-5.26-2.19,1.49,1.49,0,0,0-2.88,0A10.93,10.93,0,0,0,5.3,3.29a1.46,1.46,0,0,0-2,2,10.93,10.93,0,0,0-2.19,5.26,1.49,1.49,0,0,0,0,2.88A10.93,10.93,0,0,0,3.29,18.7a1.46,1.46,0,0,0,1.23,2.22l-.24.58-.17.43a1.5,1.5,0,0,0,2.77,1.15c0-.09.18-.52.39-1.16a10.89,10.89,0,0,0,3.29,1,1.49,1.49,0,0,0,2.88,0,10.91,10.91,0,0,0,3.72-1.19c.24.76.42,1.27.46,1.37a1.5,1.5,0,0,0,2.77-1.15l-.18-.44-.27-.67a1.42,1.42,0,0,0,.55-.33,1.48,1.48,0,0,0,.23-1.81,10.93,10.93,0,0,0,2.17-5.24A1.5,1.5,0,0,0,24,12Zm-5.24,5.93c-1.39-3.37-2.42-5.73-3.07-7a1.47,1.47,0,0,0,.2-1.48C15.69,9,15,8,14.18,8a1,1,0,0,0-.37.07c-.86.36-1,1.88-.69,2.54a1.48,1.48,0,0,0,1,.87c.44,1.94,1.54,5.6,2.38,8.31A8.92,8.92,0,0,1,7.88,20c.85-2.72,2-6.54,2.46-8.54a1.48,1.48,0,0,0,1-.87c.27-.66.17-2.18-.69-2.54A1,1,0,0,0,10.32,8C9.5,8,8.81,9,8.62,9.42a1.47,1.47,0,0,0,.2,1.47c-.68,1.35-1.76,3.84-3.23,7.41a9,9,0,1,1,13.17-.38Z" style="fill: #303c42"/>
  </g>
</svg>
