<svg id="Investment" xmlns="http://www.w3.org/2000/svg" viewBox="0 0 24 24">
  <title>Investment</title>
  <g>
    <path d="M20.77,11.59A.5.5,0,0,0,20,12a8,8,0,0,1-.16,1.56.5.5,0,0,0,.32.57.48.48,0,0,1,.27.7.49.49,0,0,1-.3.23A32.2,32.2,0,0,1,12,16a32.2,32.2,0,0,1-8.13-.92.5.5,0,0,1-.35-.61.49.49,0,0,1,.32-.32.5.5,0,0,0,.32-.57A8,8,0,0,1,4,12a.5.5,0,0,0-.77-.42C1.9,12.43,1,13.6,1,14.5v2C1,20.15,5.83,23,12,23s11-2.85,11-6.5v-2C23,13.6,22.1,12.43,20.77,11.59Z" style="fill: #303c42"/>
    <path d="M12,15a34.29,34.29,0,0,0,6.57-.58A7,7,0,0,0,19,12c0-3.77-3-11-7-11S5,8.23,5,12a7,7,0,0,0,.43,2.42A34.29,34.29,0,0,0,12,15Zm0-5a1.5,1.5,0,0,1-.5-2.91V7a.5.5,0,0,1,1,0H13a.5.5,0,0,1,0,1H12a.5.5,0,0,0,0,1,1.5,1.5,0,0,1,.5,2.91V12a.5.5,0,0,1-1,0H11a.5.5,0,0,1,0-1h1a.5.5,0,0,0,0-1Z" style="fill: #303c42"/>
  </g>
</svg>
