<svg xmlns="http://www.w3.org/2000/svg" viewBox="0 0 24 24">
  <title>Post It</title>
  <g id="Post_It" data-name="Post It">
    <path d="M23.91,16.12,19.84,2.56a2.21,2.21,0,0,0-2.72-1.46L12,2.64A2,2,0,1,0,10,5a2,2,0,0,0,.52-.08l.57.85a.5.5,0,0,0,.83-.55l-.27-.4L17.75,3a.19.19,0,0,1,.18.13L22,16.75a.19.19,0,0,1-.13.18L8.25,21a.19.19,0,0,1-.18-.13L4,7.25a.19.19,0,0,1,.13-.18L7.74,6a.5.5,0,0,0,.2-.84,3,3,0,0,1-.56-.73h0a2.93,2.93,0,0,1-.34-1A.5.5,0,0,0,6.55,3H2A2,2,0,0,0,0,5V20a2,2,0,0,0,2,2H6.42a2.18,2.18,0,0,0,2.46.91l13.56-4.07a2.18,2.18,0,0,0,1.46-2.72Z" style="fill: #303c42"/>
  </g>
</svg>
