<svg xmlns="http://www.w3.org/2000/svg" viewBox="0 0 24 24">
  <title>Edit Note 2</title>
  <g id="Edit_Note_2" data-name="Edit Note 2">
    <g>
      <path d="M16.69,13.91a.5.5,0,0,0-.54.11l-3.59,3.55a1.49,1.49,0,0,1-.5.33l-5,2a1.51,1.51,0,0,1-1.62-.33,1.5,1.5,0,0,1-.33-1.62l2-5a1.49,1.49,0,0,1,.33-.5L16.81,3a.5.5,0,0,0,.13-.47A1.86,1.86,0,0,0,15.18,1H14a.5.5,0,0,0-.5.5v.89a.5.5,0,0,0,.17.37A1,1,0,0,1,14,3.5a1,1,0,0,1-2,0,1,1,0,0,1,.33-.74.5.5,0,0,0,.17-.37V1.5A.5.5,0,0,0,12,1H10a.5.5,0,0,0-.5.5v.89a.5.5,0,0,0,.17.37A1,1,0,0,1,10,3.5a1,1,0,0,1-2,0,1,1,0,0,1,.33-.74.5.5,0,0,0,.17-.37V1.5A.5.5,0,0,0,8,1H6a.5.5,0,0,0-.5.5v.89a.5.5,0,0,0,.17.37A1,1,0,0,1,6,3.5a1,1,0,0,1-2,0,1,1,0,0,1,.33-.74.5.5,0,0,0,.17-.37V1.5A.5.5,0,0,0,4,1H2.82A1.92,1.92,0,0,0,1,3V21a1.92,1.92,0,0,0,1.82,2H15.18A1.92,1.92,0,0,0,17,21V14.37A.5.5,0,0,0,16.69,13.91Z" style="fill: #303c42"/>
      <path d="M22.41,3.59l-1-1a2,2,0,0,0-2.83,0L8.15,13.15h0l0,0a.49.49,0,0,0-.09.14H8l-2,5a.5.5,0,0,0,.65.65l5-2a.5.5,0,0,0,.17-.11L22.41,6.41a2,2,0,0,0,0-2.83ZM17.95,4.65l.85.85-8.16,8.16-.19-.38A.5.5,0,0,0,10,13H9.7ZM11.22,16.07l-2.46,1-.82-.82L8.84,14h.85l.36.72,0,0a.33.33,0,0,0,.18.18l0,0,.85.43.27.53Zm.92-.91-.19-.39a.5.5,0,0,0-.22-.22l-.38-.19L19.5,6.21l.85.85Z" style="fill: #303c42"/>
    </g>
  </g>
</svg>
