<svg xmlns="http://www.w3.org/2000/svg" viewBox="0 0 24 24">
  <title>Olive</title>
  <g id="Olive">
    <path d="M21.41,2.59A9.34,9.34,0,0,0,14.49,0,14.9,14.9,0,0,0,4.56,4.56,14.65,14.65,0,0,0,0,15a9.11,9.11,0,0,0,2.59,6.4A9.11,9.11,0,0,0,9,24h.25a14.73,14.73,0,0,0,10.2-4.56A14.65,14.65,0,0,0,24,9,9.11,9.11,0,0,0,21.41,2.59ZM6.68,6.68a12.53,12.53,0,0,0-3.52,6.41.5.5,0,0,1-.49.41H2.58a.5.5,0,0,1-.4-.58A13.53,13.53,0,0,1,6,6a.5.5,0,0,1,.71.71ZM19.9,8.9a1.73,1.73,0,0,1-.9.46,3.74,3.74,0,0,0-1.21-3.09,3.65,3.65,0,0,0-3.16-1.19,1.75,1.75,0,0,1,.47-1,1.86,1.86,0,0,1,1.35-.51,4,4,0,0,1,2.69,1.26C20.47,6.17,20.8,8,19.9,8.9Z" style="fill: #303c42"/>
  </g>
</svg>
