<svg xmlns="http://www.w3.org/2000/svg" viewBox="0 0 24 24">
  <title>Man with Beard</title>
  <g id="Man_with_Beard" data-name="Man with Beard">
    <g>
      <path d="M21,10c0-3.34-1.9-9-9-9a.5.5,0,0,0-.35.15l-.36.36C3.81,1.61,3,7.47,3,10a11,11,0,0,0,.42,2.79A3.1,3.1,0,0,0,3,14.5c0,1,.89,3.1,2.15,3.45l0,.1A6.93,6.93,0,0,0,12,23a6.93,6.93,0,0,0,6.81-4.95l0-.1C20.11,17.6,21,15.46,21,14.5a3.1,3.1,0,0,0-.42-1.71A11,11,0,0,0,21,10Zm-5.42,7.12A2.47,2.47,0,0,0,13.5,16h-3a2.47,2.47,0,0,0-2.08,1.12A12.48,12.48,0,0,1,5,12.42C5.06,11,6.46,8.5,9,8.5A8.77,8.77,0,0,0,13.65,7,6.31,6.31,0,0,1,19,12.45,12.52,12.52,0,0,1,15.58,17.12ZM13.5,18.5a.5.5,0,0,1-.5.5H11a.5.5,0,0,1,0-1h2A.5.5,0,0,1,13.5,18.5ZM4,14.5a2.37,2.37,0,0,1,.18-1l.6,3A4.12,4.12,0,0,1,4,14.5Zm15.22,1.95.6-3a2.37,2.37,0,0,1,.18,1A4.12,4.12,0,0,1,19.22,16.45Z" style="fill: #303c42"/>
      <path d="M8.5,12a1,1,0,1,0,1,1A1,1,0,0,0,8.5,12Z" style="fill: #303c42"/>
      <path d="M15.5,12a1,1,0,1,0,1,1A1,1,0,0,0,15.5,12Z" style="fill: #303c42"/>
    </g>
  </g>
</svg>
