<svg xmlns="http://www.w3.org/2000/svg" viewBox="0 0 24 24">
  <title>Woman 4</title>
  <g id="Woman_4" data-name="Woman 4">
    <g>
      <path d="M8.7,12a.5.5,0,0,0-.2,0h-1a.5.5,0,0,0,0,1,1,1,0,1,0,2,0A1,1,0,0,0,8.7,12Z" style="fill: #303c42"/>
      <path d="M16.5,12h-1a.5.5,0,0,0-.2,0,1,1,0,0,0-.8,1,1,1,0,0,0,2,0,.5.5,0,0,0,0-1Z" style="fill: #303c42"/>
      <path d="M20.49,16.22A4.3,4.3,0,0,0,21,14.5c0-.2,0-.41,0-.61a5.84,5.84,0,0,0,0-1.21V10c0-4-2.86-10-9-10a.5.5,0,0,0-.35.15L11.29.5C5.85.62,3,5.34,3,10v4.5a4.3,4.3,0,0,0,.51,1.72C2.23,18,1,20.25,1,21.5a.5.5,0,0,0,.85.35A3.73,3.73,0,0,1,3,21.2a4.21,4.21,0,0,0,.71,2.46A1.07,1.07,0,0,0,4.5,24,.5.5,0,0,0,5,23.58s.35-2.29.87-4.63C7.9,22.26,10.29,23,12,23s4.1-.74,6.14-4.05c.52,2.34.86,4.6.87,4.63a.5.5,0,0,0,.49.42,1.07,1.07,0,0,0,.78-.34A4.21,4.21,0,0,0,21,21.2a3.73,3.73,0,0,1,1.16.66A.5.5,0,0,0,23,21.5C23,20.25,21.77,18,20.49,16.22ZM18.38,17a.5.5,0,0,0-.45.27l-.05.1C16.33,20.44,14.35,22,12,22s-4.33-1.56-5.88-4.63l-.05-.1A.5.5,0,0,0,5.63,17C4.93,17,4,15.28,4,14.5c0-1,.27-1.35.7-1.54A.5.5,0,0,0,5,12.5C5,10.42,10.7,8.08,14.43,7c.85.5,4.57,2.83,4.57,5.46a.5.5,0,0,0,.3.46c.43.19.7.51.7,1.54C20,15.28,19.07,17,18.38,17Z" style="fill: #303c42"/>
    </g>
  </g>
</svg>
