<svg xmlns="http://www.w3.org/2000/svg" viewBox="0 0 24 24">
  <title>Image 1</title>
  <g id="Image_1" data-name="Image 1">
    <g>
      <path d="M22,3H2A2,2,0,0,0,0,5V19a2,2,0,0,0,.09.55s0,0,0,0l0,0A2,2,0,0,0,2,21H22a2,2,0,0,0,2-2V5A2,2,0,0,0,22,3ZM2,4H22a1,1,0,0,1,1,1V17.29L15.35,9.65a.51.51,0,0,0-.71,0L9.56,14.73a.5.5,0,0,0,0,.71l1,1a.5.5,0,0,1,0,.71.51.51,0,0,1-.71,0l-3.5-3.5a.5.5,0,0,0-.71,0L1,18.29V5A1,1,0,0,1,2,4Z" style="fill: #303c42"/>
      <circle cx="8" cy="9" r="3" style="fill: #303c42"/>
    </g>
  </g>
</svg>
