<svg xmlns="http://www.w3.org/2000/svg" viewBox="0 0 24 24">
  <title>Price Sticker</title>
  <g id="Price_Sticker" data-name="Price Sticker">
    <g>
      <path d="M22.85,9.65a4.36,4.36,0,0,1-.92-2.38,6.35,6.35,0,0,0-1.58-3.62,6.35,6.35,0,0,0-3.62-1.58,4.36,4.36,0,0,1-2.38-.92.5.5,0,0,0-.71,0l-1.8,1.8a.5.5,0,0,0,0,.7,18.47,18.47,0,0,1,3.6,5.13,17.63,17.63,0,0,0,3.41,4.87.42.42,0,0,0,.36.15.5.5,0,0,0,.35-.15l3.29-3.29a.5.5,0,0,0,0-.71Z" style="fill: #303c42"/>
      <path d="M8.55,15.22a16.71,16.71,0,0,0-3.4-4.87.46.46,0,0,0-.36-.15.5.5,0,0,0-.35.15L1.15,13.65a.5.5,0,0,0,0,.71,4.36,4.36,0,0,1,.92,2.38,6.35,6.35,0,0,0,1.58,3.62,6.35,6.35,0,0,0,3.62,1.58,4.36,4.36,0,0,1,2.38.92.5.5,0,0,0,.71,0l1.79-1.79a.5.5,0,0,0,0-.7A17.59,17.59,0,0,1,8.55,15.22Z" style="fill: #303c42"/>
      <path d="M14.56,9.23a17.64,17.64,0,0,0-3.41-4.87.5.5,0,0,0-.35-.15.4.4,0,0,0-.36.15L5.85,8.94a.5.5,0,0,0,0,.7,17.59,17.59,0,0,1,3.6,5.13,16.71,16.71,0,0,0,3.4,4.87.55.55,0,0,0,.36.15.5.5,0,0,0,.35-.15l4.59-4.59a.5.5,0,0,0,0-.7A18.47,18.47,0,0,1,14.56,9.23Z" style="fill: #303c42"/>
    </g>
  </g>
</svg>
