<svg xmlns="http://www.w3.org/2000/svg" viewBox="0 0 24 24">
  <title>Earthquake</title>
  <g id="Earthquake">
    <g>
      <path d="M23.83,11.12l-11.5-10a.5.5,0,0,0-.66,0L7.24,5a.5.5,0,0,0,0,.77L11.07,8.8l1,2.86a.5.5,0,0,0,.16.23l1.25,1a.5.5,0,0,0,.31.11H15v.9a.5.5,0,0,0,.19.39l1.94,1.55L19.3,19.1l-2.48-2,0,0-1-.67a.5.5,0,0,0-.78.42V22.5a.5.5,0,0,0,.5.5h5a.5.5,0,0,0,.5-.5V20.7a.5.5,0,0,0-.16-.36A.48.48,0,0,0,21,20V12h2.5a.5.5,0,0,0,.33-.88Z" style="fill: #303c42"/>
      <path d="M8.92,10.22a.5.5,0,0,0-.16-.15L4.7,7.64a.5.5,0,0,0-.58.05L.17,11.12A.5.5,0,0,0,.5,12H3V22.5a.5.5,0,0,0,.5.5h5a.5.5,0,0,0,.5-.5V13h.83a.5.5,0,0,0,.42-.78Z" style="fill: #303c42"/>
    </g>
  </g>
</svg>
