<svg xmlns="http://www.w3.org/2000/svg" viewBox="0 0 24 24">
  <title>House 1</title>
  <g id="House_1" data-name="House 1">
    <g>
      <path d="M23.83,11.12,21,8.66V3.5a.5.5,0,0,0-.5-.5h-3a.5.5,0,0,0-.5.5V5.19L12.33,1.12a.5.5,0,0,0-.66,0l-11.5,10a.5.5,0,0,0-.07.68l1.5,2A.5.5,0,0,0,2,14a.49.49,0,0,0,.38-.13L12,5.17l9.67,8.7A.5.5,0,0,0,22,14h0a.5.5,0,0,0,.35-.2l1.5-2A.5.5,0,0,0,23.83,11.12Z" style="fill: #303c42"/>
      <path d="M12.33,6.82a.5.5,0,0,0-.67,0l-8.5,7.65a.5.5,0,0,0-.17.37V22.5a.5.5,0,0,0,.5.5h5a.5.5,0,0,0,.5-.5V14h6v8.5a.5.5,0,0,0,.5.5h5a.5.5,0,0,0,.5-.5V14.84a.5.5,0,0,0-.17-.37Z" style="fill: #303c42"/>
    </g>
  </g>
</svg>
