<svg xmlns="http://www.w3.org/2000/svg" viewBox="0 0 24 24">
  <title>House Key</title>
  <g id="House_Key" data-name="House Key">
    <g>
      <path d="M11.41,13.78a.5.5,0,0,0,.06-.46l-.27-.72a7,7,0,1,0-8.39,0l-.27.72A.5.5,0,0,0,3,14H4v.5a.5.5,0,0,0,.15.35l.65.65-.65.65a.5.5,0,0,0,0,.71l.65.65-.65.65a.5.5,0,0,0,0,.71l.65.65-.65.65A.5.5,0,0,0,4,20.5v1a.5.5,0,0,0,.19.39l2.5,2a.5.5,0,0,0,.62,0l2.5-2A.5.5,0,0,0,10,21.5V14h1A.5.5,0,0,0,11.41,13.78ZM7,6A2,2,0,1,1,9,4,2,2,0,0,1,7,6Z" style="fill: #303c42"/>
      <path d="M23.83,10.12l-7-6a.5.5,0,0,0-.65,0L15,5.1a.5.5,0,0,0-.17.47,7.92,7.92,0,0,1-2.26,7.14.5.5,0,0,0-.14.47A1.5,1.5,0,0,1,11.38,15a.5.5,0,0,0-.37.48V17.5a.5.5,0,0,0,.5.5h3a.5.5,0,0,0,.5-.5V12h3v5.5a.5.5,0,0,0,.5.5H22a.5.5,0,0,0,.5-.5V11h1a.5.5,0,0,0,.33-.88Z" style="fill: #303c42"/>
    </g>
  </g>
</svg>
