<svg xmlns="http://www.w3.org/2000/svg" viewBox="0 0 24 24">
  <title>Recycle 1</title>
  <g id="Recycle_1" data-name="Recycle 1">
    <g>
      <path d="M9.5,15H6.81l.91-1.83,1.55.78a.5.5,0,0,0,.69-.64l-2.5-6A.5.5,0,0,0,7,7H.5a.5.5,0,0,0-.35.85L1.89,9.6.23,12.92A2.12,2.12,0,0,0,.33,15a2.13,2.13,0,0,0,.37.45l3.5,5.05A3.5,3.5,0,0,0,7.07,22H9.5a.5.5,0,0,0,.5-.5v-6A.5.5,0,0,0,9.5,15Z" style="fill: #303c42"/>
      <path d="M13.77,6.31l-1.49.74a.5.5,0,0,0,.13.94l5.5,1H18a.5.5,0,0,0,.46-.31l2.5-6a.5.5,0,0,0-.69-.64l-1.61.8L17.52,1.11A2.5,2.5,0,0,0,15.43,0L9,0H8.9A3.3,3.3,0,0,0,6.24,1.35L4.1,4.2a.5.5,0,0,0,.16.74l5.5,3a.5.5,0,0,0,.65-.15l2.2-3.15Z" style="fill: #303c42"/>
      <path d="M23.76,12.9,21.44,8.76a.5.5,0,0,0-.68-.19l-4.5,2.5a.5.5,0,0,0-.18.7l2,3.23H16V13.5a.5.5,0,0,0-.9-.29l-4,5.5a.5.5,0,0,0,0,.63l4,4.5A.5.5,0,0,0,16,23.5V22h.93a3.5,3.5,0,0,0,2.88-1.51l3.53-5.1.05,0A2.11,2.11,0,0,0,23.76,12.9Z" style="fill: #303c42"/>
    </g>
  </g>
</svg>
