<svg xmlns="http://www.w3.org/2000/svg" viewBox="0 0 24 24">
  <title>Reflect Vertical</title>
  <g id="Reflect_Vertical" data-name="Reflect Vertical">
    <g>
      <path d="M4,6.45a1,1,0,0,0,.73-.31A10,10,0,0,1,17.58,4.71l-.43.43A.5.5,0,0,0,17.5,6h3a.5.5,0,0,0,.5-.5v-3a.5.5,0,0,0-.85-.35L19,3.28A12,12,0,0,0,3.27,4.76,1,1,0,0,0,4,6.45Z" style="fill: #303c42"/>
      <path d="M1.85,6.15A.5.5,0,0,0,1,6.5v16a.5.5,0,0,0,.85.35l8-8a.5.5,0,0,0,0-.71Z" style="fill: #303c42"/>
      <path d="M22.69,6a.5.5,0,0,0-.54.11l-8,8a.5.5,0,0,0,0,.71l8,8A.5.5,0,0,0,23,22.5V6.5A.5.5,0,0,0,22.69,6Z" style="fill: #303c42"/>
      <path d="M12,20.5a1,1,0,0,0-1,1v1a1,1,0,0,0,2,0v-1A1,1,0,0,0,12,20.5Z" style="fill: #303c42"/>
      <path d="M12,8.5a1,1,0,0,0-1,1v2a1,1,0,0,0,2,0v-2A1,1,0,0,0,12,8.5Z" style="fill: #303c42"/>
      <path d="M12,14.5a1,1,0,0,0-1,1v2a1,1,0,0,0,2,0v-2A1,1,0,0,0,12,14.5Z" style="fill: #303c42"/>
      <path d="M12,3.5a1,1,0,0,0-1,1v1a1,1,0,1,0,2,0v-1A1,1,0,0,0,12,3.5Z" style="fill: #303c42"/>
    </g>
  </g>
</svg>
