<svg xmlns="http://www.w3.org/2000/svg" viewBox="0 0 24 24">
  <title>Pulley</title>
  <g id="Pulley">
    <path d="M17,8a5,5,0,0,0-4.5-4.95V1h3a.5.5,0,1,0,0-1h-7a.5.5,0,1,0,0,1h3V3.05A5,5,0,0,0,8,11v4H7.5a.5.5,0,0,0-.5.5v4a.5.5,0,0,0,.5.5H8v2H7.5a.5.5,0,0,0-.35.85l1,1,0,0h0a.5.5,0,0,0,.26.12h.09a.5.5,0,0,0,.32-.15l1-1A.5.5,0,0,0,9.5,22H9V20h.5a.5.5,0,0,0,.5-.5v-4a.5.5,0,0,0-.5-.5H9V12a4.9,4.9,0,0,0,6,0V23.5a.5.5,0,0,0,1,0V11A5,5,0,0,0,17,8ZM12,9a1,1,0,1,1,1-1A1,1,0,0,1,12,9Z" style="fill: #303c42"/>
  </g>
</svg>
