<svg xmlns="http://www.w3.org/2000/svg" viewBox="0 0 24 24">
  <title>Send Money</title>
  <g id="Send_Money" data-name="Send Money">
    <g>
      <path d="M22.93,9.24a.9.9,0,0,0-.12-.14L20,6.91V5a2,2,0,0,0-2-2H15.09c-.71-.58-1.17-1.11-1.59-1.47a2,2,0,0,0-2.69,0c-.41.37-1.19.89-1.9,1.47H6A2,2,0,0,0,4,5V6.91L1.19,9.11a.9.9,0,0,0-.12.14A1,1,0,0,0,1,9.5V21a2,2,0,0,0,2,2H21a2,2,0,0,0,2-2V9.5A1,1,0,0,0,22.93,9.24ZM19,5V6.95A3.49,3.49,0,0,1,16.05,4H18A1,1,0,0,1,19,5ZM11.47,2.28a1,1,0,0,1,1.36,0c.22.2.35.45.68.72h-3C10.81,2.73,11.25,2.48,11.47,2.28ZM13,8a1,1,0,1,1-1-1A1,1,0,0,1,13,8ZM6,4H7.95A3.49,3.49,0,0,1,5,6.95V5A1,1,0,0,1,6,4Zm6.68,12.71a1.09,1.09,0,0,1-1.38,0C9.36,15,4,10.79,2.32,9.5L4,8.18V9.3a.48.48,0,0,0,.19.39c1.11.87,2.54,2,3.91,3.09A.49.49,0,0,1,8,12.5a.5.5,0,0,1,.5-.5H9V11a.5.5,0,1,1,1,0v1.75a.75.75,0,0,0,1.5,0v-.37a1.84,1.84,0,0,1,1.59-1.87A1.75,1.75,0,0,1,15,12h.53a.5.5,0,0,1,.5.5.49.49,0,0,1-.07.24c1.36-1.08,2.78-2.19,3.89-3.05A.48.48,0,0,0,20,9.3V8.18L21.68,9.5C20,10.8,14.61,15,12.68,16.71Z" style="fill: #303c42"/>
      <path d="M15,13v.48l.64-.51a.49.49,0,0,1-.14,0Z" style="fill: #303c42"/>
      <path d="M8.5,13a.49.49,0,0,1-.17,0l1,.81A1.73,1.73,0,0,1,9,13Z" style="fill: #303c42"/>
      <path d="M14,12.25a.75.75,0,1,0-1.5,0v.37a1.85,1.85,0,0,1-1.42,1.85,1.72,1.72,0,0,1-1-.12c.61.5,1.17,1,1.61,1.34a.5.5,0,0,0,.65,0c.49-.41,1.1-.91,1.77-1.45A.49.49,0,0,1,14,14Z" style="fill: #303c42"/>
    </g>
  </g>
</svg>
