<svg xmlns="http://www.w3.org/2000/svg" viewBox="0 0 24 24">
  <title>Drop Delivery</title>
  <g id="Drop_Delivery" data-name="Drop Delivery">
    <path d="M21,9A9,9,0,1,0,3,9a.49.49,0,0,0,.21.4l0,0L10.31,14H7.5a.5.5,0,0,0-.5.5v9a.5.5,0,0,0,.5.5h9a.5.5,0,0,0,.5-.5v-9a.5.5,0,0,0-.5-.5H13.69l7.08-4.58,0,0A.49.49,0,0,0,21,9ZM14.29,7.52A4.77,4.77,0,0,0,12,7a4.76,4.76,0,0,0-2.29.52C9.95,3.45,11.13,1,12,1S14.05,3.45,14.29,7.52Zm0,1.4L12,13.41,9.69,8.92c.11-.4,1-.92,2.31-.92S14.21,8.52,14.31,8.92ZM6.33,8c1.42,0,2.33.59,2.33,1V9a1.27,1.27,0,0,0,0,.19v0l2,3.83L4.08,8.78A2.83,2.83,0,0,1,6.33,8Zm8.94,1.23v0a1.27,1.27,0,0,0,0-.19V9c0-.41.91-1,2.33-1a2.83,2.83,0,0,1,2.25.78L13.3,13.06ZM9.21,21l4-4h1.59l-4,4ZM8,23V22h8v1Zm8-7H8V15h8Z" style="fill: #303c42"/>
  </g>
</svg>
