<svg xmlns="http://www.w3.org/2000/svg" viewBox="0 0 24 24">
  <title>Shopping Bag 3</title>
  <g id="Shopping_Bag_3" data-name="Shopping Bag 3">
    <g>
      <path d="M22.5,19H1.5a.5.5,0,0,0-.5.5V21a2,2,0,0,0,2,2H21a2,2,0,0,0,2-2V19.5A.5.5,0,0,0,22.5,19Z" style="fill: #303c42"/>
      <path d="M22.5,6h-4a.5.5,0,0,0-.5.5v2a.5.5,0,1,1-1,0V3a2,2,0,0,0-2-2H9A2,2,0,0,0,7,3V8.5a.5.5,0,0,1-1,0v-2A.5.5,0,0,0,5.5,6h-4a.5.5,0,0,0-.5.5v11a.5.5,0,0,0,.5.5h21a.5.5,0,0,0,.5-.5V6.5A.5.5,0,0,0,22.5,6ZM15,3V6H9V3Z" style="fill: #303c42"/>
    </g>
  </g>
</svg>
