<svg xmlns="http://www.w3.org/2000/svg" viewBox="0 0 24 24">
  <title>Stereo Speaker</title>
  <g id="Stereo_Speaker" data-name="Stereo Speaker">
    <g>
      <path d="M9,3H2A2,2,0,0,0,0,5V19a2,2,0,0,0,2,2H9a2,2,0,0,0,2-2V5A2,2,0,0,0,9,3ZM5.5,5A2.5,2.5,0,1,1,3,7.5,2.5,2.5,0,0,1,5.5,5Zm0,13A3.5,3.5,0,1,1,9,14.5,3.5,3.5,0,0,1,5.5,18Z" style="fill: #303c42"/>
      <path d="M22,3H15a2,2,0,0,0-2,2V19a2,2,0,0,0,2,2h7a2,2,0,0,0,2-2V5A2,2,0,0,0,22,3ZM18.5,5A2.5,2.5,0,1,1,16,7.5,2.5,2.5,0,0,1,18.5,5Zm0,13A3.5,3.5,0,1,1,22,14.5,3.5,3.5,0,0,1,18.5,18Z" style="fill: #303c42"/>
      <circle cx="5.5" cy="14.5" r="1" style="fill: #303c42"/>
      <circle cx="18.5" cy="14.5" r="1" style="fill: #303c42"/>
    </g>
  </g>
</svg>
