<svg xmlns="http://www.w3.org/2000/svg" viewBox="0 0 24 24">
  <title>Sphere</title>
  <g id="Sphere">
    <g>
      <path d="M24,12.1s0-.06,0-.1A12,12,0,0,0,0,12s0,.06,0,.1v0s0,.09,0,.13a12,12,0,0,0,24,0s0-.09,0-.13ZM22,12c0,.06,0,.12,0,.19C21.89,14,17.66,16,12,16a22.3,22.3,0,0,1-3.69-.3A21.65,21.65,0,0,1,8,12C8,6.28,10.11,2,12,2A10,10,0,0,1,22,12ZM8.06,2.81A14,14,0,0,0,6.59,6.66a1,1,0,0,0-.3,0,16.54,16.54,0,0,0-1.86.59,1,1,0,1,0,.72,1.87c.33-.13.69-.25,1.06-.35a25,25,0,0,0,0,6.44c-2.53-.75-4.14-1.93-4.2-3,0-.06,0-.12,0-.19A10,10,0,0,1,8.06,2.81ZM2.84,16a14.14,14.14,0,0,0,3.77,1.41,13.92,13.92,0,0,0,1.45,3.78A10.06,10.06,0,0,1,2.84,16ZM12,22c-1.16,0-2.41-1.62-3.19-4.2A25.56,25.56,0,0,0,12,18a25.56,25.56,0,0,0,3.2-.2c-.11.37-.23.73-.36,1.07a1,1,0,1,0,1.86.74,16.5,16.5,0,0,0,.61-1.87,1,1,0,0,0,0-.31A14.21,14.21,0,0,0,21.16,16,10,10,0,0,1,12,22Z" style="fill: #303c42"/>
      <path d="M16.94,10.07a1,1,0,0,0-1,1q0,.44,0,.89t0,.88a1,1,0,0,0,1,1h0a1,1,0,0,0,1-1q0-.47,0-1t0-1A1,1,0,0,0,16.94,10.07Z" style="fill: #303c42"/>
      <path d="M15.36,6.76a1,1,0,0,0,1,.75l.14,0a1,1,0,0,0,.73,1.12,14.58,14.58,0,0,1,1.64.51,1,1,0,1,0,.72-1.87,16.51,16.51,0,0,0-1.86-.59,1,1,0,0,0-.37,0,1,1,0,0,0,0-.4,15.92,15.92,0,0,0-.61-1.87,1,1,0,1,0-1.86.74A14,14,0,0,1,15.36,6.76Z" style="fill: #303c42"/>
      <path d="M10.07,7.05a1,1,0,0,0,1,1h0c.58,0,1.18,0,1.76,0a1,1,0,0,0,.07-2C12.32,6,11.67,6,11,6A1,1,0,0,0,10.07,7.05Z" style="fill: #303c42"/>
    </g>
  </g>
</svg>
