<svg xmlns="http://www.w3.org/2000/svg" viewBox="0 0 24 24">
  <title>Disable Flash Drive</title>
  <g id="Disable_Flash_Drive" data-name="Disable Flash Drive">
    <g>
      <path d="M17.35,4.65l-.5-.5A.5.5,0,0,0,16.5,4c-.26,0-.27,0-1.86,1.66a.5.5,0,0,0,0,.7l.5.5a.5.5,0,0,0,.71,0l1.5-1.5A.5.5,0,0,0,17.35,4.65Z" style="fill: #303c42"/>
      <path d="M17.15,8.85l.5.5a.5.5,0,0,0,.71,0l1.5-1.5a.5.5,0,0,0,0-.71l-.5-.5A.5.5,0,0,0,19,6.5c-.26,0-.27,0-1.86,1.66A.5.5,0,0,0,17.15,8.85Z" style="fill: #303c42"/>
      <path d="M11,17.5a6.5,6.5,0,0,1,8.14-6.28l.13,0a.5.5,0,0,0,.35-.15l3.23-3.23a.5.5,0,0,0,0-.71l-6-6a.5.5,0,0,0-.71,0L12,5.29l-.15-.15a.5.5,0,0,0-.71,0L2.56,13.73A5.29,5.29,0,0,0,1,17.5v.17A5.33,5.33,0,0,0,6.33,23H6.5a5.29,5.29,0,0,0,3.77-1.56l1.06-1.06a.5.5,0,0,0,.11-.53A6.48,6.48,0,0,1,11,17.5ZM16.5,2.21,21.79,7.5l-2.68,2.68A7.44,7.44,0,0,0,17.5,10a6.89,6.89,0,0,0-.75,0l-.68-.68L12.71,6ZM6.52,21A3.48,3.48,0,1,1,10,17.48,3.49,3.49,0,0,1,6.52,21Z" style="fill: #303c42"/>
      <path d="M17.5,12A5.5,5.5,0,1,0,23,17.5,5.51,5.51,0,0,0,17.5,12ZM21,17.5a3.45,3.45,0,0,1-.43,1.65l-4.72-4.72A3.45,3.45,0,0,1,17.5,14,3.5,3.5,0,0,1,21,17.5Zm-7,0a3.45,3.45,0,0,1,.43-1.65l4.72,4.72A3.45,3.45,0,0,1,17.5,21,3.5,3.5,0,0,1,14,17.5Z" style="fill: #303c42"/>
    </g>
  </g>
</svg>
