<svg xmlns="http://www.w3.org/2000/svg" viewBox="0 0 24 24">
  <title>Save Backup</title>
  <g id="Save_Backup" data-name="Save Backup">
    <g>
      <rect x="10" y="1" width="3" height="5" rx="0.5" ry="0.5" style="fill: #303c42"/>
      <path d="M11.88,18H3.5a.49.49,0,0,1-.5-.5v-8A.5.5,0,0,1,3.5,9h12a.5.5,0,0,1,.5.5v2.28a.5.5,0,0,0,.75.43A1.47,1.47,0,0,1,17.5,12h1a.5.5,0,0,0,.5-.5v-8a.5.5,0,0,0-.15-.35l-3-3A.49.49,0,0,0,15.5,0a.5.5,0,0,0-.5.5V6a2,2,0,0,1-2,2H6A2,2,0,0,1,4,6V.5A.5.5,0,0,0,3.5,0H2A2,2,0,0,0,0,2V17a2,2,0,0,0,2,2h9.5a.5.5,0,0,0,.5-.5v-.37A.13.13,0,0,0,11.88,18Z" style="fill: #303c42"/>
      <path d="M18.5,13A5.5,5.5,0,1,0,24,18.5,5.51,5.51,0,0,0,18.5,13Zm1.85,7.35a.5.5,0,0,1-.71,0l-1.5-1.5A.5.5,0,0,1,18,18.5v-3a.5.5,0,1,1,1,0v2.79l1.35,1.35A.5.5,0,0,1,20.35,20.35Z" style="fill: #303c42"/>
    </g>
  </g>
</svg>
