<svg xmlns="http://www.w3.org/2000/svg" viewBox="0 0 24 24">
  <title>Dron 2</title>
  <g id="Dron_2" data-name="Dron 2">
    <g>
      <path d="M18.12,19.82a.5.5,0,0,0,.36.18h0a.5.5,0,0,0,.35-.15l1-1a.5.5,0,0,0,0-.74A8.7,8.7,0,0,1,17,12a8.7,8.7,0,0,1,2.82-6.12.5.5,0,0,0,0-.74l-1-1A.48.48,0,0,0,18.48,4a.5.5,0,0,0-.36.18A8.7,8.7,0,0,1,12,7,8.7,8.7,0,0,1,5.88,4.18.5.5,0,0,0,5.52,4a.49.49,0,0,0-.38.15l-1,1a.5.5,0,0,0,0,.74A8.7,8.7,0,0,1,7,12a8.7,8.7,0,0,1-2.82,6.12.5.5,0,0,0,0,.74l1,1a.51.51,0,0,0,.38.15.5.5,0,0,0,.36-.18A8.7,8.7,0,0,1,12,17,8.7,8.7,0,0,1,18.12,19.82ZM12,15a3,3,0,1,1,3-3A3,3,0,0,1,12,15Z" style="fill: #303c42"/>
      <path d="M5,9A.5.5,0,0,0,5,8,3,3,0,1,1,8,5,.5.5,0,0,0,9,5,4,4,0,1,0,5,9Z" style="fill: #303c42"/>
      <path d="M15.5,5.5A.5.5,0,0,0,16,5a3,3,0,1,1,3,3,.5.5,0,0,0,0,1,4,4,0,1,0-4-4A.5.5,0,0,0,15.5,5.5Z" style="fill: #303c42"/>
      <path d="M19,15a.5.5,0,0,0,0,1,3,3,0,1,1-3,3,.5.5,0,0,0-1,0,4,4,0,1,0,4-4Z" style="fill: #303c42"/>
      <path d="M8.5,18.5A.5.5,0,0,0,8,19a3,3,0,1,1-3-3,.5.5,0,1,0,0-1,4,4,0,1,0,4,4A.5.5,0,0,0,8.5,18.5Z" style="fill: #303c42"/>
    </g>
  </g>
</svg>
