<svg xmlns="http://www.w3.org/2000/svg" viewBox="0 0 24 24">
  <title>Beatle</title>
  <g id="Beatle">
    <g>
      <path d="M1,8a1,1,0,0,0,.79-.41l1.28.32a.49.49,0,0,0,.32.25c2.48.59,3.55,2.77,4.41,4.52h0L8,13c.63,1.28,1.47,2,2.43,2a1.69,1.69,0,0,0,.87-.26.5.5,0,0,0,.23-.42V6.51a.5.5,0,0,0-.15-.36A.48.48,0,0,0,11,6a33,33,0,0,0-6.72.76L5.43,3.29A15.28,15.28,0,0,1,12,2a15.28,15.28,0,0,1,6.57,1.29l1.16,3.48A33,33,0,0,0,13,6a.48.48,0,0,0-.36.14.5.5,0,0,0-.15.36v7.81a.5.5,0,0,0,.23.42,1.69,1.69,0,0,0,.87.26c1,0,1.8-.67,2.43-2l.18-.37c.86-1.75,1.93-3.93,4.41-4.52a.49.49,0,0,0,.32-.25l1.28-.32A1,1,0,0,0,23,8a1,1,0,1,0-.9-1.41l-1.27.32L19.47,2.84a.5.5,0,0,0-.12-.2C18.68,2,15.48,1,12,1S5.32,2,4.65,2.65a.5.5,0,0,0-.12.2L3.17,6.9,1.9,6.59A1,1,0,1,0,1,8ZM23,7h0ZM1,7H1Z" style="fill: #303c42"/>
      <path d="M7.1,15a.5.5,0,0,0,.42-.78,6.54,6.54,0,0,1-.43-.73l-.19-.37C6,11.26,5,9.34,2.62,9.05H2.45C.89,9.39,0,11.19,0,14a2.61,2.61,0,0,0,.09.61A.5.5,0,0,0,.58,15ZM3.5,11.5A1.5,1.5,0,1,1,2,13,1.5,1.5,0,0,1,3.5,11.5Z" style="fill: #303c42"/>
      <path d="M21.55,9.06h-.16C19,9.34,18,11.26,17.1,13.12l-.19.38a6.26,6.26,0,0,1-.43.73.5.5,0,0,0,.42.78h6.52a.54.54,0,0,0,.49-.42A2.45,2.45,0,0,0,24,14C24,11.19,23.11,9.39,21.55,9.06Zm-1,5.44A1.5,1.5,0,1,1,22,13,1.5,1.5,0,0,1,20.5,14.5Z" style="fill: #303c42"/>
      <path d="M23,16H1a.5.5,0,1,0,0,1v2.5a1.5,1.5,0,0,0,3,0v-2a32.18,32.18,0,0,0,7.4.55H14a27.69,27.69,0,0,0,6-.55v2a1.5,1.5,0,0,0,3,0V17a.5.5,0,0,0,0-1Z" style="fill: #303c42"/>
    </g>
  </g>
</svg>
