<svg xmlns="http://www.w3.org/2000/svg" viewBox="0 0 24 24">
  <title>Bicycle 1</title>
  <g id="Bicycle_1" data-name="Bicycle 1">
    <path d="M19.5,10a4.45,4.45,0,0,0-1.55.29l-1.51-3L15.81,6H18.5a.5.5,0,0,1,0,1H18a.5.5,0,0,0,0,1h.5a1.5,1.5,0,0,0,0-3H15a.5.5,0,0,0-.45.72L15.19,7H9.78L9.52,6h1a.5.5,0,0,0,0-1H7A.5.5,0,0,0,7,6H8.48l.37,1.4L6.64,10.57A4.44,4.44,0,0,0,4.5,10a4.5,4.5,0,1,0,4.34,5.63L10,15.8a1.5,1.5,0,1,0,2.6-1.28l3.35-6,1.08,2.17A4.49,4.49,0,1,0,19.5,10ZM6.31,12.78A2.48,2.48,0,0,1,7,14.35l-1.61-.23ZM4.5,17a2.5,2.5,0,1,1,1-4.79l-1.4,2a.5.5,0,0,0,.34.78l2.41.34A2.5,2.5,0,0,1,4.5,17Zm3-5.86L9.19,8.67l1.47,5.59a1.51,1.51,0,0,0-.48.55L9,14.64s0-.09,0-.14A4.47,4.47,0,0,0,7.46,11.14ZM11.76,14h-.13L10,8h5.1Zm7.74,3A2.49,2.49,0,0,1,18,12.54l1.09,2.18a.5.5,0,0,0,.89-.45l-1.09-2.18A2.47,2.47,0,0,1,19.5,12a2.5,2.5,0,0,1,0,5Z" style="fill: #303c42"/>
  </g>
</svg>
