<svg xmlns="http://www.w3.org/2000/svg" viewBox="0 0 24 24">
  <title>Cocktail</title>
  <g id="Cocktail">
    <path d="M23,7.75l-2-6.4v0h0A.49.49,0,0,0,20.48,1h0L13.87,2.2a.5.5,0,0,0-.25.86l2.27,2,.07.05,1.25.76L15.74,8H12.23l.64-1.65a.5.5,0,0,0-.12-.54l-.44-.43.76-.1a.5.5,0,0,0,.26-.88l-.9-.76.5-.17a.5.5,0,1,0-.32-.95L11.26,3a.5.5,0,0,0-.16.85l.71.6-.67.09a.5.5,0,0,0-.28.85l.95.92L11.16,8H9.92L9,2.91a.5.5,0,0,0-.23-.34l-2.5-1.5a.5.5,0,1,0-.51.86L8,3.31,8.9,8h-1a3.49,3.49,0,1,0-4.9,3.66c0,.28-.05.55-.05.84,0,5,4.06,10.5,9.5,10.5S22,17.46,22,12.5a8.2,8.2,0,0,0-1.13-4.26A.5.5,0,0,0,20.44,8H17l1.11-1.56,1.31.8.08,0,2.85,1.09a.51.51,0,0,0,.18,0A.5.5,0,0,0,23,7.75ZM4.56,8a.5.5,0,0,0-.43.24,7.88,7.88,0,0,0-.91,2.38A2.47,2.47,0,0,1,2,8.5,2.5,2.5,0,0,1,6.95,8ZM9,20.5a.5.5,0,1,1,.5-.5A.5.5,0,0,1,9,20.5Zm1,1a.5.5,0,1,1,.5-.5A.5.5,0,0,1,10,21.5Zm1-1a.5.5,0,1,1,.5-.5A.5.5,0,0,1,11,20.5Zm5.49-10.1a.5.5,0,0,0-.42-.4.49.49,0,0,0-.51.27L14.7,12l-.59-3h3.77L17,13Zm.64-5.72,2.72-2L19.28,6Z" style="fill: #303c42"/>
  </g>
</svg>
