<svg xmlns="http://www.w3.org/2000/svg" viewBox="0 0 24 24">
  <title>TV 2</title>
  <g id="TV_2" data-name="TV 2">
    <path d="M21,6H13.47L18.8,1.9a.5.5,0,1,0-.61-.79L12,5.87,5.8,1.1a.5.5,0,0,0-.61.79L10.53,6H3A2,2,0,0,0,1,8V20a2,2,0,0,0,1.5,1.94v.56A.5.5,0,0,0,3,23H21a.5.5,0,0,0,.5-.5v-.56A2,2,0,0,0,23,20V8A2,2,0,0,0,21,6Zm-.26,13.42a1.62,1.62,0,0,1-1.44,1.19,59.72,59.72,0,0,1-7.22.39,59.75,59.75,0,0,1-7.22-.39,1.62,1.62,0,0,1-1.44-1.19A22.77,22.77,0,0,1,3,14.5a22.76,22.76,0,0,1,.43-4.92A1.62,1.62,0,0,1,4.87,8.39,59.75,59.75,0,0,1,12.09,8a59.72,59.72,0,0,1,7.22.39,1.62,1.62,0,0,1,1.44,1.19,22.72,22.72,0,0,1,.43,4.92A22.72,22.72,0,0,1,20.74,19.42Z" style="fill: #303c42"/>
  </g>
</svg>
