<svg xmlns="http://www.w3.org/2000/svg" viewBox="0 0 24 24">
  <title>USB Cable</title>
  <g id="USB_Cable" data-name="USB Cable">
    <g>
      <path d="M17,7.09V.5a.5.5,0,0,0-.5-.5h-9A.5.5,0,0,0,7,.5V7.09A1.5,1.5,0,0,0,6,8.5v5.27a9.46,9.46,0,0,0,.68,3.53L8,20.69A.5.5,0,0,0,8.5,21H10v2.5a.5.5,0,0,0,.5.5h3a.5.5,0,0,0,.5-.5V21h1.5a.5.5,0,0,0,.46-.31l1.36-3.39A9.46,9.46,0,0,0,18,13.77V8.5A1.5,1.5,0,0,0,17,7.09ZM8,1h8V7H8Z" style="fill: #303c42"/>
      <rect x="9" y="2" width="2" height="3" rx="0.5" ry="0.5" style="fill: #303c42"/>
      <rect x="13" y="2" width="2" height="3" rx="0.5" ry="0.5" style="fill: #303c42"/>
    </g>
  </g>
</svg>
