<svg xmlns="http://www.w3.org/2000/svg" viewBox="0 0 24 24">
  <title>Space Invadors</title>
  <g id="Space_Invadors" data-name="Space Invadors">
    <path d="M23.5,12H22V10.5a.5.5,0,0,0-.5-.5H20V7.5a.5.5,0,0,0-.5-.5H18V6h1.5a.5.5,0,0,0,.5-.5v-2a.5.5,0,0,0-.5-.5h-2a.5.5,0,0,0-.5.5V5H15.5a.5.5,0,0,0-.5.5V7H9V5.5A.5.5,0,0,0,8.5,5H7V3.5A.5.5,0,0,0,6.5,3h-2a.5.5,0,0,0-.5.5v2a.5.5,0,0,0,.5.5H6V7H4.5a.5.5,0,0,0-.5.5V10H2.5a.5.5,0,0,0-.5.5V12H.5a.5.5,0,0,0-.5.5v6a.5.5,0,0,0,.5.5h2a.5.5,0,0,0,.5-.5V15H4v3.5a.5.5,0,0,0,.5.5H6v1.5a.5.5,0,0,0,.5.5h4a.5.5,0,0,0,.5-.5v-2a.5.5,0,0,0-.5-.5H7V17H17v1H13.5a.5.5,0,0,0-.5.5v2a.5.5,0,0,0,.5.5h4a.5.5,0,0,0,.5-.5V19h1.5a.5.5,0,0,0,.5-.5V15h1v3.5a.5.5,0,0,0,.5.5h2a.5.5,0,0,0,.5-.5v-6A.5.5,0,0,0,23.5,12ZM9,11.5a.5.5,0,0,1-.5.5h-2a.5.5,0,0,1-.5-.5v-2A.5.5,0,0,1,6.5,9h2a.5.5,0,0,1,.5.5Zm9,0a.5.5,0,0,1-.5.5h-2a.5.5,0,0,1-.5-.5v-2a.5.5,0,0,1,.5-.5h2a.5.5,0,0,1,.5.5Z" style="fill: #303c42"/>
  </g>
</svg>
