<svg xmlns="http://www.w3.org/2000/svg" viewBox="0 0 24 24">
  <title>Sunrise</title>
  <g id="Sunrise">
    <g>
      <path d="M12.71,14.29a1,1,0,0,0-1.41,0L8.94,16.65a.5.5,0,0,0,0,.71l.71.71a.5.5,0,0,0,.71,0l.65-.65V21.5a.5.5,0,0,0,.5.5h1a.5.5,0,0,0,.5-.5V17.41l.65.65a.5.5,0,0,0,.71,0l.71-.71a.5.5,0,0,0,0-.71Z" style="fill: #303c42"/>
      <path d="M23.5,17a24.28,24.28,0,0,0-3.08.16A8.84,8.84,0,0,0,21,14.5H23.5a.5.5,0,0,0,0-1H21A9,9,0,0,0,18.7,8l1.79-1.79a.5.5,0,0,0-.71-.71L18,7.3A9,9,0,0,0,12.5,5V2.5a.5.5,0,0,0-1,0V5A9,9,0,0,0,6,7.3L4.22,5.51a.5.5,0,0,0-.71.71L5.3,8A9,9,0,0,0,3,13.5H.5a.5.5,0,0,0,0,1H3a8.84,8.84,0,0,0,.55,2.66A24.27,24.27,0,0,0,.5,17a.5.5,0,0,0,0,1,16.12,16.12,0,0,1,4.65.48,14.23,14.23,0,0,0,2.78.45H8a.5.5,0,0,0,.41-.79,2,2,0,0,1,.22-2.56l2-2a2,2,0,0,1,2.83,0l2,2a2,2,0,0,1,.22,2.56.5.5,0,0,0,.41.79h0a14.24,14.24,0,0,0,2.78-.45A16.15,16.15,0,0,1,23.5,18a.5.5,0,0,0,0-1Z" style="fill: #303c42"/>
    </g>
  </g>
</svg>
