<svg xmlns="http://www.w3.org/2000/svg" viewBox="0 0 24 24">
  <title>Eco User</title>
  <g id="Eco_User" data-name="Eco User">
    <g>
      <circle cx="11" cy="6" r="6" style="fill: #303c42"/>
      <path d="M17.88,15.36a.5.5,0,0,0-.05-.9A17.89,17.89,0,0,0,11,13a19.23,19.23,0,0,0-8.54,2.25,4.5,4.5,0,0,0-2.46,4V20a2,2,0,0,0,2,2H13.57a.5.5,0,0,0,.49-.58,4,4,0,0,1-.07-.65C14,18.73,15.45,16.71,17.88,15.36Z" style="fill: #303c42"/>
      <path d="M22.87,15c-3.3,0-7.34,2.22-7.82,5.19a.5.5,0,0,0,.86.42A13.64,13.64,0,0,1,21,17.09a.5.5,0,0,1,.33.94,6.75,6.75,0,0,0-.75.32,14.35,14.35,0,0,0-5.49,4.87.5.5,0,1,0,.83.55c.11-.17.24-.34.37-.51a3,3,0,0,0,2,.74C21.43,24,24,19.7,24,16.13A1.13,1.13,0,0,0,22.87,15Z" style="fill: #303c42"/>
    </g>
  </g>
</svg>
