<svg xmlns="http://www.w3.org/2000/svg" viewBox="0 0 30 30">
  <title>Abulance</title>
  <g id="Abulance">
    <path d="M29.75,18.78,23.1,15l6.64-3.78a.5.5,0,0,0,.18-.69L26.38,4.47a.5.5,0,0,0-.68-.18L19,8.1V.5a.5.5,0,0,0-.5-.5h-7a.5.5,0,0,0-.5.5V8.1L4.29,4.28a.5.5,0,0,0-.68.18L.07,10.53a.5.5,0,0,0,.18.69L6.9,15,.25,18.78a.5.5,0,0,0-.18.69l3.55,6.06a.5.5,0,0,0,.68.18L11,21.9v7.6a.5.5,0,0,0,.5.5h7a.5.5,0,0,0,.5-.5V21.9l6.71,3.82a.5.5,0,0,0,.68-.18l3.55-6.06a.5.5,0,0,0-.18-.69Z" style="fill: #303c42"/>
  </g>
</svg>
