<svg xmlns="http://www.w3.org/2000/svg" viewBox="0 0 24 24">
  <title>Cup 1</title>
  <g id="Cup_1" data-name="Cup 1">
    <path d="M20.93,3H19a2,2,0,0,0-2-2H7A2,2,0,0,0,5,3H3.07A2.07,2.07,0,0,0,1.29,6.13l.58,1a12.72,12.72,0,0,0,4.39,4.33C7,13.68,8.21,15.68,10,16.55V19a1,1,0,0,1-1,1,2,2,0,0,0-2,2v.5a.5.5,0,0,0,.5.5h9a.5.5,0,0,0,.5-.5V22a2,2,0,0,0-2-2,1,1,0,0,1-1-1V16.55c1.79-.86,3-2.87,3.73-5.12a12.72,12.72,0,0,0,4.39-4.33l.58-1A2.07,2.07,0,0,0,20.93,3ZM2.73,6.58l-.58-1A1.07,1.07,0,0,1,3.07,4H5a28.11,28.11,0,0,0,.82,5.93A11.56,11.56,0,0,1,2.73,6.58Zm19.12-1-.58,1a11.56,11.56,0,0,1-3.09,3.35A28.11,28.11,0,0,0,19,4h1.94a1.07,1.07,0,0,1,.91,1.61Z" style="fill: #303c42"/>
  </g>
</svg>
