<svg xmlns="http://www.w3.org/2000/svg" viewBox="0 0 24 24">
  <title>Toddler 3</title>
  <g id="Toddler_3" data-name="Toddler 3">
    <path d="M24,7.5a4.5,4.5,0,1,0-8.91.9A3.49,3.49,0,0,0,13.47,8H6.85a4.85,4.85,0,0,0-4.21,7.25l.28.5h0L3.64,17H2a2,2,0,1,0,0,4H5.5A2.5,2.5,0,0,0,8,18.5V16h6.16l1.44,3.61a2.21,2.21,0,0,0,4.2-.28l0-.17a2.2,2.2,0,0,0-.09-1.36l-2.59-6.47A4.45,4.45,0,0,0,19.5,12,4.5,4.5,0,0,0,24,7.5ZM6.85,9H7v6H3.65l-.14-.25A3.85,3.85,0,0,1,6.85,9Z" style="fill: #303c42"/>
  </g>
</svg>
