<svg xmlns="http://www.w3.org/2000/svg" viewBox="0 0 30 30">
  <title>Toddler 3</title>
  <g id="Toddler_3" data-name="Toddler 3">
    <path d="M30,9.5A5.5,5.5,0,1,0,19.21,11a4.5,4.5,0,0,0-2.77-1H7.5A5.51,5.51,0,0,0,2,15.5v.1a7.45,7.45,0,0,0,.68,3.11h0A7.47,7.47,0,0,0,4.2,20.9l.1.1H2.5a2.5,2.5,0,0,0,0,5h5A2.5,2.5,0,0,0,10,23.5V19h7.19L20,24.53a2.66,2.66,0,0,0,5-1.19V23a2.65,2.65,0,0,0-.24-1.11h0l-3.71-8.08A5.49,5.49,0,0,0,30,9.5Zm-27,6A4.5,4.5,0,0,1,7.5,11H9v7H3.47A6.42,6.42,0,0,1,3,15.6Z" style="fill: #303c42"/>
  </g>
</svg>
