<svg xmlns="http://www.w3.org/2000/svg" viewBox="0 0 24 24">
  <title>Pram 1</title>
  <g id="Pram_1" data-name="Pram 1">
    <g>
      <path d="M22,7a2,2,0,0,0-2,2v1H.5a.5.5,0,0,0-.5.5,10.5,10.5,0,0,0,4.6,8.68A2.5,2.5,0,1,0,8,21.5a2.47,2.47,0,0,0-.16-.85,10.16,10.16,0,0,0,5.32,0,2.47,2.47,0,0,0-.16.85,2.5,2.5,0,1,0,3.4-2.32A10.5,10.5,0,0,0,21,10.5V9a1,1,0,0,1,2,0v.5a.5.5,0,0,0,1,0V9A2,2,0,0,0,22,7Z" style="fill: #303c42"/>
      <path d="M10.2,7.65a.5.5,0,0,0,.3.1.5.5,0,0,0,.5-.5V.5a.5.5,0,0,0-.5-.5A10.39,10.39,0,0,0,4,2.24.5.5,0,0,0,4,3Z" style="fill: #303c42"/>
      <path d="M.7,9H8.83a.5.5,0,0,0,.3-.9l-6-4.47a.5.5,0,0,0-.68.08A10.5,10.5,0,0,0,.21,8.4.5.5,0,0,0,.7,9Z" style="fill: #303c42"/>
    </g>
  </g>
</svg>
