<svg xmlns="http://www.w3.org/2000/svg" viewBox="0 0 24 24">
  <title>Band</title>
  <g id="Band">
    <path d="M21,7H17V3a2,2,0,0,0-2-2H9A2,2,0,0,0,7,3V7H3A2,2,0,0,0,1,9v6a2,2,0,0,0,2,2H7v4a2,2,0,0,0,2,2h6a2,2,0,0,0,2-2V17h4a2,2,0,0,0,2-2V9A2,2,0,0,0,21,7ZM9,14a1,1,0,1,1,1,1A1,1,0,0,1,9,14Zm6-4a1,1,0,1,1-1-1A1,1,0,0,1,15,10Zm-2,2a1,1,0,1,1-1-1A1,1,0,0,1,13,12Zm-2-2a1,1,0,1,1-1-1A1,1,0,0,1,11,10Zm2,4a1,1,0,1,1,1,1A1,1,0,0,1,13,14ZM9,3h6V7H9ZM3,15V9H7v6Zm12,6H9V17h6Zm2-6V9h4v6Z" style="fill: #303c42"/>
  </g>
</svg>
