<svg xmlns="http://www.w3.org/2000/svg" viewBox="0 0 30 30">
  <title>Battery 4</title>
  <g id="Battery_4" data-name="Battery 4">
    <path d="M23,3H20V.5a.5.5,0,0,0-.5-.5h-9a.5.5,0,0,0-.5.5V3H7A2,2,0,0,0,5,5V28a2,2,0,0,0,2,2H23a2,2,0,0,0,2-2V5A2,2,0,0,0,23,3Zm0,24.5a.5.5,0,0,1-.5.5H7.5a.5.5,0,0,1-.5-.5v-4a.5.5,0,0,1,.5-.5h15a.5.5,0,0,1,.5.5Zm0-6a.5.5,0,0,1-.5.5H7.5a.5.5,0,0,1-.5-.5v-4a.5.5,0,0,1,.5-.5h15a.5.5,0,0,1,.5.5Zm0-6a.5.5,0,0,1-.5.5H7.5a.5.5,0,0,1-.5-.5v-4a.5.5,0,0,1,.5-.5h15a.5.5,0,0,1,.5.5Zm0-6a.5.5,0,0,1-.5.5H7.5A.5.5,0,0,1,7,9.5v-4A.5.5,0,0,1,7.5,5h15a.5.5,0,0,1,.5.5Z" style="fill: #303c42"/>
  </g>
</svg>
