<svg xmlns="http://www.w3.org/2000/svg" viewBox="0 0 30 30">
  <title>Bit Coin</title>
  <g id="Bit_Coin" data-name="Bit Coin">
    <g>
      <path d="M16.25,15.5H13V19h3.25a1.75,1.75,0,0,0,0-3.5Z" style="fill: #303c42"/>
      <path d="M15,5A10,10,0,1,0,25,15,10,10,0,0,0,15,5Zm2,14.88v.62a.5.5,0,0,1-1,0V20H14v.5a.5.5,0,0,1-1,0V20H11.5a.5.5,0,0,1,0-1H12V11h-.5a.5.5,0,0,1,0-1H13V9.5a.5.5,0,0,1,1,0V10h1.25a2.71,2.71,0,0,1,.75.12V9.5a.5.5,0,0,1,1,0v1.15a2.73,2.73,0,0,1,.2,4,2.73,2.73,0,0,1-.2,5.2Z" style="fill: #303c42"/>
      <path d="M13,11v3.5h2.25a1.75,1.75,0,0,0,0-3.5Z" style="fill: #303c42"/>
      <path d="M15,0A15,15,0,1,0,30,15,15,15,0,0,0,15,0Zm0,26A11,11,0,1,1,26,15,11,11,0,0,1,15,26Z" style="fill: #303c42"/>
    </g>
  </g>
</svg>
