<svg xmlns="http://www.w3.org/2000/svg" viewBox="0 0 30 30">
  <title>Boots 2</title>
  <g id="Boots_2" data-name="Boots 2">
    <path d="M26,27.44a2.36,2.36,0,0,0-2-2.36,11.25,11.25,0,0,1-6.18-2.86C15.7,20,16.31,12.5,16.72,7.51,16.87,5.7,17,4.14,17,3V.5a.5.5,0,0,0-.5-.5H4.5A.5.5,0,0,0,4,.5V3c0,.81.39,3.16.83,5.88A82.52,82.52,0,0,1,6,17.5a25.54,25.54,0,0,1-.54,4.42A21.78,21.78,0,0,0,5,25.5v2.74A1.75,1.75,0,0,0,6.74,30H10.5a.5.5,0,0,0,.5-.5v-1A19.34,19.34,0,0,0,16.85,30H25.5a.5.5,0,0,0,.5-.5.49.49,0,0,0-.23-.41,1.76,1.76,0,0,0,.23-.85Z" style="fill: #303c42"/>
  </g>
</svg>
