<svg xmlns="http://www.w3.org/2000/svg" viewBox="0 0 24 24">
  <title>Boots 2</title>
  <g id="Boots_2" data-name="Boots 2">
    <path d="M21,21.86a2,2,0,0,0-1.69-2,9.1,9.1,0,0,1-5-2.24c-1.64-1.64-1.07-7.2-.65-11.26.16-1.57.3-2.93.3-3.89V.5a.5.5,0,0,0-.5-.5H3.5A.5.5,0,0,0,3,.5v2a38.18,38.18,0,0,0,.84,4.71A53.08,53.08,0,0,1,5,14a17.35,17.35,0,0,1-.54,3.55A15,15,0,0,0,4,20.5v2A1.5,1.5,0,0,0,5.5,24h3a.5.5,0,0,0,.5-.5v-.58A15.5,15.5,0,0,0,13.5,24h7a.5.5,0,0,0,.35-.86A1.48,1.48,0,0,0,21,22.5Z" style="fill: #303c42"/>
  </g>
</svg>
