<svg xmlns="http://www.w3.org/2000/svg" viewBox="0 0 24 24">
  <title>Bow Tie</title>
  <g id="Bow_Tie" data-name="Bow Tie">
    <g>
      <path d="M13.91,8.26A.5.5,0,0,0,13.5,8L10,8a.5.5,0,0,0-.41.22,7.07,7.07,0,0,0,0,7.54A.5.5,0,0,0,10,16l3.5.06a.5.5,0,0,0,.41-.22,7.07,7.07,0,0,0,0-7.54Z" style="fill: #303c42"/>
      <path d="M7.83,14.23a.5.5,0,0,0-.73-.29,10.23,10.23,0,0,1-3.55,1H3.5a.5.5,0,0,1-.5-.45A.5.5,0,0,1,3.45,14c1.05-.11,4.05-.71,4.05-2s-3-1.89-4.05-2a.5.5,0,1,1,.1-1A10.23,10.23,0,0,1,7.1,10a.51.51,0,0,0,.44,0,.5.5,0,0,0,.29-.32,7.74,7.74,0,0,1,.91-2A.5.5,0,0,0,8.58,7C8.06,6.66,3.5,4,2,4c-.93,0-2,.91-2,8s1.07,8,2,8c1.5,0,6.06-2.66,6.58-3a.5.5,0,0,0,.16-.71A7.74,7.74,0,0,1,7.83,14.23Z" style="fill: #303c42"/>
      <path d="M22,4.06c-1.64,0-6.9,3.16-6.95,3.19a.5.5,0,0,0-.17.68,8.24,8.24,0,0,1,.79,1.84.5.5,0,0,0,.73.29A10.23,10.23,0,0,1,20,9a.5.5,0,0,1,.37.11.5.5,0,0,1-.27.88C19,10.15,16,10.74,16,12s3,1.89,4.05,2a.5.5,0,1,1-.1,1,10.23,10.23,0,0,1-3.56-1,.5.5,0,0,0-.73.29,8.24,8.24,0,0,1-.79,1.84.5.5,0,0,0,.17.68C15.1,16.84,20.36,20,22,20c.93,0,2-.91,2-8S22.93,4.06,22,4.06Z" style="fill: #303c42"/>
    </g>
  </g>
</svg>
