<svg xmlns="http://www.w3.org/2000/svg" viewBox="0 0 30 30">
  <title>Carambola</title>
  <g id="Carambola">
    <g>
      <path d="M20,18c2.35,3.4,2.71,6,3,9.5-3.07-1.37-5.65-2.6-8-6h0c-2.35,3.4-4.93,4.63-8,6,.29-3.49.65-6.1,3-9.5h0c-3.8-1.3-5.31-3.36-7.5-6,3.25-.79,5.7-1.3,9.5,0h0c0-4.21,1.29-6.5,3-9.5,1.71,3,3,5.3,3,9.5h0c3.78-1.29,6.25-.79,9.5,0-2.19,2.64-3.7,4.7-7.5,6Z" style="fill: none;stroke: #303c42;stroke-linecap: round;stroke-linejoin: round"/>
      <path d="M15.5,12.75A2.12,2.12,0,0,1,15,14a2.12,2.12,0,0,1-.5-1.25A2.12,2.12,0,0,1,15,11.5,2.12,2.12,0,0,1,15.5,12.75Z" style="fill: none;stroke: #303c42;stroke-linecap: round;stroke-linejoin: round"/>
      <path d="M11.59,14.87a2.12,2.12,0,0,1,1,.86,2.12,2.12,0,0,1-1.34.09,2.12,2.12,0,0,1-1-.86A2.12,2.12,0,0,1,11.59,14.87Z" style="fill: none;stroke: #303c42;stroke-linecap: round;stroke-linejoin: round"/>
      <path d="M12.39,19.24a2.12,2.12,0,0,1,1.14-.72,2.12,2.12,0,0,1-.33,1.31,2.12,2.12,0,0,1-1.14.72A2.12,2.12,0,0,1,12.39,19.24Z" style="fill: none;stroke: #303c42;stroke-linecap: round;stroke-linejoin: round"/>
      <path d="M16.8,19.83a2.12,2.12,0,0,1-.33-1.31,1.81,1.81,0,0,1,1.47,2A2.12,2.12,0,0,1,16.8,19.83Z" style="fill: none;stroke: #303c42;stroke-linecap: round;stroke-linejoin: round"/>
      <path d="M18.72,15.82a2.12,2.12,0,0,1-1.34-.09,2.12,2.12,0,0,1,1-.86,2.12,2.12,0,0,1,1.34.09A2.12,2.12,0,0,1,18.72,15.82Z" style="fill: none;stroke: #303c42;stroke-linecap: round;stroke-linejoin: round"/>
    </g>
  </g>
</svg>
