<svg xmlns="http://www.w3.org/2000/svg" viewBox="0 0 30 30">
  <title>Carambola</title>
  <g id="Carambola">
    <path d="M28,11.83a.5.5,0,0,0-.36-.33c-3.25-.79-5.69-1.23-9.13-.2-.16-4-1.5-6.36-3.05-9.07a.52.52,0,0,0-.87,0c-1.62,2.84-2.92,5.12-3.05,9.07-3.44-1-5.79-.61-9.13.2a.5.5,0,0,0-.27.81l.41.49C4.43,15.12,6,17,9.23,18.24,7.15,21.47,6.79,24,6.5,27.46a.5.5,0,0,0,.7.5c2.77-1.24,5.4-2.42,7.8-5.6,2.39,3.19,5,4.36,7.8,5.6a.5.5,0,0,0,.7-.5c-.29-3.44-.64-6-2.73-9.21C24,17,25.57,15.12,27.48,12.8l.41-.49A.5.5,0,0,0,28,11.83ZM9.81,15.2a.5.5,0,0,1,.23-.71,2.58,2.58,0,0,1,1.7-.11,2.59,2.59,0,0,1,1.31,1.09.5.5,0,0,1-.23.71,2.76,2.76,0,0,1-1,.21,2.14,2.14,0,0,1-.66-.1A2.59,2.59,0,0,1,9.81,15.2Zm3.79,4.92a2.58,2.58,0,0,1-1.44.91h-.11a.5.5,0,0,1-.5-.45A2.31,2.31,0,0,1,13.42,18a.51.51,0,0,1,.4.08.5.5,0,0,1,.2.35A2.59,2.59,0,0,1,13.6,20.12ZM15,14.49a.5.5,0,0,1-.37-.17A2.59,2.59,0,0,1,14,12.74a2.59,2.59,0,0,1,.63-1.58.52.52,0,0,1,.75,0A2.59,2.59,0,0,1,16,12.74a2.59,2.59,0,0,1-.63,1.58A.5.5,0,0,1,15,14.49Zm3.44,6.1a.5.5,0,0,1-.5.45h-.11A2.31,2.31,0,0,1,16,18.47a.5.5,0,0,1,.2-.35.5.5,0,0,1,.4-.08,2.31,2.31,0,0,1,1.86,2.56Zm1.75-5.39a2.59,2.59,0,0,1-1.31,1.09h0a2.14,2.14,0,0,1-.66.1,2.76,2.76,0,0,1-1-.21.5.5,0,0,1-.23-.71,2.59,2.59,0,0,1,1.31-1.09,2.58,2.58,0,0,1,1.7.11.5.5,0,0,1,.23.71Z" style="fill: #303c42"/>
  </g>
</svg>
