<svg xmlns="http://www.w3.org/2000/svg" viewBox="0 0 24 24">
  <title>Protect Cart</title>
  <g id="Protect_Cart" data-name="Protect Cart">
    <g id="_Group_" data-name="&lt;Group&gt;">
      <path id="_Path_" data-name="&lt;Path&gt;" d="M1.5,2.5H2.88A1.5,1.5,0,0,1,4.32,3.58L7.5,14.5,5.74,16.7a1.11,1.11,0,0,0-.24.69h0A1.11,1.11,0,0,0,6.61,18.5H20.5" style="fill: none;stroke: #303c42;stroke-linecap: round;stroke-linejoin: round"/>
      <path id="_Path_2" data-name="&lt;Path&gt;" d="M7.5,14.5h10a1.5,1.5,0,0,0,1.36-.86l3.49-7.41a1.11,1.11,0,0,0,.11-.47V5.61A1.11,1.11,0,0,0,21.39,4.5H17.31" style="fill: none;stroke: #303c42;stroke-linecap: round;stroke-linejoin: round"/>
      <line id="_Path_3" data-name="&lt;Path&gt;" x1="9.31" y1="4.5" x2="4.58" y2="4.5" style="fill: none;stroke: #303c42;stroke-linecap: round;stroke-linejoin: round"/>
      <circle id="_Path_4" data-name="&lt;Path&gt;" cx="7" cy="22" r="1.5" style="fill: none;stroke: #303c42;stroke-linecap: round;stroke-linejoin: round"/>
      <circle id="_Path_5" data-name="&lt;Path&gt;" cx="19" cy="22" r="1.5" style="fill: none;stroke: #303c42;stroke-linecap: round;stroke-linejoin: round"/>
      <path id="_Path_6" data-name="&lt;Path&gt;" d="M13.31,10.5c3.5-1.63,4-2.74,4-6.09V1.8l-4-1.3-4,1.3V4.41C9.31,7.76,9.81,8.87,13.31,10.5Z" style="fill: none;stroke: #303c42;stroke-linecap: round;stroke-linejoin: round"/>
      <path id="_Path_7" data-name="&lt;Path&gt;" d="M15.31,5.5c-.07,1.44-.43,2-2,2.78V5.5Z" style="fill: none;stroke: #303c42;stroke-linecap: round;stroke-linejoin: round"/>
      <polygon id="_Path_8" data-name="&lt;Path&gt;" points="11.31 5.5 11.31 3.26 13.31 2.6 13.31 5.5 11.31 5.5" style="fill: none;stroke: #303c42;stroke-linecap: round;stroke-linejoin: round"/>
    </g>
  </g>
</svg>
