<svg xmlns="http://www.w3.org/2000/svg" viewBox="0 0 24 24">
  <title>Protect Cart</title>
  <g id="Protect_Cart" data-name="Protect Cart">
    <g>
      <path d="M21.39,4H19.5a.5.5,0,0,0-.5.5c0,4.05-1,5.57-4.86,7.36a1.51,1.51,0,0,1-1.27,0C9,10.07,8,8.55,8,4.5A.5.5,0,0,0,7.5,4H5.42L5,2.7a1,1,0,0,0-1-.7H1.5a.5.5,0,0,0-.5.5v1a.5.5,0,0,0,.5.5H3.32L6.48,14.1,5,15.59A2,2,0,0,0,6.41,19H20.5a.5.5,0,0,0,.5-.5v-1a.5.5,0,0,0-.5-.5H6.41l2-2h9.13a2,2,0,0,0,1.81-1.15l3.49-7.41A1.62,1.62,0,0,0,23,5.75V5.61A1.61,1.61,0,0,0,21.39,4Z" style="fill: #303c42"/>
      <circle cx="7" cy="22" r="2" style="fill: #303c42"/>
      <circle cx="19" cy="22" r="2" style="fill: #303c42"/>
      <path d="M13.29,11a.5.5,0,0,0,.42,0C17.44,9.22,18,7.93,18,4.41V1.8a.5.5,0,0,0-.34-.48l-4-1.3a.51.51,0,0,0-.31,0l-4,1.3A.5.5,0,0,0,9,1.8V4.41C9,7.93,9.56,9.22,13.29,11ZM11,3.26a.5.5,0,0,1,.34-.48l2-.65a.51.51,0,0,1,.45.07.5.5,0,0,1,.21.4V5h1.5a.5.5,0,0,1,.5.52c-.08,1.64-.57,2.32-2.27,3.2A.5.5,0,0,1,13,8.28V6H11.5a.5.5,0,0,1-.5-.5Z" style="fill: #303c42"/>
    </g>
  </g>
</svg>
