<svg xmlns="http://www.w3.org/2000/svg" viewBox="0 0 24 24">
  <title>Fragment Chart</title>
  <g id="Fragment_Chart" data-name="Fragment Chart">
    <path d="M23.5,20H23V1.5a.5.5,0,0,0-.8-.4L18.39,4,14.62,3a.5.5,0,0,0-.38.06l-5,3a.5.5,0,0,0-.14.13L6.25,10H4V.5A.5.5,0,0,0,3.5,0h-1A.5.5,0,0,0,2,.5V20H.5a.5.5,0,0,0-.5.5v1a.5.5,0,0,0,.5.5H2v1.5a.5.5,0,0,0,.5.5h1a.5.5,0,0,0,.5-.5V22H23.5a.5.5,0,0,0,.5-.5v-1A.5.5,0,0,0,23.5,20ZM4,15.31,6.54,14l2.8.93a.5.5,0,0,0,.54-.15l4.8-5.76,3.7.92a.51.51,0,0,0,.34,0L22,8.31v3.46L18.31,15H14.5a.5.5,0,0,0-.26.07L9.51,17.91,6.78,16.08a.5.5,0,0,0-.63.06L4,18.29Z" style="fill: #303c42"/>
  </g>
</svg>
