<svg xmlns="http://www.w3.org/2000/svg" viewBox="0 0 30 30">
  <title>Developer</title>
  <g id="Developer">
    <g>
      <path d="M9.31,12.71a.5.5,0,0,0,.46.29h9.85a.53.53,0,0,0,.42-.28c1.15-.58,1.34-3.6,1.34-3.63a2.14,2.14,0,0,0-.62-1.54,4.23,4.23,0,0,0,.62-2l.45-.39A.5.5,0,0,0,22,4.8C22,2.49,19.44,0,15.31,0a5.88,5.88,0,0,0-3.93,1.09A3.56,3.56,0,0,0,8.62,4.26v.52a13,13,0,0,0,.14,2.67A2,2,0,0,0,8,9.1S8.19,12.09,9.31,12.71Z" style="fill: #303c42"/>
      <path d="M27.21,14H2.79A2.79,2.79,0,0,0,0,16.77a2.7,2.7,0,0,0,.05.54L2.23,28.09A2.39,2.39,0,0,0,4.57,30H25.43a2.39,2.39,0,0,0,2.34-1.91l2.17-10.77a2.67,2.67,0,0,0,.06-.55A2.79,2.79,0,0,0,27.21,14ZM16.94,18.5a2,2,0,0,1-1.94,2A2,2,0,0,1,16.94,18.5ZM16.62,26c-.84,0-1.09-.29-1.52-.29s-.68.29-1.52.29-2.09-1.62-2.09-2.94A2.15,2.15,0,0,1,13.4,21c.63,0,1.19.29,1.71.29S16.18,21,16.81,21a2.12,2.12,0,0,1,1.44.8,1.25,1.25,0,0,0-1.06,1.12,1.32,1.32,0,0,0,1.31,1.16C18.11,25.09,17.25,26,16.62,26Z" style="fill: #303c42"/>
    </g>
  </g>
</svg>
