<svg xmlns="http://www.w3.org/2000/svg" viewBox="0 0 30 30">
  <title>Developer</title>
  <g id="Developer">
    <g>
      <path id="_Path_" data-name="&lt;Path&gt;" d="M2.79,14.5H27.21a2.28,2.28,0,0,1,2.29,2.27h0a2.26,2.26,0,0,1,0,.45L27.28,28a1.89,1.89,0,0,1-1.85,1.51H4.57A1.89,1.89,0,0,1,2.72,28L.54,17.22a2.26,2.26,0,0,1,0-.45h0A2.28,2.28,0,0,1,2.79,14.5Z" style="fill: none;stroke: #303c42;stroke-linecap: round;stroke-linejoin: round"/>
      <path id="_Path_2" data-name="&lt;Path&gt;" d="M9.74,12.32a5,5,0,0,0,.94,2.18h8a5,5,0,0,0,.94-2.18c.83,0,1.24-2.8,1.24-3.22s-.22-1.34-.93-1.34a3.4,3.4,0,0,0,.93-2.42l.62-.54c0-2-2.27-4.3-6.19-4.3C12.52.5,11.6,1.57,11.6,1.57A3,3,0,0,0,9.12,4.26c0,1.16-.08,3.15.31,3.49-.72,0-.93.92-.93,1.34S8.91,12.32,9.74,12.32Z" style="fill: none;stroke: #303c42;stroke-linecap: round;stroke-linejoin: round"/>
      <path id="_Path_3" data-name="&lt;Path&gt;" d="M2.79,14.5H27.21a2.28,2.28,0,0,1,2.29,2.27h0a2.26,2.26,0,0,1,0,.45L27.28,28a1.89,1.89,0,0,1-1.85,1.51H4.57A1.89,1.89,0,0,1,2.72,28L.54,17.22a2.26,2.26,0,0,1,0-.45h0A2.28,2.28,0,0,1,2.79,14.5Z" style="fill: none;stroke: #303c42;stroke-linecap: round;stroke-linejoin: round"/>
      <g id="_Group_" data-name="&lt;Group&gt;">
        <path id="_Path_4" data-name="&lt;Path&gt;" d="M17.19,22.62c0-.49.45-.9,1.06-1a2.17,2.17,0,0,0-1.44-.74c-.63,0-1.19.27-1.71.27s-1.08-.27-1.71-.27a2.07,2.07,0,0,0-1.9,1.92c0,1.24,1.24,2.75,2.09,2.75a10.32,10.32,0,0,0,1.52-.27,10.32,10.32,0,0,0,1.52.27c.63,0,1.49-.85,1.88-1.8C17.76,23.63,17.19,23.17,17.19,22.62Z" style="fill: none;stroke: #303c42;stroke-linecap: round;stroke-linejoin: round"/>
        <path id="_Path_5" data-name="&lt;Path&gt;" d="M16.94,18.5c-.86,0-1.56.52-1.56,1.17C16.25,19.67,16.94,19.14,16.94,18.5Z" style="fill: none;stroke: #303c42;stroke-linecap: round;stroke-linejoin: round"/>
      </g>
    </g>
  </g>
</svg>
