<svg xmlns="http://www.w3.org/2000/svg" viewBox="0 0 24 24">
  <title>Stapler</title>
  <g id="Stapler">
    <path d="M20,12H16.54a7.25,7.25,0,0,1-4.29-1.4l-.08-.06.69-.69A10.72,10.72,0,0,1,17,7.12,9.44,9.44,0,0,0,19.3,5.9a10.18,10.18,0,0,0,2.57-2.54A.89.89,0,0,0,21.11,2a4.92,4.92,0,0,0-2.94,1,6,6,0,0,1-.89.57A12.13,12.13,0,0,1,16,4c-1.58.51-4,1.28-5.32,2.63l-1.8,1.8A6.58,6.58,0,0,0,7,8V7.5A.5.5,0,0,0,6.5,7H5V5.91A1.5,1.5,0,0,0,4.5,3h-3A1.5,1.5,0,0,0,1,5.91V7H.5a.5.5,0,0,0-.5.5v14a.5.5,0,0,0,.5.5h23a.5.5,0,0,0,.5-.5V16A4,4,0,0,0,20,12ZM4,6V7H2V6ZM6,17a1,1,0,0,1-1-1V12a1,1,0,0,1,1-1h.5v6Zm3-4a1,1,0,1,1,1-1A1,1,0,0,1,9,13Zm10,6H12.5a2,2,0,0,1,0-4H19a2,2,0,0,1,0,4Z" style="fill: #303c42"/>
  </g>
</svg>
