<svg xmlns="http://www.w3.org/2000/svg" viewBox="0 0 30 30">
  <title>Cutting Disk</title>
  <g id="Cutting_Disk" data-name="Cutting Disk">
    <g>
      <path d="M29.9,14.7a.51.51,0,0,0-.49-.19l-.49.09.7-2.7a.5.5,0,0,0-.68-.58l-.46.2.08-2.79a.5.5,0,0,0-.8-.42l-.4.3-.54-2.74A.5.5,0,0,0,26,5.63L25.63,6,24.5,3.46a.5.5,0,0,0-.44-.3.49.49,0,0,0-.46.26l-.23.44L21.69,1.63a.5.5,0,0,0-.88.17l-.13.48L18.55.48a.5.5,0,0,0-.82.36l0,.5L15.23.06a.5.5,0,0,0-.72.53l.09.49L11.9.38a.5.5,0,0,0-.59.68l.2.46L8.72,1.43a.52.52,0,0,0-.46.27.5.5,0,0,0,0,.53l.3.4-2.74.54A.5.5,0,0,0,5.63,4L6,4.37,3.46,5.5a.5.5,0,0,0,0,.9l.44.24L1.63,8.3a.5.5,0,0,0,.17.88l.48.13L.48,11.45a.5.5,0,0,0,.36.82l.5,0L.06,14.77a.5.5,0,0,0,0,.53.51.51,0,0,0,.49.19l.49-.09-.7,2.7a.5.5,0,0,0,.68.58l.46-.2-.08,2.79a.5.5,0,0,0,.8.42l.4-.3.54,2.74a.5.5,0,0,0,.87.23L4.37,24,5.5,26.54a.5.5,0,0,0,.44.3.52.52,0,0,0,.46-.26l.23-.44,1.67,2.23a.5.5,0,0,0,.88-.17l.13-.48,2.13,1.8a.5.5,0,0,0,.82-.36l0-.5,2.48,1.28a.5.5,0,0,0,.72-.53l-.09-.49,2.7.7a.49.49,0,0,0,.51-.16.5.5,0,0,0,.08-.52l-.2-.46,2.79.08a.53.53,0,0,0,.46-.27.5.5,0,0,0,0-.53l-.3-.4,2.74-.54a.5.5,0,0,0,.23-.87L24,25.63l2.55-1.13a.5.5,0,0,0,0-.9l-.44-.24,2.23-1.67a.5.5,0,0,0-.17-.88l-.48-.13,1.8-2.13a.5.5,0,0,0-.36-.82l-.5,0,1.28-2.48A.5.5,0,0,0,29.9,14.7ZM15,9a6,6,0,1,1-6,6A6,6,0,0,1,15,9Z" style="fill: #303c42"/>
      <circle cx="15" cy="15" r="1" style="fill: #303c42"/>
      <circle cx="18.5" cy="15" r="0.5" style="fill: #303c42"/>
      <circle cx="11.5" cy="15" r="0.5" style="fill: #303c42"/>
      <circle cx="15" cy="11.5" r="0.5" style="fill: #303c42"/>
      <circle cx="15" cy="18.5" r="0.5" style="fill: #303c42"/>
      <circle cx="17.47" cy="17.47" r="0.5" transform="translate(-7.24 17.47) rotate(-45)" style="fill: #303c42"/>
      <circle cx="12.53" cy="12.53" r="0.5" transform="translate(-5.19 12.53) rotate(-45)" style="fill: #303c42"/>
      <circle cx="17.47" cy="12.53" r="0.5" transform="translate(-3.74 16.03) rotate(-45)" style="fill: #303c42"/>
      <circle cx="12.53" cy="17.47" r="0.5" transform="translate(-8.69 13.97) rotate(-45)" style="fill: #303c42"/>
    </g>
  </g>
</svg>
