<svg xmlns="http://www.w3.org/2000/svg" viewBox="0 0 30 30">
  <title>Stapler</title>
  <g id="Stapler">
    <path d="M25.5,15H21a11.43,11.43,0,0,1-6.05-1.73l.78-.78a13.37,13.37,0,0,1,5.16-3.4A11.41,11.41,0,0,0,23.71,7.6a12.44,12.44,0,0,0,3.15-3.1A1,1,0,0,0,26,3a6,6,0,0,0-3.56,1.19,7.49,7.49,0,0,1-1.12.71,15,15,0,0,1-1.63.58c-1.95.63-4.89,1.57-6.53,3.21l-2,2A5.46,5.46,0,0,0,8.49,10H8V9.5A.5.5,0,0,0,7.5,9H5V8h.5a1.5,1.5,0,0,0,0-3h-4A1.5,1.5,0,0,0,1,7.91V9H.5a.5.5,0,0,0-.5.5v17a.5.5,0,0,0,.5.5h29a.5.5,0,0,0,.5-.5v-7A4.5,4.5,0,0,0,25.5,15ZM7,21a1,1,0,0,1-1-1V15a1,1,0,0,1,1-1l0,7ZM2,8H4V9H2Zm9,8a1,1,0,1,1,1-1A1,1,0,0,1,11,16Zm13,7H15a2,2,0,0,1,0-4h9a2,2,0,0,1,0,4Z" style="fill: #303c42"/>
  </g>
</svg>
