<svg xmlns="http://www.w3.org/2000/svg" viewBox="0 0 24 24">
  <title>Cutting Disk</title>
  <g id="Cutting_Disk" data-name="Cutting Disk">
    <g>
      <path d="M23.9,11.7a.49.49,0,0,0-.49-.19l-.23,0,.52-2A.5.5,0,0,0,23,9l-.21.09.06-2a.5.5,0,0,0-.8-.42l-.19.14-.4-2a.5.5,0,0,0-.87-.23l-.15.18-.83-1.87a.5.5,0,0,0-.44-.3.47.47,0,0,0-.46.26L18.62,3,17.39,1.34a.5.5,0,0,0-.88.17l-.06.23L14.88.4a.5.5,0,0,0-.82.36V1L12.23.06a.5.5,0,0,0-.72.53l0,.23L9.57.3A.5.5,0,0,0,9,1l.09.21L7,1.14a.52.52,0,0,0-.46.27.5.5,0,0,0,0,.53l.14.19-2,.4a.5.5,0,0,0-.23.87l.18.15-1.87.83a.5.5,0,0,0,0,.9L3,5.38,1.34,6.61a.5.5,0,0,0,.17.88l.23.06L.4,9.12a.5.5,0,0,0,.36.82H1L.06,11.77a.5.5,0,0,0,.53.72l.23,0-.52,2A.5.5,0,0,0,1,15l.21-.09-.06,2a.5.5,0,0,0,.8.42l.19-.14.4,2a.5.5,0,0,0,.87.23l.15-.18.83,1.87a.5.5,0,0,0,.44.3.46.46,0,0,0,.46-.26L5.38,21l1.23,1.64a.5.5,0,0,0,.88-.17l.06-.23L9.12,23.6a.5.5,0,0,0,.82-.36V23l1.82.94a.5.5,0,0,0,.72-.53l0-.23,2,.52A.5.5,0,0,0,15,23l-.09-.21,2,.06a.5.5,0,0,0,.42-.8l-.14-.19,2-.4a.5.5,0,0,0,.23-.87l-.18-.15,1.87-.83a.5.5,0,0,0,0-.9L21,18.62l1.64-1.23a.5.5,0,0,0-.17-.88l-.23-.06,1.33-1.56a.5.5,0,0,0-.36-.82H23l.94-1.82A.5.5,0,0,0,23.9,11.7ZM12,7a5,5,0,1,1-5,5A5,5,0,0,1,12,7Z" style="fill: #303c42"/>
      <circle cx="12" cy="12" r="1" style="fill: #303c42"/>
      <circle cx="12" cy="9.5" r="0.5" style="fill: #303c42"/>
      <circle cx="12" cy="14.5" r="0.5" style="fill: #303c42"/>
      <circle cx="10.23" cy="10.23" r="0.5" transform="translate(-4.24 10.23) rotate(-45)" style="fill: #303c42"/>
      <circle cx="13.77" cy="13.77" r="0.5" transform="translate(-5.7 13.77) rotate(-45)" style="fill: #303c42"/>
      <circle cx="9.5" cy="12" r="0.5" style="fill: #303c42"/>
      <circle cx="14.5" cy="12" r="0.5" style="fill: #303c42"/>
      <circle cx="10.23" cy="13.77" r="0.5" transform="translate(-6.74 11.27) rotate(-45)" style="fill: #303c42"/>
      <circle cx="13.77" cy="10.23" r="0.5" transform="translate(-3.2 12.73) rotate(-45)" style="fill: #303c42"/>
    </g>
  </g>
</svg>
