<svg xmlns="http://www.w3.org/2000/svg" viewBox="0 0 30 30">
  <title>Coffee Can</title>
  <g id="Coffee_Can" data-name="Coffee Can">
    <g>
      <line x1="17.48" y1="4.5" x2="17.48" y2="6.87" style="fill: none;stroke: #303c42;stroke-linecap: round;stroke-linejoin: round"/>
      <line x1="1.14" y1="20.5" x2="22.83" y2="20.5" style="fill: none;stroke: #303c42;stroke-linecap: round;stroke-linejoin: round"/>
      <path d="M23.2,19.4A7.5,7.5,0,0,0,22,4.5H.48l3.2,1.28a1.5,1.5,0,0,1,.65,2.28L3.6,9h0" style="fill: none;stroke: #303c42;stroke-linecap: round;stroke-linejoin: round"/>
      <path d="M12,5.5A11.38,11.38,0,0,0,.48,16.75,11.1,11.1,0,0,0,4.2,25a1.94,1.94,0,0,0,1.3.47h13a1.94,1.94,0,0,0,1.3-.47,11.1,11.1,0,0,0,3.72-8.28A11.38,11.38,0,0,0,12,5.5Z" style="fill: none;stroke: #303c42;stroke-linecap: round;stroke-linejoin: round"/>
    </g>
  </g>
</svg>
