<svg xmlns="http://www.w3.org/2000/svg" viewBox="0 0 30 30">
  <title>Figs</title>
  <g id="Figs">
    <g>
      <circle cx="14.5" cy="25.5" r="0.5" style="fill: #303c42"/>
      <circle cx="11.5" cy="22.5" r="0.5" style="fill: #303c42"/>
      <circle cx="17.5" cy="25.5" r="0.5" style="fill: #303c42"/>
      <circle cx="10.5" cy="19.5" r="0.5" style="fill: #303c42"/>
      <circle cx="8.5" cy="21.5" r="0.5" style="fill: #303c42"/>
      <circle cx="6.5" cy="20.5" r="0.5" style="fill: #303c42"/>
      <circle cx="8.5" cy="18.5" r="0.5" style="fill: #303c42"/>
      <circle cx="9.5" cy="14.5" r="0.5" style="fill: #303c42"/>
      <circle cx="12.5" cy="13.5" r="0.5" style="fill: #303c42"/>
      <circle cx="12.5" cy="16.5" r="0.5" style="fill: #303c42"/>
      <circle cx="15.5" cy="16.5" r="0.5" style="fill: #303c42"/>
      <circle cx="14.5" cy="14.5" r="0.5" style="fill: #303c42"/>
      <circle cx="14.5" cy="11.5" r="0.5" style="fill: #303c42"/>
      <circle cx="16.5" cy="12.5" r="0.5" style="fill: #303c42"/>
      <circle cx="19.5" cy="13.5" r="0.5" style="fill: #303c42"/>
      <circle cx="19.5" cy="15.5" r="0.5" style="fill: #303c42"/>
      <circle cx="17.5" cy="17.5" r="0.5" style="fill: #303c42"/>
      <circle cx="17.5" cy="14.5" r="0.5" style="fill: #303c42"/>
      <circle cx="16.5" cy="19.5" r="0.5" style="fill: #303c42"/>
      <circle cx="21.5" cy="15.5" r="0.5" style="fill: #303c42"/>
      <circle cx="24" cy="19.5" r="0.5" style="fill: #303c42"/>
      <circle cx="8" cy="16" r="0.5" style="fill: #303c42"/>
      <circle cx="12.5" cy="20.5" r="0.5" style="fill: #303c42"/>
      <circle cx="19.5" cy="17.5" r="0.5" style="fill: #303c42"/>
      <circle cx="21.5" cy="18.5" r="0.5" style="fill: #303c42"/>
      <circle cx="21.5" cy="20.5" r="0.5" style="fill: #303c42"/>
      <circle cx="21.5" cy="22.5" r="0.5" style="fill: #303c42"/>
      <circle cx="23.5" cy="21.5" r="0.5" style="fill: #303c42"/>
      <circle cx="14.5" cy="20.5" r="0.5" style="fill: #303c42"/>
      <circle cx="13.5" cy="18.5" r="0.5" style="fill: #303c42"/>
      <circle cx="10.5" cy="17.5" r="0.5" style="fill: #303c42"/>
      <circle cx="16.5" cy="23.5" r="0.5" style="fill: #303c42"/>
      <circle cx="18.5" cy="20.5" r="0.5" style="fill: #303c42"/>
      <circle cx="9.5" cy="23.5" r="0.5" style="fill: #303c42"/>
      <circle cx="12.5" cy="24.5" r="0.5" style="fill: #303c42"/>
      <circle cx="10.5" cy="25.5" r="0.5" style="fill: #303c42"/>
      <circle cx="14.5" cy="22.5" r="0.5" style="fill: #303c42"/>
      <circle cx="7.5" cy="23.5" r="0.5" style="fill: #303c42"/>
      <circle cx="18.5" cy="22.5" r="0.5" style="fill: #303c42"/>
      <circle cx="20.5" cy="24.5" r="0.5" style="fill: #303c42"/>
      <path d="M16.5.85c0-.23-.05-.36-.14-.35C15.13.51,13,1.28,13,2A7.68,7.68,0,0,1,9.37,8.53a15.13,15.13,0,0,0-6.87,12c0,6.27,5.6,9,12.5,9s12.5-2.69,12.5-9A15.14,15.14,0,0,0,20.41,8.39,8.28,8.28,0,0,1,16.5.85Z" style="fill: none;stroke: #303c42;stroke-linecap: round;stroke-linejoin: round"/>
      <path d="M15,26.5c-2.86,0-9.5-.51-9.5-5.27,0-3.21,2.35-7,5.45-8.91A12.31,12.31,0,0,0,15,8.5a12,12,0,0,0,3.88,3.71c3.21,1.84,5.62,5.72,5.62,9C24.5,26,17.86,26.5,15,26.5Z" style="fill: none;stroke: #303c42;stroke-linecap: round;stroke-linejoin: round"/>
    </g>
  </g>
</svg>
