<svg xmlns="http://www.w3.org/2000/svg" viewBox="0 0 30 30">
  <title>Film Roll</title>
  <g id="Film_Roll" data-name="Film Roll">
    <g>
      <path d="M29.5,29a30.87,30.87,0,0,1-7.31-.84,14.95,14.95,0,1,0-1.4.68A30.89,30.89,0,0,0,29.5,30a.5.5,0,0,0,0-1ZM15.77,23.71A4.45,4.45,0,0,1,15,21.89a4.32,4.32,0,0,1-1.68,2.74A26.42,26.42,0,0,1,11,21.93a7.92,7.92,0,0,0,2.2.87h.11a.5.5,0,0,0,.45-.29,3.51,3.51,0,0,0-1.13-4.28,3.57,3.57,0,0,0-4.42.25h0l0,0a.5.5,0,0,0-.08.11l0,.06a.49.49,0,0,0,0,.11.48.48,0,0,0,0,.07.49.49,0,0,0,0,.11s0,0,0,0a22.31,22.31,0,0,0,4.34,6.13,4.49,4.49,0,0,1-4-8,4.51,4.51,0,0,1-.54,0,4.51,4.51,0,1,1,3.08-7.76A4.45,4.45,0,0,1,10.5,7.5a4.5,4.5,0,0,1,9,0,4.45,4.45,0,0,1-.45,1.92,4.45,4.45,0,0,1,1.69-1,4.52,4.52,0,1,1,.85,8.74,4.5,4.5,0,1,1-5.82,6.57Z" style="fill: #303c42"/>
      <path d="M11.2,13.76a3.51,3.51,0,0,0-1.6-4.13A.5.5,0,0,0,9,9.74a8,8,0,0,0-1.94,6,.5.5,0,0,0,.44.45l.4,0A3.49,3.49,0,0,0,11.2,13.76Z" style="fill: #303c42"/>
      <path d="M17.35,18.24a3.51,3.51,0,0,0-1.13,4.28.5.5,0,0,0,.45.29h.11a8,8,0,0,0,5.07-3.69.5.5,0,0,0-.09-.63A3.57,3.57,0,0,0,17.35,18.24Z" style="fill: #303c42"/>
      <path d="M22.13,16.18h0l.4,0a.5.5,0,0,0,.44-.45,8,8,0,0,0-1.94-6,.5.5,0,0,0-.62-.11,3.5,3.5,0,0,0,1.72,6.55Z" style="fill: #303c42"/>
      <path d="M16.76,17.43a4.47,4.47,0,0,1,3.17-.83,4.46,4.46,0,0,1-1.86-5.83,4.45,4.45,0,0,1-6.15,0,4.46,4.46,0,0,1-1.85,5.83A4.47,4.47,0,0,1,15,20.23,4.47,4.47,0,0,1,16.76,17.43ZM15,16a1,1,0,1,1,1-1A1,1,0,0,1,15,16Z" style="fill: #303c42"/>
      <path d="M15,11a3.51,3.51,0,0,0,3.43-2.8.5.5,0,0,0-.29-.56,8,8,0,0,0-6.27,0,.5.5,0,0,0-.29.56A3.51,3.51,0,0,0,15,11Z" style="fill: #303c42"/>
    </g>
  </g>
</svg>
