<svg xmlns="http://www.w3.org/2000/svg" viewBox="0 0 30 30">
  <title>Film Roll</title>
  <g id="Film_Roll" data-name="Film Roll">
    <g id="_Group_" data-name="&lt;Group&gt;">
      <circle id="_Path_" data-name="&lt;Path&gt;" cx="15" cy="15" r="14.5" style="fill: none;stroke: #303c42;stroke-linecap: round;stroke-linejoin: round"/>
      <path d="M17.94,8.1a7.51,7.51,0,0,0-5.88,0" style="fill: none;stroke: #303c42;stroke-linecap: round;stroke-linejoin: round"/>
      <circle id="_Path_2" data-name="&lt;Path&gt;" cx="15" cy="15" r="0.5" style="fill: none;stroke: #303c42;stroke-linecap: round;stroke-linejoin: round"/>
      <path id="_Path_3" data-name="&lt;Path&gt;" d="M20.85,28.34A30.43,30.43,0,0,0,29.5,29.5" style="fill: none;stroke: #303c42;stroke-linecap: round;stroke-linejoin: round"/>
      <path id="_Path_4" data-name="&lt;Path&gt;" d="M8.57,18.86a11.74,11.74,0,0,0,3.38,4.89" style="fill: none;stroke: #303c42;stroke-linecap: round;stroke-linejoin: round"/>
      <circle id="_Path_5" data-name="&lt;Path&gt;" cx="15" cy="7.5" r="3" style="fill: none;stroke: #303c42;stroke-linecap: round;stroke-linejoin: round"/>
      <path d="M9.35,10.07a7.51,7.51,0,0,0-1.82,5.59" style="fill: none;stroke: #303c42;stroke-linecap: round;stroke-linejoin: round"/>
      <circle id="_Path_6" data-name="&lt;Path&gt;" cx="7.87" cy="12.68" r="3" transform="matrix(0.31, -0.95, 0.95, 0.31, -6.63, 16.25)" style="fill: none;stroke: #303c42;stroke-linecap: round;stroke-linejoin: round"/>
      <path d="M8.57,18.86a7.51,7.51,0,0,0,4.76,3.46" style="fill: none;stroke: #303c42;stroke-linecap: round;stroke-linejoin: round"/>
      <circle id="_Path_7" data-name="&lt;Path&gt;" cx="10.59" cy="21.07" r="3" transform="translate(-12.68 17.25) rotate(-54)" style="fill: none;stroke: #303c42;stroke-linecap: round;stroke-linejoin: round"/>
      <path d="M16.68,22.31a7.51,7.51,0,0,0,4.76-3.46" style="fill: none;stroke: #303c42;stroke-linecap: round;stroke-linejoin: round"/>
      <circle id="_Path_8" data-name="&lt;Path&gt;" cx="19.41" cy="21.07" r="3" transform="translate(-8.68 15.43) rotate(-36)" style="fill: none;stroke: #303c42;stroke-linecap: round;stroke-linejoin: round"/>
      <path d="M22.47,15.66a7.51,7.51,0,0,0-1.82-5.59" style="fill: none;stroke: #303c42;stroke-linecap: round;stroke-linejoin: round"/>
      <circle id="_Path_9" data-name="&lt;Path&gt;" cx="22.13" cy="12.68" r="3" transform="translate(-2.84 7.46) rotate(-18)" style="fill: none;stroke: #303c42;stroke-linecap: round;stroke-linejoin: round"/>
    </g>
  </g>
</svg>
