<svg xmlns="http://www.w3.org/2000/svg" viewBox="0 0 24 24">
  <title>Reload Folder</title>
  <g id="Reload_Folder" data-name="Reload Folder">
    <g>
      <path d="M5,7.3v9a1.5,1.5,0,0,0,1.5,1.5h11A1.5,1.5,0,0,0,19,16.3v-8a1.5,1.5,0,0,0-1.5-1.5H12.21l-.85-.85A.5.5,0,0,0,11,5.8H6.5A1.5,1.5,0,0,0,5,7.3Z" style="fill: #303c42"/>
      <path d="M15.27.25h-.05l0,0A12,12,0,0,0,12-.2a.5.5,0,0,0-.36.85l2.65,2.73a.5.5,0,0,0,.36.15l.15,0a.5.5,0,0,0,.35-.39l.13-.76A10,10,0,0,1,21.6,14.61a10.19,10.19,0,0,1-7.21,6.89l-.26.07a.5.5,0,0,0-.35.61l.26,1a.5.5,0,0,0,.61.35l.12,0a12.33,12.33,0,0,0,9-9.31A12,12,0,0,0,15.27.25Z" style="fill: #303c42"/>
      <path d="M9.71,20.22a.5.5,0,0,0-.36-.15l-.15,0a.5.5,0,0,0-.35.39l-.13.76A10,10,0,0,1,2.4,9,10.19,10.19,0,0,1,9.61,2.09L9.87,2a.5.5,0,0,0,.35-.61L10,.44A.5.5,0,0,0,9.35.09l-.12,0a12.33,12.33,0,0,0-9,9.31A12,12,0,0,0,8.73,23.34h.05l0,0A12,12,0,0,0,12,23.8a.5.5,0,0,0,.36-.85Z" style="fill: #303c42"/>
    </g>
  </g>
</svg>
