<svg xmlns="http://www.w3.org/2000/svg" viewBox="0 0 24 24">
  <title>Reload Folder</title>
  <g id="Reload_Folder" data-name="Reload Folder">
    <g>
      <path id="_Path_" data-name="&lt;Path&gt;" d="M17.5,7.5H12l-1-1H6.5a1,1,0,0,0-1,1h0v9a1,1,0,0,0,1,1h11a1,1,0,0,0,1-1v-8A1,1,0,0,0,17.5,7.5Z" style="fill: none;stroke: #303c42;stroke-linecap: round;stroke-linejoin: round"/>
      <path id="_Path_2" data-name="&lt;Path&gt;" d="M15,23.09A11.49,11.49,0,0,0,12,.5l2.5,2" style="fill: none;stroke: #303c42;stroke-linecap: round;stroke-linejoin: round"/>
      <path id="_Path_3" data-name="&lt;Path&gt;" d="M9,.91A11.49,11.49,0,0,0,12,23.5l-2.5-2" style="fill: none;stroke: #303c42;stroke-linecap: round;stroke-linejoin: round"/>
    </g>
  </g>
</svg>
