<svg xmlns="http://www.w3.org/2000/svg" viewBox="0 0 24 24">
  <title>Chocholate</title>
  <g id="Chocholate">
    <g>
      <rect x="5.5" y="0.5" width="5" height="5" style="fill: none;stroke: #303c42;stroke-linecap: round;stroke-linejoin: round"/>
      <rect x="10.5" y="0.5" width="5" height="5" style="fill: none;stroke: #303c42;stroke-linecap: round;stroke-linejoin: round"/>
      <rect x="15.5" y="5.5" width="5" height="5" style="fill: none;stroke: #303c42;stroke-linecap: round;stroke-linejoin: round"/>
      <rect x="5.5" y="5.5" width="5" height="5" style="fill: none;stroke: #303c42;stroke-linecap: round;stroke-linejoin: round"/>
      <rect x="10.5" y="5.5" width="5" height="5" style="fill: none;stroke: #303c42;stroke-linecap: round;stroke-linejoin: round"/>
      <polyline points="20.5 11.77 20.5 10.5 15.5 10.5 15.5 13.42" style="fill: none;stroke: #303c42;stroke-linecap: round;stroke-linejoin: round"/>
      <polyline points="10.5 14.27 10.5 10.5 5.5 10.5 5.5 11.91" style="fill: none;stroke: #303c42;stroke-linecap: round;stroke-linejoin: round"/>
      <polyline points="15.5 13.42 15.5 10.5 10.5 10.5 10.5 14.27" style="fill: none;stroke: #303c42;stroke-linecap: round;stroke-linejoin: round"/>
      <path d="M4.5,11.5s7.5,3,7.5,4c1.5-2,9.5-4,9.5-4V22A1.5,1.5,0,0,1,20,23.5H6A1.5,1.5,0,0,1,4.5,22Z" style="fill: none;stroke: #303c42;stroke-linecap: round;stroke-linejoin: round"/>
      <path d="M21.5,14c-2.5,0-8,5.5-8,5.5l-1.5-4-3.5,2s-2-3.5-4-3.5" style="fill: none;stroke: #303c42;stroke-linecap: round;stroke-linejoin: round"/>
    </g>
  </g>
</svg>
