<svg xmlns="http://www.w3.org/2000/svg" viewBox="0 0 24 24">
  <title>Bacon</title>
  <g id="Bacon">
    <g>
      <path d="M23,14.5a.5.5,0,0,0-.5-.5,1.57,1.57,0,0,1-1.08-.4,2.63,2.63,0,0,0-3.34,0,1.64,1.64,0,0,1-2.16,0,2.63,2.63,0,0,0-3.33,0,1.65,1.65,0,0,1-2.16,0,2.63,2.63,0,0,0-3.34,0,1.65,1.65,0,0,1-2.16,0A2.56,2.56,0,0,0,3.25,13a2.56,2.56,0,0,0-1.67.6A1.58,1.58,0,0,1,.5,14a.5.5,0,0,0-.5.5,2.88,2.88,0,0,0,.58,1.78A1.89,1.89,0,0,1,1,17.5a1.89,1.89,0,0,1-.42,1.22A2.88,2.88,0,0,0,0,20.5a.5.5,0,0,0,.5.5,2.56,2.56,0,0,0,1.67-.6A1.58,1.58,0,0,1,3.25,20a1.58,1.58,0,0,1,1.08.4,2.64,2.64,0,0,0,3.34,0,1.65,1.65,0,0,1,2.16,0,2.63,2.63,0,0,0,3.34,0,1.64,1.64,0,0,1,2.16,0,2.63,2.63,0,0,0,3.34,0,1.65,1.65,0,0,1,2.16,0,2.55,2.55,0,0,0,1.67.6.5.5,0,0,0,.5-.5,1.89,1.89,0,0,1,.42-1.22,3,3,0,0,0,0-3.55A1.89,1.89,0,0,1,23,14.5Zm-.42,4.22A3,3,0,0,0,22,19.94a1.94,1.94,0,0,1-.63-.35,2.63,2.63,0,0,0-3.34,0,1.64,1.64,0,0,1-2.16,0,2.63,2.63,0,0,0-3.33,0,1.65,1.65,0,0,1-2.16,0,2.63,2.63,0,0,0-3.34,0,1.65,1.65,0,0,1-2.16,0A2.56,2.56,0,0,0,3.25,19a2.56,2.56,0,0,0-1.67.6,2.32,2.32,0,0,1-.5.31,2.4,2.4,0,0,1,.33-.62A2.94,2.94,0,0,0,2,18H2a2.71,2.71,0,0,0,1.17-.55A1.58,1.58,0,0,1,4.25,17a1.58,1.58,0,0,1,1.08.4,2.64,2.64,0,0,0,3.34,0,1.65,1.65,0,0,1,2.16,0,2.63,2.63,0,0,0,3.34,0,1.64,1.64,0,0,1,2.16,0,2.63,2.63,0,0,0,3.34,0,1.65,1.65,0,0,1,2.16,0,2.7,2.7,0,0,0,1.11.54h0A2.11,2.11,0,0,1,22.58,18.72Z" style="fill: #303c42"/>
      <path d="M23,6.5a1.89,1.89,0,0,1,.42-1.22A2.88,2.88,0,0,0,24,3.5a.5.5,0,0,0-.5-.5,2.56,2.56,0,0,0-1.67.6,1.65,1.65,0,0,1-2.17,0,2.64,2.64,0,0,0-3.34,0,1.65,1.65,0,0,1-2.16,0,2.63,2.63,0,0,0-3.34,0,1.64,1.64,0,0,1-2.16,0,2.63,2.63,0,0,0-3.34,0A1.57,1.57,0,0,1,4.25,4a1.57,1.57,0,0,1-1.08-.4A2.55,2.55,0,0,0,1.5,3a.5.5,0,0,0-.5.5A1.89,1.89,0,0,1,.58,4.72,2.88,2.88,0,0,0,0,6.5,2.88,2.88,0,0,0,.58,8.28,1.89,1.89,0,0,1,1,9.5a.5.5,0,0,0,.5.5,1.57,1.57,0,0,1,1.08.4,2.55,2.55,0,0,0,1.67.6,2.55,2.55,0,0,0,1.67-.6,1.64,1.64,0,0,1,2.16,0,2.63,2.63,0,0,0,3.33,0,1.65,1.65,0,0,1,2.16,0,2.63,2.63,0,0,0,3.34,0,1.65,1.65,0,0,1,2.16,0,2.64,2.64,0,0,0,3.34,0A1.58,1.58,0,0,1,23.5,10a.5.5,0,0,0,.5-.5,2.88,2.88,0,0,0-.58-1.78A1.89,1.89,0,0,1,23,6.5ZM21.83,9.6a1.65,1.65,0,0,1-2.17,0,2.64,2.64,0,0,0-3.34,0,1.65,1.65,0,0,1-2.16,0,2.63,2.63,0,0,0-3.34,0,1.64,1.64,0,0,1-2.16,0,2.63,2.63,0,0,0-3.34,0,1.57,1.57,0,0,1-1.08.4,1.57,1.57,0,0,1-1.08-.4A2.65,2.65,0,0,0,2,9a2.94,2.94,0,0,0-.55-1.31,2.47,2.47,0,0,1-.33-.62h0a2.1,2.1,0,0,1,.41.25h0l.08.06A2.55,2.55,0,0,0,3.25,8a2.55,2.55,0,0,0,1.67-.6,1.64,1.64,0,0,1,2.16,0,2.63,2.63,0,0,0,3.33,0,1.65,1.65,0,0,1,2.16,0,2.63,2.63,0,0,0,3.34,0,1.65,1.65,0,0,1,2.16,0,2.64,2.64,0,0,0,3.34,0A2,2,0,0,1,22,7.06a3,3,0,0,0,.54,1.21,2.11,2.11,0,0,1,.37.77A2.7,2.7,0,0,0,21.83,9.6Z" style="fill: #303c42"/>
    </g>
  </g>
</svg>
