<svg xmlns="http://www.w3.org/2000/svg" viewBox="0 0 24 24">
  <title>Biscuit</title>
  <g id="Biscuit">
    <g>
      <circle cx="6" cy="6" r="0.5" style="fill: none;stroke: #303c42;stroke-linecap: round;stroke-linejoin: round"/>
      <circle cx="10" cy="6" r="0.5" style="fill: none;stroke: #303c42;stroke-linecap: round;stroke-linejoin: round"/>
      <circle cx="14" cy="6" r="0.5" style="fill: none;stroke: #303c42;stroke-linecap: round;stroke-linejoin: round"/>
      <circle cx="18" cy="6" r="0.5" style="fill: none;stroke: #303c42;stroke-linecap: round;stroke-linejoin: round"/>
      <circle cx="6" cy="10" r="0.5" style="fill: none;stroke: #303c42;stroke-linecap: round;stroke-linejoin: round"/>
      <circle cx="10" cy="10" r="0.5" style="fill: none;stroke: #303c42;stroke-linecap: round;stroke-linejoin: round"/>
      <circle cx="14" cy="10" r="0.5" style="fill: none;stroke: #303c42;stroke-linecap: round;stroke-linejoin: round"/>
      <circle cx="18" cy="10" r="0.5" style="fill: none;stroke: #303c42;stroke-linecap: round;stroke-linejoin: round"/>
      <circle cx="6" cy="14" r="0.5" style="fill: none;stroke: #303c42;stroke-linecap: round;stroke-linejoin: round"/>
      <circle cx="10" cy="14" r="0.5" style="fill: none;stroke: #303c42;stroke-linecap: round;stroke-linejoin: round"/>
      <circle cx="14" cy="14" r="0.5" style="fill: none;stroke: #303c42;stroke-linecap: round;stroke-linejoin: round"/>
      <circle cx="18" cy="14" r="0.5" style="fill: none;stroke: #303c42;stroke-linecap: round;stroke-linejoin: round"/>
      <circle cx="6" cy="18" r="0.5" style="fill: none;stroke: #303c42;stroke-linecap: round;stroke-linejoin: round"/>
      <circle cx="10" cy="18" r="0.5" style="fill: none;stroke: #303c42;stroke-linecap: round;stroke-linejoin: round"/>
      <circle cx="14" cy="18" r="0.5" style="fill: none;stroke: #303c42;stroke-linecap: round;stroke-linejoin: round"/>
      <circle cx="18" cy="18" r="0.5" style="fill: none;stroke: #303c42;stroke-linecap: round;stroke-linejoin: round"/>
      <path d="M22.5,7.88a2.25,2.25,0,0,0-1.35-2.06,2.25,2.25,0,1,0-3-3,2.25,2.25,0,0,0-4.12,0,2.25,2.25,0,0,0-4.12,0,2.25,2.25,0,0,0-4.12,0,2.25,2.25,0,1,0-3,3,2.25,2.25,0,0,0,0,4.13,2.25,2.25,0,0,0,0,4.13,2.25,2.25,0,0,0,0,4.13,2.25,2.25,0,1,0,3,3,2.25,2.25,0,0,0,4.12,0,2.25,2.25,0,0,0,4.12,0,2.25,2.25,0,0,0,4.12,0,2.25,2.25,0,1,0,3-3,2.25,2.25,0,0,0,0-4.12,2.25,2.25,0,0,0,0-4.12A2.25,2.25,0,0,0,22.5,7.88Z" style="fill: none;stroke: #303c42;stroke-linecap: round;stroke-linejoin: round"/>
    </g>
  </g>
</svg>
