<svg xmlns="http://www.w3.org/2000/svg" viewBox="0 0 30 30">
  <title>Bacon</title>
  <g id="Bacon">
    <g>
      <path d="M1.5,4.75c1.75,0,1.75,1,3.5,1s1.75-1,3.5-1,1.75,1,3.49,1,1.75-1,3.5-1,1.75,1,3.5,1,1.75-1,3.5-1,1.75,1,3.51,1,1.75-1,3.51-1c0,2-1,2-1,4s1,2,1,4c-1.75,0-1.75,1-3.51,1s-1.75-1-3.51-1-1.75,1-3.5,1-1.75-1-3.5-1-1.75,1-3.5,1-1.75-1-3.49-1-1.75,1-3.5,1-1.75-1-3.5-1c0-2-1-2-1-4S1.5,6.75,1.5,4.75Z" style="fill: none;stroke: #303c42;stroke-linecap: round;stroke-linejoin: round"/>
      <path d="M.5,8.75c1.75,0,1.75,1,3.5,1s1.75-1,3.5-1,1.75,1,3.49,1,1.75-1,3.5-1,1.75,1,3.5,1,1.75-1,3.5-1,1.75,1,3.51,1,1.75-1,3.51-1" style="fill: none;stroke: #303c42;stroke-linecap: round;stroke-linejoin: round"/>
      <path d="M28.5,25.75c-1.75,0-1.75-1-3.5-1s-1.75,1-3.5,1-1.75-1-3.49-1-1.75,1-3.5,1-1.75-1-3.5-1-1.75,1-3.5,1-1.75-1-3.51-1-1.75,1-3.51,1c0-2,1-2,1-4s-1-2-1-4c1.75,0,1.75-1,3.51-1s1.75,1,3.51,1,1.75-1,3.5-1,1.75,1,3.5,1,1.75-1,3.5-1,1.75,1,3.49,1,1.75-1,3.5-1,1.75,1,3.5,1c0,2,1,2,1,4S28.5,23.75,28.5,25.75Z" style="fill: none;stroke: #303c42;stroke-linecap: round;stroke-linejoin: round"/>
      <path d="M29.5,21.75c-1.75,0-1.75-1-3.5-1s-1.75,1-3.5,1-1.75-1-3.49-1-1.75,1-3.5,1-1.75-1-3.5-1-1.75,1-3.5,1-1.75-1-3.51-1-1.75,1-3.51,1" style="fill: none;stroke: #303c42;stroke-linecap: round;stroke-linejoin: round"/>
    </g>
    <g>
      <path d="M29,8.72v0h0a3.38,3.38,0,0,1,.45-1.78A4.37,4.37,0,0,0,30,4.68a.5.5,0,0,0-.5-.5,3.56,3.56,0,0,0-2,.57,2.82,2.82,0,0,1-3,0,3.82,3.82,0,0,0-4,0,2.82,2.82,0,0,1-3,0,3.81,3.81,0,0,0-4,0,2.59,2.59,0,0,1-1.5.43,2.59,2.59,0,0,1-1.5-.43,3.54,3.54,0,0,0-2-.57,3.55,3.55,0,0,0-2,.57A2.59,2.59,0,0,1,5,5.18a2.59,2.59,0,0,1-1.5-.43,3.55,3.55,0,0,0-2-.57.5.5,0,0,0-.5.5A3.38,3.38,0,0,1,.55,6.46,4.4,4.4,0,0,0,0,8.72H0a4.38,4.38,0,0,0,.55,2.18A3.4,3.4,0,0,1,1,12.68a.5.5,0,0,0,.5.5,2.59,2.59,0,0,1,1.5.43,3.55,3.55,0,0,0,2,.57,3.55,3.55,0,0,0,2-.57,2.59,2.59,0,0,1,1.5-.43,2.59,2.59,0,0,1,1.5.43,3.54,3.54,0,0,0,2,.57,3.55,3.55,0,0,0,2-.57,2.81,2.81,0,0,1,3,0,3.81,3.81,0,0,0,4,0,2.82,2.82,0,0,1,3,0,3.82,3.82,0,0,0,4,0,2.6,2.6,0,0,1,1.5-.43.5.5,0,0,0,.5-.5,4.38,4.38,0,0,0-.55-2.23A3.39,3.39,0,0,1,29,8.72Zm-1.5,4a2.82,2.82,0,0,1-3,0,3.82,3.82,0,0,0-4,0,2.82,2.82,0,0,1-3,0,3.81,3.81,0,0,0-4,0,2.59,2.59,0,0,1-1.5.43,2.59,2.59,0,0,1-1.5-.43,3.54,3.54,0,0,0-2-.57,3.55,3.55,0,0,0-2,.57,2.59,2.59,0,0,1-1.5.43,2.59,2.59,0,0,1-1.5-.43A3.56,3.56,0,0,0,2,12.21a4.34,4.34,0,0,0-.53-1.75,3.68,3.68,0,0,1-.39-1.08,4.75,4.75,0,0,1,.5.25,3.79,3.79,0,0,0,2.06.56,3.74,3.74,0,0,0,2.05-.56,2.78,2.78,0,0,1,1.57-.44,2.77,2.77,0,0,1,1.57.44,3.74,3.74,0,0,0,2.05.56,3.74,3.74,0,0,0,2.05-.56,3,3,0,0,1,3.14,0,4,4,0,0,0,4.11,0,3,3,0,0,1,3.15,0,3.76,3.76,0,0,0,2.06.56,3.8,3.8,0,0,0,2.06-.56A4.1,4.1,0,0,1,28,9.34a4.5,4.5,0,0,0,.51,1.57A3.44,3.44,0,0,1,29,12.21,3.59,3.59,0,0,0,27.5,12.75Z" style="fill: #303c42"/>
      <path d="M29.45,19.46A3.4,3.4,0,0,1,29,17.68a.5.5,0,0,0-.5-.5,2.59,2.59,0,0,1-1.5-.43,3.81,3.81,0,0,0-4,0,2.81,2.81,0,0,1-3,0,3.8,3.8,0,0,0-4,0,2.81,2.81,0,0,1-3,0,3.55,3.55,0,0,0-2-.57,3.55,3.55,0,0,0-2,.57,2.59,2.59,0,0,1-1.5.43A2.6,2.6,0,0,1,6,16.75a3.56,3.56,0,0,0-2-.57,3.56,3.56,0,0,0-2,.57,2.6,2.6,0,0,1-1.5.43.5.5,0,0,0-.5.5,4.38,4.38,0,0,0,.55,2.23A3.39,3.39,0,0,1,1,21.65v0H1a3.38,3.38,0,0,1-.45,1.78A4.37,4.37,0,0,0,0,25.68a.5.5,0,0,0,.5.5,3.56,3.56,0,0,0,2-.57A2.6,2.6,0,0,1,4,25.18a2.6,2.6,0,0,1,1.5.43,3.56,3.56,0,0,0,2,.57,3.55,3.55,0,0,0,2-.57,2.59,2.59,0,0,1,1.5-.43,2.59,2.59,0,0,1,1.5.43,3.55,3.55,0,0,0,2,.57,3.55,3.55,0,0,0,2-.57,2.81,2.81,0,0,1,3,0,3.8,3.8,0,0,0,4,0,2.81,2.81,0,0,1,3,0,3.55,3.55,0,0,0,2,.57.5.5,0,0,0,.5-.5,3.38,3.38,0,0,1,.45-1.78A4.4,4.4,0,0,0,30,21.65h0A4.38,4.38,0,0,0,29.45,19.46Zm-.89,4A4.36,4.36,0,0,0,28,25.15a2.71,2.71,0,0,1-1-.4,3.81,3.81,0,0,0-4,0,2.81,2.81,0,0,1-3,0,3.8,3.8,0,0,0-4,0,2.81,2.81,0,0,1-3,0,3.55,3.55,0,0,0-2-.57,3.55,3.55,0,0,0-2,.57,2.59,2.59,0,0,1-1.5.43A2.6,2.6,0,0,1,6,24.75a3.56,3.56,0,0,0-2-.57,3.56,3.56,0,0,0-2,.57,2.77,2.77,0,0,1-1,.39,3.45,3.45,0,0,1,.42-1.23A4.48,4.48,0,0,0,2,22.07,4.26,4.26,0,0,0,3,21.62a2.84,2.84,0,0,1,1.58-.44,2.79,2.79,0,0,1,1.57.44,3.76,3.76,0,0,0,2.06.56,3.74,3.74,0,0,0,2.05-.56,2.78,2.78,0,0,1,1.57-.44,2.78,2.78,0,0,1,1.57.44,3.74,3.74,0,0,0,2.05.56,3.74,3.74,0,0,0,2.05-.56,3,3,0,0,1,3.14,0,4,4,0,0,0,4.1,0,2.78,2.78,0,0,1,1.57-.44,2.83,2.83,0,0,1,1.58.44,4.27,4.27,0,0,0,1,.44A3.46,3.46,0,0,1,28.55,23.46Z" style="fill: #303c42"/>
    </g>
  </g>
</svg>
