<svg xmlns="http://www.w3.org/2000/svg" viewBox="0 0 24 24">
  <title>Biscuit</title>
  <g id="Biscuit">
    <path d="M22.07,5.81a2.75,2.75,0,1,0-3.88-3.88,2.75,2.75,0,0,0-4.12,0,2.75,2.75,0,0,0-4.12,0,2.75,2.75,0,0,0-4.12,0A2.75,2.75,0,1,0,1.93,5.81a2.75,2.75,0,0,0,0,4.13,2.75,2.75,0,0,0,0,4.13,2.75,2.75,0,0,0,0,4.13,2.75,2.75,0,1,0,3.88,3.88,2.75,2.75,0,0,0,4.12,0,2.75,2.75,0,0,0,4.12,0,2.75,2.75,0,0,0,4.12,0,2.75,2.75,0,1,0,3.88-3.88,2.75,2.75,0,0,0,0-4.12,2.75,2.75,0,0,0,0-4.12,2.75,2.75,0,0,0,0-4.12ZM6,19a1,1,0,1,1,1-1A1,1,0,0,1,6,19Zm0-4a1,1,0,1,1,1-1A1,1,0,0,1,6,15Zm0-4a1,1,0,1,1,1-1A1,1,0,0,1,6,11ZM6,7A1,1,0,1,1,7,6,1,1,0,0,1,6,7Zm4,12a1,1,0,1,1,1-1A1,1,0,0,1,10,19Zm0-4a1,1,0,1,1,1-1A1,1,0,0,1,10,15Zm0-4a1,1,0,1,1,1-1A1,1,0,0,1,10,11Zm0-4a1,1,0,1,1,1-1A1,1,0,0,1,10,7Zm4,12a1,1,0,1,1,1-1A1,1,0,0,1,14,19Zm0-4a1,1,0,1,1,1-1A1,1,0,0,1,14,15Zm0-4a1,1,0,1,1,1-1A1,1,0,0,1,14,11Zm0-4a1,1,0,1,1,1-1A1,1,0,0,1,14,7Zm4,12a1,1,0,1,1,1-1A1,1,0,0,1,18,19Zm0-4a1,1,0,1,1,1-1A1,1,0,0,1,18,15Zm0-4a1,1,0,1,1,1-1A1,1,0,0,1,18,11Zm0-4a1,1,0,1,1,1-1A1,1,0,0,1,18,7Z" style="fill: #303c42"/>
  </g>
</svg>
