<svg xmlns="http://www.w3.org/2000/svg" viewBox="0 0 30 30">
  <title>Biscuit</title>
  <g id="Biscuit">
    <path d="M26.73,7.44a3,3,0,1,0-4.17-4.17,3.23,3.23,0,0,0-5.06-.08,3.23,3.23,0,0,0-5,0,3.23,3.23,0,0,0-5.06.08A3,3,0,1,0,3.27,7.44a3.23,3.23,0,0,0-.08,5.06,3.23,3.23,0,0,0,0,5,3.23,3.23,0,0,0,.08,5.06,3,3,0,1,0,4.17,4.17,3.23,3.23,0,0,0,5.06.08,3.23,3.23,0,0,0,5,0,3.23,3.23,0,0,0,5.06-.08,3,3,0,1,0,4.17-4.17,3.23,3.23,0,0,0,.08-5.06,3.23,3.23,0,0,0,0-5,3.23,3.23,0,0,0-.08-5.06ZM7.5,23.5a1,1,0,1,1,1-1A1,1,0,0,1,7.5,23.5Zm0-5a1,1,0,1,1,1-1A1,1,0,0,1,7.5,18.5Zm0-5a1,1,0,1,1,1-1A1,1,0,0,1,7.5,13.5Zm0-5a1,1,0,1,1,1-1A1,1,0,0,1,7.5,8.5Zm5,15a1,1,0,1,1,1-1A1,1,0,0,1,12.5,23.5Zm0-5a1,1,0,1,1,1-1A1,1,0,0,1,12.5,18.5Zm0-5a1,1,0,1,1,1-1A1,1,0,0,1,12.5,13.5Zm0-5a1,1,0,1,1,1-1A1,1,0,0,1,12.5,8.5Zm5,15a1,1,0,1,1,1-1A1,1,0,0,1,17.5,23.5Zm0-5a1,1,0,1,1,1-1A1,1,0,0,1,17.5,18.5Zm0-5a1,1,0,1,1,1-1A1,1,0,0,1,17.5,13.5Zm0-5a1,1,0,1,1,1-1A1,1,0,0,1,17.5,8.5Zm5,15a1,1,0,1,1,1-1A1,1,0,0,1,22.5,23.5Zm0-5a1,1,0,1,1,1-1A1,1,0,0,1,22.5,18.5Zm0-5a1,1,0,1,1,1-1A1,1,0,0,1,22.5,13.5Zm0-5a1,1,0,1,1,1-1A1,1,0,0,1,22.5,8.5Z" style="fill: #303c42"/>
  </g>
</svg>
