<svg xmlns="http://www.w3.org/2000/svg" viewBox="0 0 30 30">
  <title>Heandsfree</title>
  <g id="Heandsfree">
    <path d="M19,4A11,11,0,0,0,8,14.3c-3.45,1-6.73,2.05-6.74,2.06A1.71,1.71,0,0,0,0,18a1,1,0,0,0,0,.26.49.49,0,0,0,0,.17l1.28,4.24a.45.45,0,0,0,.06.12A1.74,1.74,0,0,0,3.07,24c.3,0,14.62-4.35,14.64-4.37A1.71,1.71,0,0,0,19,18a1.53,1.53,0,0,0-.09-.5.42.42,0,0,0,0-.07l-1.27-4.22a.45.45,0,0,0-.06-.13A1.77,1.77,0,0,0,15.93,12c-.2,0-2.84.78-5.83,1.68A9,9,0,1,1,19,24a1,1,0,0,0,0,2A11,11,0,0,0,19,4ZM13,14.5A1.5,1.5,0,1,1,11.5,16,1.5,1.5,0,0,1,13,14.5Z" style="fill: #303c42"/>
  </g>
</svg>
