<svg xmlns="http://www.w3.org/2000/svg" viewBox="0 0 24 24">
  <title>Heandsfree</title>
  <g id="Heandsfree">
    <path d="M15,3a9,9,0,0,0-8.93,8l-5,1.61A1.48,1.48,0,0,0,0,14a.93.93,0,0,0,0,.21.51.51,0,0,0,0,.15l1,3.47a.47.47,0,0,0,0,.11A1.47,1.47,0,0,0,2.5,19c.29,0,11.42-3.57,11.42-3.58A1.48,1.48,0,0,0,15,14a1.41,1.41,0,0,0-.07-.42v-.06l-1-3.45a.48.48,0,0,0-.06-.12A1.48,1.48,0,0,0,12.5,9c-.17,0-2.07.58-4.27,1.28A7,7,0,1,1,15,19a1,1,0,0,0,0,2A9,9,0,1,0,15,3Zm-4.5,8.5A1.5,1.5,0,1,1,9,13,1.5,1.5,0,0,1,10.5,11.5Z" style="fill: #303c42"/>
  </g>
</svg>
