<svg xmlns="http://www.w3.org/2000/svg" viewBox="0 0 24 24">
  <title>Door Lock</title>
  <g id="Door_Lock" data-name="Door Lock">
    <path d="M20.5,6H15V2a2,2,0,0,0-2-2H5A2,2,0,0,0,3,2V22a2,2,0,0,0,2,2h8a2,2,0,0,0,2-2V10h5.5a.5.5,0,0,0,.5-.5v-3A.5.5,0,0,0,20.5,6Zm-10,14.44A.5.5,0,0,1,10,21H8a.5.5,0,0,1-.5-.56l.32-2.84A2,2,0,0,1,7,16a2,2,0,0,1,4,0,1.74,1.74,0,0,1-.82,1.62ZM20,9H11a.5.5,0,0,0-.4.2A2,2,0,0,1,9,10,2,2,0,0,1,9,6a2,2,0,0,1,1.59.8A.5.5,0,0,0,11,7h9Z" style="fill: #303c42"/>
  </g>
</svg>
