<svg xmlns="http://www.w3.org/2000/svg" viewBox="0 0 30 30">
  <title>Headset</title>
  <g id="Headset">
    <g>
      <path d="M19.5,0c-2,0-3.5,2.42-3.5,5.5S17.54,11,19.5,11a6.23,6.23,0,0,0,4.39-2.19.44.44,0,0,1,.7-.08.5.5,0,0,1,.08.7,6.91,6.91,0,0,1-2.39,1.85.5.5,0,0,0-.28.45V23a2,2,0,0,0,1.5,1.93V27.5a.5.5,0,0,0,.5.5v1.5a.5.5,0,0,0,1,0V28a.5.5,0,0,0,.5-.5V24.93A2,2,0,0,0,27,23V11.21C27,6.88,25,0,19.5,0Z" style="fill: #303c42"/>
      <path d="M10.5,0C5,0,3,6.88,3,11.21V23a2,2,0,0,0,1.5,1.93V27.5A.5.5,0,0,0,5,28v1.5a.5.5,0,0,0,1,0V28a.5.5,0,0,0,.5-.5V24.93A2,2,0,0,0,8,23V11.74a.5.5,0,0,0-.28-.45A6.91,6.91,0,0,1,5.33,9.44a.5.5,0,0,1,.08-.7.44.44,0,0,1,.7.08A6.23,6.23,0,0,0,10.5,11c2,0,3.5-2.42,3.5-5.5S12.46,0,10.5,0Z" style="fill: #303c42"/>
    </g>
  </g>
</svg>
