<svg xmlns="http://www.w3.org/2000/svg" viewBox="0 0 30 30">
  <title>Inflation</title>
  <g id="Inflation">
    <g>
      <path d="M6,18a6.07,6.07,0,0,0,6-6.13c0-.17,0-.33,0-.49v-.15A8.73,8.73,0,0,0,9.89,6.3,5.89,5.89,0,0,1,8.33,2.5a.51.51,0,0,0-.27-.45.5.5,0,0,0-.52,0,8.21,8.21,0,0,0-3,4.14A13.78,13.78,0,0,0,4,9.81c-.93-.5-1-2.4-1-2.42A.51.51,0,0,0,2.74,7a.49.49,0,0,0-.48,0C2.17,7,.1,8,0,11.53c0,.12,0,.23,0,.35A6.07,6.07,0,0,0,6,18Z" style="fill: #303c42"/>
      <path d="M28,8H12.89a.5.5,0,0,0-.47.68A8.81,8.81,0,0,1,13,11.22v.15c0,.18,0,.37,0,.56a7.08,7.08,0,0,1-4.23,6.49A1,1,0,0,1,9,19a1,1,0,0,1-2,0s0-.05,0-.08A6.92,6.92,0,0,1,6,19,7,7,0,0,1,.87,16.7.5.5,0,0,0,0,17v9a2,2,0,0,0,2,2H28a2,2,0,0,0,2-2V10A2,2,0,0,0,28,8ZM2,27a1,1,0,0,1-1-1V23a4,4,0,0,1,4,4Zm12.75-8.5h.5A1.75,1.75,0,0,1,15.5,22v.53a.5.5,0,0,1-1,0V22h-1a.5.5,0,0,1,0-1h1.75a.75.75,0,0,0,0-1.5h-.5A1.75,1.75,0,0,1,14.5,16V15.5a.5.5,0,0,1,1,0V16h1a.5.5,0,0,1,0,1H14.75a.75.75,0,0,0,0,1.5ZM22,20a1,1,0,1,1,1-1A1,1,0,0,1,22,20Zm7,6a1,1,0,0,1-1,1H25a4,4,0,0,1,4-4Zm0-13a4,4,0,0,1-4-4h3a1,1,0,0,1,1,1Z" style="fill: #303c42"/>
    </g>
  </g>
</svg>
