<svg xmlns="http://www.w3.org/2000/svg" viewBox="0 0 30 30">
  <title>Gold Bars</title>
  <g id="Gold_Bars" data-name="Gold Bars">
    <g id="_Group_" data-name="&lt;Group&gt;">
      <path id="_Compound_Path_" data-name="&lt;Compound Path&gt;" d="M17.24,19.61l-1.4-3.92A2.62,2.62,0,0,0,13.36,14H4.64a2.62,2.62,0,0,0-2.49,1.7L.65,19.93A11.1,11.1,0,0,0,0,23.67V24a2.05,2.05,0,0,0,2.09,2H15.91A2.05,2.05,0,0,0,18,24,13,13,0,0,0,17.24,19.61Zm-2.17,1.28-.16,0a.5.5,0,0,1-.47-.34L13.24,17H10.5a.5.5,0,0,1,0-1h3.1a.5.5,0,0,1,.47.34l1.31,3.92A.5.5,0,0,1,15.07,20.89Z" style="fill: #303c42"/>
      <path id="_Compound_Path_2" data-name="&lt;Compound Path&gt;" d="M29.24,19.61l-1.4-3.92A2.62,2.62,0,0,0,25.36,14H16.92a.5.5,0,0,0-.43.76,3.41,3.41,0,0,1,.29.6l1.4,3.92A14,14,0,0,1,19,24a2.89,2.89,0,0,1-.31,1.28.5.5,0,0,0,.45.72h8.77A2.05,2.05,0,0,0,30,24,13,13,0,0,0,29.24,19.61Zm-2.17,1.28-.16,0a.5.5,0,0,1-.47-.34L25.24,17H22.5a.5.5,0,0,1,0-1h3.1a.5.5,0,0,1,.47.34l1.31,3.92A.5.5,0,0,1,27.07,20.89Z" style="fill: #303c42"/>
      <path id="_Compound_Path_3" data-name="&lt;Compound Path&gt;" d="M23.24,9.61,21.84,5.7A2.62,2.62,0,0,0,19.36,4H10.64A2.62,2.62,0,0,0,8.16,5.7L6.65,9.93a11.23,11.23,0,0,0-.57,2.52.5.5,0,0,0,.5.56H23.4a.5.5,0,0,0,.5-.56A13.16,13.16,0,0,0,23.24,9.61Zm-2.17,1.28-.16,0a.5.5,0,0,1-.47-.34L19.24,7H16.5a.5.5,0,0,1,0-1h3.1a.5.5,0,0,1,.47.34l1.31,3.92A.5.5,0,0,1,21.07,10.89Z" style="fill: #303c42"/>
    </g>
  </g>
</svg>
