<svg xmlns="http://www.w3.org/2000/svg" viewBox="0 0 24 24">
  <title>Gold Bars</title>
  <g id="Gold_Bars" data-name="Gold Bars">
    <g id="_Group_" data-name="&lt;Group&gt;">
      <path d="M13.5,15.92l-1.07-3.21A2.5,2.5,0,0,0,10.06,11H3.94a2.5,2.5,0,0,0-2.37,1.71L.5,15.92A9.71,9.71,0,0,0,0,19a2,2,0,0,0,2,2H12a2,2,0,0,0,2-2A9.71,9.71,0,0,0,13.5,15.92Zm-2.21,1.26-.16,0a.5.5,0,0,1-.47-.34L9.7,14H7.5a.5.5,0,0,1,0-1h2.56a.5.5,0,0,1,.47.34l1.07,3.21A.5.5,0,0,1,11.29,17.18Z" style="fill: #303c42"/>
      <path d="M23.5,15.92l-1.07-3.21A2.5,2.5,0,0,0,20.06,11H13.94a2.25,2.25,0,0,0-.49.07.5.5,0,0,0-.34.73,3.52,3.52,0,0,1,.27.59l1.07,3.21A10.72,10.72,0,0,1,15,19a3,3,0,0,1-.3,1.28.5.5,0,0,0,.45.72H22a2,2,0,0,0,2-2A9.71,9.71,0,0,0,23.5,15.92Zm-2.21,1.26-.16,0a.5.5,0,0,1-.47-.34L19.7,14H17.5a.5.5,0,0,1,0-1h2.56a.5.5,0,0,1,.47.34l1.07,3.21A.5.5,0,0,1,21.29,17.18Z" style="fill: #303c42"/>
      <path d="M18.5,7.92,17.43,4.71A2.5,2.5,0,0,0,15.06,3H8.94A2.5,2.5,0,0,0,6.57,4.71L5.5,7.92a9.79,9.79,0,0,0-.37,1.5.5.5,0,0,0,.49.58H18.38a.5.5,0,0,0,.49-.58A9.76,9.76,0,0,0,18.5,7.92ZM16,8.47l-.16,0a.5.5,0,0,1-.47-.34L14.7,6H12.5a.5.5,0,0,1,0-1h2.56a.5.5,0,0,1,.47.34l.83,2.5A.5.5,0,0,1,16,8.47Z" style="fill: #303c42"/>
    </g>
  </g>
</svg>
