<svg xmlns="http://www.w3.org/2000/svg" viewBox="0 0 24 24">
  <title>iWatch</title>
  <g id="iWatch">
    <g>
      <path d="M18.5,8H18V7a2,2,0,0,0-2-2H7A2,2,0,0,0,5,7V17a2,2,0,0,0,2,2h9a2,2,0,0,0,2-2,.5.5,0,0,0,.5-.5v-3A.5.5,0,0,0,18,13V11h.5a.5.5,0,0,0,.5-.5v-2A.5.5,0,0,0,18.5,8ZM16,17H7V7h9Z" style="fill: #303c42"/>
      <path d="M15.3,20H7.7a.5.5,0,0,0-.5.55l.3,3A.5.5,0,0,0,8,24h7a.5.5,0,0,0,.5-.45l.3-3a.5.5,0,0,0-.5-.55Z" style="fill: #303c42"/>
      <path d="M7.7,4h7.6a.5.5,0,0,0,.5-.55l-.3-3A.5.5,0,0,0,15,0H8a.5.5,0,0,0-.5.45l-.3,3A.5.5,0,0,0,7.7,4Z" style="fill: #303c42"/>
    </g>
  </g>
</svg>
