<svg xmlns="http://www.w3.org/2000/svg" viewBox="0 0 30 30">
  <title>Matches</title>
  <g id="Matches">
    <g>
      <line x1="9" y1="4.5" x2="9" y2="9.5" style="fill: none;stroke: #303c42;stroke-linecap: round;stroke-linejoin: round"/>
      <path d="M9.5,3.83c0,.74-.22.67-.5.67s-.5.07-.5-.67S8.72,2.5,9,2.5,9.5,3.1,9.5,3.83Z" style="fill: none;stroke: #303c42;stroke-linecap: round;stroke-linejoin: round"/>
      <line x1="18" y1="4.5" x2="18" y2="9.5" style="fill: none;stroke: #303c42;stroke-linecap: round;stroke-linejoin: round"/>
      <path d="M18.5,3.83c0,.74-.22.67-.5.67s-.5.07-.5-.67.22-1.33.5-1.33S18.5,3.1,18.5,3.83Z" style="fill: none;stroke: #303c42;stroke-linecap: round;stroke-linejoin: round"/>
      <line x1="21" y1="4.5" x2="21" y2="9.5" style="fill: none;stroke: #303c42;stroke-linecap: round;stroke-linejoin: round"/>
      <path d="M21.5,3.83c0,.74-.22.67-.5.67s-.5.07-.5-.67.22-1.33.5-1.33S21.5,3.1,21.5,3.83Z" style="fill: none;stroke: #303c42;stroke-linecap: round;stroke-linejoin: round"/>
      <line x1="15" y1="4.5" x2="15" y2="9.5" style="fill: none;stroke: #303c42;stroke-linecap: round;stroke-linejoin: round"/>
      <path d="M15.5,3.83c0,.74-.22.67-.5.67s-.5.07-.5-.67.22-1.33.5-1.33S15.5,3.1,15.5,3.83Z" style="fill: none;stroke: #303c42;stroke-linecap: round;stroke-linejoin: round"/>
      <line x1="12" y1="4.5" x2="12" y2="9.5" style="fill: none;stroke: #303c42;stroke-linecap: round;stroke-linejoin: round"/>
      <path d="M12.5,3.83c0,.74-.22.67-.5.67s-.5.07-.5-.67.22-1.33.5-1.33S12.5,3.1,12.5,3.83Z" style="fill: none;stroke: #303c42;stroke-linecap: round;stroke-linejoin: round"/>
      <g id="_Group_" data-name="&lt;Group&gt;">
        <path id="_Path_" data-name="&lt;Path&gt;" d="M19.5,21.38A4.33,4.33,0,0,1,15,25.5a4.33,4.33,0,0,1-4.5-4.12c0-.08,0-.16,0-.23.07-2.37,1.49-3,1.49-3S11.94,20,13.5,20a7.22,7.22,0,0,1,.44-2.51,6.53,6.53,0,0,1,2.56-3c0,2.75,2.7,3.21,3,6.43C19.48,21.08,19.5,21.22,19.5,21.38Z" style="fill: none;stroke: #303c42;stroke-linecap: round;stroke-linejoin: round"/>
      </g>
      <path d="M23.5,9.59V2A1.5,1.5,0,0,0,22,.5H8A1.5,1.5,0,0,0,6.5,2V9.59" style="fill: none;stroke: #303c42;stroke-linecap: round;stroke-linejoin: round"/>
      <rect x="5.5" y="9.5" width="19" height="20" rx="1.5" ry="1.5" style="fill: none;stroke: #303c42;stroke-linecap: round;stroke-linejoin: round"/>
    </g>
  </g>
</svg>
