<svg xmlns="http://www.w3.org/2000/svg" viewBox="0 0 24 24">
  <title>Tea Sieve</title>
  <g id="Tea_Sieve" data-name="Tea Sieve">
    <path d="M22,18.3v-.45a1,1,0,0,0,0-1.69V8.5A6.49,6.49,0,0,0,9.2,7a7.53,7.53,0,0,0-7,6,1.5,1.5,0,0,0,0,2.91,7.48,7.48,0,0,0,14.68,0,1.5,1.5,0,0,0,0-2.91,7.54,7.54,0,0,0-6.62-6A5.49,5.49,0,0,1,21,8.5v7.65a1,1,0,0,0,0,1.69v.82a.49.49,0,0,0,.32.39A1,1,0,1,1,20,20a.5.5,0,0,0-1,0,2,2,0,0,0,4,0A2,2,0,0,0,22,18.3ZM9.5,8.5A.5.5,0,1,1,9,9,.5.5,0,0,1,9.5,8.5Zm0,1.5a.5.5,0,1,1-.5.5A.5.5,0,0,1,9.5,10Zm0,1.5A.5.5,0,1,1,9,12,.5.5,0,0,1,9.5,11.5ZM8,10a.5.5,0,1,1-.5.5A.5.5,0,0,1,8,10Zm0,9a.5.5,0,1,1,.5-.5A.5.5,0,0,1,8,19Zm1.5,1.5A.5.5,0,1,1,10,20,.5.5,0,0,1,9.5,20.5Zm0-1.5a.5.5,0,1,1,.5-.5A.5.5,0,0,1,9.5,19Zm0-1.5A.5.5,0,1,1,10,17,.5.5,0,0,1,9.5,17.5ZM11,19a.5.5,0,1,1,.5-.5A.5.5,0,0,1,11,19Zm5.42-5h.08a.5.5,0,0,1,0,1H2.5a.5.5,0,0,1,0-1H16.42ZM11,10a.5.5,0,1,1-.5.5A.5.5,0,0,1,11,10Z" style="fill: #303c42"/>
  </g>
</svg>
