<svg xmlns="http://www.w3.org/2000/svg" viewBox="0 0 30 30">
  <title>Matches</title>
  <g id="Matches">
    <path d="M24,9.28V2a2,2,0,0,0-2-2H8A2,2,0,0,0,6,2V9.28A2,2,0,0,0,5,11V28a2,2,0,0,0,2,2H23a2,2,0,0,0,2-2V11A2,2,0,0,0,24,9.28ZM22,2V9H21V5.43a.69.69,0,0,0,.22-.14,1.29,1.29,0,0,0,.28-1c0-.91-.31-1.83-1-1.83s-1,.72-1,1.83a1.29,1.29,0,0,0,.28,1,.69.69,0,0,0,.22.14V9H18.25V5.43a.69.69,0,0,0,.22-.14,1.29,1.29,0,0,0,.28-1c0-.91-.31-1.83-1-1.83s-1,.72-1,1.83a1.29,1.29,0,0,0,.28,1,.69.69,0,0,0,.22.14V9H15.5V5.43a.69.69,0,0,0,.22-.14,1.29,1.29,0,0,0,.28-1c0-.91-.31-1.83-1-1.83s-1,.72-1,1.83a1.29,1.29,0,0,0,.28,1,.69.69,0,0,0,.22.14V9H12.75V5.43A.69.69,0,0,0,13,5.29a1.29,1.29,0,0,0,.28-1c0-.91-.31-1.83-1-1.83s-1,.72-1,1.83a1.29,1.29,0,0,0,.28,1,.69.69,0,0,0,.22.14V9H10V5.43a.69.69,0,0,0,.22-.14,1.29,1.29,0,0,0,.28-1c0-.91-.31-1.83-1-1.83s-1,.72-1,1.83a1.29,1.29,0,0,0,.28,1A.69.69,0,0,0,9,5.43V9H8V2ZM15,26a4.83,4.83,0,0,1-5-4.62c0-.09,0-.18,0-.26.08-2.64,1.73-3.37,1.8-3.4a.5.5,0,0,1,.7.47,1.71,1.71,0,0,0,.36,1.08.73.73,0,0,0,.17.13,7.66,7.66,0,0,1,.45-2.07,7,7,0,0,1,2.75-3.24.49.49,0,0,1,.51,0,.5.5,0,0,1,.26.44,4,4,0,0,0,1.24,2.69A6.23,6.23,0,0,1,20,20.89V21c0,.12,0,.25,0,.38A4.83,4.83,0,0,1,15,26Z" style="fill: #303c42"/>
  </g>
</svg>
