<svg xmlns="http://www.w3.org/2000/svg" viewBox="0 0 24 24">
  <title>Tea Sieve</title>
  <g id="Tea_Sieve" data-name="Tea Sieve">
    <g>
      <circle cx="9.5" cy="10.5" r="0.5" style="fill: #303c42"/>
      <circle cx="9.5" cy="9" r="0.5" style="fill: #303c42"/>
      <circle cx="9.5" cy="12" r="0.5" style="fill: #303c42"/>
      <circle cx="11" cy="10.5" r="0.5" style="fill: #303c42"/>
      <circle cx="8" cy="10.5" r="0.5" style="fill: #303c42"/>
      <circle cx="9.5" cy="18.5" r="0.5" style="fill: #303c42"/>
      <circle cx="9.5" cy="17" r="0.5" style="fill: #303c42"/>
      <circle cx="9.5" cy="20" r="0.5" style="fill: #303c42"/>
      <circle cx="11" cy="18.5" r="0.5" style="fill: #303c42"/>
      <circle cx="8" cy="18.5" r="0.5" style="fill: #303c42"/>
      <circle cx="9.5" cy="17" r="0.5" style="fill: #303c42"/>
      <circle cx="9.5" cy="20" r="0.5" style="fill: #303c42"/>
      <circle cx="11" cy="18.5" r="0.5" style="fill: #303c42"/>
      <circle cx="8" cy="18.5" r="0.5" style="fill: #303c42"/>
      <g>
        <path d="M16.42,13.5a7,7,0,0,0-13.84,0Z" style="fill: none;stroke: #303c42;stroke-linecap: round;stroke-linejoin: round"/>
        <path d="M2.58,15.5a7,7,0,0,0,13.84,0Z" style="fill: none;stroke: #303c42;stroke-linecap: round;stroke-linejoin: round"/>
      </g>
      <rect x="1.5" y="13.5" width="16" height="2" rx="1" ry="1" style="fill: none;stroke: #303c42;stroke-linecap: round;stroke-linejoin: round"/>
      <circle cx="21.5" cy="17" r="0.5" style="fill: none;stroke: #303c42;stroke-linecap: round;stroke-linejoin: round"/>
      <path d="M19.5,20a1.5,1.5,0,1,0,2-1.41V8.5a6,6,0,0,0-6-6h0a6,6,0,0,0-5.92,5" style="fill: none;stroke: #303c42;stroke-linecap: round;stroke-linejoin: round"/>
    </g>
  </g>
</svg>
