<svg xmlns="http://www.w3.org/2000/svg" viewBox="0 0 30 30">
  <title>Chef&amp;apos;s Hat 2</title>
  <g id="Chef_s_Hat_2" data-name="Chef&apos;s Hat 2">
    <g>
      <path d="M23.5,24H6.5a.5.5,0,0,0-.5.5V26a2,2,0,0,0,2,2H22a2,2,0,0,0,2-2V24.5A.5.5,0,0,0,23.5,24Z" style="fill: #303c42"/>
      <path d="M20.78,2a12.19,12.19,0,0,0-4.36.92.5.5,0,0,0,0,.92l.3.14a.5.5,0,0,1,.22.67.51.51,0,0,1-.67.22A15.78,15.78,0,0,0,9.42,3C4.77,3,2,5.62,2,10a6.94,6.94,0,0,0,4,6.13V22.5a.5.5,0,0,0,.5.5h17a.5.5,0,0,0,.5-.5V15.19A6.94,6.94,0,0,0,28,9C28,4.62,25.3,2,20.78,2ZM19,14.5a7.5,7.5,0,0,0-2.1.27,5.72,5.72,0,0,1-1.55.23,6.05,6.05,0,0,1-1.86-.4,9.73,9.73,0,0,0-3.25-.6.5.5,0,0,1,0-1,10.74,10.74,0,0,1,3.56.65,5.38,5.38,0,0,0,1.56.35,4.84,4.84,0,0,0,1.3-.2A8.47,8.47,0,0,1,19,13.5a.5.5,0,0,1,0,1Z" style="fill: #303c42"/>
    </g>
  </g>
</svg>
