<svg xmlns="http://www.w3.org/2000/svg" viewBox="0 0 24 24">
  <title>Chef&amp;apos;s Hat 2</title>
  <g id="Chef_s_Hat_2" data-name="Chef&apos;s Hat 2">
    <g>
      <path d="M18.5,19H5.5a.5.5,0,0,0-.5.5V21a2,2,0,0,0,2,2H17a2,2,0,0,0,2-2V19.5A.5.5,0,0,0,18.5,19Z" style="fill: #303c42"/>
      <path d="M16.73,1a11.14,11.14,0,0,0-3.49.65.5.5,0,0,0-.06.92c.34.17.67.35,1,.54a.5.5,0,0,1,.18.68.51.51,0,0,1-.68.18,13.52,13.52,0,0,0-6.4-2C3.34,2,1,4.24,1,8a6.1,6.1,0,0,0,4,5.54v4a.5.5,0,0,0,.5.5h13a.5.5,0,0,0,.5-.5v-5A6.1,6.1,0,0,0,23,7C23,3.24,20.66,1,16.73,1ZM15,11.5a4.73,4.73,0,0,0-1.63.27,3.92,3.92,0,0,1-1.29.23,4.2,4.2,0,0,1-1.55-.41A6.29,6.29,0,0,0,8,11a.5.5,0,0,1,0-1,7.23,7.23,0,0,1,2.9.66,3.43,3.43,0,0,0,1.18.34,3,3,0,0,0,1-.19A5.72,5.72,0,0,1,15,10.5a.5.5,0,0,1,0,1Z" style="fill: #303c42"/>
    </g>
  </g>
</svg>
