<svg xmlns="http://www.w3.org/2000/svg" viewBox="0 0 30 30">
  <title>Tea Sieve</title>
  <g id="Tea_Sieve" data-name="Tea Sieve">
    <path d="M27,23.27v-.43a1,1,0,0,0,0-1.69V10.75A7.75,7.75,0,0,0,11.7,9a9,9,0,0,0-8.5,7.15,2,2,0,0,0,0,3.67,9,9,0,0,0,17.59,0,2,2,0,0,0,0-3.71,9,9,0,0,0-8-7.11A6.74,6.74,0,0,1,26,10.75v10.4a1,1,0,0,0,0,1.69v.75a.5.5,0,0,0,.33.47A1,1,0,1,1,25,25a.5.5,0,0,0-1,0,2,2,0,1,0,3-1.73ZM12,11a.5.5,0,1,1-.5.5A.5.5,0,0,1,12,11Zm0,1.5a.5.5,0,1,1-.5.5A.5.5,0,0,1,12,12.5ZM12,14a.5.5,0,1,1-.5.5A.5.5,0,0,1,12,14Zm-1.5-1.5a.5.5,0,1,1-.5.5A.5.5,0,0,1,10.5,12.5Zm0,11A.5.5,0,1,1,11,23,.5.5,0,0,1,10.5,23.5ZM12,25a.5.5,0,1,1,.5-.5A.5.5,0,0,1,12,25Zm0-1.5a.5.5,0,1,1,.5-.5A.5.5,0,0,1,12,23.5ZM12,22a.5.5,0,1,1,.5-.5A.5.5,0,0,1,12,22Zm1.5,1.5A.5.5,0,1,1,14,23,.5.5,0,0,1,13.5,23.5ZM20,19H4a1,1,0,0,1,0-2H20a1,1,0,0,1,0,2ZM13.5,12.5a.5.5,0,1,1-.5.5A.5.5,0,0,1,13.5,12.5Z" style="fill: #303c42"/>
  </g>
</svg>
