<svg xmlns="http://www.w3.org/2000/svg" viewBox="0 0 24 24">
  <title>Matches</title>
  <g id="Matches">
    <g>
      <rect x="4.5" y="7.5" width="15" height="16" rx="1.5" ry="1.5" style="fill: none;stroke: #303c42;stroke-linecap: round;stroke-linejoin: round"/>
      <path d="M5.5,7.59V2A1.5,1.5,0,0,1,7,.5H17A1.5,1.5,0,0,1,18.5,2V7.59" style="fill: none;stroke: #303c42;stroke-linecap: round;stroke-linejoin: round"/>
      <line x1="10.5" y1="4" x2="10.5" y2="7.5" style="fill: none;stroke: #303c42;stroke-linecap: round;stroke-linejoin: round"/>
      <path d="M11,3.5c0,.55-.22.5-.5.5s-.5.05-.5-.5.22-1,.5-1S11,2.95,11,3.5Z" style="fill: none;stroke: #303c42;stroke-linecap: round;stroke-linejoin: round"/>
      <line x1="8" y1="4" x2="8" y2="7.5" style="fill: none;stroke: #303c42;stroke-linecap: round;stroke-linejoin: round"/>
      <path d="M8.5,3.5c0,.55-.22.5-.5.5s-.5.05-.5-.5.22-1,.5-1S8.5,2.95,8.5,3.5Z" style="fill: none;stroke: #303c42;stroke-linecap: round;stroke-linejoin: round"/>
      <line x1="16" y1="4" x2="16" y2="7.5" style="fill: none;stroke: #303c42;stroke-linecap: round;stroke-linejoin: round"/>
      <path d="M16.5,3.5c0,.55-.22.5-.5.5s-.5.05-.5-.5.22-1,.5-1S16.5,2.95,16.5,3.5Z" style="fill: none;stroke: #303c42;stroke-linecap: round;stroke-linejoin: round"/>
      <line x1="13.5" y1="4" x2="13.5" y2="7.5" style="fill: none;stroke: #303c42;stroke-linecap: round;stroke-linejoin: round"/>
      <path d="M14,3.5c0,.55-.22.5-.5.5s-.5.05-.5-.5.22-1,.5-1S14,2.95,14,3.5Z" style="fill: none;stroke: #303c42;stroke-linecap: round;stroke-linejoin: round"/>
      <g id="_Group_" data-name="&lt;Group&gt;">
        <path id="_Path_" data-name="&lt;Path&gt;" d="M15.5,16.13a3.5,3.5,0,0,1-7,0c0-.06,0-.13,0-.19C8.56,14,9.67,13.5,9.67,13.5s0,1.5,1.17,1.5a6.18,6.18,0,0,1,.34-2.05,5.28,5.28,0,0,1,2-2.45c0,2.25,2.1,2.63,2.31,5.26C15.49,15.88,15.5,16,15.5,16.13Z" style="fill: none;stroke: #303c42;stroke-linecap: round;stroke-linejoin: round"/>
      </g>
    </g>
  </g>
</svg>
