<svg xmlns="http://www.w3.org/2000/svg" viewBox="0 0 24 24">
  <title>Lego Figure</title>
  <g id="Lego_Figure" data-name="Lego Figure">
    <g>
      <rect x="6" y="22" width="12" height="2" rx="0.5" ry="0.5" style="fill: #303c42"/>
      <path d="M17.5,4H17V1.5A1.5,1.5,0,0,0,15.5,0h-7A1.5,1.5,0,0,0,7,1.5V4H6.5A4.5,4.5,0,0,0,2,8.5v8A4.5,4.5,0,0,0,6.5,21h11A4.5,4.5,0,0,0,22,16.5v-8A4.5,4.5,0,0,0,17.5,4ZM9,10a1,1,0,1,1-1,1A1,1,0,0,1,9,10Zm6.7,5.33a5,5,0,0,1-7.41,0A.5.5,0,0,1,9,14.67a4,4,0,0,0,5.92,0,.5.5,0,0,1,.74.67ZM15,12a1,1,0,1,1,1-1A1,1,0,0,1,15,12Z" style="fill: #303c42"/>
    </g>
  </g>
</svg>
