<svg xmlns="http://www.w3.org/2000/svg" viewBox="0 0 30 30">
  <title>Lego Figure</title>
  <g id="Lego_Figure" data-name="Lego Figure">
    <g>
      <rect x="8" y="27" width="14" height="3" rx="0.5" ry="0.5" style="fill: #303c42"/>
      <path d="M22.5,5H21V1.5A1.5,1.5,0,0,0,19.5,0h-9A1.5,1.5,0,0,0,9,1.5V5H7.5A4.5,4.5,0,0,0,3,9.5v12A4.5,4.5,0,0,0,7.5,26h15A4.5,4.5,0,0,0,27,21.5V9.5A4.5,4.5,0,0,0,22.5,5ZM11,12a1,1,0,1,1-1,1A1,1,0,0,1,11,12Zm8.87,6.84a6.56,6.56,0,0,1-9.74,0,.5.5,0,1,1,.74-.67,5.56,5.56,0,0,0,8.26,0,.5.5,0,1,1,.74.67ZM19,14a1,1,0,1,1,1-1A1,1,0,0,1,19,14Z" style="fill: #303c42"/>
    </g>
  </g>
</svg>
