<svg xmlns="http://www.w3.org/2000/svg" viewBox="0 0 30 30">
  <title>Chip</title>
  <g id="Chip">
    <g>
      <path d="M15,0A15,15,0,1,0,30,15,15,15,0,0,0,15,0Zm7.28,5.6,1.95-1.11a14,14,0,0,1,4.51,7.8l-2,1.11a1.5,1.5,0,0,1-2-.55l-3-5.2A1.5,1.5,0,0,1,22.28,5.6ZM10.5,1.76a13.78,13.78,0,0,1,9,0V4A1.5,1.5,0,0,1,18,5.5H12A1.5,1.5,0,0,1,10.5,4ZM5.94,4.35,7.72,5.6a1.5,1.5,0,0,1,.55,2l-3,5.2a1.5,1.5,0,0,1-2,.55L1.28,12.19A14,14,0,0,1,5.94,4.35Zm1.79,20L5.88,25.6a14,14,0,0,1-4.6-7.84L3.22,16.6a1.5,1.5,0,0,1,2,.55l3,5.2A1.5,1.5,0,0,1,7.72,24.4ZM19.5,28.24a13.78,13.78,0,0,1-9,0V26A1.5,1.5,0,0,1,12,24.5h6A1.5,1.5,0,0,1,19.5,26ZM15,22a7,7,0,1,1,7-7A7,7,0,0,1,15,22Zm9.2,3.53L22.28,24.4a1.5,1.5,0,0,1-.55-2l3-5.2a1.5,1.5,0,0,1,2-.55l2,1.09A14,14,0,0,1,24.2,25.53Z" style="fill: #303c42"/>
      <path d="M14.67,12.5H17a.5.5,0,0,0,0-1H15.5v-1a.5.5,0,0,0-1,0v1a2.07,2.07,0,0,0-2,2,2.09,2.09,0,0,0,2.17,2h.67a1.09,1.09,0,0,1,1.17,1,1.09,1.09,0,0,1-1.17,1H13a.5.5,0,0,0,0,1h1.5v1a.5.5,0,0,0,1,0v-1a2.07,2.07,0,0,0,2-2,2.09,2.09,0,0,0-2.17-2h-.67a1.09,1.09,0,0,1-1.17-1A1.09,1.09,0,0,1,14.67,12.5Z" style="fill: #303c42"/>
    </g>
  </g>
</svg>
