<svg xmlns="http://www.w3.org/2000/svg" viewBox="0 0 30 30">
  <title>Bishop</title>
  <g id="Bishop">
    <path d="M25,29.38l-.41-1.63A4.89,4.89,0,0,0,23.72,26a5,5,0,0,0-3.89-2l-1.57-6.4a13.85,13.85,0,0,0,2.66-.9.5.5,0,0,0,0-.9,14.47,14.47,0,0,0-3.35-1A5.12,5.12,0,0,0,20,10.39,15.18,15.18,0,0,0,17.46,2.9a2.25,2.25,0,0,0,0-.4,2.5,2.5,0,1,0-5,0,2.26,2.26,0,0,0,0,.42.5.5,0,0,0,0,.49l2.43,4.87a.5.5,0,0,1-.22.67.51.51,0,0,1-.67-.22L12.22,5.06a.5.5,0,0,0-.91,0A15.08,15.08,0,0,0,10,10.39a5.12,5.12,0,0,0,2.43,4.36,14.47,14.47,0,0,0-3.35,1,.5.5,0,0,0,0,.9,13.85,13.85,0,0,0,2.66.9L10.17,24a5.05,5.05,0,0,0-3.89,2,4.9,4.9,0,0,0-.85,1.77L5,29.38A.5.5,0,0,0,5.5,30h19a.5.5,0,0,0,.48-.62Z" style="fill: #303c42"/>
  </g>
</svg>
