<svg xmlns="http://www.w3.org/2000/svg" viewBox="0 0 24 24">
  <title>Bishop</title>
  <g id="Bishop">
    <path d="M20,23.38l-.33-1.3A4,4,0,0,0,19,20.62,4.08,4.08,0,0,0,15.88,19l-1.23-4.5A9,9,0,0,0,16.8,13.4a.5.5,0,0,0,0-.8,9.41,9.41,0,0,0-2.62-1.25A4,4,0,0,0,16,8a11.45,11.45,0,0,0-2-5.78A1.76,1.76,0,0,0,14,2a2,2,0,1,0-4,0,1.85,1.85,0,0,0,0,.22l-.2.28a.5.5,0,0,0,0,.56l2.1,3.16a.5.5,0,0,1-.14.69.51.51,0,0,1-.69-.14L9.61,4.57a.49.49,0,0,0-.47-.22.5.5,0,0,0-.41.32A10.67,10.67,0,0,0,8,8a4,4,0,0,0,1.82,3.35A9.41,9.41,0,0,0,7.2,12.6a.5.5,0,0,0,0,.8,9,9,0,0,0,2.14,1.11L8.12,19A4.08,4.08,0,0,0,5,20.62a4,4,0,0,0-.69,1.45L4,23.38A.5.5,0,0,0,4.5,24h15a.5.5,0,0,0,.48-.62Z" style="fill: #303c42"/>
  </g>
</svg>
