<svg xmlns="http://www.w3.org/2000/svg" viewBox="0 0 24 24">
  <title>Mary Go Round</title>
  <g id="Mary_Go_Round" data-name="Mary Go Round">
    <g>
      <path d="M.5,23.5h0a3.62,3.62,0,0,1,3.24-2H20.26a3.62,3.62,0,0,1,3.24,2H.5Z" style="fill: none;stroke: #303c42;stroke-linecap: round;stroke-linejoin: round"/>
      <polyline points="10.5 10.5 10.5 21.5 13.5 19.5" style="fill: none;stroke: #303c42;stroke-linecap: round;stroke-linejoin: round"/>
      <line x1="10.5" y1="18.5" x2="13.5" y2="16.5" style="fill: none;stroke: #303c42;stroke-linecap: round;stroke-linejoin: round"/>
      <line x1="10.5" y1="15.5" x2="13.5" y2="13.5" style="fill: none;stroke: #303c42;stroke-linecap: round;stroke-linejoin: round"/>
      <polyline points="10.5 12.5 13.5 10.5 13.5 21.5" style="fill: none;stroke: #303c42;stroke-linecap: round;stroke-linejoin: round"/>
      <path d="M.5,7.5,1,9.13a2,2,0,0,0,1.9,1.37H21.06A2,2,0,0,0,23,9.13L23.5,7.5Z" style="fill: none;stroke: #303c42;stroke-linecap: round;stroke-linejoin: round"/>
      <circle cx="12" cy="1" r="0.5" style="fill: none;stroke: #303c42;stroke-linecap: round;stroke-linejoin: round"/>
      <path d="M1.5,16.5l.36,2.16a1,1,0,0,0,1,.84H6.15a1,1,0,0,0,1-.84L7.5,16.5Z" style="fill: none;stroke: #303c42;stroke-linecap: round;stroke-linejoin: round"/>
      <line x1="4.5" y1="19.5" x2="4.5" y2="21" style="fill: none;stroke: #303c42;stroke-linecap: round;stroke-linejoin: round"/>
      <line x1="4.5" y1="10.5" x2="4.5" y2="16.5" style="fill: none;stroke: #303c42;stroke-linecap: round;stroke-linejoin: round"/>
      <path d="M16.5,16.5l.36,2.16a1,1,0,0,0,1,.84h3.31a1,1,0,0,0,1-.84l.36-2.16Z" style="fill: none;stroke: #303c42;stroke-linecap: round;stroke-linejoin: round"/>
      <line x1="19.5" y1="19.5" x2="19.5" y2="21" style="fill: none;stroke: #303c42;stroke-linecap: round;stroke-linejoin: round"/>
      <line x1="19.5" y1="10.5" x2="19.5" y2="16.5" style="fill: none;stroke: #303c42;stroke-linecap: round;stroke-linejoin: round"/>
      <path d="M12,1.5C8.5,5.5.5,7.5.5,7.5" style="fill: none;stroke: #303c42;stroke-linecap: round;stroke-linejoin: round"/>
      <path d="M12,1.5c3.5,4,11.5,6,11.5,6" style="fill: none;stroke: #303c42;stroke-linecap: round;stroke-linejoin: round"/>
      <path d="M12,1.5a12.64,12.64,0,0,1-3,6" style="fill: none;stroke: #303c42;stroke-linecap: round;stroke-linejoin: round"/>
      <path d="M12,1.5a12.64,12.64,0,0,0,3,6" style="fill: none;stroke: #303c42;stroke-linecap: round;stroke-linejoin: round"/>
    </g>
  </g>
</svg>
