<svg xmlns="http://www.w3.org/2000/svg" viewBox="0 0 24 24">
  <title>Mary Go Round</title>
  <g id="Mary_Go_Round" data-name="Mary Go Round">
    <path d="M23.95,23.28A4.1,4.1,0,0,0,20.26,21H20V20h1.15a1.49,1.49,0,0,0,1.48-1.25L23,16.58A.5.5,0,0,0,22.5,16H20V11h1.06a2.5,2.5,0,0,0,2.37-1.71L24,7.66a.5.5,0,0,0-.07-.45A.49.49,0,0,0,23.62,7h0a37.08,37.08,0,0,1-4.84-1.68L15.71,3.79a14.54,14.54,0,0,1-2.92-2.2A1,1,0,0,0,13,1a1,1,0,0,0-2,0,1,1,0,0,0,.22.59C7.68,5.15.45,7,.38,7h0a.49.49,0,0,0-.29.18A.5.5,0,0,0,0,7.66L.57,9.29A2.5,2.5,0,0,0,2.94,11H4v5H1.5a.5.5,0,0,0-.49.58l.36,2.16A1.49,1.49,0,0,0,2.85,20H4v1H3.74A4.1,4.1,0,0,0,.05,23.28.5.5,0,0,0,.5,24h23a.5.5,0,0,0,.45-.72ZM13.93,7H10.07A13.77,13.77,0,0,0,12,3.28,13.77,13.77,0,0,0,13.93,7ZM11,12.77h0l2-1.32v1.8h0l-2,1.32Zm0,6,.43-.29,1.57-1v1.8h0l-2,1.32ZM14,11h5v5H16.5a.5.5,0,0,0-.49.58l.36,2.16A1.49,1.49,0,0,0,17.85,20H19v1H14m-4,0H5V20H6.15a1.49,1.49,0,0,0,1.48-1.25L8,16.58A.5.5,0,0,0,7.5,16H5V11h5" style="fill: #303c42"/>
  </g>
</svg>
