<svg xmlns="http://www.w3.org/2000/svg" viewBox="0 0 30 30">
  <title>Bishop</title>
  <g id="Bishop">
    <g>
      <path d="M23.32,26.28h0a4.53,4.53,0,0,0-3.61-1.78H10.29a4.53,4.53,0,0,0-3.61,1.78h0a4.43,4.43,0,0,0-.77,1.59L5.5,29.5h19l-.41-1.63A4.43,4.43,0,0,0,23.32,26.28Z" style="fill: none;stroke: #303c42;stroke-linecap: round;stroke-linejoin: round"/>
      <line x1="12.5" y1="4" x2="14.5" y2="8.5" style="fill: none;stroke: #303c42;stroke-linecap: round;stroke-linejoin: round"/>
      <polyline points="12.35 17.22 10.57 24.5 19.43 24.5 17.65 17.22" style="fill: none;stroke: #303c42;stroke-linecap: round;stroke-linejoin: round"/>
      <path d="M20.7,16.25A14.38,14.38,0,0,1,15,17.5a14.38,14.38,0,0,1-5.7-1.25A14.38,14.38,0,0,1,15,15,14.38,14.38,0,0,1,20.7,16.25Z" style="fill: none;stroke: #303c42;stroke-linecap: round;stroke-linejoin: round"/>
      <path d="M16.92,3A2,2,0,0,0,17,2.5a2,2,0,0,0-4,0,2,2,0,0,0,.08.52,14.51,14.51,0,0,0-2.58,7.37,4.5,4.5,0,1,0,9,0A14.51,14.51,0,0,0,16.92,3Z" style="fill: none;stroke: #303c42;stroke-linecap: round;stroke-linejoin: round"/>
    </g>
  </g>
</svg>
