<svg xmlns="http://www.w3.org/2000/svg" viewBox="0 0 24 24">
  <title>Luggage</title>
  <g id="Luggage">
    <g>
      <circle cx="5" cy="22" r="1.5" style="fill: none;stroke: #303c42;stroke-linecap: round;stroke-linejoin: round"/>
      <circle cx="19" cy="22" r="1.5" style="fill: none;stroke: #303c42;stroke-linecap: round;stroke-linejoin: round"/>
      <rect x="0.5" y="18.5" width="23" height="2" style="fill: none;stroke: #303c42;stroke-linecap: round;stroke-linejoin: round"/>
      <rect x="5.5" y="9.5" width="13" height="9" rx="1.5" ry="1.5" style="fill: none;stroke: #303c42;stroke-linecap: round;stroke-linejoin: round"/>
      <path d="M9.5,9.5v-1a1,1,0,0,1,1-1h3a1,1,0,0,1,1,1v1" style="fill: none;stroke: #303c42;stroke-linecap: round;stroke-linejoin: round"/>
      <path d="M2.5,18.5V8.5a5,5,0,0,1,5-5h9a5,5,0,0,1,5,5v10" style="fill: none;stroke: #303c42;stroke-linecap: round;stroke-linejoin: round"/>
      <path d="M10,1.5h4A1.5,1.5,0,0,1,15.5,3v.5a0,0,0,0,1,0,0h-7a0,0,0,0,1,0,0V3A1.5,1.5,0,0,1,10,1.5Z" style="fill: none;stroke: #303c42;stroke-linecap: round;stroke-linejoin: round"/>
      <circle cx="12" cy="1" r="0.5" style="fill: none;stroke: #303c42;stroke-linecap: round;stroke-linejoin: round"/>
    </g>
  </g>
</svg>
