<svg xmlns="http://www.w3.org/2000/svg" viewBox="0 0 24 24">
  <title>Luggage</title>
  <g id="Luggage">
    <path d="M23.5,18H22V8.5A5.51,5.51,0,0,0,16.5,3H16a2,2,0,0,0-2-2H13a1,1,0,0,0-2,0H10A2,2,0,0,0,8,3H7.5A5.51,5.51,0,0,0,2,8.5V18H.5a.5.5,0,0,0-.5.5v2a.5.5,0,0,0,.5.5H3.28A2,2,0,0,0,3,22a2,2,0,0,0,4,0,2,2,0,0,0-.28-1H17.28A2,2,0,0,0,17,22a2,2,0,0,0,4,0,2,2,0,0,0-.28-1H23.5a.5.5,0,0,0,.5-.5v-2A.5.5,0,0,0,23.5,18ZM14,9H10V8.5a.5.5,0,0,1,.5-.5h3a.5.5,0,0,1,.5.5ZM4,8.5A3.5,3.5,0,0,1,7.5,5h9A3.5,3.5,0,0,1,20,8.5V18H18.72A2,2,0,0,0,19,17V11a2,2,0,0,0-2-2H15V8.5A1.5,1.5,0,0,0,13.5,7h-3A1.5,1.5,0,0,0,9,8.5V9H7a2,2,0,0,0-2,2v6a2,2,0,0,0,.28,1H4Z" style="fill: #303c42"/>
  </g>
</svg>
