<svg xmlns="http://www.w3.org/2000/svg" viewBox="0 0 30 30">
  <title>Case 1</title>
  <g id="Case_1" data-name="Case 1">
    <g>
      <path d="M29.74,11.24a.5.5,0,0,0-.51,0L16.42,19.68l-.1.05a2.78,2.78,0,0,1-2.48,0L.77,11.24a.5.5,0,0,0-.77.42V26a2,2,0,0,0,2,2H28a2,2,0,0,0,2-2V11.68A.5.5,0,0,0,29.74,11.24Z" style="fill: #303c42"/>
      <path d="M28,6H21V4a2,2,0,0,0-2-2H11A2,2,0,0,0,9,4V6H2A2,2,0,0,0,0,8V9.28a.5.5,0,0,0,.23.42l14.17,9.15a1.81,1.81,0,0,0,1.53,0l13.85-9.1A.5.5,0,0,0,30,9.29V8A2,2,0,0,0,28,6ZM11,4h8V6H11Zm4,12a1,1,0,1,1,1-1A1,1,0,0,1,15,16Z" style="fill: #303c42"/>
    </g>
  </g>
</svg>
