<svg xmlns="http://www.w3.org/2000/svg" viewBox="0 0 24 24">
  <title>Case 1</title>
  <g id="Case_1" data-name="Case 1">
    <g>
      <path d="M23.74,9.21a.5.5,0,0,0-.51,0l-10.15,6.5-.09,0a2.32,2.32,0,0,1-2.07,0L.77,9.23A.5.5,0,0,0,0,9.65V20a2,2,0,0,0,2,2H22a2,2,0,0,0,2-2V9.65A.5.5,0,0,0,23.74,9.21Z" style="fill: #303c42"/>
      <path d="M22,5H17V4a2,2,0,0,0-2-2H9A2,2,0,0,0,7,4V5H2A2,2,0,0,0,0,7v.27a.5.5,0,0,0,.23.42l11.25,7.2a1.52,1.52,0,0,0,1.13,0L23.77,7.69A.5.5,0,0,0,24,7.27V7A2,2,0,0,0,22,5ZM9,4h6V5H9Zm3,9a1,1,0,1,1,1-1A1,1,0,0,1,12,13Z" style="fill: #303c42"/>
    </g>
  </g>
</svg>
