<svg xmlns="http://www.w3.org/2000/svg" viewBox="0 0 30 30">
  <title>Map Rose 1</title>
  <g id="Map_Rose_1" data-name="Map Rose 1">
    <path d="M29.61,14.51l-3.69-.8a11,11,0,0,0-9.63-9.63L15.49.39a.5.5,0,0,0-1,0l-.8,3.69a11,11,0,0,0-9.63,9.63l-3.69.8a.5.5,0,0,0,0,1l3.69.8a11,11,0,0,0,9.63,9.63l.8,3.69a.5.5,0,0,0,1,0l.8-3.69a11,11,0,0,0,9.63-9.63l3.69-.8a.5.5,0,0,0,0-1Zm-5.78-1.26-4.5-1,1.6-2.51a.5.5,0,0,0-.69-.69l-2.51,1.6-1-4.5A9,9,0,0,1,23.83,13.25ZM13.25,6.17l-1,4.5L9.77,9.08a.5.5,0,0,0-.69.69l1.6,2.51-4.5,1A9,9,0,0,1,13.25,6.17ZM6.17,16.75l4.5,1-1.6,2.51a.5.5,0,0,0,.69.69l2.51-1.6,1,4.5A9,9,0,0,1,6.17,16.75Zm10.57,7.08,1-4.5,2.51,1.6a.5.5,0,0,0,.69-.69l-1.6-2.51,4.5-1A9,9,0,0,1,16.75,23.83Z" style="fill: #303c42"/>
  </g>
</svg>
