<svg xmlns="http://www.w3.org/2000/svg" viewBox="0 0 30 30">
  <title>Mask</title>
  <g id="Mask">
    <g>
      <path d="M15,23.5c1.26,0,1.26-1.31,6.93-2.62S29.5,13.69,29.5,6.5c-1.89,2.62-3.22,1-7,1s-5.61,4-7.5,4-3.72-4-7.5-4-5.11,1.62-7-1c0,7.19,1.89,13.08,7.57,14.38S13.74,23.5,15,23.5Z" style="fill: none;stroke: #303c42;stroke-linecap: round;stroke-linejoin: round"/>
      <path d="M4.5,12.5H7c1.91,0,4.45,2.22,4.45,3.33V17.5A7.36,7.36,0,0,1,4.5,12.5Z" style="fill: none;stroke: #303c42;stroke-linecap: round;stroke-linejoin: round"/>
      <path d="M25.5,12.5H23c-1.91,0-4.45,2.22-4.45,3.33V17.5A7.36,7.36,0,0,0,25.5,12.5Z" style="fill: none;stroke: #303c42;stroke-linecap: round;stroke-linejoin: round"/>
    </g>
  </g>
</svg>
