<svg xmlns="http://www.w3.org/2000/svg" viewBox="0 0 24 24">
  <title>Mask</title>
  <g id="Mask">
    <path d="M23.66,5a.51.51,0,0,0-.56.17c-.9,1.19-1.44,1.13-2.89,1A17.71,17.71,0,0,0,18,6a6.72,6.72,0,0,0-4.35,2C13,8.53,12.44,9,12,9s-1-.46-1.65-1A6.72,6.72,0,0,0,6,6a17.71,17.71,0,0,0-2.21.16c-1.45.17-2,.24-2.89-1a.5.5,0,0,0-.9.3C0,12.18,2.15,16,6.39,17a13,13,0,0,1,4.36,1.58A2.24,2.24,0,0,0,12,19a2.24,2.24,0,0,0,1.24-.44A13,13,0,0,1,17.61,17C21.85,16,24,12.18,24,5.5A.5.5,0,0,0,23.66,5ZM10,14a.5.5,0,0,1-.5.5,6.27,6.27,0,0,1-6-3.85A.5.5,0,0,1,4,10H6c1.65,0,4,1.67,4,2.83Zm10.48-3.35a6.27,6.27,0,0,1-6,3.85A.5.5,0,0,1,14,14V12.83C14,11.67,16.35,10,18,10h2a.5.5,0,0,1,.48.65Z" style="fill: #303c42"/>
  </g>
</svg>
