<svg xmlns="http://www.w3.org/2000/svg" viewBox="0 0 24 24">
  <title>Mask</title>
  <g id="Mask">
    <g>
      <path d="M12,18.5c1,0,1-1,5.5-2s6-5.5,6-11c-1.5,2-2.5,1-5.5,1s-4.5,3-6,3-3-3-6-3-4,1-5.5-1c0,5.5,1.5,10,6,11S11,18.5,12,18.5Z" style="fill: none;stroke: #303c42;stroke-linecap: round;stroke-linejoin: round"/>
      <path d="M4,10.5H6c1.5,0,3.5,1.56,3.5,2.33V14A5.74,5.74,0,0,1,4,10.5Z" style="fill: none;stroke: #303c42;stroke-linecap: round;stroke-linejoin: round"/>
      <path d="M20,10.5H18c-1.5,0-3.5,1.56-3.5,2.33V14A5.74,5.74,0,0,0,20,10.5Z" style="fill: none;stroke: #303c42;stroke-linecap: round;stroke-linejoin: round"/>
    </g>
  </g>
</svg>
