<svg xmlns="http://www.w3.org/2000/svg" viewBox="0 0 30 30">
  <title>Medicine 2</title>
  <g id="Medicine_2" data-name="Medicine 2">
    <g>
      <line id="_Path_" data-name="&lt;Path&gt;" x1="9" y1="0.5" x2="9" y2="8.5" style="fill: none;stroke: #303c42;stroke-linecap: round;stroke-linejoin: round"/>
      <line id="_Path_2" data-name="&lt;Path&gt;" x1="13" y1="0.5" x2="13" y2="8.5" style="fill: none;stroke: #303c42;stroke-linecap: round;stroke-linejoin: round"/>
      <line id="_Path_3" data-name="&lt;Path&gt;" x1="17" y1="0.5" x2="17" y2="8.5" style="fill: none;stroke: #303c42;stroke-linecap: round;stroke-linejoin: round"/>
      <line id="_Path_4" data-name="&lt;Path&gt;" x1="21" y1="0.5" x2="21" y2="8.5" style="fill: none;stroke: #303c42;stroke-linecap: round;stroke-linejoin: round"/>
      <line id="_Path_5" data-name="&lt;Path&gt;" x1="5.5" y1="14.5" x2="24.5" y2="14.5" style="fill: none;stroke: #303c42;stroke-linecap: round;stroke-linejoin: round"/>
      <line id="_Path_6" data-name="&lt;Path&gt;" x1="5.5" y1="23.5" x2="24.5" y2="23.5" style="fill: none;stroke: #303c42;stroke-linecap: round;stroke-linejoin: round"/>
      <line id="_Path_7" data-name="&lt;Path&gt;" x1="10.5" y1="17.5" x2="19.5" y2="17.5" style="fill: none;stroke: #303c42;stroke-linecap: round;stroke-linejoin: round"/>
      <line id="_Path_8" data-name="&lt;Path&gt;" x1="10.5" y1="20.5" x2="19.5" y2="20.5" style="fill: none;stroke: #303c42;stroke-linecap: round;stroke-linejoin: round"/>
      <path d="M22.5,8.5H7.5L6.51,10a6,6,0,0,0-1,3.33V28A1.5,1.5,0,0,0,7,29.5H23A1.5,1.5,0,0,0,24.5,28V13.32a6,6,0,0,0-1-3.33Z" style="fill: none;stroke: #303c42;stroke-linecap: round;stroke-linejoin: round"/>
      <rect x="5.5" y="0.5" width="19" height="8" rx="1.5" ry="1.5" style="fill: none;stroke: #303c42;stroke-linecap: round;stroke-linejoin: round"/>
    </g>
  </g>
</svg>
