<svg xmlns="http://www.w3.org/2000/svg" viewBox="0 0 30 30">
  <title>Personal Mail</title>
  <g id="Personal_Mail" data-name="Personal Mail">
    <g>
      <path d="M23.5,13a6.5,6.5,0,1,0,0,13c.13,0,.6,0,.65,0a6.5,6.5,0,0,0-.65-13Zm4,10.22a8.22,8.22,0,0,0-4-1.22,8.22,8.22,0,0,0-4,1.22,5.5,5.5,0,1,1,8.08,0Z" style="fill: #303c42"/>
      <circle cx="23.5" cy="18.5" r="3" style="fill: #303c42"/>
      <path d="M10,13.44a2.25,2.25,0,0,0,2.86.07L23.21,5.2a.5.5,0,0,0,0-.79A2,2,0,0,0,22,4H2a2,2,0,0,0-1.13.35.5.5,0,0,0-.05.78Z" style="fill: #303c42"/>
      <path d="M23.5,12a.5.5,0,0,0,.5-.5V6.89a.5.5,0,0,0-.81-.39L13.5,14.28a3.28,3.28,0,0,1-4.16-.1L.84,6.5A.5.5,0,0,0,0,6.87V19a2,2,0,0,0,2,2H15.57a.5.5,0,0,0,.5-.56A7.45,7.45,0,0,1,23.5,12Z" style="fill: #303c42"/>
    </g>
  </g>
</svg>
