<svg xmlns="http://www.w3.org/2000/svg" viewBox="0 0 24 24">
  <title>Presentation</title>
  <g id="Processor_1" data-name="Processor 1">
    <g>
      <path d="M22.5,9.5a.5.5,0,0,0,0-1H21v-2h1.5a.5.5,0,0,0,0-1H21V5a2,2,0,0,0-2-2h-.5V1.5a.5.5,0,1,0-1,0V3h-2V1.5a.5.5,0,1,0-1,0V3h-2V1.5a.5.5,0,0,0-1,0V3h-2V1.5a.5.5,0,0,0-1,0V3h-2V1.5a.5.5,0,0,0-1,0V3H5A2,2,0,0,0,3,5v.5H1.5a.5.5,0,1,0,0,1H3v2H1.5a.5.5,0,1,0,0,1H3v2H1.5a.5.5,0,1,0,0,1H3v2H1.5a.5.5,0,0,0,0,1H3v2H1.5a.5.5,0,1,0,0,1H3V19a2,2,0,0,0,2,2h.5v1.5a.5.5,0,0,0,1,0V21h2v1.5a.5.5,0,0,0,1,0V21h2v1.5a.5.5,0,0,0,1,0V21h2v1.5a.5.5,0,0,0,1,0V21h2v1.5a.5.5,0,0,0,1,0V21H19a2,2,0,0,0,2-2v-.5h1.5a.5.5,0,0,0,0-1H21v-2h1.5a.5.5,0,0,0,0-1H21v-2h1.5a.5.5,0,0,0,0-1H21v-2Zm-3.5,9a.5.5,0,0,1-.5.5H5.5a.5.5,0,0,1-.5-.5V5.5A.5.5,0,0,1,5.5,5h13a.5.5,0,0,1,.5.5Z" style="fill: #303c42"/>
      <rect x="6" y="6" width="12" height="12" style="fill: #303c42"/>
    </g>
  </g>
</svg>
