<svg xmlns="http://www.w3.org/2000/svg" viewBox="0 0 30 30">
  <title>Processor 1</title>
  <g id="Processor_1" data-name="Processor 1">
    <g>
      <rect x="8" y="8" width="14" height="14" style="fill: #303c42"/>
      <path d="M27.5,11a.5.5,0,0,0,0-1H26V8h1.5a.5.5,0,0,0,0-1H26V6a2,2,0,0,0-2-2H23V2.5a.5.5,0,0,0-1,0V4H20V2.5a.5.5,0,0,0-1,0V4H17V2.5a.5.5,0,0,0-1,0V4H14V2.5a.5.5,0,0,0-1,0V4H11V2.5a.5.5,0,0,0-1,0V4H8V2.5a.5.5,0,0,0-1,0V4H6A2,2,0,0,0,4,6V7H2.5a.5.5,0,0,0,0,1H4v2H2.5a.5.5,0,0,0,0,1H4v2H2.5a.5.5,0,0,0,0,1H4v2H2.5a.5.5,0,0,0,0,1H4v2H2.5a.5.5,0,0,0,0,1H4v2H2.5a.5.5,0,0,0,0,1H4v1a2,2,0,0,0,2,2H7v1.5a.5.5,0,0,0,1,0V26h2v1.5a.5.5,0,0,0,1,0V26h2v1.5a.5.5,0,0,0,1,0V26h2v1.5a.5.5,0,0,0,1,0V26h2v1.5a.5.5,0,0,0,1,0V26h2v1.5a.5.5,0,0,0,1,0V26h1a2,2,0,0,0,2-2V23h1.5a.5.5,0,0,0,0-1H26V20h1.5a.5.5,0,0,0,0-1H26V17h1.5a.5.5,0,0,0,0-1H26V14h1.5a.5.5,0,0,0,0-1H26V11ZM23,22.5a.5.5,0,0,1-.5.5H7.5a.5.5,0,0,1-.5-.5V7.5A.5.5,0,0,1,7.5,7h15a.5.5,0,0,1,.5.5Z" style="fill: #303c42"/>
    </g>
  </g>
</svg>
