<svg id="Money_Vision" data-name="Money Vision" xmlns="http://www.w3.org/2000/svg" viewBox="0 0 24 24">
  <title>Money Vision</title>
  <g>
    <path d="M24,11.69a12.56,12.56,0,0,0-23.9,0,1,1,0,0,0,0,.62,12.56,12.56,0,0,0,23.9,0A1,1,0,0,0,24,11.69ZM12,19a10.55,10.55,0,0,1-9.94-7,10.56,10.56,0,0,1,19.88,0A10.55,10.55,0,0,1,12,19Z" style="fill: #303c42"/>
    <path d="M12,6a6,6,0,1,0,6,6A6,6,0,0,0,12,6Zm-.25,5.5h.5A1.75,1.75,0,0,1,12.5,15v.53a.5.5,0,0,1-1,0V15h-1a.5.5,0,0,1,0-1h1.75a.75.75,0,0,0,0-1.5h-.5A1.75,1.75,0,0,1,11.5,9V8.5a.5.5,0,0,1,1,0V9h1a.5.5,0,0,1,0,1H11.75a.75.75,0,0,0,0,1.5Z" style="fill: #303c42"/>
  </g>
</svg>
