<svg xmlns="http://www.w3.org/2000/svg" viewBox="0 0 24 24">
  <title>Money Bill</title>
  <g id="Money_Bill" data-name="Money Bill">
    <g>
      <path d="M20.5,9A2.5,2.5,0,0,1,18,6.5a.5.5,0,0,0-.5-.5H6.5a.5.5,0,0,0-.5.5A2.5,2.5,0,0,1,3.5,9a.5.5,0,0,0-.5.5v5a.5.5,0,0,0,.5.5A2.5,2.5,0,0,1,6,17.5a.5.5,0,0,0,.5.5h11a.5.5,0,0,0,.5-.5A2.5,2.5,0,0,1,20.5,15a.5.5,0,0,0,.5-.5v-5A.5.5,0,0,0,20.5,9ZM12,16a4,4,0,1,1,4-4A4,4,0,0,1,12,16Z" style="fill: #303c42"/>
      <path d="M22,21H2a2,2,0,0,1-2-2V5A2,2,0,0,1,2,3H22a2,2,0,0,1,2,2V19A2,2,0,0,1,22,21ZM2,5V19H22V5Z" style="fill: #303c42"/>
    </g>
  </g>
</svg>
