<svg xmlns="http://www.w3.org/2000/svg" viewBox="0 0 24 24">
  <title>Guitar 1</title>
  <g id="Guitar_1" data-name="Guitar 1">
    <path d="M22.85,2.65l-1.5-1.5a.5.5,0,0,0-.6-.08l-3.5,2A.5.5,0,0,0,17,3.5v.79L13.65,7.64A4.43,4.43,0,0,0,11.5,7,3.24,3.24,0,0,0,8.14,9.5c-.4,1-.65,1.5-1.64,1.5C3,11,1,12.82,1,16c0,3.34,3.66,7,7,7,3.18,0,5-2,5-5.5,0-1,.51-1.24,1.5-1.64A3.24,3.24,0,0,0,17,12.5a4.42,4.42,0,0,0-.64-2.15L19.71,7h.79a.5.5,0,0,0,.43-.25l2-3.5A.5.5,0,0,0,22.85,2.65Zm-15,16.21a.5.5,0,0,1-.71,0l-2-2a.5.5,0,0,1,.71-.71l2,2A.5.5,0,0,1,7.85,18.85ZM10.5,15.5a2,2,0,1,1,2-2A2,2,0,0,1,10.5,15.5Z" style="fill: #303c42"/>
  </g>
</svg>
