<svg xmlns="http://www.w3.org/2000/svg" viewBox="0 0 30 30">
  <title>Drum</title>
  <g id="Drum">
    <path d="M30,15a1.5,1.5,0,0,0-1.07-1.43,13.93,13.93,0,0,0-3.08-7.41,1.47,1.47,0,0,0-2-2,13.93,13.93,0,0,0-7.41-3.08,1.49,1.49,0,0,0-2.86,0A13.93,13.93,0,0,0,6.16,4.16a1.47,1.47,0,0,0-2,2,13.93,13.93,0,0,0-3.08,7.41,1.49,1.49,0,0,0,0,2.86,13.93,13.93,0,0,0,3.08,7.41A1.48,1.48,0,0,0,5.45,26a1.52,1.52,0,0,0,.3-.06l-.4,1-.21.55a1.78,1.78,0,0,0,.93,2.3,1.69,1.69,0,0,0,.67.14,1.72,1.72,0,0,0,1.6-1.09c0-.11.21-.62.45-1.39a13.87,13.87,0,0,0,4.8,1.41,1.49,1.49,0,0,0,2.86,0,13.87,13.87,0,0,0,4.8-1.41c.24.77.41,1.28.45,1.39A1.72,1.72,0,0,0,23.27,30h0a1.69,1.69,0,0,0,.67-.14,1.78,1.78,0,0,0,.93-2.3L24.65,27l-.4-1a1.52,1.52,0,0,0,.3.06,1.48,1.48,0,0,0,1.3-2.2,13.93,13.93,0,0,0,3.08-7.41A1.5,1.5,0,0,0,30,15Zm-6.68,8.63c-2-4.93-3.39-8.32-4.25-10.08a1.76,1.76,0,0,0,.29-1.79c-.22-.55-1-1.77-2-1.77a1,1,0,0,0-.41.08c-1,.42-1.1,2.24-.79,3a1.71,1.71,0,0,0,1.27,1c.57,2.64,2.13,8,3.2,11.43a11.95,11.95,0,0,1-11.26,0c1.06-3.48,2.63-8.79,3.2-11.43a1.71,1.71,0,0,0,1.27-1c.32-.79.2-2.6-.79-3a1,1,0,0,0-.41-.08c-1,0-1.77,1.21-2,1.77a1.76,1.76,0,0,0,.29,1.79c-.86,1.75-2.29,5.15-4.25,10.08a12,12,0,1,1,16.64,0Z" style="fill: #303c42"/>
  </g>
</svg>
