<svg xmlns="http://www.w3.org/2000/svg" viewBox="0 0 30 30">
  <title>Guitar 1</title>
  <g id="Guitar_1" data-name="Guitar 1">
    <path d="M27.85,4.15l-2-2a.5.5,0,0,0-.62-.07l-4,2.5A.5.5,0,0,0,21,5v.79l-4,4A5.23,5.23,0,0,0,14.5,9c-2.76,0-3.41,1.63-3.94,2.94S9.75,13.8,8.5,13.8C4.37,13.8,2,15.95,2,19.7c0,4,4.34,8.3,8.3,8.3,3.75,0,5.9-2.37,5.9-6.5,0-1.25.64-1.57,1.86-2.06S21,18.26,21,15.5A5.21,5.21,0,0,0,20.24,13l4-4H25a.5.5,0,0,0,.42-.23l2.5-4A.5.5,0,0,0,27.85,4.15Zm-18,18.71a.5.5,0,0,1-.71,0l-2-2a.5.5,0,0,1,.71-.71l2,2A.5.5,0,0,1,9.85,22.85ZM13,19.5A2.5,2.5,0,1,1,15.5,17,2.5,2.5,0,0,1,13,19.5Z" style="fill: #303c42"/>
  </g>
</svg>
