<svg xmlns="http://www.w3.org/2000/svg" viewBox="0 0 30 30">
  <title>Drum</title>
  <g id="Drum">
    <g id="_Group_" data-name="&lt;Group&gt;">
      <g>
        <g>
          <path d="M14,1.5a1,1,0,0,1,2,0" style="fill: none;stroke: #303c42;stroke-linecap: round;stroke-linejoin: round"/>
          <path d="M16,28.5a1,1,0,0,1-2,0" style="fill: none;stroke: #303c42;stroke-linecap: round;stroke-linejoin: round"/>
        </g>
        <g>
          <path d="M28.5,14a1,1,0,0,1,0,2" style="fill: none;stroke: #303c42;stroke-linecap: round;stroke-linejoin: round"/>
          <path d="M1.5,16a1,1,0,0,1,0-2" style="fill: none;stroke: #303c42;stroke-linecap: round;stroke-linejoin: round"/>
        </g>
      </g>
      <g>
        <g>
          <path d="M23.84,4.75a1,1,0,1,1,1.41,1.41" style="fill: none;stroke: #303c42;stroke-linecap: round;stroke-linejoin: round"/>
          <path d="M6.16,25.25a1,1,0,1,1-1.41-1.41" style="fill: none;stroke: #303c42;stroke-linecap: round;stroke-linejoin: round"/>
        </g>
        <g>
          <path d="M25.25,23.84a1,1,0,0,1-1.41,1.41" style="fill: none;stroke: #303c42;stroke-linecap: round;stroke-linejoin: round"/>
          <path d="M4.75,6.16A1,1,0,1,1,6.16,4.75" style="fill: none;stroke: #303c42;stroke-linecap: round;stroke-linejoin: round"/>
        </g>
      </g>
      <path d="M23.51,25.47a13.5,13.5,0,1,0-17,0" style="fill: none;stroke: #303c42;stroke-linecap: round;stroke-linejoin: round"/>
      <path d="M8.47,26.81a13.48,13.48,0,0,0,13.05,0" style="fill: none;stroke: #303c42;stroke-linecap: round;stroke-linejoin: round"/>
      <path id="_Path_" data-name="&lt;Path&gt;" d="M5.59,27.75c.22-.54,4.25-11,6-14.3a1.27,1.27,0,0,1-.43-1.5c.26-.64,1.12-1.68,1.75-1.41s.78,1.74.52,2.38a1.21,1.21,0,0,1-1.22.76c-.74,3.71-4.08,14.5-4.3,15a1.21,1.21,0,0,1-1.6.68A1.28,1.28,0,0,1,5.59,27.75Z" style="fill: none;stroke: #303c42;stroke-linecap: round;stroke-linejoin: round"/>
      <path id="_Path_2" data-name="&lt;Path&gt;" d="M24.41,27.75c-.22-.54-4.25-11-6-14.3a1.27,1.27,0,0,0,.43-1.5c-.26-.64-1.12-1.68-1.75-1.41s-.78,1.74-.52,2.38a1.21,1.21,0,0,0,1.22.76c.74,3.71,4.08,14.5,4.3,15a1.21,1.21,0,0,0,1.6.68A1.28,1.28,0,0,0,24.41,27.75Z" style="fill: none;stroke: #303c42;stroke-linecap: round;stroke-linejoin: round"/>
    </g>
  </g>
</svg>
