<svg xmlns="http://www.w3.org/2000/svg" viewBox="0 0 30 30">
  <title>Guitar Pick</title>
  <g id="Guitar_Pick" data-name="Guitar Pick">
    <path d="M15,0C5.53,0,3,5.47,3,8.7c0,5,7.29,21.3,12,21.3S27,13.67,27,8.7C27,5.47,24.47,0,15,0Zm4,16c0,.6-.7,1-1.75,1s-1.75-.4-1.75-1,.7-1,1.75-1a3.27,3.27,0,0,1,.75.08V9.14l-5,1.25V17h0c0,.6-.7,1-1.75,1S9.5,17.6,9.5,17s.7-1,1.75-1a3.27,3.27,0,0,1,.75.08V10a.5.5,0,0,1,.38-.49l6-1.5a.49.49,0,0,1,.43.09A.5.5,0,0,1,19,8.5Z" style="fill: #303c42"/>
  </g>
</svg>
