<svg id="Investment" xmlns="http://www.w3.org/2000/svg" viewBox="0 0 30 30">
  <title>Investment</title>
  <g id="_Group_" data-name="&lt;Group&gt;">
    <path id="_Path_" data-name="&lt;Path&gt;" d="M25.77,15.34a.5.5,0,0,0-.78.42V16c0,.46,0,.9-.06,1.33a.53.53,0,0,0,.16.38.57.57,0,0,0,.4.16.49.49,0,0,1,.48.35.5.5,0,0,1-.35.61A42.57,42.57,0,0,1,15,20,42.57,42.57,0,0,1,4.35,18.83a.49.49,0,0,1,.18-1h.06a.5.5,0,0,0,.5-.5.51.51,0,0,0,0-.18C5,16.8,5,16.41,5,16v-.24a.5.5,0,0,0-.78-.42c-1.36.92-2.23,2.11-2.23,3v2.29C2,24.76,7.71,28,15,28s13-3.24,13-7.37V18.34C28,17.44,27.13,16.26,25.77,15.34Z" style="fill: #303c42"/>
    <path id="_Compound_Path_" data-name="&lt;Compound Path&gt;" d="M15,19a45.32,45.32,0,0,0,8.81-.79A12.93,12.93,0,0,0,24,16c0-6.67-4.71-14-9-14S6,9.33,6,16a13,13,0,0,0,.2,2.23A45.36,45.36,0,0,0,15,19Zm0-5.52a1.89,1.89,0,0,1-2-1.75,1.81,1.81,0,0,1,1.5-1.69V9.5a.5.5,0,0,1,1,0V10h1a.5.5,0,0,1,0,1H15c-.54,0-1,.34-1,.75s.46.75,1,.75a1.89,1.89,0,0,1,2,1.75,1.81,1.81,0,0,1-1.5,1.69v.56a.5.5,0,0,1-1,0V16h-1a.5.5,0,0,1,0-1H15c.54,0,1-.34,1-.75S15.54,13.5,15,13.5Z" style="fill: #303c42"/>
  </g>
</svg>
