<svg xmlns="http://www.w3.org/2000/svg" viewBox="0 0 30 30">
  <title>Busines News</title>
  <g id="Busines_News" data-name="Busines News">
    <path d="M29.85,4.15A.5.5,0,0,0,29.5,4H4A1,1,0,0,0,3,5V23.5a.5.5,0,0,1-1,0V8.5A.5.5,0,0,0,1.5,8H.5a.5.5,0,0,0-.5.5V23.77A2,2,0,0,0,2.26,26L28,26a2,2,0,0,0,2-2V4.5A.5.5,0,0,0,29.85,4.15ZM11,7.5a.5.5,0,0,1,.5-.5h3a.5.5,0,0,1,0,1H12v2h1.5a.5.5,0,0,1,0,1H12v2h2.5a.5.5,0,0,1,0,1h-3a.5.5,0,0,1-.5-.5Zm-5,0A.5.5,0,0,1,6.5,7H8a2,2,0,0,1,2,2v4.5a.5.5,0,1,1-1,0V9A1,1,0,0,0,8,8H7v5.5a.5.5,0,1,1-1,0Zm9,15a.5.5,0,0,1-.5.5h-8a.5.5,0,0,1-.5-.5v-6a.5.5,0,0,1,.5-.5h8a.5.5,0,0,1,.5.5ZM16.1,11.8a.5.5,0,0,1-.1-.3v-4a.5.5,0,1,1,1,0v3.83l1,1.33,1-1.33V7.5a.5.5,0,1,1,1,0v3.83l1,1.33,1-1.33V7.5a.5.5,0,1,1,1,0v4a.5.5,0,0,1-.1.3l-1.5,2a.5.5,0,0,1-.8,0l-1.1-1.47L18.4,13.8a.5.5,0,0,1-.8,0ZM27.5,23h-9a.5.5,0,0,1,0-1h9a.5.5,0,0,1,0,1Zm0-3h-9a.5.5,0,0,1,0-1h9a.5.5,0,0,1,0,1Zm0-3h-9a.5.5,0,0,1,0-1h9a.5.5,0,0,1,0,1ZM26,10a2,2,0,1,1,0,4H24.5a.5.5,0,0,1,0-1H26a1,1,0,1,0,0-2,2,2,0,0,1,0-4h1.5a.5.5,0,0,1,0,1H26a1,1,0,1,0,0,2Z" style="fill: #303c42"/>
  </g>
</svg>
