<svg xmlns="http://www.w3.org/2000/svg" viewBox="0 0 24 24">
  <title>Busines News</title>
  <g id="Busines_News" data-name="Busines News">
    <path d="M23.5,3H3.5a.5.5,0,0,0-.5.5v15a.5.5,0,0,1-1,0V6.5A.5.5,0,0,0,1.5,6H.5a.5.5,0,0,0-.5.5v12C0,20,.5,21,2,21H22a2,2,0,0,0,2-2V3.5A.5.5,0,0,0,23.5,3ZM9,6.5A.5.5,0,0,1,9.5,6h2a.5.5,0,0,1,0,1H10V8h1a.5.5,0,0,1,0,1H10v1h1.5a.5.5,0,0,1,0,1h-2a.5.5,0,0,1-.5-.5Zm-4,0A.5.5,0,0,1,5.5,6h1A1.5,1.5,0,0,1,8,7.5v3a.5.5,0,1,1-1,0v-3A.5.5,0,0,0,6.5,7H6v3.5a.5.5,0,1,1-1,0Zm8,11a.5.5,0,0,1-.5.5h-7a.5.5,0,0,1-.5-.5v-5a.5.5,0,0,1,.5-.5h7a.5.5,0,0,1,.5.5ZM13,9V6.5a.5.5,0,0,1,1,0V8.85l.5.75.5-.75V6.5a.5.5,0,0,1,1,0V8.85l.5.75.5-.75V6.5a.5.5,0,0,1,1,0V9a.5.5,0,0,1-.08.28l-1,1.5a.5.5,0,0,1-.83,0L15.5,9.9l-.58.88a.5.5,0,0,1-.83,0l-1-1.5A.5.5,0,0,1,13,9Zm8.5,9h-7a.5.5,0,0,1,0-1h7a.5.5,0,0,1,0,1Zm0-2h-7a.5.5,0,1,1,0-1h7a.5.5,0,0,1,0,1Zm0-2h-7a.5.5,0,0,1,0-1h7a.5.5,0,0,1,0,1Zm-1-6a1.5,1.5,0,1,1,0,3h-1a.5.5,0,0,1,0-1h1a.5.5,0,1,0,0-1,1.5,1.5,0,0,1,0-3h1a.5.5,0,0,1,0,1h-1a.5.5,0,0,0,0,1Z" style="fill: #303c42"/>
  </g>
</svg>
