<svg xmlns="http://www.w3.org/2000/svg" viewBox="0 0 24 24">
  <title>Post It</title>
  <g id="Post_It" data-name="Post It">
    <g>
      <path d="M8.95,4.07,3.7,5.64a1.68,1.68,0,0,0-1.13,2.1L6.64,21.3a1.68,1.68,0,0,0,2.1,1.13L22.3,18.36a1.68,1.68,0,0,0,1.13-2.1L19.36,2.7a1.68,1.68,0,0,0-2.1-1.13l-5.8,1.74" style="fill: none;stroke: #303c42;stroke-linecap: round;stroke-linejoin: round"/>
      <path d="M8.59,3.5H2A1.5,1.5,0,0,0,.5,5V20A1.5,1.5,0,0,0,2,21.5H6.71" style="fill: none;stroke: #303c42;stroke-linecap: round;stroke-linejoin: round"/>
      <circle cx="10" cy="3" r="1.5" style="fill: none;stroke: #303c42;stroke-linecap: round;stroke-linejoin: round"/>
      <line x1="10.71" y1="4.32" x2="11.5" y2="5.5" style="fill: none;stroke: #303c42;stroke-linecap: round;stroke-linejoin: round"/>
    </g>
  </g>
</svg>
