<svg xmlns="http://www.w3.org/2000/svg" viewBox="0 0 30 30">
  <title>Post It</title>
  <g id="Post_It" data-name="Post It">
    <g>
      <path d="M10.5,4.5H2A1.5,1.5,0,0,0,.5,6V25A1.5,1.5,0,0,0,2,26.5H8.82" style="fill: none;stroke: #303c42;stroke-linecap: round;stroke-linejoin: round"/>
      <path d="M11.19,5.64,5,7.43A2,2,0,0,0,3.5,9.35a1.93,1.93,0,0,0,.09.58l5,16.15a2.08,2.08,0,0,0,2,1.43,2.16,2.16,0,0,0,.6-.08L28,22.57a2,2,0,0,0,1.49-1.92,1.93,1.93,0,0,0-.09-.58l-5-16.15a2.08,2.08,0,0,0-2-1.43,2.16,2.16,0,0,0-.6.08L13.88,4.86" style="fill: none;stroke: #303c42;stroke-linecap: round;stroke-linejoin: round"/>
      <circle cx="12.25" cy="4.25" r="1.75" style="fill: none;stroke: #303c42;stroke-linecap: round;stroke-linejoin: round"/>
      <line x1="13.14" y1="5.76" x2="14.5" y2="7.5" style="fill: none;stroke: #303c42;stroke-linecap: round;stroke-linejoin: round"/>
    </g>
  </g>
</svg>
