<svg xmlns="http://www.w3.org/2000/svg" viewBox="0 0 24 24">
  <title>Recycle Bin</title>
  <g id="Recycle_Bin" data-name="Recycle Bin">
    <path d="M23,3.5C23,1.23,17.85,0,13,0S3,1.23,3,3.5c0,0,2,17.88,2,17.88C5.22,23.18,9.3,24,13,24s7.78-.82,8-2.62C21,21.38,23,3.53,23,3.5ZM13,5C8.31,5,5.74,3.93,5.12,3.52,5.79,3,8.36,2,13,2s7.26,1.07,7.88,1.48C20.21,4,17.64,5,13,5ZM9.5,15.5h0a.49.49,0,0,1-.21-.05l-.05,0a.49.49,0,0,1-.12-.11l0,0,0,0,0-.09A.48.48,0,0,1,9,15s0,0,0,0,0-.06,0-.09H9a4,4,0,0,1,7.31-2.14.5.5,0,0,1-.83.56,3,3,0,0,0-4.73-.3l.72.36a.5.5,0,0,1,.05.86L9.78,15.42h0a.49.49,0,0,1-.25.07ZM17,15.09h0a4,4,0,0,1-.67,2.13h0a4,4,0,0,1-6.62,0,.5.5,0,1,1,.83-.56,3,3,0,0,0,4.66.38l-.7-.48a.5.5,0,0,1,0-.83l1.75-1.17,0,0,.09,0,.1,0h.09l.1,0,.09,0,.08.05.07.07,0,0,0,0,0,.09a.48.48,0,0,1,0,.1s0,0,0,0S17,15.06,17,15.09Z" style="fill: #303c42"/>
  </g>
</svg>
