<svg xmlns="http://www.w3.org/2000/svg" viewBox="0 0 30 30">
  <title>Recycle Bin</title>
  <g id="Recycle_Bin" data-name="Recycle Bin">
    <path d="M15,0C9.18,0,3,1.58,3,4.5,3,4.64,5.5,27,5.5,27c0,2,4.78,3,9.5,3s9.5-1,9.5-2.94c0,0,2.5-22.41,2.5-22.56C27,1.58,20.82,0,15,0Zm0,7C8.31,7,5.1,5.1,5,4.51,5.1,3.9,8.31,2,15,2s9.9,1.9,10,2.49C24.9,5.1,21.69,7,15,7ZM10.5,19.5h0A.5.5,0,0,1,10,19a5,5,0,0,1,9.15-2.8.5.5,0,1,1-.83.56,4,4,0,0,0-6.5-.16l.9.45a.5.5,0,0,1,.08.85l-2,1.5h0A.49.49,0,0,1,10.5,19.5ZM15,24a5,5,0,0,1-4.15-2.2.5.5,0,0,1,.83-.56,4,4,0,0,0,6.28.43l-.81-.81a.5.5,0,0,1,.05-.75l2-1.5h0a.49.49,0,0,1,.27-.09.5.5,0,0,1,.5.5A5,5,0,0,1,15,24Z" style="fill: #303c42"/>
  </g>
</svg>
