<svg xmlns="http://www.w3.org/2000/svg" viewBox="0 0 30 30">
  <title>Olive</title>
  <g id="Olive">
    <path d="M26.77,3.23A11.6,11.6,0,0,0,18.14,0,18.66,18.66,0,0,0,5.71,5.71,18.34,18.34,0,0,0,0,18.79a11.35,11.35,0,0,0,3.23,8,11.36,11.36,0,0,0,8,3.23h.31a18.44,18.44,0,0,0,12.78-5.71A18.34,18.34,0,0,0,30,11.21,11.36,11.36,0,0,0,26.77,3.23ZM7.83,7.83a16.76,16.76,0,0,0-4.48,7.78.5.5,0,0,1-.49.38H2.75a.5.5,0,0,1-.37-.6A17.77,17.77,0,0,1,7.12,7.12a.5.5,0,1,1,.71.71Zm17,4a2.45,2.45,0,0,1-1.35.65,5.14,5.14,0,0,0-1.65-4.23,5.14,5.14,0,0,0-4.23-1.64,2.45,2.45,0,0,1,.65-1.35,2.61,2.61,0,0,1,1.89-.71,3.94,3.94,0,0,1,.61,0,5.71,5.71,0,0,1,3.07,1.66,5.71,5.71,0,0,1,1.66,3.07A2.82,2.82,0,0,1,24.79,11.79Z" style="fill: #303c42"/>
  </g>
</svg>
