<svg xmlns="http://www.w3.org/2000/svg" viewBox="0 0 30 30">
  <title>Man with Beard</title>
  <g id="Man_with_Beard" data-name="Man with Beard">
    <g>
      <path d="M23,21.5c1.24-1.19,1.5-6,1.5-6a20.07,20.07,0,0,1-5.3,7.69,2.45,2.45,0,0,0-2.35-1.69H13.15a2.45,2.45,0,0,0-2.35,1.69A20.07,20.07,0,0,1,5.5,15.5s.26,4.81,1.5,6" style="fill: none;stroke: #303c42;stroke-linecap: round;stroke-linejoin: round"/>
      <line x1="16" y1="23.5" x2="14" y2="23.5" style="fill: none;stroke: #303c42;stroke-linecap: round;stroke-linejoin: round"/>
      <g>
        <circle id="_Path_" data-name="&lt;Path&gt;" cx="10.5" cy="16" r="0.5" style="fill: none;stroke: #303c42;stroke-linecap: round;stroke-linejoin: round"/>
        <circle id="_Path_2" data-name="&lt;Path&gt;" cx="19.5" cy="16" r="0.5" style="fill: none;stroke: #303c42;stroke-linecap: round;stroke-linejoin: round"/>
        <path d="M5.5,15.5c0-1.87,2.3-5,6-5a9.58,9.58,0,0,0,5.5-2,7.93,7.93,0,0,1,7.5,7,1.44,1.44,0,0,1,.62.49,12.69,12.69,0,0,0,.38-2.86C25.5,10.63,24.26,2.5,15,2.5l-.5.5c-9.26,0-10,7.63-10,10.13A12.69,12.69,0,0,0,4.88,16,1.44,1.44,0,0,1,5.5,15.5Z" style="fill: none;stroke: #303c42;stroke-linecap: round;stroke-linejoin: round"/>
        <path d="M5.5,15.5c-.94.4-1,1.26-1,2.5,0,1,1.17,3.39,2.5,3.5,1.89,3.58,4,6,8,6s6.11-2.42,8-6c1.33-.11,2.5-2.47,2.5-3.5,0-1.24-.06-2.1-1-2.5" style="fill: none;stroke: #303c42;stroke-linecap: round;stroke-linejoin: round"/>
      </g>
    </g>
  </g>
</svg>
