<svg xmlns="http://www.w3.org/2000/svg" viewBox="0 0 24 24">
  <title>Doctor</title>
  <g id="Doctor">
    <g>
      <circle cx="8.5" cy="13" r="1" style="fill: #303c42"/>
      <circle cx="15.5" cy="13" r="1" style="fill: #303c42"/>
      <circle cx="12" cy="9" r="2" style="fill: #303c42"/>
      <path d="M20,12.21v0c0-.24,0-.46,0-.69h0l-.4-6a3.49,3.49,0,0,0-1.75-2.81A12,12,0,0,0,12,1,12,12,0,0,0,6.16,2.62,3.49,3.49,0,0,0,4.4,5.42l-.4,6H4c0,.23,0,.46,0,.69v0A2.54,2.54,0,0,0,3,14.5c0,1,.9,3.13,2.17,3.46.56,1,3,5,6.83,5s6.27-4,6.83-5C20.1,17.63,21,15.46,21,14.5A2.54,2.54,0,0,0,20,12.21ZM9,9a3,3,0,1,1,3,3A3,3,0,0,1,9,9Zm9.58,8A15.86,15.86,0,0,0,12,15a15.86,15.86,0,0,0-6.58,2C4.8,16.84,4,15.23,4,14.5c0-1.07.34-1.38.71-1.55A.5.5,0,0,0,5,12.5v-.36c0-.1,0-.21,0-.31a32.29,32.29,0,0,1,3.36-1.19,4,4,0,0,0,7.28,0A32.3,32.3,0,0,1,19,11.83c0,.1,0,.2,0,.31v.36a.5.5,0,0,0,.29.45c.37.17.71.48.71,1.55C20,15.23,19.2,16.84,18.58,17Z" style="fill: #303c42"/>
    </g>
  </g>
</svg>
