<svg xmlns="http://www.w3.org/2000/svg" viewBox="0 0 24 24">
  <title>Stewardess</title>
  <g id="Stewardess">
    <g>
      <path d="M16.5,14a.5.5,0,0,0,0-1h-1a.5.5,0,0,0-.2,0,1,1,0,0,0-.8,1,1,1,0,0,0,2,0Z" style="fill: #303c42"/>
      <path d="M23.95,21.27l-.51-1C22,17.55,21,15.58,21,12a11.07,11.07,0,0,0-2.89-7.32l-.62-2.79h0C17.33.59,14.57,0,12,0S6.67.59,6.51,1.88h0l-.62,2.8A10.25,10.25,0,0,0,3,12c0,3.58-1,5.55-2.44,8.29l-.51,1A.5.5,0,0,0,.31,22c.08,0,2,.78,8.3,1a6,6,0,0,0,6.77,0c6.28-.21,8.22-.95,8.3-1a.5.5,0,0,0,.26-.69ZM13.25,8h0c-.39,0-.8,0-1.23,0C8.53,8,6.6,7.06,6.5,6.54l.77-3.45A10.26,10.26,0,0,0,12,4a10.27,10.27,0,0,0,4.73-.91l.77,3.45c-.07.36-1,.92-2.78,1.23A14.4,14.4,0,0,1,13.25,8ZM5,12.95l-.26,0ZM12,1c2.9,0,4.4.72,4.5,1-.1.28-1.6,1-4.5,1S7.57,2.27,7.5,2C7.57,1.73,9.07,1,12,1ZM6.12,18.37l-.05-.1A.5.5,0,0,0,5.63,18C4.93,18,4,16.28,4,15.5c0-1,.23-1.31.62-1.5A7.58,7.58,0,0,0,7,13.35a.49.49,0,0,0,0,.15.5.5,0,0,0,.5.5,1,1,0,1,0,2,0,1,1,0,0,0-.8-1,.5.5,0,0,0-.2,0H7.83a19.91,19.91,0,0,0,5.69-4.06h.08l.9-.11h.07c.94,2.56,2.91,5.08,4.81,5.19.38.19.62.54.62,1.5,0,.78-.93,2.5-1.62,2.5a.5.5,0,0,0-.45.27l-.05.1C16.33,21.44,14.35,23,12,23S7.67,21.44,6.12,18.37Z" style="fill: #303c42"/>
      <path d="M14.45,5A5.65,5.65,0,0,0,12,5.69,5.64,5.64,0,0,0,9.55,5,.51.51,0,0,0,9,5.45.5.5,0,0,0,9.45,6a5.51,5.51,0,0,1,2,.5A.52.52,0,0,0,12,7a.47.47,0,0,0,.47-.33.5.5,0,0,0,0-.14A4.42,4.42,0,0,1,14.55,6a.5.5,0,0,0-.09-1Z" style="fill: #303c42"/>
    </g>
  </g>
</svg>
