<svg xmlns="http://www.w3.org/2000/svg" viewBox="0 0 30 30">
  <title>Doctoraaa</title>
  <g id="Doctor">
    <g>
      <circle cx="15" cy="11" r="3" style="fill: #303c42"/>
      <path d="M10.5,15a1,1,0,1,0,1,1A1,1,0,0,0,10.5,15Z" style="fill: #303c42"/>
      <path d="M19.5,15a1,1,0,1,0,1,1A1,1,0,0,0,19.5,15Z" style="fill: #303c42"/>
      <path d="M25,15.2l-.49-7.59a4.4,4.4,0,0,0-2.15-3.53A14.73,14.73,0,0,0,15,2,14.73,14.73,0,0,0,7.66,4.09,4.4,4.4,0,0,0,5.51,7.61L5,15.2C4,15.82,4,17,4,18s1,3.55,2.58,3.94C8.21,25,10.51,28,15,28s6.79-3,8.42-6.06C25,21.55,26,19.05,26,18S26,15.82,25,15.2ZM11,11a4,4,0,1,1,4,4A4,4,0,0,1,11,11Zm12.35,9.9A25.22,25.22,0,0,0,15,19a25.22,25.22,0,0,0-8.35,1.9A4.1,4.1,0,0,1,5,18c0-1.31.1-1.78.7-2h0A42.61,42.61,0,0,1,11,14,4.95,4.95,0,0,0,19,14,42.65,42.65,0,0,1,24.29,16h0c.6.25.7.73.7,2A4.1,4.1,0,0,1,23.35,20.9Z" style="fill: #303c42"/>
    </g>
  </g>
</svg>
