<svg xmlns="http://www.w3.org/2000/svg" viewBox="0 0 30 30">
  <title>Stewardess</title>
  <g id="Stewardess">
    <g>
      <g>
        <ellipse cx="15.5" cy="2.5" rx="7" ry="2" style="fill: none;stroke: #303c42;stroke-linecap: round;stroke-linejoin: round"/>
        <path d="M22.5,2.5l1,5.5c0,1.38-3.58,2.5-8,2.5s-8-1.12-8-2.5l1-5.5" style="fill: none;stroke: #303c42;stroke-linecap: round;stroke-linejoin: round"/>
        <path d="M12.5,7s3,.54,3,1.5" style="fill: none;stroke: #303c42;stroke-linecap: round;stroke-linejoin: round"/>
        <path d="M18.5,7s-3,.54-3,1.5" style="fill: none;stroke: #303c42;stroke-linecap: round;stroke-linejoin: round"/>
      </g>
      <circle id="_Path_" data-name="&lt;Path&gt;" cx="10.5" cy="18" r="0.5" style="fill: none;stroke: #303c42;stroke-linecap: round;stroke-linejoin: round"/>
      <line x1="10.5" y1="17.5" x2="9.5" y2="17.5" style="fill: none;stroke: #303c42;stroke-linecap: round;stroke-linejoin: round"/>
      <circle id="_Path_2" data-name="&lt;Path&gt;" cx="19.5" cy="18" r="0.5" style="fill: none;stroke: #303c42;stroke-linecap: round;stroke-linejoin: round"/>
      <line x1="19.5" y1="17.5" x2="20.5" y2="17.5" style="fill: none;stroke: #303c42;stroke-linecap: round;stroke-linejoin: round"/>
      <path d="M19.5,28c8-.24,10-1,10-1-2.13-3.94-4-6.09-4-11a16.36,16.36,0,0,0-2.39-7.23" style="fill: none;stroke: #303c42;stroke-linecap: round;stroke-linejoin: round"/>
      <path d="M7.52,7.89A15.55,15.55,0,0,0,4.5,16c0,4.91-1.87,7.06-4,11,0,0,2,.76,10,1" style="fill: none;stroke: #303c42;stroke-linecap: round;stroke-linejoin: round"/>
      <path d="M17.75,10.4C15.43,13.7,8.3,17.5,5.5,17.5c-.94.4-1,1.26-1,2.5,0,1,1.07,3.38,2.4,3.49,1.89,3.58,5.35,6,8.1,6s6.2-2.43,8.1-6c1.33-.11,2.4-2.46,2.4-3.49,0-1.24-.06-2.1-1-2.5-2.43,0-5-3.88-5.77-7.21" style="fill: none;stroke: #303c42;stroke-linecap: round;stroke-linejoin: round"/>
    </g>
  </g>
</svg>
