<svg xmlns="http://www.w3.org/2000/svg" viewBox="0 0 30 30">
  <title>Fish</title>
  <g id="Fish">
    <path d="M29.94,15.26C27.1,10,22.35,7,16.89,7H16.7c-2.06-1.88-6-2-6.19-2a.52.52,0,0,0-.42.22.5.5,0,0,0,0,.47A18.16,18.16,0,0,1,11,8.6a22.93,22.93,0,0,0-4.82,2.88A39.13,39.13,0,0,0,.73,8.06.5.5,0,0,0,0,8.6a56.34,56.34,0,0,1,1,6.9,56.34,56.34,0,0,1-1,6.9.5.5,0,0,0,.72.54,39.13,39.13,0,0,0,5.44-3.42,14.9,14.9,0,0,0,1.64,1.17A2.94,2.94,0,0,0,7.5,22a3,3,0,0,0,5.7,1.28,12,12,0,0,0,3.69.72c5.46,0,10.21-3,13-8.26A.5.5,0,0,0,29.94,15.26ZM19,19.79a.5.5,0,1,1-.9.43,11.92,11.92,0,0,1-1-4.46,11.92,11.92,0,0,1,1-4.46.5.5,0,1,1,.9.43,11.12,11.12,0,0,0-1,4A11.12,11.12,0,0,0,19,19.79ZM24,14a1,1,0,1,1,1-1A1,1,0,0,1,24,14Z" style="fill: #303c42"/>
  </g>
</svg>
