<svg xmlns="http://www.w3.org/2000/svg" viewBox="0 0 24 24">
  <title>Fish</title>
  <g id="Fish">
    <g>
      <path d="M23.5,12.5a11.37,11.37,0,0,0-10-6C10.5,6.5,6,9,5,10A21.92,21.92,0,0,0,.5,7.5a28.14,28.14,0,0,1,1,5,28.14,28.14,0,0,1-1,5A21.92,21.92,0,0,0,5,15c1,1,5.5,3.5,8.5,3.5A11.37,11.37,0,0,0,23.5,12.5Z" style="fill: none;stroke: #303c42;stroke-linecap: round;stroke-linejoin: round"/>
      <path d="M13.5,6.5c-1.5-1.5-5-2-5-2a16.18,16.18,0,0,1,.85,3" style="fill: none;stroke: #303c42;stroke-linecap: round;stroke-linejoin: round"/>
      <path d="M10.59,18C9.82,19.3,9.39,19.5,8.2,19.5a2.12,2.12,0,0,1-1.7-2c0-1,.53-1.12.53-1.12" style="fill: none;stroke: #303c42;stroke-linecap: round;stroke-linejoin: round"/>
      <circle cx="19" cy="11" r="0.5" style="fill: none;stroke: #303c42;stroke-linecap: round;stroke-linejoin: round"/>
      <path d="M15,9.5a6.34,6.34,0,0,0-1,3,6.34,6.34,0,0,0,1,3" style="fill: none;stroke: #303c42;stroke-linecap: round;stroke-linejoin: round"/>
    </g>
  </g>
</svg>
