<svg xmlns="http://www.w3.org/2000/svg" viewBox="0 0 30 30">
  <title>Fish</title>
  <g id="Fish">
    <g>
      <path d="M16.5,7.5c-1.89-1.9-6-2-6-2a15.46,15.46,0,0,1,1,3.4" style="fill: none;stroke: #303c42;stroke-linecap: round;stroke-linejoin: round"/>
      <circle cx="24" cy="13" r="0.5" style="fill: none;stroke: #303c42;stroke-linecap: round;stroke-linejoin: round"/>
      <path d="M18.5,11.5a11.52,11.52,0,0,0-1,4.25,11.52,11.52,0,0,0,1,4.25" style="fill: none;stroke: #303c42;stroke-linecap: round;stroke-linejoin: round"/>
      <path d="M8.49,20.53a2.49,2.49,0,1,0,4.41,2.13" style="fill: none;stroke: #303c42;stroke-linecap: round;stroke-linejoin: round"/>
      <path d="M29.5,15.5c-2.52-4.67-6.93-8-12.61-8-3.78,0-9.46,3.33-10.72,4.67C4.91,10.83.5,8.5.5,8.5a56.38,56.38,0,0,1,1,7,56.38,56.38,0,0,1-1,7s4.41-2.33,5.67-3.67c1.26,1.33,6.93,4.67,10.72,4.67C22.57,23.5,27,20.17,29.5,15.5Z" style="fill: none;stroke: #303c42;stroke-linecap: round;stroke-linejoin: round"/>
    </g>
  </g>
</svg>
