<svg xmlns="http://www.w3.org/2000/svg" viewBox="0 0 24 24">
  <title>Paws</title>
  <g id="Paws">
    <g>
      <g>
        <path d="M7,17c1.52,0,1.54,1.58,1.88,2,.6.73,1.6,1.22,1.62,2.25,0,.85-.54,1.25-1.35,1.25-1,0-1.25-.63-2.15-.63H7c-.9,0-1.13.63-2.15.63-.8,0-1.36-.4-1.35-1.25,0-1,1-1.52,1.62-2.25.35-.42.37-2,1.88-2Z" style="fill: none;stroke: #303c42;stroke-linecap: round;stroke-linejoin: round"/>
        <path d="M12.46,17a2.3,2.3,0,0,0,0-.43c0-.62-.28-1.07-.71-1.07s-1.09.67-1.24,1.5a2.3,2.3,0,0,0,0,.43c0,.62.28,1.07.71,1.07S12.3,17.83,12.46,17Z" style="fill: none;stroke: #303c42;stroke-linecap: round;stroke-linejoin: round"/>
        <path d="M10.46,13.25a2.53,2.53,0,0,0,0-.39c0-.78-.36-1.36-.93-1.36S8.22,12.28,8,13.25a2.53,2.53,0,0,0,0,.39c0,.78.36,1.36.93,1.36S10.28,14.22,10.46,13.25Z" style="fill: none;stroke: #303c42;stroke-linecap: round;stroke-linejoin: round"/>
        <path d="M1.54,17a2.3,2.3,0,0,1,0-.43c0-.62.28-1.07.71-1.07s1.09.67,1.24,1.5a2.3,2.3,0,0,1,0,.43c0,.62-.28,1.07-.71,1.07S1.7,17.83,1.54,17Z" style="fill: none;stroke: #303c42;stroke-linecap: round;stroke-linejoin: round"/>
        <path d="M3.54,13.25a2.53,2.53,0,0,1,0-.39c0-.78.36-1.36.93-1.36s1.35.78,1.53,1.75a2.53,2.53,0,0,1,0,.39C6,14.42,5.64,15,5.07,15S3.72,14.22,3.54,13.25Z" style="fill: none;stroke: #303c42;stroke-linecap: round;stroke-linejoin: round"/>
      </g>
      <g>
        <path d="M17,7c1.52,0,1.54,1.58,1.88,2,.6.73,1.6,1.22,1.62,2.25,0,.85-.54,1.25-1.35,1.25-1,0-1.25-.63-2.15-.63h0c-.9,0-1.13.63-2.15.63-.8,0-1.36-.4-1.35-1.25,0-1,1-1.52,1.62-2.25.35-.42.37-2,1.88-2Z" style="fill: none;stroke: #303c42;stroke-linecap: round;stroke-linejoin: round"/>
        <path d="M22.46,7a2.3,2.3,0,0,0,0-.43c0-.62-.28-1.07-.71-1.07S20.7,6.17,20.54,7a2.3,2.3,0,0,0,0,.43c0,.62.28,1.07.71,1.07S22.3,7.83,22.46,7Z" style="fill: none;stroke: #303c42;stroke-linecap: round;stroke-linejoin: round"/>
        <path d="M20.46,3.25a2.53,2.53,0,0,0,0-.39c0-.78-.36-1.36-.93-1.36S18.22,2.28,18,3.25a2.53,2.53,0,0,0,0,.39c0,.78.36,1.36.93,1.36S20.28,4.22,20.46,3.25Z" style="fill: none;stroke: #303c42;stroke-linecap: round;stroke-linejoin: round"/>
        <path d="M11.54,7a2.3,2.3,0,0,1,0-.43c0-.62.28-1.07.71-1.07s1.09.67,1.24,1.5a2.3,2.3,0,0,1,0,.43c0,.62-.28,1.07-.71,1.07S11.7,7.83,11.54,7Z" style="fill: none;stroke: #303c42;stroke-linecap: round;stroke-linejoin: round"/>
        <path d="M13.54,3.25a2.53,2.53,0,0,1,0-.39c0-.78.36-1.36.93-1.36s1.35.78,1.53,1.75a2.53,2.53,0,0,1,0,.39C16,4.42,15.64,5,15.07,5S13.72,4.22,13.54,3.25Z" style="fill: none;stroke: #303c42;stroke-linecap: round;stroke-linejoin: round"/>
      </g>
    </g>
  </g>
</svg>
