<svg xmlns="http://www.w3.org/2000/svg" viewBox="0 0 24 24">
  <title>Fish</title>
  <g id="Fish">
    <path d="M23.93,12.25A11.84,11.84,0,0,0,13.71,6C12,4.52,8.72,4,8.57,4a.49.49,0,0,0-.46.18A.5.5,0,0,0,8,4.67a20.58,20.58,0,0,1,.78,2.51A18.44,18.44,0,0,0,5,9.34,26.27,26.27,0,0,0,.7,7a.5.5,0,0,0-.68.6A27.94,27.94,0,0,1,1,12.5a27.94,27.94,0,0,1-1,4.86A.5.5,0,0,0,.7,18,26.27,26.27,0,0,0,5,15.66a12.14,12.14,0,0,0,1.22.83,2.09,2.09,0,0,0-.22,1A2.6,2.6,0,0,0,8.2,20a2.54,2.54,0,0,0,2.61-1.45A9.74,9.74,0,0,0,13.5,19a11.84,11.84,0,0,0,10.43-6.25A.5.5,0,0,0,23.93,12.25Zm-8.66,3.66a.5.5,0,0,1-.69-.14A6.8,6.8,0,0,1,13.5,12.5a6.8,6.8,0,0,1,1.08-3.28.5.5,0,0,1,.83.55,5.87,5.87,0,0,0-.92,2.72,5.83,5.83,0,0,0,.92,2.72A.5.5,0,0,1,15.28,15.92ZM19,12a1,1,0,1,1,1-1A1,1,0,0,1,19,12Z" style="fill: #303c42"/>
  </g>
</svg>
