<svg xmlns="http://www.w3.org/2000/svg" viewBox="0 0 24 24">
  <title>Paws</title>
  <g id="Paws">
    <g>
      <path d="M9.82,19.23a5.64,5.64,0,0,1-.55-.55,2.32,2.32,0,0,1-.16-.38A2.22,2.22,0,0,0,7,16.5a2.22,2.22,0,0,0-2.12,1.81,2.34,2.34,0,0,1-.15.38,5.56,5.56,0,0,1-.55.55,2.77,2.77,0,0,0-1.18,2,1.69,1.69,0,0,0,.46,1.25A1.9,1.9,0,0,0,4.85,23a2.69,2.69,0,0,0,1.38-.39A1.49,1.49,0,0,1,7,22.37a1.49,1.49,0,0,1,.77.24A2.69,2.69,0,0,0,9.15,23a1.9,1.9,0,0,0,1.39-.51A1.7,1.7,0,0,0,11,21.24,2.77,2.77,0,0,0,9.82,19.23Z" style="fill: #303c42"/>
      <path d="M11.79,15c-.78,0-1.53.82-1.74,1.91a2.78,2.78,0,0,0-.05.52,1.89,1.89,0,0,0,.28,1,1.11,1.11,0,0,0,.94.53c.78,0,1.53-.82,1.74-1.91h0a2.78,2.78,0,0,0,.05-.52,1.89,1.89,0,0,0-.28-1A1.12,1.12,0,0,0,11.79,15Z" style="fill: #303c42"/>
      <path d="M8.93,15.5a2.42,2.42,0,0,0,2-2.16h0a3.18,3.18,0,0,0,0-.46,2,2,0,0,0-.5-1.48,1.28,1.28,0,0,0-.93-.4,2.42,2.42,0,0,0-2,2.16,3.18,3.18,0,0,0,0,.46A2,2,0,0,0,8,15.1,1.28,1.28,0,0,0,8.93,15.5Z" style="fill: #303c42"/>
      <path d="M3.72,18.47a1.89,1.89,0,0,0,.28-1,2.79,2.79,0,0,0-.05-.52C3.74,15.82,3,15,2.21,15a1.12,1.12,0,0,0-.94.53,1.89,1.89,0,0,0-.28,1,2.78,2.78,0,0,0,.05.52h0C1.26,18.18,2,19,2.79,19A1.11,1.11,0,0,0,3.72,18.47Z" style="fill: #303c42"/>
      <path d="M3,13.34a2.42,2.42,0,0,0,2,2.16A1.28,1.28,0,0,0,6,15.1a2,2,0,0,0,.5-1.48,3.21,3.21,0,0,0,0-.46,2.42,2.42,0,0,0-2-2.16,1.28,1.28,0,0,0-.93.4A2,2,0,0,0,3,12.88a3.18,3.18,0,0,0,0,.46Z" style="fill: #303c42"/>
      <path d="M19.82,9.23a5.64,5.64,0,0,1-.55-.55,2.32,2.32,0,0,1-.16-.38,2.14,2.14,0,0,0-4.23,0,2.34,2.34,0,0,1-.15.38,5.56,5.56,0,0,1-.55.55,2.77,2.77,0,0,0-1.18,2,1.69,1.69,0,0,0,.46,1.25,1.9,1.9,0,0,0,1.39.51,2.69,2.69,0,0,0,1.38-.39,1.34,1.34,0,0,1,1.54,0,2.69,2.69,0,0,0,1.38.39,1.9,1.9,0,0,0,1.39-.51A1.7,1.7,0,0,0,21,11.24,2.77,2.77,0,0,0,19.82,9.23Z" style="fill: #303c42"/>
      <path d="M22.72,5.53A1.12,1.12,0,0,0,21.79,5c-.78,0-1.53.82-1.74,1.91a2.78,2.78,0,0,0-.05.52,1.89,1.89,0,0,0,.28,1,1.11,1.11,0,0,0,.94.53c.78,0,1.53-.82,1.74-1.91h0A2.78,2.78,0,0,0,23,6.57,1.89,1.89,0,0,0,22.72,5.53Z" style="fill: #303c42"/>
      <path d="M18.93,5.5a2.42,2.42,0,0,0,2-2.16h0a3.18,3.18,0,0,0,0-.46,2,2,0,0,0-.5-1.48,1.28,1.28,0,0,0-.93-.4,2.42,2.42,0,0,0-2,2.16,3.18,3.18,0,0,0,0,.46A2,2,0,0,0,18,5.1,1.28,1.28,0,0,0,18.93,5.5Z" style="fill: #303c42"/>
      <path d="M11.05,7.09C11.26,8.18,12,9,12.79,9a1.11,1.11,0,0,0,.94-.53,1.89,1.89,0,0,0,.28-1,2.79,2.79,0,0,0-.05-.52C13.74,5.82,13,5,12.21,5a1.12,1.12,0,0,0-.94.53,1.89,1.89,0,0,0-.28,1,2.78,2.78,0,0,0,.05.52Z" style="fill: #303c42"/>
      <path d="M13,3.34a2.42,2.42,0,0,0,2,2.16A1.28,1.28,0,0,0,16,5.1a2,2,0,0,0,.5-1.48,3.2,3.2,0,0,0,0-.46,2.42,2.42,0,0,0-2-2.16,1.28,1.28,0,0,0-.93.4A2,2,0,0,0,13,2.88a3.18,3.18,0,0,0,0,.46Z" style="fill: #303c42"/>
    </g>
  </g>
</svg>
