<svg xmlns="http://www.w3.org/2000/svg" viewBox="0 0 24 24">
  <title>Lense 2</title>
  <g id="Lense_2" data-name="Lense 2">
    <g>
      <path d="M12,5.5c1.67,0,10-.1,10-2s-8.33-2-10-2S2,1.6,2,3.5,10.33,5.5,12,5.5Z" style="fill: #303c42"/>
      <path d="M19.37,19.81A30.05,30.05,0,0,1,12,20.5a30.05,30.05,0,0,1-7.37-.69.5.5,0,0,0-.63.48V21c0,2.07,4.35,2.5,8,2.5s8-.43,8-2.5v-.71a.5.5,0,0,0-.63-.48Z" style="fill: #303c42"/>
      <path d="M20.46,15.45a31.32,31.32,0,0,1-8.46,1,31.32,31.32,0,0,1-8.46-1,.51.51,0,0,0-.47.09.5.5,0,0,0-.18.44c.05.47.08,1,.11,1.54.09,1.88,7.51,2,9,2s8.91-.1,9-2c0-.56.06-1.08.11-1.54a.5.5,0,0,0-.65-.53Z" style="fill: #303c42"/>
      <path d="M22.73,5a.5.5,0,0,0-.51,0C20.75,6,17.31,6.5,12,6.5S3.25,6,1.78,5A.5.5,0,0,0,1,5.42v6.83c0,2.13,5.53,3.25,11,3.25s11-1.12,11-3.25V5.42A.5.5,0,0,0,22.73,5Z" style="fill: #303c42"/>
    </g>
  </g>
</svg>
