<svg xmlns="http://www.w3.org/2000/svg" viewBox="0 0 30 30">
  <title>Lense 2</title>
  <g id="Lense_2" data-name="Lense 2">
    <g>
      <path d="M27.72,6a.5.5,0,0,0-.52,0l-.3.2-.08.06A3.51,3.51,0,0,1,25.15,7,38.81,38.81,0,0,1,15,8,38.83,38.83,0,0,1,4.81,7a3.42,3.42,0,0,1-1.63-.65L3.1,6.29l-.3-.2a.5.5,0,0,0-.8.4v8.74C2,17.7,8.54,19,15,19s13-1.3,13-3.77V6.48A.5.5,0,0,0,27.72,6Z" style="fill: #303c42"/>
      <path d="M15,7c1.23,0,12-.07,12-2.5S16.23,2,15,2,3,2.07,3,4.5,13.77,7,15,7Z" style="fill: #303c42"/>
      <path d="M24.32,23.75C21.49,24.84,17.27,25,15,25s-6.49-.16-9.32-1.25a.5.5,0,0,0-.68.47V25.5c0,2,6.29,2.5,10,2.5s10-.53,10-2.5V24.22a.5.5,0,0,0-.68-.47Z" style="fill: #303c42"/>
      <path d="M25.41,18.62C21.73,19.9,16.51,20,15,20s-6.71-.1-10.39-1.37a.5.5,0,0,0-.66.52A14.92,14.92,0,0,1,4,21c0,2.06,5.7,3,11,3s11-.94,11-3c0-.74,0-1.34.07-1.86a.5.5,0,0,0-.66-.52Z" style="fill: #303c42"/>
    </g>
  </g>
</svg>
