<svg xmlns="http://www.w3.org/2000/svg" viewBox="0 0 24 24">
  <title>Image Folder 1</title>
  <g id="Image_Folder_1" data-name="Image Folder 1">
    <g>
      <path d="M22,8H21V7a2,2,0,0,0-2-2H9.71L7.85,3.15A.5.5,0,0,0,7.5,3H2A2,2,0,0,0,0,5V19a2,2,0,0,0,.14.74l0,0A2,2,0,0,0,2,21H19a2,2,0,0,0,1.92-1.45v0l3-8.9a.49.49,0,0,0,0-.09A1.94,1.94,0,0,0,24,10,2,2,0,0,0,22,8Zm.95,2.3,0,.07-2.69,8.07-5.89-5.8a.5.5,0,0,0-.7,0l-3.09,3.09a.5.5,0,0,0,0,.71l.5.5a.5.5,0,0,1,0,.71.51.51,0,0,1-.71,0l-2.5-2.5A.5.5,0,0,0,7.5,15h0a.5.5,0,0,0-.15,0l-.1.07-.06,0h0C5.44,16.88,2.9,19.44,2.31,20H2a1,1,0,0,1-.86-.49L4,9.85l0-.07A1,1,0,0,1,5,9H22a1,1,0,0,1,1,1A1,1,0,0,1,22.95,10.3Z" style="fill: #303c42"/>
      <circle cx="9" cy="12" r="2" style="fill: #303c42"/>
    </g>
  </g>
</svg>
