<svg xmlns="http://www.w3.org/2000/svg" viewBox="0 0 24 24">
  <title>Macro</title>
  <g id="Macro">
    <g>
      <path d="M1.85,11.08a.5.5,0,0,0-.85.35v4a7.51,7.51,0,0,0,7.5,7.5.5.5,0,0,0,.5-.5v-4a.5.5,0,0,0-.15-.35Z" style="fill: #303c42"/>
      <path d="M22.71,11a.5.5,0,0,0-.54.08L14,18.32V12.91a4.51,4.51,0,0,0,4-4.47v-7A.5.5,0,0,0,17.18,1L14.53,3.26,12.35,1.08a.5.5,0,0,0-.71,0L9.47,3.26,6.82,1A.5.5,0,0,0,6,1.43v7a4.51,4.51,0,0,0,4,4.47v9.53a.5.5,0,0,0,.5.5h5a7.51,7.51,0,0,0,7.5-7.5v-4A.5.5,0,0,0,22.71,11Z" style="fill: #303c42"/>
    </g>
  </g>
</svg>
