<svg xmlns="http://www.w3.org/2000/svg" viewBox="0 0 30 30">
  <title>Camera Iris 1</title>
  <g id="Camera_Iris_1" data-name="Camera Iris 1">
    <g id="_Group_" data-name="&lt;Group&gt;">
      <g>
        <line id="_Path_" data-name="&lt;Path&gt;" x1="12.98" y1="12.5" x2="22.5" y2="12.5" style="fill: none;stroke: #303c42;stroke-linecap: round;stroke-linejoin: round"/>
        <line id="_Path_2" data-name="&lt;Path&gt;" x1="7.25" y1="19.5" x2="17.02" y2="19.5" style="fill: none;stroke: #303c42;stroke-linecap: round;stroke-linejoin: round"/>
        <line id="_Path_3" data-name="&lt;Path&gt;" x1="10.96" y1="16" x2="15.84" y2="7.54" style="fill: none;stroke: #303c42;stroke-linecap: round;stroke-linejoin: round"/>
        <line id="_Path_4" data-name="&lt;Path&gt;" x1="14.16" y1="24.46" x2="19.04" y2="16" style="fill: none;stroke: #303c42;stroke-linecap: round;stroke-linejoin: round"/>
        <line id="_Path_5" data-name="&lt;Path&gt;" x1="12.98" y1="19.5" x2="8.1" y2="11.04" style="fill: none;stroke: #303c42;stroke-linecap: round;stroke-linejoin: round"/>
        <line id="_Path_6" data-name="&lt;Path&gt;" x1="21.9" y1="20.96" x2="17.02" y2="12.5" style="fill: none;stroke: #303c42;stroke-linecap: round;stroke-linejoin: round"/>
        <circle id="_Path_7" data-name="&lt;Path&gt;" cx="15" cy="16" r="8.5" style="fill: none;stroke: #303c42;stroke-linecap: round;stroke-linejoin: round"/>
      </g>
      <circle id="_Path_8" data-name="&lt;Path&gt;" cx="26" cy="11" r="0.5" style="fill: none;stroke: #303c42;stroke-linecap: round;stroke-linejoin: round"/>
      <path d="M20.95,6.39l-.89-1.79A2,2,0,0,0,18.26,3.5H11.74A2,2,0,0,0,9.95,4.61L9.05,6.39A2,2,0,0,1,7.26,7.5H2A1.5,1.5,0,0,0,.5,9V25A1.5,1.5,0,0,0,2,26.5H28A1.5,1.5,0,0,0,29.5,25V9A1.5,1.5,0,0,0,28,7.5H22.74A2,2,0,0,1,20.95,6.39Z" style="fill: none;stroke: #303c42;stroke-linecap: round;stroke-linejoin: round"/>
    </g>
  </g>
</svg>
