<svg xmlns="http://www.w3.org/2000/svg" viewBox="0 0 24 24">
  <title>Camera Iris 1</title>
  <g id="Camera_Iris_1" data-name="Camera Iris 1">
    <g>
      <path d="M9.26,13.75a.5.5,0,0,0,0-.5L6.67,8.76a.48.48,0,0,0-.44-.25.5.5,0,0,0-.43.27A6.92,6.92,0,0,0,5,12a7.07,7.07,0,0,0,.19,1.61.5.5,0,0,0,.49.39H8.82A.5.5,0,0,0,9.26,13.75Z" style="fill: #303c42"/>
      <path d="M14.74,10.25a.5.5,0,0,0,0,.5l2.59,4.49a.5.5,0,0,0,.43.25h0a.5.5,0,0,0,.43-.27A6.92,6.92,0,0,0,19,12a7.07,7.07,0,0,0-.19-1.61.5.5,0,0,0-.49-.39H15.18A.5.5,0,0,0,14.74,10.25Z" style="fill: #303c42"/>
      <path d="M14,5.3a.5.5,0,0,0-.58.23L11.86,8.25a.5.5,0,0,0,.43.75h5.18a.5.5,0,0,0,.42-.77A7,7,0,0,0,14,5.3Z" style="fill: #303c42"/>
      <path d="M12.14,15.25a.5.5,0,0,0-.43-.25H6.53a.5.5,0,0,0-.42.77A7,7,0,0,0,10,18.7l.14,0a.5.5,0,0,0,.43-.25l1.57-2.73A.5.5,0,0,0,12.14,15.25Z" style="fill: #303c42"/>
      <path d="M8.68,10.25a.5.5,0,0,0,.87,0l2.59-4.48a.5.5,0,0,0,0-.51A.51.51,0,0,0,11.68,5,7,7,0,0,0,7.2,6.92a.5.5,0,0,0-.09.61Z" style="fill: #303c42"/>
      <path d="M22,4H18.83a1.49,1.49,0,0,1-1.06-.44L15.94,1.73A2.48,2.48,0,0,0,14.17,1H9.83a2.48,2.48,0,0,0-1.77.73L6.23,3.56A1.49,1.49,0,0,1,5.17,4H2A2,2,0,0,0,0,6V19a2,2,0,0,0,2,2H22a2,2,0,0,0,2-2V6A2,2,0,0,0,22,4ZM12,20a8,8,0,1,1,8-8A8,8,0,0,1,12,20ZM21,8a1,1,0,1,1,1-1A1,1,0,0,1,21,8Z" style="fill: #303c42"/>
      <path d="M15.32,13.75a.52.52,0,0,0-.87,0l-2.59,4.48a.5.5,0,0,0,.43.75h0a7,7,0,0,0,4.48-1.9.5.5,0,0,0,.09-.61Z" style="fill: #303c42"/>
    </g>
  </g>
</svg>
