<svg xmlns="http://www.w3.org/2000/svg" viewBox="0 0 24 24">
  <title>Bus Stop</title>
  <g id="Bus_Stop" data-name="Bus Stop">
    <g>
      <path d="M22,3H7A2,2,0,0,0,5,5V6.5a.5.5,0,0,0,.5.5H6V20.5a.5.5,0,0,0,.5.5h1a.5.5,0,0,0,.5-.5V7H21V20.5a.5.5,0,0,0,.5.5h1a.5.5,0,0,0,.5-.5V7h.5a.5.5,0,0,0,.5-.5V5A2,2,0,0,0,22,3Z" style="fill: #303c42"/>
      <path d="M17,15H12a2,2,0,0,0-2,2v3.5a.5.5,0,0,0,1,0V19h7v1.5a.5.5,0,0,0,1,0V17A2,2,0,0,0,17,15Z" style="fill: #303c42"/>
      <path d="M3.5,9H.5a.5.5,0,0,0-.5.5v5a.5.5,0,0,0,.5.5h1v5.5a.5.5,0,0,0,1,0V15h1a.5.5,0,0,0,.5-.5v-5A.5.5,0,0,0,3.5,9Z" style="fill: #303c42"/>
      <path d="M18.85,9.15a.5.5,0,0,0-.71.71l1,1a.5.5,0,0,0,.71-.71Z" style="fill: #303c42"/>
      <path d="M15.85,9.15a.5.5,0,0,0-.71.71l4,4a.5.5,0,0,0,.71-.71Z" style="fill: #303c42"/>
    </g>
  </g>
</svg>
