<svg xmlns="http://www.w3.org/2000/svg" viewBox="0 0 24 24">
  <title>Dog House</title>
  <g id="Dog_House" data-name="Dog House">
    <g>
      <path d="M12,1.5l-10.5,9h2l.89,10.62A1.5,1.5,0,0,0,5.88,22.5H18.12a1.5,1.5,0,0,0,1.49-1.38L20.5,10.5h2Z" style="fill: none;stroke: #303c42;stroke-linecap: round;stroke-linejoin: round"/>
      <path d="M8.5,22.5,7.95,17a4.07,4.07,0,0,1,4-4.47h0a4.07,4.07,0,0,1,4,4.47L15.5,22.5" style="fill: none;stroke: #303c42;stroke-linecap: round;stroke-linejoin: round"/>
      <path d="M12,6.75a.73.73,0,0,1,.43.14.75.75,0,0,1,.31.58.47.47,0,0,0,.26.4.85.85,0,0,1,.48.93.87.87,0,0,1-.65.68.83.83,0,0,1-.63-.1.35.35,0,0,0-.4,0,.83.83,0,0,1-.63.1.87.87,0,0,1-.65-.68A.85.85,0,0,1,11,7.86a.47.47,0,0,0,.26-.4.75.75,0,0,1,.31-.58A.73.73,0,0,1,12,6.75Z" style="fill: none;stroke: #303c42;stroke-linecap: round;stroke-linejoin: round"/>
      <g>
        <ellipse cx="14.13" cy="6.78" rx="0.4" ry="0.33" transform="translate(-0.65 11.98) rotate(-45)" style="fill: none;stroke: #303c42;stroke-miterlimit: 10"/>
        <ellipse cx="12.91" cy="5.54" rx="0.4" ry="0.33" transform="translate(3.51 15.98) rotate(-71.22)" style="fill: none;stroke: #303c42;stroke-miterlimit: 10"/>
      </g>
      <g>
        <ellipse cx="9.87" cy="6.78" rx="0.33" ry="0.4" transform="translate(-1.9 8.97) rotate(-45)" style="fill: none;stroke: #303c42;stroke-miterlimit: 10"/>
        <ellipse cx="11.09" cy="5.54" rx="0.33" ry="0.4" transform="translate(-1.19 3.87) rotate(-18.78)" style="fill: none;stroke: #303c42;stroke-miterlimit: 10"/>
      </g>
    </g>
  </g>
</svg>
