<svg xmlns="http://www.w3.org/2000/svg" viewBox="0 0 30 30">
  <title>Bus Stop</title>
  <g id="Bus_Stop" data-name="Bus Stop">
    <g>
      <path d="M8,4.5H28A1.5,1.5,0,0,1,29.5,6V8.5a0,0,0,0,1,0,0H6.5a0,0,0,0,1,0,0V6A1.5,1.5,0,0,1,8,4.5Z" style="fill: none;stroke: #303c42;stroke-linecap: round;stroke-linejoin: round"/>
      <rect x="0.5" y="11.5" width="4" height="7" style="fill: none;stroke: #303c42;stroke-linecap: round;stroke-linejoin: round"/>
      <line x1="2.5" y1="18.5" x2="2.5" y2="25.5" style="fill: none;stroke: #303c42;stroke-linecap: round;stroke-linejoin: round"/>
      <line x1="23" y1="11.5" x2="24.5" y2="13" style="fill: none;stroke: #303c42;stroke-linecap: round;stroke-linejoin: round"/>
      <line x1="19.5" y1="11.5" x2="24.5" y2="16.5" style="fill: none;stroke: #303c42;stroke-linecap: round;stroke-linejoin: round"/>
      <line x1="28.5" y1="8.5" x2="28.5" y2="25.5" style="fill: none;stroke: #303c42;stroke-linecap: round;stroke-linejoin: round"/>
      <line x1="12.5" y1="22.5" x2="23.5" y2="22.5" style="fill: none;stroke: #303c42;stroke-linecap: round;stroke-linejoin: round"/>
      <line x1="7.5" y1="25.5" x2="7.5" y2="8.5" style="fill: none;stroke: #303c42;stroke-linecap: round;stroke-linejoin: round"/>
      <path d="M12.5,25.5V21A1.5,1.5,0,0,1,14,19.5h8A1.5,1.5,0,0,1,23.5,21v4.5" style="fill: none;stroke: #303c42;stroke-linecap: round;stroke-linejoin: round"/>
    </g>
  </g>
</svg>
