<svg xmlns="http://www.w3.org/2000/svg" viewBox="0 0 30 30">
  <title>Bus Stop</title>
  <g id="Bus_Stop" data-name="Bus Stop">
    <g>
      <path d="M28,4H8A2,2,0,0,0,6,6V8.5a.5.5,0,0,0,.5.5H7V25.5a.5.5,0,0,0,.5.5h1a.5.5,0,0,0,.5-.5V9H27V25.5a.5.5,0,0,0,.5.5h1a.5.5,0,0,0,.5-.5V9h.5a.5.5,0,0,0,.5-.5V6A2,2,0,0,0,28,4Z" style="fill: #303c42"/>
      <path d="M4.5,11H.5a.5.5,0,0,0-.5.5v7a.5.5,0,0,0,.5.5H2v6.5a.5.5,0,0,0,1,0V19H4.5a.5.5,0,0,0,.5-.5v-7A.5.5,0,0,0,4.5,11Z" style="fill: #303c42"/>
      <path d="M23.35,11.15a.5.5,0,0,0-.71.71l1.5,1.5a.5.5,0,0,0,.71-.71Z" style="fill: #303c42"/>
      <path d="M19.85,11.15a.5.5,0,0,0-.71.71l5,5a.5.5,0,0,0,.71-.71Z" style="fill: #303c42"/>
      <path d="M22,19H14a2,2,0,0,0-2,2v4.5a.5.5,0,0,0,1,0V23H23v2.5a.5.5,0,0,0,1,0V21A2,2,0,0,0,22,19Z" style="fill: #303c42"/>
    </g>
  </g>
</svg>
