<svg xmlns="http://www.w3.org/2000/svg" viewBox="0 0 24 24">
  <title>Post Office</title>
  <g id="Post_Office" data-name="Post Office">
    <path d="M21.77,6.08l-9.5-6a.5.5,0,0,0-.53,0l-9.5,6A.5.5,0,0,0,2.5,7H3V22a2,2,0,0,0,2,2H7.5a.5.5,0,0,0,.5-.5v-7a.5.5,0,0,1,.5-.5h7a.5.5,0,0,1,.5.5v7a.5.5,0,0,0,.5.5H19a2,2,0,0,0,2-2V7h.5a.5.5,0,0,0,.27-.92Zm-13.21,0A1,1,0,0,1,9,6h6a1,1,0,0,1,.45.11.5.5,0,0,1,.07.85L12.3,9.31a.5.5,0,0,1-.59,0L8.48,7a.5.5,0,0,1,.07-.85ZM16,11a1,1,0,0,1-1,1H9a1,1,0,0,1-1-1V8.83a.5.5,0,0,1,.79-.4l2.64,1.92a1.1,1.1,0,0,0,1.19,0l2.58-1.88a.5.5,0,0,1,.79.4Z" style="fill: #303c42"/>
  </g>
</svg>
