<svg xmlns="http://www.w3.org/2000/svg" viewBox="0 0 24 24">
  <title>Dog House</title>
  <g id="Dog_House" data-name="Dog House">
    <path d="M22.83,10.12l-10.5-9a.5.5,0,0,0-.65,0l-10.5,9A.5.5,0,0,0,1.5,11H3l.85,10.17a2,2,0,0,0,2,1.83H7.5a.5.5,0,0,0,.5-.55L7.45,17a4.57,4.57,0,1,1,9.1,0L16,22.45a.5.5,0,0,0,.5.55h1.61a2,2,0,0,0,2-1.83L21,11H22.5a.5.5,0,0,0,.33-.88ZM12.12,5.27a.84.84,0,1,1,1.58.54.9.9,0,0,1-.83.62.78.78,0,0,1-.25,0,.81.81,0,0,1-.49-.48A.94.94,0,0,1,12.12,5.27ZM10.34,5.1a.79.79,0,0,1,1.07-.37A1,1,0,0,1,11.84,6a.8.8,0,0,1-.46.41.78.78,0,0,1-.25,0,.9.9,0,0,1-.83-.62A.93.93,0,0,1,10.34,5.1ZM9.28,7.37A.94.94,0,0,1,9,6.72a.8.8,0,0,1,.23-.57.9.9,0,0,1,1.27,1.27.8.8,0,0,1-.57.23A.93.93,0,0,1,9.28,7.37ZM14,8.88a1.38,1.38,0,0,1-1,1.08A1.33,1.33,0,0,1,12,9.84a1.33,1.33,0,0,1-.63.16A1.37,1.37,0,0,1,10,8.88a1.35,1.35,0,0,1,.75-1.47,1.16,1.16,0,0,1,.5-.93A1.44,1.44,0,0,1,12,6.25h0a1.22,1.22,0,0,1,.73.23,1.25,1.25,0,0,1,.52,1A1.3,1.3,0,0,1,14,8.88Zm.75-1.52a.93.93,0,0,1-.65.28h0a.8.8,0,0,1-.57-.23.81.81,0,0,1-.23-.65,1,1,0,0,1,.93-.86h0a.8.8,0,0,1,.57.23.81.81,0,0,1,.23.65A.94.94,0,0,1,14.72,7.36Z" style="fill: #303c42"/>
  </g>
</svg>
