<svg xmlns="http://www.w3.org/2000/svg" viewBox="0 0 30 30">
  <title>Price Sticker</title>
  <g id="Price_Sticker" data-name="Price Sticker">
    <g>
      <path d="M27.85,12.27a5.26,5.26,0,0,1-1.12-2.88,7.49,7.49,0,0,0-1.86-4.26,7.49,7.49,0,0,0-4.26-1.86,5.26,5.26,0,0,1-2.88-1.12.5.5,0,0,0-.71,0L14.81,4.37a.5.5,0,0,0,0,.7A21.27,21.27,0,0,1,19,11.21a20.38,20.38,0,0,0,4,5.86.57.57,0,0,0,.36.15.5.5,0,0,0,.35-.15l4.1-4.1A.5.5,0,0,0,27.85,12.27Z" style="fill: #303c42"/>
      <path d="M18.12,11.65a20.38,20.38,0,0,0-4-5.86.5.5,0,0,0-.35-.15.49.49,0,0,0-.36.15L7.68,11.5a.5.5,0,0,0,0,.7,20.55,20.55,0,0,1,4.21,6.16,19.72,19.72,0,0,0,4,5.87.5.5,0,0,0,.36.15h0a.5.5,0,0,0,.35-.15l5.74-5.74a.5.5,0,0,0,0-.7A21.27,21.27,0,0,1,18.12,11.65Z" style="fill: #303c42"/>
      <path d="M11,18.79a19.71,19.71,0,0,0-4-5.87.5.5,0,0,0-.71,0L2.15,17a.5.5,0,0,0,0,.71,5.26,5.26,0,0,1,1.12,2.88,7.49,7.49,0,0,0,1.86,4.26,7.49,7.49,0,0,0,4.26,1.86,5.26,5.26,0,0,1,2.88,1.12.5.5,0,0,0,.71,0l2.21-2.21a.5.5,0,0,0,0-.7A20.56,20.56,0,0,1,11,18.79Z" style="fill: #303c42"/>
    </g>
  </g>
</svg>
