<svg xmlns="http://www.w3.org/2000/svg" viewBox="0 0 24 24">
  <title>Barcode Scann</title>
  <g id="Barcode_Scann" data-name="Barcode Scann">
    <g>
      <path d="M15.5,16a.5.5,0,0,0-.5.5v1a.5.5,0,0,0,1,0v-1A.5.5,0,0,0,15.5,16Z" style="fill: #303c42"/>
      <path d="M10.5,16a.5.5,0,0,0-.5.5v1a.5.5,0,0,0,1,0v-1A.5.5,0,0,0,10.5,16Z" style="fill: #303c42"/>
      <path d="M8.5,16a.5.5,0,0,0-.5.5v1a.5.5,0,0,0,1,0v-1A.5.5,0,0,0,8.5,16Z" style="fill: #303c42"/>
      <path d="M6.5,16a.5.5,0,0,0-.5.5v1a.5.5,0,0,0,1,0v-1A.5.5,0,0,0,6.5,16Z" style="fill: #303c42"/>
      <path d="M23.5,11H.5a.5.5,0,0,0-.5.5v1a.5.5,0,0,0,.5.5H3v4.54a.5.5,0,0,0,.5.5h1a.5.5,0,0,0,.5-.5V13H6v1.5a.5.5,0,1,0,1,0V13H8v1.5a.5.5,0,1,0,1,0V13h1v1.5a.5.5,0,0,0,1,0V13h1v4.54a.5.5,0,0,0,.5.5h1a.5.5,0,0,0,.5-.5V13h1v1.5a.5.5,0,0,0,1,0V13h1v1.5a.5.5,0,0,0,.5.5h1a.5.5,0,0,0,.5-.5V13h1v4.5a.5.5,0,0,0,1,0V13h2.5a.5.5,0,0,0,.5-.5v-1A.5.5,0,0,0,23.5,11Z" style="fill: #303c42"/>
      <path d="M6.5,10A.5.5,0,0,0,7,9.5v-3a.5.5,0,0,0-1,0v3A.5.5,0,0,0,6.5,10Z" style="fill: #303c42"/>
      <path d="M8.5,10A.5.5,0,0,0,9,9.5v-3a.5.5,0,0,0-1,0v3A.5.5,0,0,0,8.5,10Z" style="fill: #303c42"/>
      <path d="M10.5,10a.5.5,0,0,0,.5-.5v-3a.5.5,0,0,0-1,0v3A.5.5,0,0,0,10.5,10Z" style="fill: #303c42"/>
      <path d="M15.5,10a.5.5,0,0,0,.5-.5v-3a.5.5,0,0,0-1,0v3A.5.5,0,0,0,15.5,10Z" style="fill: #303c42"/>
      <path d="M20.5,10a.5.5,0,0,0,.5-.5v-3a.5.5,0,0,0-1,0v3A.5.5,0,0,0,20.5,10Z" style="fill: #303c42"/>
      <rect x="17" y="16" width="2" height="2" rx="0.5" ry="0.5" style="fill: #303c42"/>
      <rect x="17" y="6" width="2" height="4" rx="0.5" ry="0.5" style="fill: #303c42"/>
      <rect x="12" y="6" width="2" height="4" rx="0.5" ry="0.5" style="fill: #303c42"/>
      <rect x="3" y="6" width="2" height="4" rx="0.5" ry="0.5" style="fill: #303c42"/>
      <path d="M.5,7h1A.5.5,0,0,0,2,6.5V5H3.5A.5.5,0,0,0,4,4.5v-1A.5.5,0,0,0,3.5,3H2A2,2,0,0,0,0,5V6.5A.5.5,0,0,0,.5,7Z" style="fill: #303c42"/>
      <path d="M22,3H20.5a.5.5,0,0,0-.5.5v1a.5.5,0,0,0,.5.5H22V6.5a.5.5,0,0,0,.5.5h1a.5.5,0,0,0,.5-.5V5A2,2,0,0,0,22,3Z" style="fill: #303c42"/>
      <path d="M23.5,17h-1a.5.5,0,0,0-.5.5V19H20.5a.5.5,0,0,0-.5.5v1a.5.5,0,0,0,.5.5H22a2,2,0,0,0,2-2V17.5A.5.5,0,0,0,23.5,17Z" style="fill: #303c42"/>
      <path d="M3.5,19H2V17.5a.5.5,0,0,0-.5-.5H.5a.5.5,0,0,0-.5.5V19a2,2,0,0,0,2,2H3.5a.5.5,0,0,0,.5-.5v-1A.5.5,0,0,0,3.5,19Z" style="fill: #303c42"/>
    </g>
  </g>
</svg>
