<svg xmlns="http://www.w3.org/2000/svg" viewBox="0 0 30 30">
  <title>Barcode Scann</title>
  <g id="Barcode_Scann" data-name="Barcode Scann">
    <g>
      <path d="M13.5,20a.5.5,0,0,0-.5.5v1a.5.5,0,0,0,1,0v-1A.5.5,0,0,0,13.5,20Z" style="fill: #303c42"/>
      <path d="M19.5,20a.5.5,0,0,0-.5.5v1a.5.5,0,0,0,1,0v-1A.5.5,0,0,0,19.5,20Z" style="fill: #303c42"/>
      <path d="M11,20a.5.5,0,0,0-.5.5v1a.5.5,0,0,0,1,0v-1A.5.5,0,0,0,11,20Z" style="fill: #303c42"/>
      <path d="M8.5,20a.5.5,0,0,0-.5.5v1a.5.5,0,0,0,1,0v-1A.5.5,0,0,0,8.5,20Z" style="fill: #303c42"/>
      <rect x="21.5" y="8" width="2" height="5" rx="0.5" ry="0.5" style="fill: #303c42"/>
      <rect x="21.5" y="20" width="2" height="2" rx="0.5" ry="0.5" style="fill: #303c42"/>
      <path d="M25.5,13a.5.5,0,0,0,.5-.5v-4a.5.5,0,0,0-1,0v4A.5.5,0,0,0,25.5,13Z" style="fill: #303c42"/>
      <rect x="15.5" y="8" width="2" height="5" rx="0.5" ry="0.5" style="fill: #303c42"/>
      <path d="M19.5,13a.5.5,0,0,0,.5-.5v-4a.5.5,0,0,0-1,0v4A.5.5,0,0,0,19.5,13Z" style="fill: #303c42"/>
      <rect x="4.5" y="8" width="2" height="5" rx="0.5" ry="0.5" style="fill: #303c42"/>
      <path d="M8.5,13a.5.5,0,0,0,.5-.5v-4a.5.5,0,0,0-1,0v4A.5.5,0,0,0,8.5,13Z" style="fill: #303c42"/>
      <path d="M11,13a.5.5,0,0,0,.5-.5v-4a.5.5,0,0,0-1,0v4A.5.5,0,0,0,11,13Z" style="fill: #303c42"/>
      <path d="M13.5,13a.5.5,0,0,0,.5-.5v-4a.5.5,0,0,0-1,0v4A.5.5,0,0,0,13.5,13Z" style="fill: #303c42"/>
      <path d="M29.5,14H.5a.5.5,0,0,0-.5.5v1a.5.5,0,0,0,.5.5h4v5.5A.5.5,0,0,0,5,22H6a.5.5,0,0,0,.5-.5V16H8v2.5a.5.5,0,0,0,1,0V16h1.5v2.5a.5.5,0,0,0,1,0V16H13v2.5a.5.5,0,0,0,1,0V16h1.5v5.5a.5.5,0,0,0,.5.5h1a.5.5,0,0,0,.5-.5V16H19v2.5a.5.5,0,0,0,1,0V16h1.5v2.5a.5.5,0,0,0,.5.5h1a.5.5,0,0,0,.5-.5V16H25v5.5a.5.5,0,0,0,1,0V16h3.5a.5.5,0,0,0,.5-.5v-1A.5.5,0,0,0,29.5,14Z" style="fill: #303c42"/>
      <path d="M.5,9h1A.5.5,0,0,0,2,8.5V6H4.5A.5.5,0,0,0,5,5.5v-1A.5.5,0,0,0,4.5,4H2A2,2,0,0,0,0,6V8.5A.5.5,0,0,0,.5,9Z" style="fill: #303c42"/>
      <path d="M28,4H25.5a.5.5,0,0,0-.5.5v1a.5.5,0,0,0,.5.5H28V8.5a.5.5,0,0,0,.5.5h1a.5.5,0,0,0,.5-.5V6A2,2,0,0,0,28,4Z" style="fill: #303c42"/>
      <path d="M29.5,21h-1a.5.5,0,0,0-.5.5V24H25.5a.5.5,0,0,0-.5.5v1a.5.5,0,0,0,.5.5H28a2,2,0,0,0,2-2V21.5A.5.5,0,0,0,29.5,21Z" style="fill: #303c42"/>
      <path d="M4.5,24H2V21.5a.5.5,0,0,0-.5-.5H.5a.5.5,0,0,0-.5.5V24a2,2,0,0,0,2,2H4.5a.5.5,0,0,0,.5-.5v-1A.5.5,0,0,0,4.5,24Z" style="fill: #303c42"/>
    </g>
  </g>
</svg>
