<svg xmlns="http://www.w3.org/2000/svg" viewBox="0 0 30 30">
  <title>House Key</title>
  <g id="House_Key" data-name="House Key">
    <g>
      <path d="M29.82,12.11l-8.5-7a.5.5,0,0,0-.64,0L18.12,7.22a.5.5,0,0,0-.18.44,10,10,0,0,1,.06,1,9.81,9.81,0,0,1-3,7.09.5.5,0,0,0-.12.55l0,.12a1.5,1.5,0,0,1-.16,1.39,1.48,1.48,0,0,1-.49.44.5.5,0,0,0-.25.43V20.5a.5.5,0,0,0,.5.5h4a.5.5,0,0,0,.5-.5V14h4v6.5a.5.5,0,0,0,.5.5h4a.5.5,0,0,0,.5-.5V13h1.5a.5.5,0,0,0,.32-.89Z" style="fill: #303c42"/>
      <path d="M13.53,15.7A8.75,8.75,0,0,0,17,8.7,8.61,8.61,0,0,0,8.5,0,8.61,8.61,0,0,0,0,8.7a8.75,8.75,0,0,0,3.47,7L3,16.82a.5.5,0,0,0,.47.68H5V18a.5.5,0,0,0,.09.29l.78,1.11-.77,1a.5.5,0,0,0,0,.62l.75,1-.75,1a.5.5,0,0,0,0,.62l.73.92-.7.73A.5.5,0,0,0,5,25.5V27a.5.5,0,0,0,.18.38l3,2.5a.5.5,0,0,0,.64,0l3-2.5A.5.5,0,0,0,12,27V17.5h1.5a.5.5,0,0,0,.47-.68ZM8.5,7A2.5,2.5,0,1,1,11,4.5,2.5,2.5,0,0,1,8.5,7Z" style="fill: #303c42"/>
    </g>
  </g>
</svg>
