<svg xmlns="http://www.w3.org/2000/svg" viewBox="0 0 24 24">
  <title>Recycle 1</title>
  <g id="Recycle_1" data-name="Recycle 1">
    <g id="_Group_" data-name="&lt;Group&gt;">
      <path id="_Path_" data-name="&lt;Path&gt;" d="M6,15.5l1.5-3,2,1L7,7.5H.5l2,2L.68,13.14A1.63,1.63,0,0,0,2.14,15.5H9.5v6H7.07a3,3,0,0,1-2.47-1.29L1,15" style="fill: none;stroke: #303c42;stroke-linecap: round;stroke-linejoin: round"/>
      <path id="_Path_2" data-name="&lt;Path&gt;" d="M15.5,21.5h1.43a3,3,0,0,0,2.47-1.29L23,15" style="fill: none;stroke: #303c42;stroke-linecap: round;stroke-linejoin: round"/>
      <path id="_Path_3" data-name="&lt;Path&gt;" d="M19,15.5l-2.5-4L21,9l2.32,4.14a1.63,1.63,0,0,1-1.46,2.36H15.5" style="fill: none;stroke: #303c42;stroke-linecap: round;stroke-linejoin: round"/>
      <path id="_Path_4" data-name="&lt;Path&gt;" d="M12.5,4,10,7.5l-5.5-3L6.64,1.65a2.82,2.82,0,0,1,4.59.09L14.5,6.5l-2,1,5.5,1,2.5-6-2,1L17.09,1.39A2,2,0,0,0,15.43.5H9.5" style="fill: none;stroke: #303c42;stroke-linecap: round;stroke-linejoin: round"/>
      <polyline id="_Path_5" data-name="&lt;Path&gt;" points="15.5 21.5 15.5 23.5 11.5 19 15.5 13.5 15.5 15.5" style="fill: none;stroke: #303c42;stroke-linecap: round;stroke-linejoin: round"/>
    </g>
  </g>
</svg>
