<svg xmlns="http://www.w3.org/2000/svg" viewBox="0 0 24 24">
  <title>Recycle PET</title>
  <g id="Recycle_PET" data-name="Recycle PET">
    <g>
      <path d="M10.5,10v4a.5.5,0,0,0,.5.5h2a.5.5,0,0,0,0-1H11.5v-1h1a.5.5,0,0,0,0-1h-1v-1H13a.5.5,0,1,0,0-1H11A.5.5,0,0,0,10.5,10Z" style="fill: #303c42"/>
      <path d="M8,9.5H7a.5.5,0,0,0-.5.5v4a.5.5,0,1,0,1,0V12.5H8a1.5,1.5,0,1,0,0-3Zm0,2H7.5v-1H8a.5.5,0,0,1,0,1Z" style="fill: #303c42"/>
      <path d="M14.5,10.5h1V14a.5.5,0,1,0,1,0V10.5h1a.5.5,0,1,0,0-1h-3a.5.5,0,1,0,0,1Z" style="fill: #303c42"/>
      <path d="M23.58,8.76A12.28,12.28,0,0,0,16.1.71L15.9.63a.5.5,0,0,0-.65.28l-.36.93a.5.5,0,0,0,.28.65l.21.08a10.27,10.27,0,0,1,6.3,6.86,10.17,10.17,0,0,1,.2,4.08H20.6a.5.5,0,0,0-.48.63l1.1,4.15a.5.5,0,0,0,.41.37h.08a.5.5,0,0,0,.42-.23,11.88,11.88,0,0,0,1.45-3.27l.13-.55c0-.17.12-.56.12-.58A12.17,12.17,0,0,0,23.58,8.76Z" style="fill: #303c42"/>
      <path d="M19.35,19.57a.5.5,0,0,0-.7-.08l-.18.14a10.29,10.29,0,0,1-9.11,2,10.2,10.2,0,0,1-3.64-1.86l.64-1.12a.5.5,0,0,0-.3-.73L1.91,16.82a.5.5,0,0,0-.52.17l0,.06a.5.5,0,0,0,0,.48,11.89,11.89,0,0,0,2.11,2.89l.41.38.45.39A12.21,12.21,0,0,0,9,23.63a12.3,12.3,0,0,0,10.73-2.44l.17-.13a.5.5,0,0,0,.08-.7Z" style="fill: #303c42"/>
      <path d="M2.16,14l0-.22a10.25,10.25,0,0,1,2.8-8.88A10.2,10.2,0,0,1,8.37,2.68L9,3.79a.5.5,0,0,0,.79.1l3-3A.5.5,0,0,0,13,.33l0-.07A.5.5,0,0,0,12.52,0,11.93,11.93,0,0,0,9,.39L8.42.56,7.85.75A12.21,12.21,0,0,0,3.4,3.59,12.26,12.26,0,0,0,.15,14.09l0,.21a.5.5,0,0,0,.57.42l1-.15A.5.5,0,0,0,2.16,14Z" style="fill: #303c42"/>
    </g>
  </g>
</svg>
