<svg xmlns="http://www.w3.org/2000/svg" viewBox="0 0 24 24">
  <title>Recycle Bin 1</title>
  <g id="Recycle_Bin_1" data-name="Recycle Bin 1">
    <g>
      <path d="M19,0H5A2,2,0,0,0,3,2V3.5a.5.5,0,0,0,.5.5h17a.5.5,0,0,0,.5-.5V2A2,2,0,0,0,19,0Z" style="fill: #303c42"/>
      <path d="M6.5,17A3.5,3.5,0,1,0,10,20.5,3.5,3.5,0,0,0,6.5,17Zm0,4a.5.5,0,1,1,.5-.5A.5.5,0,0,1,6.5,21Z" style="fill: #303c42"/>
      <path d="M19.3,5H4.7a.5.5,0,0,0-.5.55l1,10.08a.5.5,0,0,0,.58.44A4.45,4.45,0,0,1,6.5,16,4.5,4.5,0,0,1,11,20.5a4.46,4.46,0,0,1-.92,2.7.5.5,0,0,0,.4.8h5.67a2,2,0,0,0,2-1.8L19.8,5.55A.5.5,0,0,0,19.3,5ZM8.23,12.41h0v0A.49.49,0,0,1,8,12.16a.46.46,0,0,1,0-.05A.48.48,0,0,1,8,12a4,4,0,0,1,7.32-2.24.5.5,0,0,1-.83.56,3,3,0,0,0-4.84-.17l.73.19a.5.5,0,0,1,.15.9L8.78,12.42h0a.45.45,0,0,1-.52,0ZM12,16a4,4,0,0,1-3.32-1.76.5.5,0,1,1,.83-.56,3,3,0,0,0,4.5.53l-.64-.71a.5.5,0,0,1,.09-.75l1.75-1.17h0a.49.49,0,0,1,.25-.08h.06a.49.49,0,0,1,.25.1h0a.49.49,0,0,1,.14.24v.06A.47.47,0,0,1,16,12,4,4,0,0,1,12,16Z" style="fill: #303c42"/>
    </g>
  </g>
</svg>
