<svg xmlns="http://www.w3.org/2000/svg" viewBox="0 0 24 24">
  <title>Acid</title>
  <g id="Acid">
    <g>
      <path d="M18.5,5.5a2,2,0,0,1-4,0c0-1.5,2-4,2-4S18.5,4,18.5,5.5Z" style="fill: none;stroke: #303c42;stroke-linecap: round;stroke-linejoin: round"/>
      <path d="M12.83,10.5l.67,2,1.5-1,1.5,3L18,11l1.5.5.5-1h1A1.5,1.5,0,0,1,22.5,12h0A1.5,1.5,0,0,1,21,13.5h1A1.5,1.5,0,0,1,23.5,15h0A1.5,1.5,0,0,1,22,16.5H21A1.5,1.5,0,0,1,22.5,18h0A1.5,1.5,0,0,1,21,19.5H18A1.5,1.5,0,0,1,19.5,21h0A1.5,1.5,0,0,1,18,22.5H5A4.5,4.5,0,0,1,.5,18V13.36A6,6,0,0,1,2.11,9.27L7.5,3.5h.38A1.62,1.62,0,0,1,9.5,5.12h0a1.62,1.62,0,0,1-.17.72L7.72,9.05a1,1,0,0,0,.89,1.45Z" style="fill: none;stroke: #303c42;stroke-linecap: round;stroke-linejoin: round"/>
    </g>
  </g>
</svg>
