<svg xmlns="http://www.w3.org/2000/svg" viewBox="0 0 24 24">
  <title>Virus</title>
  <g id="Virus">
    <path d="M22.26,9l.29,0a.5.5,0,0,0-.1-1,1.58,1.58,0,0,1-.8-.12,2.35,2.35,0,0,0-.9-.17A6.46,6.46,0,0,0,20,6a1.9,1.9,0,0,1,.32,0,2.27,2.27,0,0,0,1.21-.35A.5.5,0,1,0,21,4.78a1.31,1.31,0,0,1-.73.2,2.13,2.13,0,0,0-.89.2A6.54,6.54,0,0,0,17.93,4a1.79,1.79,0,0,1,.27-.17A2.25,2.25,0,0,0,19.14,3a.5.5,0,1,0-.84-.54,1.27,1.27,0,0,1-.57.5A2.08,2.08,0,0,0,17,3.5,6.45,6.45,0,0,0,15.16,3l.19-.23A2.09,2.09,0,0,0,16,1.56.5.5,0,0,0,15.56,1a.51.51,0,0,0-.56.44,1.12,1.12,0,0,1-.39.69,2.06,2.06,0,0,0-.56.9,6.45,6.45,0,0,0-1.73.36,1.78,1.78,0,0,1,0-.32,2.25,2.25,0,0,0-.07-1.26.5.5,0,1,0-.95.32,1.28,1.28,0,0,1,0,.76,2.08,2.08,0,0,0,0,.91A6.54,6.54,0,0,0,9.89,4.92a1.89,1.89,0,0,1-.1-.29,2.27,2.27,0,0,0-.61-1.11.5.5,0,0,0-.71.7,1.31,1.31,0,0,1,.36.68,2.09,2.09,0,0,0,.39.82,6.48,6.48,0,0,0-.86,1.65,1.87,1.87,0,0,1-.23-.23,2.27,2.27,0,0,0-1-.73.5.5,0,0,0-.34.94,1.31,1.31,0,0,1,.61.45,2.12,2.12,0,0,0,.72.57A6.49,6.49,0,0,0,8,9.5a8.06,8.06,0,0,1-.06,1l-.16-.18A1.87,1.87,0,0,0,6.53,9.7a.5.5,0,0,0-.12,1,.9.9,0,0,1,.66.27l.15.17a3.38,3.38,0,0,0,.48.48A1.2,1.2,0,0,1,7.5,12a4.45,4.45,0,0,0-1.91.44,1.6,1.6,0,0,1,0-.34,2.32,2.32,0,0,0-.2-1.22.5.5,0,0,0-.91.41,1.36,1.36,0,0,1,.11.75,2,2,0,0,0,.12,1,4.5,4.5,0,0,0-1.14,1.35,1.6,1.6,0,0,1-.21-.28,2.33,2.33,0,0,0-.87-.87.5.5,0,1,0-.5.87,1.37,1.37,0,0,1,.53.54,2,2,0,0,0,.66.7A4.44,4.44,0,0,0,3,16.5a4.41,4.41,0,0,0,.05.5l-.27-.14a2,2,0,0,0-1.33-.35.5.5,0,1,0,.11,1,1,1,0,0,1,.71.22,1.87,1.87,0,0,0,1,.34h0a4.49,4.49,0,0,0,.93,1.52,1.67,1.67,0,0,1-.32.11,2.33,2.33,0,0,0-1.1.56.5.5,0,0,0,.67.74,1.37,1.37,0,0,1,.68-.34,2,2,0,0,0,.86-.4,4.47,4.47,0,0,0,1.87.7,2.11,2.11,0,0,1-.23.3A2.37,2.37,0,0,0,6,22.4.5.5,0,0,0,6.4,23h.1A.5.5,0,0,0,7,22.6a1.42,1.42,0,0,1,.4-.71A2.16,2.16,0,0,0,7.93,21a20.86,20.86,0,0,0,2.33-.17,2.17,2.17,0,0,1-.1.28,2.17,2.17,0,0,0-.21,1.28.5.5,0,0,0,.5.44h.06a.5.5,0,0,0,.43-.56,1.21,1.21,0,0,1,.14-.75,2.23,2.23,0,0,0,.22-.85,16,16,0,0,0,1.93-.48,2.17,2.17,0,0,1,0,.29,2.23,2.23,0,0,0,0,1.3.5.5,0,0,0,.48.35l.15,0a.5.5,0,0,0,.33-.63,1.27,1.27,0,0,1,0-.78,2.24,2.24,0,0,0,.06-.87A12.34,12.34,0,0,0,16,18.9a1.84,1.84,0,0,1,0,.31,2.17,2.17,0,0,0,.32,1.25.5.5,0,0,0,.86-.51,1.22,1.22,0,0,1-.18-.74,2.09,2.09,0,0,0-.16-.89A10.34,10.34,0,0,0,18.27,17a2,2,0,0,1,.11.29A2.26,2.26,0,0,0,19,18.43a.5.5,0,0,0,.68-.73,1.29,1.29,0,0,1-.39-.67,2.18,2.18,0,0,0-.4-.79,9.94,9.94,0,0,0,1-1.67,1.86,1.86,0,0,1,.2.26,2.19,2.19,0,0,0,.95.85.49.49,0,0,0,.22,0,.5.5,0,0,0,.22-1,1.23,1.23,0,0,1-.55-.51,2.15,2.15,0,0,0-.63-.65,11.28,11.28,0,0,0,.49-1.89l.23.18a2.21,2.21,0,0,0,1.16.57h.09a.5.5,0,0,0,.09-1,1.24,1.24,0,0,1-.69-.35,2.19,2.19,0,0,0-.74-.45c0-.38.05-.77.05-1.17a6.51,6.51,0,0,0-.05-.78,2,2,0,0,1,.36.1A2.63,2.63,0,0,0,22.26,9ZM7.5,18A1.5,1.5,0,1,1,9,16.5,1.5,1.5,0,0,1,7.5,18ZM11,15.5A1.5,1.5,0,1,1,12.5,17,1.5,1.5,0,0,1,11,15.5ZM14.5,13A3.5,3.5,0,1,1,18,9.5,3.5,3.5,0,0,1,14.5,13Z" style="fill: #303c42"/>
  </g>
</svg>
