<svg xmlns="http://www.w3.org/2000/svg" viewBox="0 0 24 24">
  <title>Virus</title>
  <g id="Virus">
    <g>
      <g>
        <path d="M7.5,20.5c0,1-.79,1-1,2" style="fill: none;stroke: #303c42;stroke-linecap: round;stroke-linejoin: round"/>
        <path d="M5,19.58c-.62.78-1.09.36-1.82,1" style="fill: none;stroke: #303c42;stroke-linecap: round;stroke-linejoin: round"/>
        <path d="M3.63,17.5c-1,.27-1.15-.6-2.13-.5" style="fill: none;stroke: #303c42;stroke-linecap: round;stroke-linejoin: round"/>
        <path d="M3.78,15c-.94-.35-.69-.92-1.54-1.41" style="fill: none;stroke: #303c42;stroke-linecap: round;stroke-linejoin: round"/>
        <path d="M5.35,13.13c-.56-.85,0-1.14-.42-2.05" style="fill: none;stroke: #303c42;stroke-linecap: round;stroke-linejoin: round"/>
        <path d="M8.27,11.4a3.27,3.27,0,0,1-.85-.79,1.38,1.38,0,0,0-1-.42" style="fill: none;stroke: #303c42;stroke-linecap: round;stroke-linejoin: round"/>
        <path d="M8.68,8.05c-1-.23-.81-.83-1.74-1.17" style="fill: none;stroke: #303c42;stroke-linecap: round;stroke-linejoin: round"/>
        <path d="M9.88,5.67C9.1,5,9.53,4.58,8.83,3.87" style="fill: none;stroke: #303c42;stroke-linecap: round;stroke-linejoin: round"/>
        <path d="M12,4.05c-.44-.92.15-1.14-.17-2.09" style="fill: none;stroke: #303c42;stroke-linecap: round;stroke-linejoin: round"/>
        <path d="M14.5,3.5c0-1,.88-1,1-2" style="fill: none;stroke: #303c42;stroke-linecap: round;stroke-linejoin: round"/>
        <path d="M17.19,4.15c.45-.91,1-.6,1.53-1.43" style="fill: none;stroke: #303c42;stroke-linecap: round;stroke-linejoin: round"/>
        <path d="M19.25,5.85c.79-.62,1.16-.12,2-.64" style="fill: none;stroke: #303c42;stroke-linecap: round;stroke-linejoin: round"/>
        <path d="M20.37,8.26c1-.22,1.13.34,2.13.24" style="fill: none;stroke: #303c42;stroke-linecap: round;stroke-linejoin: round"/>
        <path d="M20.4,11.06c1,.11.9.73,1.89.91" style="fill: none;stroke: #303c42;stroke-linecap: round;stroke-linejoin: round"/>
        <path d="M19.7,13.84c.95.37.7.94,1.58,1.37" style="fill: none;stroke: #303c42;stroke-linecap: round;stroke-linejoin: round"/>
        <path d="M18.28,16.27c.78.62.38,1.11,1.11,1.79" style="fill: none;stroke: #303c42;stroke-linecap: round;stroke-linejoin: round"/>
        <path d="M16.19,18.2c.57.82,0,1.15.55,2" style="fill: none;stroke: #303c42;stroke-linecap: round;stroke-linejoin: round"/>
        <path d="M13.62,19.49c.35.94-.23,1.15.07,2.11" style="fill: none;stroke: #303c42;stroke-linecap: round;stroke-linejoin: round"/>
        <path d="M10.77,20.24c.17,1-.45,1.09-.33,2.07" style="fill: none;stroke: #303c42;stroke-linecap: round;stroke-linejoin: round"/>
      </g>
      <path d="M14.5,3.5a6,6,0,0,0-6,6c0,1.66-.45,3-1,3a4,4,0,0,0,0,8c7.19,0,13-3.5,13-11A6,6,0,0,0,14.5,3.5Z" style="fill: none;stroke: #303c42;stroke-linecap: round;stroke-linejoin: round"/>
      <circle cx="14.5" cy="9.5" r="3" style="fill: none;stroke: #303c42;stroke-linecap: round;stroke-linejoin: round"/>
      <circle cx="7.5" cy="16.5" r="1" style="fill: none;stroke: #303c42;stroke-linecap: round;stroke-linejoin: round"/>
      <circle cx="12.5" cy="15.5" r="1" style="fill: none;stroke: #303c42;stroke-linecap: round;stroke-linejoin: round"/>
    </g>
  </g>
</svg>
