<svg xmlns="http://www.w3.org/2000/svg" viewBox="0 0 30 30">
  <title>Acid</title>
  <g id="Acid">
    <g>
      <path d="M30,18.49a2.48,2.48,0,0,0-1.59-2.35A2.56,2.56,0,0,0,29,14.5,2.44,2.44,0,0,0,26.63,12H24.5a.5.5,0,0,0-.47.34l-.35,1.06L22.12,13a.5.5,0,0,0-.59.31l-1.1,2.93-1.49-3a.5.5,0,0,0-.75-.18l-1.47,1.1L16,12.32a.5.5,0,0,0-.47-.32H11.73a1,1,0,0,1-.84-1.54l1.72-2.7A2.5,2.5,0,0,0,13,6.42,2.42,2.42,0,0,0,10.58,4H10a.5.5,0,0,0-.35.15L2.49,11.3a8.44,8.44,0,0,0-2.49,6V21.5A6.51,6.51,0,0,0,6.5,28H22.63A2.31,2.31,0,0,0,25,25.75a2.15,2.15,0,0,0-.4-1.24h2A2.31,2.31,0,0,0,29,22.25a2.16,2.16,0,0,0-.55-1.42A2.5,2.5,0,0,0,30,18.49Z" style="fill: #303c42"/>
      <path d="M20.5,11A3.51,3.51,0,0,0,24,7.5c0-1.8-2.81-5-3.13-5.34a.52.52,0,0,0-.74,0C19.81,2.52,17,5.7,17,7.5A3.51,3.51,0,0,0,20.5,11Z" style="fill: #303c42"/>
    </g>
  </g>
</svg>
