<svg xmlns="http://www.w3.org/2000/svg" viewBox="0 0 30 30">
  <title>Acid</title>
  <g id="Acid">
    <g>
      <path d="M22,16.5h5.63a1.94,1.94,0,0,1,1.87,2h0a1.94,1.94,0,0,1-1.87,2H19" style="fill: none;stroke: #303c42;stroke-linecap: round;stroke-linejoin: round"/>
      <path d="M18,20.5h8.63a1.81,1.81,0,0,1,1.87,1.75h0A1.81,1.81,0,0,1,26.63,24H16.5" style="fill: none;stroke: #303c42;stroke-linecap: round;stroke-linejoin: round"/>
      <path d="M16.5,24h6.13a1.81,1.81,0,0,1,1.87,1.74h0a1.81,1.81,0,0,1-1.87,1.74H6.5a6,6,0,0,1-6-6V17.31a8,8,0,0,1,2.34-5.66L10,4.5h.58A1.92,1.92,0,0,1,12.5,6.42h0a2,2,0,0,1-.31,1.07l-1.72,2.7a1.5,1.5,0,0,0,1.27,2.3h3.81l1,2.5,2-1.5,2,4,1.5-4,2,.5.5-1.5h2.13a1.94,1.94,0,0,1,1.87,2h0a1.94,1.94,0,0,1-1.87,2H21.5" style="fill: none;stroke: #303c42;stroke-linecap: round;stroke-linejoin: round"/>
      <path d="M23.5,7.5a3,3,0,1,1-6,0c0-1.66,3-5,3-5S23.5,5.84,23.5,7.5Z" style="fill: none;stroke: #303c42;stroke-linecap: round;stroke-linejoin: round"/>
    </g>
  </g>
</svg>
