<svg xmlns="http://www.w3.org/2000/svg" viewBox="0 0 24 24">
  <title>Acid</title>
  <g id="Acid">
    <g>
      <path d="M16.5,8A2.5,2.5,0,0,0,19,5.49c0-1.63-1.89-4-2.11-4.31a.52.52,0,0,0-.78,0C15.89,1.45,14,3.86,14,5.49A2.5,2.5,0,0,0,16.5,8Z" style="fill: #303c42"/>
      <path d="M24,15a2,2,0,0,0-1.34-1.89A2,2,0,0,0,21,10H20a.5.5,0,0,0-.45.28l-.31.61-1.09-.36a.5.5,0,0,0-.62.28l-1.07,2.5h0l-1-2a.5.5,0,0,0-.72-.19l-1,.64-.46-1.38a.5.5,0,0,0-.47-.34H8.62a.5.5,0,0,1-.45-.72L9.78,6.07A2.12,2.12,0,0,0,7.88,3H7.5a.5.5,0,0,0-.37.16L1.75,8.93A6.48,6.48,0,0,0,0,13.36V18a5,5,0,0,0,5,5H18a2,2,0,0,0,1.73-3H21a2,2,0,0,0,1.66-3.11A2,2,0,0,0,24,15Z" style="fill: #303c42"/>
    </g>
  </g>
</svg>
