<svg xmlns="http://www.w3.org/2000/svg" viewBox="0 0 30 30">
  <title>Pulley</title>
  <g id="Pulley">
    <path d="M21,10a6,6,0,0,0-5.5-6V1h4a.5.5,0,0,0,0-1h-9a.5.5,0,0,0,0,1h4V4A6,6,0,0,0,10,13.31V19H9.5a.5.5,0,0,0-.5.5v5a.5.5,0,0,0,.5.5H10v3H9.5a.5.5,0,0,0-.35.85l1,1,0,0h0a.5.5,0,0,0,.26.12h.09a.5.5,0,0,0,.32-.15l1-1A.5.5,0,0,0,11.5,28H11V25h.5a.5.5,0,0,0,.5-.5v-5a.5.5,0,0,0-.5-.5H11V14.46a6,6,0,0,0,8,0v15a.5.5,0,0,0,1,0V13.31A6,6,0,0,0,21,10Zm-6,1a1,1,0,1,1,1-1A1,1,0,0,1,15,11Z" style="fill: #303c42"/>
  </g>
</svg>
