<svg xmlns="http://www.w3.org/2000/svg" viewBox="0 0 24 24">
  <title>Lock Open</title>
  <g id="Lock_Open" data-name="Lock Open">
    <g>
      <path d="M3.5,9.5h17a0,0,0,0,1,0,0V22A1.5,1.5,0,0,1,19,23.5H5A1.5,1.5,0,0,1,3.5,22V9.5A0,0,0,0,1,3.5,9.5Z" style="fill: none;stroke: #303c42;stroke-linecap: round;stroke-linejoin: round"/>
      <path d="M16.5,9.5V7a4.5,4.5,0,0,0-9,0v.5h-2V7a6.5,6.5,0,1,1,13,0V9.5" style="fill: none;stroke: #303c42;stroke-linecap: round;stroke-linejoin: round"/>
      <path d="M13.5,15a1.5,1.5,0,1,0-2.15,1.35L11,19.5h2l-.35-3.15A1.5,1.5,0,0,0,13.5,15Z" style="fill: none;stroke: #303c42;stroke-linecap: round;stroke-linejoin: round"/>
    </g>
  </g>
</svg>
