<svg xmlns="http://www.w3.org/2000/svg" viewBox="0 0 24 24">
  <title>Key</title>
  <g id="Key">
    <path d="M16,0A8,8,0,0,0,8,8a7.89,7.89,0,0,0,.17,1.61l-.89.45a.5.5,0,0,0-.13.8l.65.65-.5.5H6.5a.5.5,0,0,0-.5.5v.79L5.29,14H4.5a.5.5,0,0,0-.5.5v.79L3.29,16H2.5a.5.5,0,0,0-.5.5v.79L.15,19.15A.5.5,0,0,0,0,19.5v4a.5.5,0,0,0,.5.5h4a.5.5,0,0,0,.35-.15l7.65-7.65.65.65a.5.5,0,0,0,.8-.13l.45-.89A8,8,0,1,0,16,0ZM10.85,13.85l-7,7a.5.5,0,0,1-.71-.71l7-7a.5.5,0,0,1,.71.71ZM18.5,8A2.5,2.5,0,1,1,21,5.5,2.5,2.5,0,0,1,18.5,8Z" style="fill: #303c42"/>
  </g>
</svg>
