<svg xmlns="http://www.w3.org/2000/svg" viewBox="0 0 30 30">
  <title>Cloud Server 2</title>
  <g id="Cloud_Server_2" data-name="Cloud Server 2">
    <g>
      <line x1="7.5" y1="22.5" x2="7.5" y2="24.5" style="fill: none;stroke: #303c42;stroke-linecap: round;stroke-linejoin: round"/>
      <line x1="9.5" y1="22.5" x2="9.5" y2="24.5" style="fill: none;stroke: #303c42;stroke-linecap: round;stroke-linejoin: round"/>
      <line x1="11.5" y1="22.5" x2="11.5" y2="24.5" style="fill: none;stroke: #303c42;stroke-linecap: round;stroke-linejoin: round"/>
      <circle cx="22" cy="23.5" r="0.5" style="fill: none;stroke: #303c42;stroke-linecap: round;stroke-linejoin: round"/>
      <circle cx="19" cy="23.5" r="0.5" style="fill: none;stroke: #303c42;stroke-linecap: round;stroke-linejoin: round"/>
      <path d="M25.5,22.4a5,5,0,0,0,0-9.8A9.49,9.49,0,0,0,7.17,9.51H7a6.47,6.47,0,0,1,3.5,1" style="fill: none;stroke: #303c42;stroke-linecap: round;stroke-linejoin: round"/>
      <path d="M7,9.5A6.5,6.5,0,0,0,4.5,22h0" style="fill: none;stroke: #303c42;stroke-linecap: round;stroke-linejoin: round"/>
      <rect x="4.5" y="20.5" width="21" height="6" rx="1.5" ry="1.5" style="fill: none;stroke: #303c42;stroke-linecap: round;stroke-linejoin: round"/>
      <path d="M24.5,12.5a5,5,0,0,1,1,.1" style="fill: none;stroke: #303c42;stroke-linecap: round;stroke-linejoin: round"/>
      <path d="M4.79,21.11,9.9,15.19a2,2,0,0,1,1.51-.69h7.17a2,2,0,0,1,1.51.69l5.11,5.92" style="fill: none;stroke: #303c42;stroke-linecap: round;stroke-linejoin: round"/>
    </g>
  </g>
</svg>
