<svg xmlns="http://www.w3.org/2000/svg" viewBox="0 0 30 30">
  <title>Cloud Server 2</title>
  <g id="Cloud_Server_2" data-name="Cloud Server 2">
    <g>
      <path d="M25.49,20.67l-5.16-6A2,2,0,0,0,18.8,14H11.2a2,2,0,0,0-1.52.7l-5.23,6,0,.05A2,2,0,0,0,4,22v3a2,2,0,0,0,2,2H24a2,2,0,0,0,2-2V22a2,2,0,0,0-.49-1.3ZM11.2,16h7.61l3.44,4H7.71ZM8,24.5a.5.5,0,0,1-1,0v-2a.5.5,0,0,1,1,0Zm2,0a.5.5,0,0,1-1,0v-2a.5.5,0,0,1,1,0Zm2,0a.5.5,0,0,1-1,0v-2a.5.5,0,0,1,1,0Zm7,0a1,1,0,1,1,1-1A1,1,0,0,1,19,24.5Zm3,0a1,1,0,1,1,1-1A1,1,0,0,1,22,24.5Z" style="fill: #303c42"/>
      <path d="M25.58,12.11h0a5.5,5.5,0,0,0-1-.1.5.5,0,0,1,0-1c.21,0,.41,0,.61,0a.5.5,0,0,0,.53-.63A10,10,0,0,0,7.79,7.3a.5.5,0,0,0,.34.78,7.92,7.92,0,0,1,3.17,1.18.5.5,0,0,1-.54.84,7,7,0,0,0-8.4,11.13.5.5,0,0,0,.8-.21,3.09,3.09,0,0,1,.46-.84l.06-.09,5.23-6a3,3,0,0,1,2.27-1H18.8a3,3,0,0,1,2.29,1.07L26.22,20l.08.13A3,3,0,0,1,27,21.58a.5.5,0,0,0,.79.33A5.44,5.44,0,0,0,30,17.5,5.51,5.51,0,0,0,25.58,12.11Z" style="fill: #303c42"/>
    </g>
  </g>
</svg>
