<svg xmlns="http://www.w3.org/2000/svg" viewBox="0 0 24 24">
  <title>Server Settings</title>
  <g id="Server_Settings" data-name="Server Settings">
    <g>
      <path d="M5,15.5v-2a2.5,2.5,0,0,1,1.7-2.35A.5.5,0,0,0,7,10.71,4,4,0,0,1,15,10.56a.5.5,0,0,0,.5.44H20.5a.5.5,0,0,0,.5-.5V9.1a.5.5,0,0,0-.38-.48l-2.09-.52-.15-.36,1.11-1.85a.5.5,0,0,0-.08-.61L16.73,2.59a.5.5,0,0,0-.61-.08L14.27,3.62l-.36-.15-.52-2.09A.5.5,0,0,0,12.9,1H9.1a.5.5,0,0,0-.48.38L8.09,3.47l-.36.15L5.88,2.51a.5.5,0,0,0-.61.08L2.59,5.27a.5.5,0,0,0-.08.61L3.62,7.73l-.15.36-2.09.52A.5.5,0,0,0,1,9.1v3.4a.5.5,0,0,0,.38.48l2.09.52.15.36L2.51,15.72a.5.5,0,0,0,.08.61l2,2a.5.5,0,0,0,.35.15H5a.5.5,0,0,0,.37-.24,2.59,2.59,0,0,1,.29-.39.5.5,0,0,0,0-.67A2.49,2.49,0,0,1,5,15.5Z" style="fill: #303c42"/>
      <path d="M21.5,12H7.5A1.5,1.5,0,0,0,6,13.5v2A1.5,1.5,0,0,0,7.5,17h14A1.5,1.5,0,0,0,23,15.5v-2A1.5,1.5,0,0,0,21.5,12ZM9,15a.5.5,0,1,1-1,0V14a.5.5,0,0,1,1,0Zm2,0a.5.5,0,0,1-1,0V14a.5.5,0,1,1,1,0Zm2,0a.5.5,0,0,1-1,0V14a.5.5,0,1,1,1,0Zm4,.5a1,1,0,1,1,1-1A1,1,0,0,1,17,15.5Zm3,0a1,1,0,1,1,1-1A1,1,0,0,1,20,15.5Z" style="fill: #303c42"/>
      <path d="M21.5,18H7.5A1.5,1.5,0,0,0,6,19.5v2A1.5,1.5,0,0,0,7.5,23h14A1.5,1.5,0,0,0,23,21.5v-2A1.5,1.5,0,0,0,21.5,18ZM9,21a.5.5,0,0,1-1,0V20a.5.5,0,0,1,1,0Zm2,0a.5.5,0,0,1-1,0V20a.5.5,0,0,1,1,0Zm2,0a.5.5,0,0,1-1,0V20a.5.5,0,0,1,1,0Zm4,.5a1,1,0,1,1,1-1A1,1,0,0,1,17,21.5Zm3,0a1,1,0,1,1,1-1A1,1,0,0,1,20,21.5Z" style="fill: #303c42"/>
    </g>
  </g>
</svg>
