<svg xmlns="http://www.w3.org/2000/svg" viewBox="0 0 24 24">
  <title>Cloud Server 2</title>
  <g id="Cloud_Server_2" data-name="Cloud Server 2">
    <g>
      <path d="M20.33,9.08A4.48,4.48,0,0,0,19.5,9a.5.5,0,0,1,0-1L20,8a.51.51,0,0,0,.44-.19.5.5,0,0,0,.08-.47,8,8,0,0,0-14.06-2,.5.5,0,0,0,.31.78A6.62,6.62,0,0,1,9.4,7.3a.5.5,0,0,1,.1.7.51.51,0,0,1-.7.1A5.57,5.57,0,0,0,5.5,7,5.51,5.51,0,0,0,0,12.5a5.41,5.41,0,0,0,1.73,4,.57.57,0,0,0,.45.06.68.68,0,0,0,.4-.3l.12-.16,4.06-4.83A3.49,3.49,0,0,1,9.43,10h5.14a3.49,3.49,0,0,1,2.68,1.25l4.06,4.83.13.18a3.08,3.08,0,0,1,.26.45A.5.5,0,0,0,22,17h.1a.5.5,0,0,0,.33-.13A4.5,4.5,0,0,0,24,13.5,4.56,4.56,0,0,0,20.33,9.08Z" style="fill: #303c42"/>
      <polygon points="15 19 15.5 19 15 19 15 19" style="fill: #303c42"/>
      <polygon points="18 19 18.5 19 18 19 18 19" style="fill: #303c42"/>
      <path d="M20.54,16.72l-4.06-4.83A2.49,2.49,0,0,0,14.57,11H9.43a2.49,2.49,0,0,0-1.91.89L3.46,16.72l-.05.08A2,2,0,0,0,3,18v2a2,2,0,0,0,2,2H19a2,2,0,0,0,2-2V18a2,2,0,0,0-.41-1.2ZM6,19.5a.5.5,0,0,1-1,0v-1a.5.5,0,0,1,1,0Zm3-6.32A.5.5,0,0,1,9.43,13h5.14a.5.5,0,0,1,.38.18L17.32,16H6.68ZM8,19.5a.5.5,0,0,1-1,0v-1a.5.5,0,0,1,1,0Zm2,0a.5.5,0,0,1-1,0v-1a.5.5,0,0,1,1,0Zm5,.5a1,1,0,1,1,1-1A1,1,0,0,1,15,20Zm3,0a1,1,0,1,1,1-1A1,1,0,0,1,18,20Z" style="fill: #303c42"/>
    </g>
  </g>
</svg>
