<svg xmlns="http://www.w3.org/2000/svg" viewBox="0 0 24 24">
  <title>Cloud Server 2</title>
  <g id="Cloud_Server_2" data-name="Cloud Server 2">
    <g>
      <g id="_Group_" data-name="&lt;Group&gt;">
        <path id="_Path_" data-name="&lt;Path&gt;" d="M20.48,9.61A7.49,7.49,0,0,0,5.94,7.5" style="fill: none;stroke: #303c42;stroke-linecap: round;stroke-linejoin: round"/>
      </g>
      <g>
        <rect x="3.5" y="16.5" width="17" height="5" rx="1.5" ry="1.5" style="fill: none;stroke: #303c42;stroke-linecap: round;stroke-linejoin: round"/>
        <line x1="5.5" y1="18.5" x2="5.5" y2="19.5" style="fill: none;stroke: #303c42;stroke-linecap: round;stroke-linejoin: round"/>
        <line x1="7.5" y1="18.5" x2="7.5" y2="19.5" style="fill: none;stroke: #303c42;stroke-linecap: round;stroke-linejoin: round"/>
        <line x1="9.5" y1="18.5" x2="9.5" y2="19.5" style="fill: none;stroke: #303c42;stroke-linecap: round;stroke-linejoin: round"/>
        <circle cx="18" cy="19" r="0.5" style="fill: none;stroke: #303c42;stroke-linecap: round;stroke-linejoin: round"/>
        <circle cx="15" cy="19" r="0.5" style="fill: none;stroke: #303c42;stroke-linecap: round;stroke-linejoin: round"/>
      </g>
      <path d="M8.5,8.5a5.05,5.05,0,0,0-3-1,5,5,0,0,0-1.72,9.68" style="fill: none;stroke: #303c42;stroke-linecap: round;stroke-linejoin: round"/>
      <path d="M20.36,17.4a4,4,0,0,0,0-7.82h-.07a4,4,0,0,0-.75-.08" style="fill: none;stroke: #303c42;stroke-linecap: round;stroke-linejoin: round"/>
      <path d="M3.84,17,7.9,12.21a2,2,0,0,1,1.53-.71h5.14a2,2,0,0,1,1.53.71L20.16,17" style="fill: none;stroke: #303c42;stroke-linecap: round;stroke-linejoin: round"/>
    </g>
  </g>
</svg>
