<svg xmlns="http://www.w3.org/2000/svg" viewBox="0 0 30 30">
  <title>Palette</title>
  <g id="Palette">
    <g>
      <rect x="2.5" y="6.5" width="4" height="3" style="fill: none;stroke: #303c42;stroke-linecap: round;stroke-linejoin: round"/>
      <rect x="23.5" y="6.5" width="4" height="3" style="fill: none;stroke: #303c42;stroke-linecap: round;stroke-linejoin: round"/>
      <rect x="13" y="6.5" width="4" height="3" style="fill: none;stroke: #303c42;stroke-linecap: round;stroke-linejoin: round"/>
      <rect x="2.5" y="13.5" width="4" height="3" style="fill: none;stroke: #303c42;stroke-linecap: round;stroke-linejoin: round"/>
      <rect x="23.5" y="13.5" width="4" height="3" style="fill: none;stroke: #303c42;stroke-linecap: round;stroke-linejoin: round"/>
      <rect x="13" y="13.5" width="4" height="3" style="fill: none;stroke: #303c42;stroke-linecap: round;stroke-linejoin: round"/>
      <rect x="2.5" y="20.5" width="4" height="3" style="fill: none;stroke: #303c42;stroke-linecap: round;stroke-linejoin: round"/>
      <rect x="23.5" y="20.5" width="4" height="3" style="fill: none;stroke: #303c42;stroke-linecap: round;stroke-linejoin: round"/>
      <rect x="13" y="20.5" width="4" height="3" style="fill: none;stroke: #303c42;stroke-linecap: round;stroke-linejoin: round"/>
      <rect x="13" y="-8" width="4" height="25" transform="translate(19.5 -10.5) rotate(90)" style="fill: none;stroke: #303c42;stroke-linecap: round;stroke-linejoin: round"/>
      <rect x="13" y="-1" width="4" height="25" transform="translate(26.5 -3.5) rotate(90)" style="fill: none;stroke: #303c42;stroke-linecap: round;stroke-linejoin: round"/>
      <rect x="13" y="6" width="4" height="25" transform="translate(33.5 3.5) rotate(90)" style="fill: none;stroke: #303c42;stroke-linecap: round;stroke-linejoin: round"/>
      <rect x="13" y="13" width="4" height="25" transform="translate(40.5 10.5) rotate(90)" style="fill: none;stroke: #303c42;stroke-linecap: round;stroke-linejoin: round"/>
    </g>
  </g>
</svg>
