<svg xmlns="http://www.w3.org/2000/svg" viewBox="0 0 24 24">
  <title>Drop Delivery</title>
  <g id="Drop_Delivery" data-name="Drop Delivery">
    <g>
      <path d="M17.67,7.5c1.56,0,2.83.67,2.83,1.5a8.5,8.5,0,1,0-17,0c0-.83,1.27-1.5,2.83-1.5S9.17,8.17,9.17,9c0-.83,1.27-1.5,2.83-1.5s2.83.67,2.83,1.5C14.83,8.17,16.1,7.5,17.67,7.5Z" style="fill: none;stroke: #303c42;stroke-linecap: round;stroke-linejoin: round"/>
      <rect x="7.5" y="14.5" width="9" height="9" style="fill: none;stroke: #303c42;stroke-linecap: round;stroke-linejoin: round"/>
      <line x1="8" y1="21.5" x2="13" y2="16.5" style="fill: none;stroke: #303c42;stroke-linecap: round;stroke-linejoin: round"/>
      <line x1="11" y1="21.5" x2="16" y2="16.5" style="fill: none;stroke: #303c42;stroke-linecap: round;stroke-linejoin: round"/>
      <line x1="7.5" y1="16.5" x2="16.5" y2="16.5" style="fill: none;stroke: #303c42;stroke-linecap: round;stroke-linejoin: round"/>
      <line x1="7.5" y1="21.5" x2="16.5" y2="21.5" style="fill: none;stroke: #303c42;stroke-linecap: round;stroke-linejoin: round"/>
      <polyline points="3.5 9 12 14.5 20.5 9" style="fill: none;stroke: #303c42;stroke-linecap: round;stroke-linejoin: round"/>
      <polyline points="9.17 9 12 14.5 14.83 9" style="fill: none;stroke: #303c42;stroke-linecap: round;stroke-linejoin: round"/>
      <path d="M9.17,9C9.17,4.31,10.44.5,12,.5S14.83,4.31,14.83,9" style="fill: none;stroke: #303c42;stroke-linecap: round;stroke-linejoin: round"/>
    </g>
  </g>
</svg>
