<svg xmlns="http://www.w3.org/2000/svg" viewBox="0 0 24 24">
  <title>Box 2</title>
  <g id="Box_2" data-name="Box 2">
    <g>
      <path d="M22.91,7.24s0,0,0,0l-4-6A.5.5,0,0,0,18.5,1H5.5a.5.5,0,0,0-.42.22l-4,6s0,0,0,0A.49.49,0,0,0,1,7.5v3a.5.5,0,0,0,.5.5h21a.5.5,0,0,0,.5-.5v-3A.49.49,0,0,0,22.91,7.24Z" style="fill: #303c42"/>
      <path d="M21.5,12H2.5a.5.5,0,0,0-.5.5V21a2,2,0,0,0,2,2H20a2,2,0,0,0,2-2V12.5A.5.5,0,0,0,21.5,12ZM16,17.5H8a2,2,0,0,1,0-4h8a2,2,0,0,1,0,4Z" style="fill: #303c42"/>
    </g>
  </g>
</svg>
