<svg xmlns="http://www.w3.org/2000/svg" viewBox="0 0 30 30">
  <title>Box 2</title>
  <g id="Box_2" data-name="Box 2">
    <g>
      <path d="M27.91,9.23s0,0,0,0l-4.76-7A.5.5,0,0,0,22.74,2H7.26a.5.5,0,0,0-.41.22l-4.76,7s0,0,0,0A.49.49,0,0,0,2,9.5v4a.5.5,0,0,0,.5.5h25a.5.5,0,0,0,.5-.5v-4A.49.49,0,0,0,27.91,9.23Z" style="fill: #303c42"/>
      <path d="M26.5,15H3.5a.5.5,0,0,0-.5.5V26a2,2,0,0,0,2,2H25a2,2,0,0,0,2-2V15.5A.5.5,0,0,0,26.5,15ZM20,21H10a2,2,0,0,1,0-4H20a2,2,0,0,1,0,4Z" style="fill: #303c42"/>
    </g>
  </g>
</svg>
