<svg xmlns="http://www.w3.org/2000/svg" viewBox="0 0 30 30">
  <title>Shopping Bag 3</title>
  <g id="Shopping_Bag_3" data-name="Shopping Bag 3">
    <g>
      <path d="M27.5,24H2.5a.5.5,0,0,0-.5.5V26a2,2,0,0,0,2,2H26a2,2,0,0,0,2-2V24.5A.5.5,0,0,0,27.5,24Z" style="fill: #303c42"/>
      <path d="M27.5,8h-5a.5.5,0,0,0-.5.5v2a.5.5,0,0,1-1,0V4a2,2,0,0,0-2-2H11A2,2,0,0,0,9,4v6.5a.5.5,0,0,1-1,0v-2A.5.5,0,0,0,7.5,8h-5a.5.5,0,0,0-.5.5v14a.5.5,0,0,0,.5.5h25a.5.5,0,0,0,.5-.5V8.5A.5.5,0,0,0,27.5,8ZM19,4V8H11V4Z" style="fill: #303c42"/>
    </g>
  </g>
</svg>
