<svg xmlns="http://www.w3.org/2000/svg" viewBox="0 0 24 24">
  <title>Add to Basket</title>
  <g id="Add_to_Basket" data-name="Add to Basket">
    <g>
      <path d="M12,13a5.5,5.5,0,1,0,5.5,5.5A5.51,5.51,0,0,0,12,13Zm2,6H12.5v1.5a.5.5,0,0,1-1,0V19H10a.5.5,0,0,1,0-1h1.5V16.5a.5.5,0,0,1,1,0V18H14a.5.5,0,0,1,0,1Z" style="fill: #303c42"/>
      <path d="M23.5,8h-4L13.83.21a.5.5,0,0,0-.7-.12l-.81.58a.5.5,0,0,0-.12.7L17,8H6.61l4.8-6.63a.5.5,0,0,0-.12-.7L10.48.09a.5.5,0,0,0-.7.12L4.14,8H.5a.5.5,0,0,0-.5.5v1a.5.5,0,0,0,.5.5h1l2.56,7.33a2.45,2.45,0,0,0,.62.94.5.5,0,0,0,.85-.31,6.5,6.5,0,0,1,12.94,0,.5.5,0,0,0,.85.31,2.45,2.45,0,0,0,.62-.94L22.5,10h1a.5.5,0,0,0,.5-.5v-1A.5.5,0,0,0,23.5,8Z" style="fill: #303c42"/>
    </g>
  </g>
</svg>
