<svg xmlns="http://www.w3.org/2000/svg" viewBox="0 0 30 30">
  <title>Volleyball</title>
  <g id="Volleyball">
    <path d="M15,0A15,15,0,1,0,30,15,15,15,0,0,0,15,0ZM12.22,21.43a23.61,23.61,0,0,0,6.13-.76,23.81,23.81,0,0,1,1.08,3.84A20.86,20.86,0,0,1,3.61,23.11a14,14,0,0,1-1.91-3.75A25.47,25.47,0,0,0,12.22,21.43ZM17.88,1.3c-3.55,2.35-8,8.25-9.46,13.77a23.82,23.82,0,0,1-3.87-1,20.9,20.9,0,0,1,9.14-13C14.12,1,14.56,1,15,1A14,14,0,0,1,17.88,1.3Zm7.54,23c-.27-4.25-3.15-11-7.19-15.05A23.83,23.83,0,0,1,21,6.4a20.9,20.9,0,0,1,6.69,14.4A14,14,0,0,1,25.42,24.31Z" style="fill: #303c42"/>
  </g>
</svg>
