<svg xmlns="http://www.w3.org/2000/svg" viewBox="0 0 24 24">
  <title>Water Bottle</title>
  <g id="Water_Bottle" data-name="Water Bottle">
    <g>
      <g>
        <path d="M16.5,6.21A1.71,1.71,0,0,0,14.79,4.5H9.21A1.71,1.71,0,0,0,7.5,6.21V9.5a2.12,2.12,0,0,1,0,3v9.29A1.71,1.71,0,0,0,9.21,23.5h5.59a1.71,1.71,0,0,0,1.71-1.71V12.5a2.12,2.12,0,0,1,0-3Z" style="fill: none;stroke: #303c42;stroke-linecap: round;stroke-linejoin: round"/>
        <path d="M10.5,2.5h3a1,1,0,0,1,1,1v1a0,0,0,0,1,0,0h-5a0,0,0,0,1,0,0v-1A1,1,0,0,1,10.5,2.5Z" style="fill: none;stroke: #303c42;stroke-linecap: round;stroke-linejoin: round"/>
        <polygon points="12.5 2.5 11.5 2.5 11.5 1.5 12.5 0.5 12.5 2.5" style="fill: none;stroke: #303c42;stroke-linecap: round;stroke-linejoin: round"/>
      </g>
      <path d="M13.5,17a1.5,1.5,0,0,1-3,0A7.7,7.7,0,0,1,12,13.5,7.7,7.7,0,0,1,13.5,17Z" style="fill: none;stroke: #303c42;stroke-linecap: round;stroke-linejoin: round"/>
    </g>
  </g>
</svg>
