<svg xmlns="http://www.w3.org/2000/svg" viewBox="0 0 24 24">
  <title>Search Disk</title>
  <g id="Search_Disk" data-name="Search Disk">
    <g>
      <circle cx="12" cy="12" r="1" style="fill: #303c42"/>
      <path d="M14,18.5a4.43,4.43,0,0,1,.17-1.14.5.5,0,0,0-.14-.49.51.51,0,0,0-.5-.11,5,5,0,1,1,3.23-3.23.5.5,0,0,0,.11.5.49.49,0,0,0,.49.14,4.37,4.37,0,0,1,5,2.05.51.51,0,0,0,.48.24.5.5,0,0,0,.42-.33,12,12,0,1,0-7.12,7.12.5.5,0,0,0,.08-.9A4.46,4.46,0,0,1,14,18.5ZM6,6.5a.5.5,0,0,1-.35-.85A8.94,8.94,0,0,1,12,3a.5.5,0,0,1,0,1A8,8,0,0,0,6.33,6.35.5.5,0,0,1,6,6.5Z" style="fill: #303c42"/>
      <path d="M21.29,20.59A3.47,3.47,0,0,0,22,18.5,3.5,3.5,0,1,0,18.5,22a3.47,3.47,0,0,0,2.09-.71l2.56,2.56a.5.5,0,1,0,.71-.71ZM16,18.5a2.5,2.5,0,1,1,4.27,1.76h0A2.5,2.5,0,0,1,16,18.5Z" style="fill: #303c42"/>
    </g>
  </g>
</svg>
