<svg xmlns="http://www.w3.org/2000/svg" viewBox="0 0 24 24">
  <title>Disable Flash Drive</title>
  <g id="Disable_Flash_Drive" data-name="Disable Flash Drive">
    <g id="_Group_" data-name="&lt;Group&gt;">
      <path id="_Path_" data-name="&lt;Path&gt;" d="M18.41,12.59l.09-.09-7-7L2.91,14.09A4.83,4.83,0,0,0,1.5,17.5v.17A4.83,4.83,0,0,0,6.33,22.5H6.5a4.83,4.83,0,0,0,3.41-1.41l2.68-2.68" style="fill: none;stroke: #303c42;stroke-linecap: round;stroke-linejoin: round"/>
      <rect id="_Path_2" data-name="&lt;Path&gt;" x="14.07" y="2.51" width="6.36" height="8.49" transform="translate(0.28 14.17) rotate(-45)" style="fill: none;stroke: #303c42;stroke-linecap: round;stroke-linejoin: round"/>
      <path id="_Path_3" data-name="&lt;Path&gt;" d="M16.5,4.5,17,5,15.5,6.5,15,6S16.5,4.44,16.5,4.5Z" style="fill: none;stroke: #303c42;stroke-linecap: round;stroke-linejoin: round"/>
      <path id="_Path_4" data-name="&lt;Path&gt;" d="M19,7l.5.5L18,9l-.5-.5S19,6.94,19,7Z" style="fill: none;stroke: #303c42;stroke-linecap: round;stroke-linejoin: round"/>
      <circle id="_Path_5" data-name="&lt;Path&gt;" cx="6.52" cy="17.48" r="2.98" style="fill: none;stroke: #303c42;stroke-linecap: round;stroke-linejoin: round"/>
      <g id="_Group_2" data-name="&lt;Group&gt;">
        <g id="_Group_3" data-name="&lt;Group&gt;">
          <circle id="_Path_6" data-name="&lt;Path&gt;" cx="17.5" cy="17.5" r="5" style="fill: none;stroke: #303c42;stroke-linecap: round;stroke-linejoin: round"/>
        </g>
        <line id="_Path_7" data-name="&lt;Path&gt;" x1="13.96" y1="13.96" x2="21.04" y2="21.04" style="fill: none;stroke: #303c42;stroke-linecap: round;stroke-linejoin: round"/>
      </g>
    </g>
  </g>
</svg>
