<svg xmlns="http://www.w3.org/2000/svg" viewBox="0 0 30 30">
  <title>Search Disk</title>
  <g id="Search_Disk" data-name="Search Disk">
    <g>
      <circle cx="15" cy="15" r="1" style="fill: #303c42"/>
      <path d="M20.73,27.85A5.26,5.26,0,0,1,18,23.25a5.18,5.18,0,0,1,.54-2.31.5.5,0,0,0-.69-.66,6,6,0,1,1,2.42-2.42.5.5,0,0,0,.66.69A5.17,5.17,0,0,1,23.25,18a5.24,5.24,0,0,1,4.66,2.85.51.51,0,0,0,.38.25.52.52,0,0,0,.44-.15.49.49,0,0,0,.11-.16A15.06,15.06,0,1,0,20.47,29a.51.51,0,0,0,.17-.11l.2-.2a.5.5,0,0,0-.11-.8ZM7.5,8.15a.5.5,0,0,1-.36-.85A10.92,10.92,0,0,1,15,4a.5.5,0,0,1,0,1A9.93,9.93,0,0,0,7.86,8,.5.5,0,0,1,7.5,8.15Z" style="fill: #303c42"/>
      <path d="M26.57,25.87a4.21,4.21,0,0,0,.93-2.62,4.25,4.25,0,1,0-4.25,4.25,4.21,4.21,0,0,0,2.62-.93l3.28,3.27a.5.5,0,0,0,.71-.71Zm-1-.32h0a3.25,3.25,0,1,1,1-2.3A3.24,3.24,0,0,1,25.54,25.55Z" style="fill: #303c42"/>
    </g>
  </g>
</svg>
