<svg xmlns="http://www.w3.org/2000/svg" viewBox="0 0 30 30">
  <title>Cloud Folder 3</title>
  <g id="Cloud_Folder_3" data-name="Cloud Folder 3">
    <g>
      <path id="_Path_" data-name="&lt;Path&gt;" d="M21.5,17.5h-5l-1-1h-5a1.1,1.1,0,0,0-1,1.17v7.65a1.1,1.1,0,0,0,1,1.17h11a1.1,1.1,0,0,0,1-1.17V18.67A1.1,1.1,0,0,0,21.5,17.5Z" style="fill: none;stroke: #303c42;stroke-linecap: round;stroke-linejoin: round"/>
      <path d="M7,9.5a6.47,6.47,0,0,1,3.5,1" style="fill: none;stroke: #303c42;stroke-linecap: round;stroke-linejoin: round"/>
      <path d="M24.5,12.5a5,5,0,0,1,1,.1" style="fill: none;stroke: #303c42;stroke-linecap: round;stroke-linejoin: round"/>
      <path d="M22.5,22.5h2a5,5,0,0,0,1-9.9A9.49,9.49,0,0,0,7.17,9.51H7a6.5,6.5,0,0,0,0,13H9.5" style="fill: none;stroke: #303c42;stroke-linecap: round;stroke-linejoin: round"/>
    </g>
  </g>
</svg>
