<svg xmlns="http://www.w3.org/2000/svg" viewBox="0 0 24 24">
  <title>Cloud Check</title>
  <g id="Cloud_Check" data-name="Cloud Check">
    <g>
      <path d="M22.2,9.9A4.46,4.46,0,0,0,19.5,9a.5.5,0,0,1,0-1l.38,0L20,8h.06a.51.51,0,0,0,.51-.5.5.5,0,0,0-.09-.29,8,8,0,0,0-14-1.88.5.5,0,0,0,.31.78A6.62,6.62,0,0,1,9.4,7.3a.5.5,0,0,1,.1.7.51.51,0,0,1-.7.1A5.57,5.57,0,0,0,5.5,7a5.5,5.5,0,1,0,.08,11h0a.48.48,0,0,0,.51-.5.51.51,0,0,0,0-.2A6.12,6.12,0,0,1,6,16.5a6.5,6.5,0,1,1,12.93.93.5.5,0,0,0,.5.57h.08a4.5,4.5,0,0,0,2.7-8.1Z" style="fill: #303c42"/>
      <path d="M12.5,11A5.5,5.5,0,1,0,18,16.5,5.51,5.51,0,0,0,12.5,11Zm2.85,4.35-3.5,3.5a.5.5,0,0,1-.71,0l-1.5-1.5a.5.5,0,0,1,.71-.71l1.15,1.15,3.15-3.15a.5.5,0,0,1,.71.71Z" style="fill: #303c42"/>
    </g>
  </g>
</svg>
