<svg xmlns="http://www.w3.org/2000/svg" viewBox="0 0 30 30">
  <title>Clouds</title>
  <g id="Clouds">
    <g>
      <path d="M26.89,10.23A7.47,7.47,0,0,0,15.63,5.09a.5.5,0,0,0,.24.93,10.53,10.53,0,0,1,10,8.71.5.5,0,0,0,.22.33,6.53,6.53,0,0,1,2.08,2.22.5.5,0,0,0,.39.25h0a.5.5,0,0,0,.38-.18,4.42,4.42,0,0,0,1-2.85A4.48,4.48,0,0,0,26.89,10.23Z" style="fill: #303c42"/>
      <path d="M24.94,15.57a9.49,9.49,0,0,0-17.43-4.2.5.5,0,0,0,.33.76,7.45,7.45,0,0,1,2.41.87.5.5,0,0,1,.18.68.52.52,0,0,1-.68.18A6.5,6.5,0,1,0,6.5,26h16a5.5,5.5,0,0,0,2.44-10.43Z" style="fill: #303c42"/>
    </g>
  </g>
</svg>
