<svg xmlns="http://www.w3.org/2000/svg" viewBox="0 0 30 30">
  <title>Cloud Folder 3</title>
  <g id="Cloud_Folder_3" data-name="Cloud Folder 3">
    <g>
      <path d="M21.5,17H16.71l-.85-.85A.5.5,0,0,0,15.5,16h-5A1.5,1.5,0,0,0,9,17.5v8A1.5,1.5,0,0,0,10.5,27h11A1.5,1.5,0,0,0,23,25.5v-7A1.5,1.5,0,0,0,21.5,17Z" style="fill: #303c42"/>
      <path d="M24.5,12a.5.5,0,0,1,0-1c.21,0,.41,0,.61,0h.07a.5.5,0,0,0,.43-.76,10,10,0,0,0-17.82-3,.5.5,0,0,0,.34.78,7.87,7.87,0,0,1,3.62,1.47.5.5,0,0,1,.11.7.51.51,0,0,1-.7.11A7,7,0,1,0,7,23h.5a.5.5,0,0,0,.5-.5v-5A2.5,2.5,0,0,1,10.5,15h5a1.51,1.51,0,0,1,1.06.44l.41.41a.5.5,0,0,0,.35.15H21.5A2.5,2.5,0,0,1,24,18.5v4a.5.5,0,0,0,.5.5,5.5,5.5,0,0,0,0-11Z" style="fill: #303c42"/>
    </g>
  </g>
</svg>
