<svg xmlns="http://www.w3.org/2000/svg" viewBox="0 0 24 24">
  <title>Clouds</title>
  <g id="Clouds">
    <g>
      <path d="M19.43,12.44A7.48,7.48,0,0,0,6.6,8.32a.5.5,0,0,0,.26.83,6.5,6.5,0,0,1,1.91.72.5.5,0,0,1,.18.68.51.51,0,0,1-.68.18A5.57,5.57,0,0,0,5.64,10H5.5a5.5,5.5,0,1,0,0,11h12a4.5,4.5,0,0,0,1.93-8.56Z" style="fill: #303c42"/>
      <path d="M22,8.33A6,6,0,0,0,16,3a5.94,5.94,0,0,0-3.48,1.13.5.5,0,0,0,.25.9,8.45,8.45,0,0,1,7.52,6.55.5.5,0,0,0,.22.31,5.49,5.49,0,0,1,1.77,1.87.5.5,0,0,0,.38.25h.06a.5.5,0,0,0,.37-.16A3.47,3.47,0,0,0,22,8.33Z" style="fill: #303c42"/>
    </g>
  </g>
</svg>
