<svg xmlns="http://www.w3.org/2000/svg" viewBox="0 0 30 30">
  <title>Disable Allarm</title>
  <g id="Disable_Allarm" data-name="Disable Allarm">
    <g>
      <g>
        <circle id="_Path_" data-name="&lt;Path&gt;" cx="13" cy="14.02" r="0.5" style="fill: none;stroke: #303c42;stroke-linecap: round;stroke-linejoin: round"/>
        <polyline id="_Path_2" data-name="&lt;Path&gt;" points="13 7.52 13 14.02 16.5 17.52" style="fill: none;stroke: #303c42;stroke-linecap: round;stroke-linejoin: round"/>
        <polyline id="_Path_3" data-name="&lt;Path&gt;" points="5.23 21.08 3.5 25.52 7 22.68" style="fill: none;stroke: #303c42;stroke-linecap: round;stroke-linejoin: round"/>
        <path d="M9,1.65A5.23,5.23,0,0,0,5.8.52,5.3,5.3,0,0,0,.5,5.81a5.24,5.24,0,0,0,.75,2.68Z" style="fill: none;stroke: #303c42;stroke-linecap: round;stroke-linejoin: round"/>
        <path d="M24.37,9A5.23,5.23,0,0,0,25.5,5.8,5.3,5.3,0,0,0,20.2.5a5.24,5.24,0,0,0-2.68.75Z" style="fill: none;stroke: #303c42;stroke-linecap: round;stroke-linejoin: round"/>
        <path d="M22.88,17.55a10.53,10.53,0,1,0-5.38,5.94" style="fill: none;stroke: #303c42;stroke-linecap: round;stroke-linejoin: round"/>
      </g>
      <g id="_Group_" data-name="&lt;Group&gt;">
        <circle id="_Path_4" data-name="&lt;Path&gt;" cx="23.5" cy="23.5" r="6" style="fill: none;stroke: #303c42;stroke-linecap: round;stroke-linejoin: round"/>
      </g>
      <line x1="19.25" y1="19.25" x2="27.75" y2="27.75" style="fill: none;stroke: #303c42;stroke-linecap: round;stroke-linejoin: round"/>
    </g>
  </g>
</svg>
