<svg xmlns="http://www.w3.org/2000/svg" viewBox="0 0 30 30">
  <title>Disable Allarm</title>
  <g id="Disable_Allarm" data-name="Disable Allarm">
    <g>
      <path d="M23.39,16a.5.5,0,0,0,.49-.43A11,11,0,1,0,4.66,21.17L3,25.34a.5.5,0,0,0,.78.57l3.25-2.64A10.92,10.92,0,0,0,13,25a11.06,11.06,0,0,0,2.66-.34.5.5,0,0,0,.38-.53c0-.22,0-.43,0-.65A7.53,7.53,0,0,1,23.39,16ZM13.24,15A1,1,0,0,1,13,15a1,1,0,0,1-1-1,1,1,0,0,1,.5-.85V7.5a.5.5,0,0,1,1,0v5.65A1,1,0,0,1,14,14a1,1,0,0,1,0,.24l2.9,2.9a.5.5,0,1,1-.71.71Z" style="fill: #303c42"/>
      <path d="M9.52,1.63a.5.5,0,0,0-.19-.38A5.72,5.72,0,0,0,5.8,0a5.77,5.77,0,0,0-5,8.73A.5.5,0,0,0,1.17,9h.08a.5.5,0,0,0,.33-.12L9.35,2A.5.5,0,0,0,9.52,1.63Z" style="fill: #303c42"/>
      <path d="M24,9.35a.5.5,0,0,0,.38.17h0a.5.5,0,0,0,.38-.19A5.72,5.72,0,0,0,26,5.8a5.77,5.77,0,0,0-8.73-5,.5.5,0,0,0-.12.76Z" style="fill: #303c42"/>
      <path d="M23.5,17A6.5,6.5,0,1,0,30,23.5,6.51,6.51,0,0,0,23.5,17ZM19,23.5a4.46,4.46,0,0,1,.7-2.39l6.19,6.19a4.46,4.46,0,0,1-2.39.7A4.5,4.5,0,0,1,19,23.5Zm8.3,2.39L21.11,19.7A4.46,4.46,0,0,1,23.5,19,4.5,4.5,0,0,1,28,23.5,4.46,4.46,0,0,1,27.3,25.89Z" style="fill: #303c42"/>
    </g>
  </g>
</svg>
