<svg xmlns="http://www.w3.org/2000/svg" viewBox="0 0 24 24">
  <title>Kitchen Timer</title>
  <g id="Kitchen_Timer" data-name="Kitchen Timer">
    <g>
      <path d="M20.55,15h-17a.49.49,0,0,0-.36.16.48.48,0,0,0-.12.37,11.16,11.16,0,0,0,5.17,8.37.49.49,0,0,0,.25.07h7.11a.49.49,0,0,0,.25-.07A11.16,11.16,0,0,0,21,15.57a.48.48,0,0,0-.12-.37A.49.49,0,0,0,20.55,15Zm-8.49,3a1,1,0,1,1,1-1A1,1,0,0,1,12.06,18Z" style="fill: #303c42"/>
      <path d="M3.55,14h17a.49.49,0,0,0,.36-.16.48.48,0,0,0,.13-.37C20.59,8.13,16.76,0,12.06,0s-8.53,8.09-9,13.44a.48.48,0,0,0,.13.37A.49.49,0,0,0,3.55,14ZM16.06,11.5a.5.5,0,0,1,1,0v1a.5.5,0,0,1-1,0Zm-4.5,0a.5.5,0,0,1,1,0v1a.5.5,0,0,1-1,0Zm-4.5,0a.5.5,0,0,1,1,0v1a.5.5,0,0,1-1,0Z" style="fill: #303c42"/>
    </g>
  </g>
</svg>
