<svg xmlns="http://www.w3.org/2000/svg" viewBox="0 0 24 24">
  <title>Plane Lift Off</title>
  <g id="Plane_Lift_Off" data-name="Plane Lift Off">
    <g>
      <path d="M17.14,15.84a.5.5,0,0,0,.59.1l2-1a.5.5,0,0,0,.26-.57L18.52,8.63a37.13,37.13,0,0,0,3.16-2.84c.61-.62,1.83-2.48,1.08-3.24-.6-.6-3.78-1.2-7.44,1h0a18.61,18.61,0,0,0-2,1.44H4a.5.5,0,0,0-.36.15L1.94,6.9a.5.5,0,0,0,.2.82L7.77,9.61c-.85.75-1.68,1.49-2.44,2.17L1.76,10.4a.5.5,0,0,0-.54.12L.14,11.65a.5.5,0,0,0,0,.65l2,2.5a1.41,1.41,0,0,0,1.67,2.1,67.42,67.42,0,0,0,9.88-4.75Z" style="fill: #303c42"/>
      <rect x="8" y="20" width="16" height="2" rx="0.5" ry="0.5" style="fill: #303c42"/>
    </g>
  </g>
</svg>
