<svg xmlns="http://www.w3.org/2000/svg" viewBox="0 0 30 30">
  <title>Ball</title>
  <g id="Ball">
    <path d="M15,0A15,15,0,1,0,30,15,15,15,0,0,0,15,0Zm2,9.5a1.48,1.48,0,0,1,0,.21h0a.45.45,0,0,0,0,.07,1.49,1.49,0,1,1,0-.28Zm3.19-6.41C19,4.79,18,6.23,16.92,7.45A2.48,2.48,0,0,0,15.5,7h-.1C14.73,5.35,14,3.72,13.26,2.13a12.59,12.59,0,0,1,6.93,1ZM2,15A12.9,12.9,0,0,1,3.86,8.33,65.06,65.06,0,0,1,13,9.09a2.3,2.3,0,0,0,.25,1.56A51.75,51.75,0,0,0,5.68,24,13,13,0,0,1,2,15Zm21.5,9.82-.67-1.22A85.65,85.65,0,0,1,17,11.49a2.5,2.5,0,0,0,.85-1.15,76,76,0,0,0,9.55.74,13,13,0,0,1-3.9,13.74Z" style="fill: #303c42"/>
  </g>
</svg>
