<svg xmlns="http://www.w3.org/2000/svg" viewBox="0 0 24 24">
  <title>Ball</title>
  <g id="Ball">
    <path d="M12,0A12,12,0,1,0,24,12,12,12,0,0,0,12,0Zm3.81,2.76a31.07,31.07,0,0,1-2,2.63A2.32,2.32,0,0,0,12.11,5c-.4-1-.84-2-1.29-3a9.77,9.77,0,0,1,5,.68ZM2,12A9.92,9.92,0,0,1,3.44,6.85,43.67,43.67,0,0,1,10,7.41s0,.06,0,.09a2.47,2.47,0,0,0,.56,1.56A40.07,40.07,0,0,0,4.69,18.8,10,10,0,0,1,2,12Zm16.61,7.49-.33-.59A63.42,63.42,0,0,1,13.66,9.7a2.5,2.5,0,0,0,1.17-1.3,46.29,46.29,0,0,0,6.69.53,9.95,9.95,0,0,1-2.9,10.56Z" style="fill: #303c42"/>
  </g>
</svg>
