<svg xmlns="http://www.w3.org/2000/svg" viewBox="0 0 30 30">
  <title>VGA Port</title>
  <g id="VGA_Port" data-name="VGA Port">
    <g>
      <path d="M28,5H2A2,2,0,0,0,0,7V23a2,2,0,0,0,2,2H28a2,2,0,0,0,2-2V7A2,2,0,0,0,28,5ZM4,16a1,1,0,1,1,1-1A1,1,0,0,1,4,16Zm19-3.16-.88,5.28A2.05,2.05,0,0,1,20.24,20H9.76a2.05,2.05,0,0,1-1.84-1.88L7,12.84a3,3,0,0,1,0-.48A2.16,2.16,0,0,1,8.88,10H21.12A2.16,2.16,0,0,1,23,12.36,3,3,0,0,1,23,12.84ZM26,16a1,1,0,1,1,1-1A1,1,0,0,1,26,16Z" style="fill: #303c42"/>
      <circle cx="9.5" cy="12.5" r="0.5" style="fill: #303c42"/>
      <circle cx="11.5" cy="12.5" r="0.5" style="fill: #303c42"/>
      <circle cx="13.5" cy="12.5" r="0.5" style="fill: #303c42"/>
      <circle cx="15.5" cy="12.5" r="0.5" style="fill: #303c42"/>
      <circle cx="17.5" cy="12.5" r="0.5" style="fill: #303c42"/>
      <circle cx="19.5" cy="12.5" r="0.5" style="fill: #303c42"/>
      <circle cx="10.5" cy="15" r="0.5" style="fill: #303c42"/>
      <circle cx="12.5" cy="15" r="0.5" style="fill: #303c42"/>
      <circle cx="14.5" cy="15" r="0.5" style="fill: #303c42"/>
      <circle cx="16.5" cy="15" r="0.5" style="fill: #303c42"/>
      <circle cx="18.5" cy="15" r="0.5" style="fill: #303c42"/>
      <circle cx="20.5" cy="15" r="0.5" style="fill: #303c42"/>
      <circle cx="9.5" cy="17.5" r="0.5" style="fill: #303c42"/>
      <circle cx="11.5" cy="17.5" r="0.5" style="fill: #303c42"/>
      <circle cx="13.5" cy="17.5" r="0.5" style="fill: #303c42"/>
      <circle cx="15.5" cy="17.5" r="0.5" style="fill: #303c42"/>
      <circle cx="17.5" cy="17.5" r="0.5" style="fill: #303c42"/>
      <circle cx="19.5" cy="17.5" r="0.5" style="fill: #303c42"/>
    </g>
  </g>
</svg>
