<svg xmlns="http://www.w3.org/2000/svg" viewBox="0 0 24 24">
  <title>VGA Port</title>
  <g id="VGA_Port" data-name="VGA Port">
    <g>
      <path d="M22,4H2A2,2,0,0,0,0,6V18a2,2,0,0,0,2,2H22a2,2,0,0,0,2-2V6A2,2,0,0,0,22,4ZM3,13a1,1,0,1,1,1-1A1,1,0,0,1,3,13Zm15.47-2.6-.72,3.84a1.5,1.5,0,0,1-1.43,1.26H7.68a1.5,1.5,0,0,1-1.43-1.26L5.53,10.4a1.71,1.71,0,0,1,0-.32A1.53,1.53,0,0,1,7,8.5H17a1.53,1.53,0,0,1,1.46,1.58A1.71,1.71,0,0,1,18.47,10.4ZM21,13a1,1,0,1,1,1-1A1,1,0,0,1,21,13Z" style="fill: #303c42"/>
      <circle cx="7.5" cy="10" r="0.5" style="fill: #303c42"/>
      <circle cx="9.5" cy="10" r="0.5" style="fill: #303c42"/>
      <circle cx="11.5" cy="10" r="0.5" style="fill: #303c42"/>
      <circle cx="13.5" cy="10" r="0.5" style="fill: #303c42"/>
      <circle cx="15.5" cy="10" r="0.5" style="fill: #303c42"/>
      <circle cx="7.5" cy="14" r="0.5" style="fill: #303c42"/>
      <circle cx="9.5" cy="14" r="0.5" style="fill: #303c42"/>
      <circle cx="11.5" cy="14" r="0.5" style="fill: #303c42"/>
      <circle cx="13.5" cy="14" r="0.5" style="fill: #303c42"/>
      <circle cx="15.5" cy="14" r="0.5" style="fill: #303c42"/>
      <circle cx="8.5" cy="12" r="0.5" style="fill: #303c42"/>
      <circle cx="10.5" cy="12" r="0.5" style="fill: #303c42"/>
      <circle cx="12.5" cy="12" r="0.5" style="fill: #303c42"/>
      <circle cx="14.5" cy="12" r="0.5" style="fill: #303c42"/>
      <circle cx="16.5" cy="12" r="0.5" style="fill: #303c42"/>
    </g>
  </g>
</svg>
