<svg xmlns="http://www.w3.org/2000/svg" viewBox="0 0 30 30">
  <title>Toad Mushroom</title>
  <g id="Toad_Mushroom" data-name="Toad Mushroom">
    <g>
      <path d="M11,22c-.87,0-1,1.57-1,2.5s.13,2.5,1,2.5,1-1.57,1-2.5S11.87,22,11,22Z" style="fill: #303c42"/>
      <path d="M19,22c-.87,0-1,1.57-1,2.5s.13,2.5,1,2.5,1-1.57,1-2.5S19.87,22,19,22Z" style="fill: #303c42"/>
      <path d="M28,7.53A15,15,0,0,0,2.21,7.19h0A15,15,0,0,0,0,15a11.72,11.72,0,0,0,.37,3h0a9.5,9.5,0,0,0,4.82,6C5.89,28.87,8,30,15,30c6.78,0,9-1.06,9.75-5.61a9.23,9.23,0,0,0,5-6.68A13.79,13.79,0,0,0,30,15,15,15,0,0,0,28,7.53ZM1.19,17.07A11,11,0,0,1,1,15,14,14,0,0,1,2.72,8.3,6,6,0,0,1,4,12,6,6,0,0,1,1.19,17.07ZM15,2A7,7,0,1,1,8,9,7,7,0,0,1,15,2Zm0,27c-7.62,0-8.57-1.27-9-6.65C7.87,20.28,11.29,19,15,19s7.13,1.28,9,3.35C23.57,27.73,22.62,29,15,29ZM28.87,16.77A6,6,0,0,1,27.49,8.7,14,14,0,0,1,29,15,12.5,12.5,0,0,1,28.87,16.77Z" style="fill: #303c42"/>
    </g>
  </g>
</svg>
