<svg xmlns="http://www.w3.org/2000/svg" viewBox="0 0 30 30">
  <title>Space Invadors</title>
  <g id="Space_Invadors" data-name="Space Invadors">
    <g>
      <rect x="9.5" y="23.5" width="4" height="2" style="fill: none;stroke: #303c42;stroke-linecap: round;stroke-linejoin: round"/>
      <rect x="4.5" y="4.5" width="3" height="3" style="fill: none;stroke: #303c42;stroke-linecap: round;stroke-linejoin: round"/>
      <rect x="7.5" y="11.5" width="3" height="3" style="fill: none;stroke: #303c42;stroke-linecap: round;stroke-linejoin: round"/>
      <rect x="19.5" y="11.5" width="3" height="3" style="fill: none;stroke: #303c42;stroke-linecap: round;stroke-linejoin: round"/>
      <polygon points="27.5 15.5 27.5 13.5 24.5 13.5 24.5 9.5 22.5 9.5 22.5 7.5 19.5 7.5 19.5 9.5 10.5 9.5 10.5 7.5 7.5 7.5 7.5 9.5 5.5 9.5 5.5 13.5 2.5 13.5 2.5 15.5 0.5 15.5 0.5 23.5 3.5 23.5 3.5 18.5 6.5 18.5 6.5 23.5 9.5 23.5 9.5 20.5 20.5 20.5 20.5 23.5 23.5 23.5 23.5 18.5 26.5 18.5 26.5 23.5 29.5 23.5 29.5 15.5 27.5 15.5" style="fill: none;stroke: #303c42;stroke-linecap: round;stroke-linejoin: round"/>
      <rect x="16.5" y="23.5" width="4" height="2" style="fill: none;stroke: #303c42;stroke-linecap: round;stroke-linejoin: round"/>
      <rect x="22.5" y="4.5" width="3" height="3" style="fill: none;stroke: #303c42;stroke-linecap: round;stroke-linejoin: round"/>
    </g>
  </g>
</svg>
