<svg xmlns="http://www.w3.org/2000/svg" viewBox="0 0 24 24">
  <title>Toad Mushroom</title>
  <g id="Toad_Mushroom" data-name="Toad Mushroom">
    <g id="_Group_" data-name="&lt;Group&gt;">
      <path d="M21.93,5.27l0,0a12,12,0,0,0-19.79,0l0,0A11.93,11.93,0,0,0,0,12a7.73,7.73,0,0,0,4.2,7.23C4.75,23.1,6.44,24,12,24c5.41,0,7.15-.84,7.75-4.44C22.56,18.1,24,15.57,24,12A11.93,11.93,0,0,0,21.93,5.27ZM1.11,13.35A8.79,8.79,0,0,1,1,12,10.92,10.92,0,0,1,2.47,6.54,6,6,0,0,1,3,9,6,6,0,0,1,1.11,13.35ZM12,1A6,6,0,1,1,6,7,6,6,0,0,1,12,1Zm0,22c-5.85,0-6.61-1-6.93-5A9.6,9.6,0,0,1,12,15.5,9.6,9.6,0,0,1,18.93,18C18.61,22,17.85,23,12,23ZM21,9a6,6,0,0,1,.53-2.46,10.81,10.81,0,0,1,1.37,6.84A6,6,0,0,1,21,9Z" style="fill: #303c42"/>
    </g>
  </g>
</svg>
