<svg xmlns="http://www.w3.org/2000/svg" viewBox="0 0 24 24">
  <title>Strom Day</title>
  <g id="Strom_Day" data-name="Strom Day">
    <g>
      <path d="M2.72,20.05a.5.5,0,0,0-.53.05L.64,21.29A1.47,1.47,0,0,0,0,22.5a1.5,1.5,0,0,0,3,0v-2A.5.5,0,0,0,2.72,20.05Z" style="fill: #303c42"/>
      <path d="M15.72,20.05a.5.5,0,0,0-.53.05l-1.55,1.19A1.47,1.47,0,0,0,13,22.5a1.5,1.5,0,0,0,3,0v-2A.5.5,0,0,0,15.72,20.05Z" style="fill: #303c42"/>
      <path d="M23.5,7H22a5.47,5.47,0,0,0-1.25-3L21.8,2.9a.5.5,0,0,0-.71-.71L20,3.28A5.47,5.47,0,0,0,17,2V.5a.5.5,0,1,0-1,0V2A5.44,5.44,0,0,0,13,3.3L11.9,2.2a.5.5,0,0,0-.71.71L12.33,4a.49.49,0,0,0,0,.26.5.5,0,0,0,.29.35,8,8,0,0,1,3.68,3.13.51.51,0,0,0,.45.23A6,6,0,0,1,20.9,9.45a.5.5,0,0,0,.33.12l.13,0a.5.5,0,0,0,.34-.32A5.53,5.53,0,0,0,22,8H23.5a.5.5,0,0,0,0-1Z" style="fill: #303c42"/>
      <path d="M17,9a5,5,0,0,0-2.79.85.51.51,0,0,1-.7-.13A.5.5,0,0,1,13.65,9a5.9,5.9,0,0,1,1.13-.58A.5.5,0,0,0,15,7.67,7,7,0,0,0,3,9.33a.5.5,0,0,0,.51.69L4,10a.5.5,0,0,1,0,1,4,4,0,1,0,0,8H5l-.38.29A1.47,1.47,0,0,0,4,20.5a1.5,1.5,0,0,0,3,0V19a.5.5,0,0,0,.45-.39L8,15.71a1.5,1.5,0,0,1,1.71-1.19.5.5,0,0,0,.58-.44l.19-1.75a1.49,1.49,0,0,1,.68-1.1,1.52,1.52,0,0,1,1.28-.16l3,1a1.49,1.49,0,0,1,1,1.86l-1.36,4.41a.5.5,0,0,0,.48.65H17A5,5,0,1,0,17,9Z" style="fill: #303c42"/>
      <path d="M13.48,20.15l2-6.5a.5.5,0,0,0-.32-.62l-3-1a.49.49,0,0,0-.43.05.5.5,0,0,0-.23.37l-.42,3.79-1.36-.68A.5.5,0,0,0,9,15.9l-1.5,7.5a.5.5,0,0,0,.91.38l2.76-4.13,1.6.8a.49.49,0,0,0,.42,0A.5.5,0,0,0,13.48,20.15Z" style="fill: #303c42"/>
    </g>
  </g>
</svg>
