<svg xmlns="http://www.w3.org/2000/svg" viewBox="0 0 24 24">
  <title>Half Moon 2</title>
  <g id="Half_Moon_2" data-name="Half Moon 2">
    <path d="M16.5,12A15.16,15.16,0,0,1,20.86,1.84a.5.5,0,0,0-.14-.79A13.63,13.63,0,0,0,15,0a12,12,0,0,0,0,24,13.63,13.63,0,0,0,5.72-1.05.5.5,0,0,0,.14-.79A15.16,15.16,0,0,1,16.5,12ZM9.72,17.6a1,1,0,0,1-.79.4c-.83,0-1.56-1-1.81-1.86a2,2,0,0,1,.16-1.74,1,1,0,0,1,.79-.4c.83,0,1.56,1,1.81,1.86A2,2,0,0,1,9.72,17.6ZM8,13a2.29,2.29,0,0,1-2-2.5A2.29,2.29,0,0,1,8,8a2.29,2.29,0,0,1,2,2.5A2.29,2.29,0,0,1,8,13Z" style="fill: #303c42"/>
  </g>
</svg>
