<svg xmlns="http://www.w3.org/2000/svg" viewBox="0 0 30 30">
  <title>Strom Day</title>
  <g id="Strom_Day" data-name="Strom Day">
    <g>
      <path d="M1,27.24H1L3,26v2.25a1.25,1.25,0,1,1-2.5,0A1.23,1.23,0,0,1,1,27.24Z" style="fill: none;stroke: #303c42;stroke-linecap: round;stroke-linejoin: round"/>
      <path d="M6.55,24.74h0l2-1.24v2.25a1.25,1.25,0,0,1-2.5,0A1.23,1.23,0,0,1,6.55,24.74Z" style="fill: none;stroke: #303c42;stroke-linecap: round;stroke-linejoin: round"/>
      <path d="M16.55,27.24h0l2-1.24v2.25a1.25,1.25,0,0,1-2.5,0A1.23,1.23,0,0,1,16.55,27.24Z" style="fill: none;stroke: #303c42;stroke-linecap: round;stroke-linejoin: round"/>
      <line x1="29.5" y1="9" x2="27.5" y2="9" style="fill: none;stroke: #303c42;stroke-linecap: round;stroke-linejoin: round"/>
      <line x1="21" y1="2.5" x2="21" y2="0.5" style="fill: none;stroke: #303c42;stroke-linecap: round;stroke-linejoin: round"/>
      <line x1="16.4" y1="4.4" x2="14.99" y2="2.99" style="fill: none;stroke: #303c42;stroke-linecap: round;stroke-linejoin: round"/>
      <line x1="25.6" y1="4.4" x2="27.01" y2="2.99" style="fill: none;stroke: #303c42;stroke-linecap: round;stroke-linejoin: round"/>
      <path d="M21.14,12.57a5.46,5.46,0,0,0-1.23.34" style="fill: none;stroke: #303c42;stroke-linecap: round;stroke-linejoin: round"/>
      <path d="M6.48,14.75A4.49,4.49,0,0,0,5,14.5l-.46,0" style="fill: none;stroke: #303c42;stroke-linecap: round;stroke-linejoin: round"/>
      <path d="M25.46,13.72a6.5,6.5,0,1,0-10.54-7" style="fill: none;stroke: #303c42;stroke-linecap: round;stroke-linejoin: round"/>
      <path d="M16.59,23.5H22a5.5,5.5,0,1,0-.86-10.93,8.49,8.49,0,0,0-16.62,2,4.49,4.49,0,0,0,.48,9h5.83" style="fill: none;stroke: #303c42;stroke-linecap: round;stroke-linejoin: round"/>
      <polygon points="15 15.5 18.5 17 16 25.5 13.5 24 9.5 29.5 11.5 20.5 14 21.5 15 15.5" style="fill: none;stroke: #303c42;stroke-linecap: round;stroke-linejoin: round"/>
    </g>
  </g>
</svg>
