<svg xmlns="http://www.w3.org/2000/svg" viewBox="0 0 30 30">
  <title>Sunrise</title>
  <g id="Sunrise">
    <g>
      <path d="M29.5,21a37.28,37.28,0,0,0-4,.17A10.9,10.9,0,0,0,26,18.5H29.5a.5.5,0,0,0,0-1H26a10.94,10.94,0,0,0-2.86-6.9l2.5-2.5a.5.5,0,0,0-.71-.71l-2.5,2.5A10.94,10.94,0,0,0,15.5,7V3.5a.5.5,0,0,0-1,0V7A10.94,10.94,0,0,0,7.6,9.89L5.1,7.39a.5.5,0,0,0-.71.71l2.5,2.5A10.94,10.94,0,0,0,4,17.5H.5a.5.5,0,0,0,0,1H4a10.9,10.9,0,0,0,.46,2.67A37.25,37.25,0,0,0,.5,21a.5.5,0,0,0,0,1,25.65,25.65,0,0,1,5.92.49,22,22,0,0,0,3.52.45h0a.5.5,0,0,0,.41-.79,2,2,0,0,1,.21-2.56l3-3a2,2,0,0,1,2.83,0l3,3a2,2,0,0,1,.21,2.56.5.5,0,0,0,.41.79h0a22,22,0,0,0,3.52-.45A25.69,25.69,0,0,1,29.5,22a.5.5,0,0,0,0-1Z" style="fill: #303c42"/>
      <path d="M15.71,17.29a1,1,0,0,0-1.41,0l-2.65,2.65a.5.5,0,0,0,0,.71l.71.71a.5.5,0,0,0,.71,0l.94-.94V26.5a.5.5,0,0,0,.5.5h1a.5.5,0,0,0,.5-.5V20.41l.94.94a.5.5,0,0,0,.71,0l.71-.71a.5.5,0,0,0,0-.71Z" style="fill: #303c42"/>
    </g>
  </g>
</svg>
