<svg xmlns="http://www.w3.org/2000/svg" viewBox="0 0 30 30">
  <title>Strom Day</title>
  <g id="Strom_Day" data-name="Strom Day">
    <g>
      <path d="M3.24,25.56a.5.5,0,0,0-.51,0l-2,1.24h0A1.72,1.72,0,0,0,0,28.25a1.75,1.75,0,0,0,3.5,0V26A.5.5,0,0,0,3.24,25.56Z" style="fill: #303c42"/>
      <path d="M18.74,25.56a.5.5,0,0,0-.51,0l-2,1.24h0a1.72,1.72,0,0,0-.76,1.42,1.75,1.75,0,0,0,3.5,0V26A.5.5,0,0,0,18.74,25.56Z" style="fill: #303c42"/>
      <path d="M29.5,8.5H28a7,7,0,0,0-1.69-4.08l1.08-1.08a.5.5,0,0,0-.71-.71L25.58,3.72A7,7,0,0,0,21.5,2V.5a.5.5,0,1,0-1,0V2a6.92,6.92,0,0,0-4.07,1.7L15.34,2.64a.5.5,0,0,0-.71.71l1.09,1.09-.17.18a.5.5,0,0,0,.25.79A10.08,10.08,0,0,1,22,10.73a.5.5,0,0,0,.42.28,6.94,6.94,0,0,1,3.91,1.53.5.5,0,0,0,.31.11h.1a.5.5,0,0,0,.34-.25A7,7,0,0,0,28,9.5H29.5a.5.5,0,0,0,0-1Z" style="fill: #303c42"/>
      <path d="M22,12a5.93,5.93,0,0,0-2.61.6.5.5,0,1,1-.44-.9,6.91,6.91,0,0,1,1.48-.52.5.5,0,0,0,.32-.74A9,9,0,0,0,13,6a8.94,8.94,0,0,0-8.58,6.36.52.52,0,0,0,.13.44A.61.61,0,0,0,5,13a6,6,0,0,1,2,.33.5.5,0,0,1,.31.64.5.5,0,0,1-.25.29.5.5,0,0,1-.38,0A5,5,0,1,0,5,24H6.78l-.51.32h0a1.72,1.72,0,0,0-.76,1.42,1.75,1.75,0,0,0,3.5,0V23.94a.5.5,0,0,0,.27-.34L10,20.17a1.49,1.49,0,0,1,.76-1,1.51,1.51,0,0,1,1.26-.07l.19.08a.5.5,0,0,0,.68-.38l.59-3.55a1.49,1.49,0,0,1,.76-1.07,1.52,1.52,0,0,1,1.31-.06l3.5,1.5a1.5,1.5,0,0,1,.85,1.8l-1.75,5.94a.5.5,0,0,0,.48.64H22a6,6,0,0,0,0-12Z" style="fill: #303c42"/>
      <path d="M16.18,26a.5.5,0,0,0,.3-.32l2.5-8.5a.5.5,0,0,0-.28-.6L15.2,15a.5.5,0,0,0-.69.38l-.9,5.39L11.69,20a.5.5,0,0,0-.42,0,.5.5,0,0,0-.25.33l-2,9a.5.5,0,0,0,.28.56.49.49,0,0,0,.21,0,.5.5,0,0,0,.4-.21l3.73-5.13,2.11,1.26A.5.5,0,0,0,16.18,26Z" style="fill: #303c42"/>
    </g>
  </g>
</svg>
