<svg xmlns="http://www.w3.org/2000/svg" viewBox="0 0 30 30">
  <title>Wind Turbine</title>
  <g id="Wind_Turbine" data-name="Wind Turbine">
    <g>
      <path d="M26.36,17.93s-4.79-3.35-6.42-4.57L17.31,9.7c0-.45-.16-2.11-.65-8.27a1.68,1.68,0,0,0-3.32.05c-.48,6.12-.61,7.77-.64,8.22l-2.63,3.67C8.43,14.58,3.69,17.9,3.6,18a1.75,1.75,0,0,0-.38,2.17,1.61,1.61,0,0,0,2.08.74s5.56-2.51,7.47-3.38h4.62l7.35,3.4a1.73,1.73,0,0,0,.58.1,1.66,1.66,0,0,0,1.46-.86A1.76,1.76,0,0,0,26.36,17.93ZM15,15a1,1,0,1,1,1-1A1,1,0,0,1,15,15Z" style="fill: #303c42"/>
      <path d="M16.74,18.5H13.26a.5.5,0,0,0-.5.44L11.5,29.44A.5.5,0,0,0,12,30h6a.5.5,0,0,0,.5-.56l-1.26-10.5A.5.5,0,0,0,16.74,18.5Z" style="fill: #303c42"/>
    </g>
  </g>
</svg>
