<svg xmlns="http://www.w3.org/2000/svg" viewBox="0 0 24 24">
  <title>Wind Turbine</title>
  <g id="Wind_Turbine" data-name="Wind Turbine">
    <g>
      <path d="M21.43,14.36s-3.93-2.66-5.29-3.64L14,7.82c0-.41-.14-1.8-.53-6.6a1.48,1.48,0,0,0-2.92.05C10.15,6,10,7.41,10,7.82l-2.15,2.9c-1.36,1-5.25,3.62-5.34,3.68a1.49,1.49,0,0,0-.33,1.87A1.46,1.46,0,0,0,3.48,17,1.57,1.57,0,0,0,4,16.89S8.55,14.71,10.11,14h3.79c1.56.71,6,2.87,6.13,2.92a1.54,1.54,0,0,0,.5.08h0a1.46,1.46,0,0,0,1.28-.73A1.51,1.51,0,0,0,21.43,14.36ZM12,12a1,1,0,1,1,1-1A1,1,0,0,1,12,12Z" style="fill: #303c42"/>
      <path d="M13.57,15H10.7a.5.5,0,0,0-.49.43l-1.2,8A.5.5,0,0,0,9.5,24h5a.5.5,0,0,0,.5-.56l-.93-8A.5.5,0,0,0,13.57,15Z" style="fill: #303c42"/>
    </g>
  </g>
</svg>
