<svg xmlns="http://www.w3.org/2000/svg" viewBox="0 0 30 30">
  <title>Eco User</title>
  <g id="Eco_User" data-name="Eco User">
    <g>
      <circle id="_Path_" data-name="&lt;Path&gt;" cx="13" cy="7" r="6.5" style="fill: none;stroke: #303c42;stroke-linecap: round;stroke-linejoin: round"/>
      <path d="M24.88,20.26a4.91,4.91,0,0,0-2-2A21.5,21.5,0,0,0,13,15.5a21.5,21.5,0,0,0-9.89,2.75A5,5,0,0,0,.5,22.71V24A1.5,1.5,0,0,0,2,25.5H19.55" style="fill: none;stroke: #303c42;stroke-linecap: round;stroke-linejoin: round"/>
      <path id="_Path_2" data-name="&lt;Path&gt;" d="M28.71,19.5c-4.06,0-9.21,2.94-9.21,6.58a3.6,3.6,0,0,0,3.42,3.42c3.64,0,6.58-5.15,6.58-9.21A.79.79,0,0,0,28.71,19.5Z" style="fill: none;stroke: #303c42;stroke-linecap: round;stroke-linejoin: round"/>
      <path id="_Path_3" data-name="&lt;Path&gt;" d="M27,22c-3.52,1.51-6.16,3.18-7.5,7.5" style="fill: none;stroke: #303c42;stroke-linecap: round;stroke-linejoin: round"/>
    </g>
  </g>
</svg>
