<svg xmlns="http://www.w3.org/2000/svg" viewBox="0 0 30 30">
  <title>Toddler 3</title>
  <g id="Toddler_3" data-name="Toddler 3">
    <g>
      <circle cx="24.5" cy="9.5" r="5" style="fill: none;stroke: #303c42;stroke-linecap: round;stroke-linejoin: round"/>
      <line x1="9.5" y1="19" x2="9.5" y2="10.5" style="fill: none;stroke: #303c42;stroke-linecap: round;stroke-linejoin: round"/>
      <line x1="9.5" y1="18.5" x2="3.15" y2="18.5" style="fill: none;stroke: #303c42;stroke-linecap: round;stroke-linejoin: round"/>
      <path d="M4.55,20.55l.95.95h-3a2,2,0,0,0-2,2h0a2,2,0,0,0,2,2h5a2,2,0,0,0,2-2v-5h8l2.9,5.81a2.16,2.16,0,0,0,1.93,1.19h0a2.16,2.16,0,0,0,2.16-2.16V23a2.16,2.16,0,0,0-.2-.9l-4.23-9.24a4,4,0,0,0-3.64-2.33H7.5a5,5,0,0,0-5,5v.1A7,7,0,0,0,4.55,20.55Z" style="fill: none;stroke: #303c42;stroke-linecap: round;stroke-linejoin: round"/>
    </g>
  </g>
</svg>
