<svg xmlns="http://www.w3.org/2000/svg" viewBox="0 0 30 30">
  <title>Call</title>
  <g id="Call">
    <g id="_Group_" data-name="&lt;Group&gt;">
      <path id="_Path_" data-name="&lt;Path&gt;" d="M8.5,13.5a14.72,14.72,0,0,0,7,7L18,18.71a1.16,1.16,0,0,1,1.19-.28,13.31,13.31,0,0,0,4.16.66,1.17,1.17,0,0,1,1.17,1.17v4.07a1.17,1.17,0,0,1-1.17,1.17A19.83,19.83,0,0,1,3.5,5.67,1.17,1.17,0,0,1,4.67,4.5H8.75A1.17,1.17,0,0,1,9.92,5.67a13.25,13.25,0,0,0,.66,4.16A1.17,1.17,0,0,1,10.29,11Z" style="fill: none;stroke: #303c42;stroke-linecap: round;stroke-linejoin: round"/>
    </g>
  </g>
</svg>
