<svg xmlns="http://www.w3.org/2000/svg" viewBox="0 0 30 30">
  <title>Protection Helmet</title>
  <g id="Protection_Helmet" data-name="Protection Helmet">
    <g>
      <polyline points="13.59 5.5 10.5 5.5 11 13" style="fill: none;stroke: #303c42;stroke-linecap: round;stroke-linejoin: round"/>
      <path d="M13.5,16.5V6A1.5,1.5,0,0,1,15,4.5h0A1.5,1.5,0,0,1,16.5,6V16.5" style="fill: none;stroke: #303c42;stroke-linecap: round;stroke-linejoin: round"/>
      <polyline points="16.41 5.5 19.5 5.5 19 13" style="fill: none;stroke: #303c42;stroke-linecap: round;stroke-linejoin: round"/>
      <path d="M2.5,18.38c-1.27.46-2,1-2,1.56C.5,21.65,7,25.5,15,25.5s14.5-3.85,14.5-5.56c0-.57-.73-1.1-2-1.56" style="fill: none;stroke: #303c42;stroke-linecap: round;stroke-linejoin: round"/>
      <path d="M10.47,6.55A12.27,12.27,0,0,0,2.5,18v1.94S6.45,22.5,15,22.5s12.5-2.58,12.5-2.58V18a12.27,12.27,0,0,0-8-11.43" style="fill: none;stroke: #303c42;stroke-linecap: round;stroke-linejoin: round"/>
    </g>
  </g>
</svg>
