<svg xmlns="http://www.w3.org/2000/svg" viewBox="0 0 30 30">
  <title>Champagne Bottle</title>
  <g id="Champagne_Bottle" data-name="Champagne Bottle">
    <g>
      <path d="M13,5.5c-.3,6.59-3.5,6.63-3.5,12.65V28A1.5,1.5,0,0,0,11,29.5h8A1.5,1.5,0,0,0,20.5,28V18.15c0-6-3.2-6.07-3.5-12.65" style="fill: none;stroke: #303c42;stroke-linecap: round;stroke-linejoin: round"/>
      <circle cx="15" cy="14" r="0.5" style="fill: none;stroke: #303c42;stroke-linecap: round;stroke-linejoin: round"/>
      <rect x="9.5" y="20.5" width="11" height="5" style="fill: none;stroke: #303c42;stroke-linecap: round;stroke-linejoin: round"/>
      <path d="M16.37,5.5H13.63a1,1,0,0,1-1-1.12l.38-3A1,1,0,0,1,14,.5h2a1,1,0,0,1,1,.88l.38,3A1,1,0,0,1,16.37,5.5Z" style="fill: none;stroke: #303c42;stroke-linecap: round;stroke-linejoin: round"/>
      <path d="M10.62,13c1.11,2.36,2.86,5.47,4.38,5.47s3.27-3.11,4.38-5.47" style="fill: none;stroke: #303c42;stroke-linecap: round;stroke-linejoin: round"/>
    </g>
  </g>
</svg>
