<svg xmlns="http://www.w3.org/2000/svg" viewBox="0 0 30 30">
  <title>Feather</title>
  <g id="Feather">
    <g id="_Group_" data-name="&lt;Group&gt;">
      <path id="_Path_" data-name="&lt;Path&gt;" d="M2.5,27.5c11.08-11.33,11.16-9,19-17" style="fill: none;stroke: #303c42;stroke-linecap: round;stroke-linejoin: round"/>
      <path id="_Path_2" data-name="&lt;Path&gt;" d="M27.5,2.5A28.79,28.79,0,0,1,17.5,9l-1,2.5a10.85,10.85,0,0,0-.62-1.83,16.91,16.91,0,0,0-4.86,3,3.94,3.94,0,0,0,.48,1.8A2.34,2.34,0,0,1,9.81,14,17.72,17.72,0,0,0,6.5,23.23s4.55,2.22,13-6.1S27.5,2.5,27.5,2.5Z" style="fill: none;stroke: #303c42;stroke-linecap: round;stroke-linejoin: round"/>
    </g>
  </g>
</svg>
