<svg xmlns="http://www.w3.org/2000/svg" viewBox="0 0 30 30">
  <title>Chocholate</title>
  <g id="Chocholate">
    <g>
      <rect x="5.5" y="0.44" width="6" height="6" style="fill: none;stroke: #303c42;stroke-linecap: round;stroke-linejoin: round"/>
      <path d="M25.5,17.44c-3.09,0-10,7-10,7l-2-5-4,3s-2.53-5-5-5" style="fill: none;stroke: #303c42;stroke-linecap: round;stroke-linejoin: round"/>
      <rect x="11.5" y="0.44" width="6" height="6" style="fill: none;stroke: #303c42;stroke-linecap: round;stroke-linejoin: round"/>
      <rect x="5.5" y="6.44" width="6" height="6" style="fill: none;stroke: #303c42;stroke-linecap: round;stroke-linejoin: round"/>
      <rect x="11.5" y="6.44" width="6" height="6" style="fill: none;stroke: #303c42;stroke-linecap: round;stroke-linejoin: round"/>
      <rect x="17.5" y="6.44" width="6" height="6" style="fill: none;stroke: #303c42;stroke-linecap: round;stroke-linejoin: round"/>
      <polyline points="23.5 14.98 23.5 12.44 17.5 12.44 17.5 17" style="fill: none;stroke: #303c42;stroke-linecap: round;stroke-linejoin: round"/>
      <polyline points="17.5 17 17.5 12.44 11.5 12.44 11.5 17.78" style="fill: none;stroke: #303c42;stroke-linecap: round;stroke-linejoin: round"/>
      <line x1="12.56" y1="18.44" x2="14.64" y2="18.44" style="fill: none;stroke: #303c42;stroke-linecap: round;stroke-linejoin: round"/>
      <polyline points="11.5 17.78 11.5 12.44 5.5 12.44 5.5 14.87" style="fill: none;stroke: #303c42;stroke-linecap: round;stroke-linejoin: round"/>
      <path d="M4.5,14.44s9,3.74,9,5c1.85-2.52,12-5,12-5v13.5a1.5,1.5,0,0,1-1.5,1.5H6a1.5,1.5,0,0,1-1.5-1.5Z" style="fill: none;stroke: #303c42;stroke-linecap: round;stroke-linejoin: round"/>
    </g>
  </g>
</svg>
