<svg xmlns="http://www.w3.org/2000/svg" viewBox="0 0 30 30">
  <title>Bacon</title>
  <g id="Bacon">
    <g>
      <path d="M1.5,4.75c1.75,0,1.75,1,3.5,1s1.75-1,3.5-1,1.75,1,3.49,1,1.75-1,3.5-1,1.75,1,3.5,1,1.75-1,3.5-1,1.75,1,3.51,1,1.75-1,3.51-1c0,2-1,2-1,4s1,2,1,4c-1.75,0-1.75,1-3.51,1s-1.75-1-3.51-1-1.75,1-3.5,1-1.75-1-3.5-1-1.75,1-3.5,1-1.75-1-3.49-1-1.75,1-3.5,1-1.75-1-3.5-1c0-2-1-2-1-4S1.5,6.75,1.5,4.75Z" style="fill: none;stroke: #303c42;stroke-linecap: round;stroke-linejoin: round"/>
      <path d="M.5,8.75c1.75,0,1.75,1,3.5,1s1.75-1,3.5-1,1.75,1,3.49,1,1.75-1,3.5-1,1.75,1,3.5,1,1.75-1,3.5-1,1.75,1,3.51,1,1.75-1,3.51-1" style="fill: none;stroke: #303c42;stroke-linecap: round;stroke-linejoin: round"/>
      <path d="M28.5,25.75c-1.75,0-1.75-1-3.5-1s-1.75,1-3.5,1-1.75-1-3.49-1-1.75,1-3.5,1-1.75-1-3.5-1-1.75,1-3.5,1-1.75-1-3.51-1-1.75,1-3.51,1c0-2,1-2,1-4s-1-2-1-4c1.75,0,1.75-1,3.51-1s1.75,1,3.51,1,1.75-1,3.5-1,1.75,1,3.5,1,1.75-1,3.5-1,1.75,1,3.49,1,1.75-1,3.5-1,1.75,1,3.5,1c0,2,1,2,1,4S28.5,23.75,28.5,25.75Z" style="fill: none;stroke: #303c42;stroke-linecap: round;stroke-linejoin: round"/>
      <path d="M29.5,21.75c-1.75,0-1.75-1-3.5-1s-1.75,1-3.5,1-1.75-1-3.49-1-1.75,1-3.5,1-1.75-1-3.5-1-1.75,1-3.5,1-1.75-1-3.51-1-1.75,1-3.51,1" style="fill: none;stroke: #303c42;stroke-linecap: round;stroke-linejoin: round"/>
    </g>
  </g>
</svg>
