<svg xmlns="http://www.w3.org/2000/svg" viewBox="0 0 30 30">
  <title>Heandsfree</title>
  <g id="Heandsfree">
    <g id="_Group_" data-name="&lt;Group&gt;">
      <path id="_Path_" data-name="&lt;Path&gt;" d="M18.41,17.58h0l-1.27-4.22h0a1.26,1.26,0,0,0-1.21-.86c-.35,0-14.44,4.32-14.5,4.35A1.22,1.22,0,0,0,.5,18a2.09,2.09,0,0,0,0,.28l1.28,4.24h0a1.25,1.25,0,0,0,1.24,1c.2,0,14.44-4.32,14.5-4.35A1.22,1.22,0,0,0,18.5,18,1.15,1.15,0,0,0,18.41,17.58Z" style="fill: none;stroke: #303c42;stroke-linecap: round;stroke-linejoin: round"/>
      <circle id="_Path_2" data-name="&lt;Path&gt;" cx="13" cy="16" r="1" style="fill: none;stroke: #303c42;stroke-linecap: round;stroke-linejoin: round"/>
      <path d="M8.51,14.5A10.5,10.5,0,1,1,19,25.5" style="fill: none;stroke: #303c42;stroke-linecap: round;stroke-linejoin: round"/>
    </g>
  </g>
</svg>
