<svg xmlns="http://www.w3.org/2000/svg" viewBox="0 0 30 30">
  <title>Inflation</title>
  <g id="Inflation">
    <g id="_Group_" data-name="&lt;Group&gt;">
      <path id="_Path_" data-name="&lt;Path&gt;" d="M16.5,16.5H14.75a1.25,1.25,0,0,0-1.25,1.25h0A1.25,1.25,0,0,0,14.75,19h.5a1.25,1.25,0,0,1,1.25,1.25h0a1.25,1.25,0,0,1-1.25,1.25H13.5" style="fill: none;stroke: #303c42;stroke-linecap: round;stroke-linejoin: round"/>
      <line id="_Path_2" data-name="&lt;Path&gt;" x1="15" y1="16.5" x2="15" y2="15.5" style="fill: none;stroke: #303c42;stroke-linecap: round;stroke-linejoin: round"/>
      <line id="_Path_3" data-name="&lt;Path&gt;" x1="15" y1="21.5" x2="15" y2="22.5" style="fill: none;stroke: #303c42;stroke-linecap: round;stroke-linejoin: round"/>
      <circle id="_Path_4" data-name="&lt;Path&gt;" cx="8" cy="19" r="0.5" style="fill: none;stroke: #303c42;stroke-linecap: round;stroke-linejoin: round"/>
      <circle id="_Path_5" data-name="&lt;Path&gt;" cx="22" cy="19" r="0.5" style="fill: none;stroke: #303c42;stroke-linecap: round;stroke-linejoin: round"/>
      <path d="M24.55,8.5a4.43,4.43,0,0,0-.05.5A4.5,4.5,0,0,0,29,13.5a4.43,4.43,0,0,0,.5-.05" style="fill: none;stroke: #303c42;stroke-linecap: round;stroke-linejoin: round"/>
      <path d="M29.5,22.55a4.43,4.43,0,0,0-.5-.05A4.5,4.5,0,0,0,24.5,27a4.43,4.43,0,0,0,.05.5" style="fill: none;stroke: #303c42;stroke-linecap: round;stroke-linejoin: round"/>
      <path d="M5.45,27.5A4.43,4.43,0,0,0,5.5,27,4.5,4.5,0,0,0,1,22.5a4.43,4.43,0,0,0-.5.05" style="fill: none;stroke: #303c42;stroke-linecap: round;stroke-linejoin: round"/>
      <g id="_Group_2" data-name="&lt;Group&gt;">
        <path id="_Path_6" data-name="&lt;Path&gt;" d="M.5,12V26A1.5,1.5,0,0,0,2,27.5H28A1.5,1.5,0,0,0,29.5,26V10A1.5,1.5,0,0,0,28,8.5H10.69" style="fill: none;stroke: #303c42;stroke-linecap: round;stroke-linejoin: round"/>
      </g>
      <g id="_Group_3" data-name="&lt;Group&gt;">
        <path id="_Path_7" data-name="&lt;Path&gt;" d="M11.52,11.93A5.54,5.54,0,0,1,6,17.5a5.54,5.54,0,0,1-5.5-5.57c0-.1,0-.21,0-.31.09-3.2,2-4.12,2-4.12s.1,3,2,3a14.36,14.36,0,0,1,.5-4A7.63,7.63,0,0,1,7.85,2.65c0,3.71,3.3,4.34,3.63,8.69C11.5,11.53,11.52,11.72,11.52,11.93Z" style="fill: none;stroke: #303c42;stroke-linecap: round;stroke-linejoin: round"/>
      </g>
    </g>
  </g>
</svg>
