<svg xmlns="http://www.w3.org/2000/svg" viewBox="0 0 30 30">
  <title>Chef&amp;apos;s Hat 2</title>
  <g id="Chef_s_Hat_2" data-name="Chef&apos;s Hat 2">
    <g>
      <path d="M10.24,13.5c2.53,0,3.81,1,5.11,1S17,14,19,14" style="fill: none;stroke: #303c42;stroke-linecap: round;stroke-linejoin: round"/>
      <line id="_Path_" data-name="&lt;Path&gt;" x1="6.5" y1="23.5" x2="23.5" y2="23.5" style="fill: none;stroke: #303c42;stroke-linecap: round;stroke-linejoin: round"/>
      <path d="M6.5,15.86V26A1.5,1.5,0,0,0,8,27.5H22A1.5,1.5,0,0,0,23.5,26V15" style="fill: none;stroke: #303c42;stroke-linecap: round;stroke-linejoin: round"/>
      <path d="M20.78,15.5c3.07,0,6.72-2.56,6.72-6.5,0-4.83-3.36-6.5-6.72-6.5a14,14,0,0,0-6.57,2" style="fill: none;stroke: #303c42;stroke-linecap: round;stroke-linejoin: round"/>
      <path d="M20.5,8.7A16.63,16.63,0,0,0,9.42,3.5C6,3.5,2.5,5.17,2.5,10c0,3.94,3.76,6.5,6.92,6.5" style="fill: none;stroke: #303c42;stroke-linecap: round;stroke-linejoin: round"/>
    </g>
  </g>
</svg>
