<svg xmlns="http://www.w3.org/2000/svg" viewBox="0 0 30 30">
  <title>Chip</title>
  <g id="Chip">
    <g>
      <circle cx="15" cy="15" r="6.5" style="fill: none;stroke: #303c42;stroke-linecap: round;stroke-linejoin: round"/>
      <path d="M17,12H14.67A1.59,1.59,0,0,0,13,13.5h0A1.59,1.59,0,0,0,14.67,15h.67A1.59,1.59,0,0,1,17,16.5h0A1.59,1.59,0,0,1,15.33,18H13" style="fill: none;stroke: #303c42;stroke-linecap: round;stroke-linejoin: round"/>
      <line x1="15" y1="12" x2="15" y2="10.5" style="fill: none;stroke: #303c42;stroke-linecap: round;stroke-linejoin: round"/>
      <line x1="15" y1="18" x2="15" y2="19.5" style="fill: none;stroke: #303c42;stroke-linecap: round;stroke-linejoin: round"/>
      <path d="M29.19,12,26.78,13.4a1.5,1.5,0,0,1-2-.55l-3-5.2a1.5,1.5,0,0,1,.55-2l2.4-1.38" style="fill: none;stroke: #303c42;stroke-linecap: round;stroke-linejoin: round"/>
      <path d="M24.67,25.78l-2.4-1.38a1.5,1.5,0,0,1-.55-2l3-5.2a1.5,1.5,0,0,1,2-.55L29.19,18" style="fill: none;stroke: #303c42;stroke-linecap: round;stroke-linejoin: round"/>
      <path d="M10.5,28.78V26A1.5,1.5,0,0,1,12,24.5h6A1.5,1.5,0,0,1,19.5,26v2.78" style="fill: none;stroke: #303c42;stroke-linecap: round;stroke-linejoin: round"/>
      <path d="M.81,18,3.22,16.6a1.5,1.5,0,0,1,2,.55l3,5.2a1.5,1.5,0,0,1-.55,2l-2.4,1.38" style="fill: none;stroke: #303c42;stroke-linecap: round;stroke-linejoin: round"/>
      <path d="M5.33,4.22,7.72,5.6a1.5,1.5,0,0,1,.55,2l-3,5.2a1.5,1.5,0,0,1-2,.55L.81,12" style="fill: none;stroke: #303c42;stroke-linecap: round;stroke-linejoin: round"/>
      <path d="M19.5,1.22V4A1.5,1.5,0,0,1,18,5.5H12A1.5,1.5,0,0,1,10.5,4V1.22" style="fill: none;stroke: #303c42;stroke-linecap: round;stroke-linejoin: round"/>
      <circle cx="15" cy="15" r="14.5" style="fill: none;stroke: #303c42;stroke-linecap: round;stroke-linejoin: round"/>
    </g>
  </g>
</svg>
