<svg id="Money_Vision" data-name="Money Vision" xmlns="http://www.w3.org/2000/svg" viewBox="0 0 30 30">
  <title>Money Vision</title>
  <g id="_Group_" data-name="&lt;Group&gt;">
    <path id="_Path_" data-name="&lt;Path&gt;" d="M15,4.5A15.16,15.16,0,0,0,.5,15a15.26,15.26,0,0,0,29,0A15.16,15.16,0,0,0,15,4.5Z" style="fill: none;stroke: #303c42;stroke-linecap: round;stroke-linejoin: round"/>
    <circle id="_Path_2" data-name="&lt;Path&gt;" cx="15" cy="15" r="6.5" style="fill: none;stroke: #303c42;stroke-linecap: round;stroke-linejoin: round"/>
    <path id="_Path_3" data-name="&lt;Path&gt;" d="M13.5,18h1.75a1.39,1.39,0,0,0,1.25-1.5h0A1.39,1.39,0,0,0,15.25,15h-.5a1.39,1.39,0,0,1-1.25-1.5h0A1.39,1.39,0,0,1,14.75,12H16.5" style="fill: none;stroke: #303c42;stroke-linecap: round;stroke-linejoin: round"/>
    <line id="_Path_4" data-name="&lt;Path&gt;" x1="15" y1="11" x2="15" y2="12" style="fill: none;stroke: #303c42;stroke-linecap: round;stroke-linejoin: round"/>
    <line id="_Path_5" data-name="&lt;Path&gt;" x1="15" y1="18" x2="15" y2="19" style="fill: none;stroke: #303c42;stroke-linecap: round;stroke-linejoin: round"/>
  </g>
</svg>
