<svg xmlns="http://www.w3.org/2000/svg" viewBox="0 0 30 30">
  <title>Paper Shredder</title>
  <g id="Paper_Shredder" data-name="Paper Shredder">
    <g>
      <path d="M11.5,27.5a53.84,53.84,0,0,0,1-8" style="fill: none;stroke: #303c42;stroke-linecap: round;stroke-linejoin: round"/>
      <path d="M8.5,26.5a28.93,28.93,0,0,0,1.5-7" style="fill: none;stroke: #303c42;stroke-linecap: round;stroke-linejoin: round"/>
      <path d="M7.5,19.5c0,2.25-2,6-2,6" style="fill: none;stroke: #303c42;stroke-linecap: round;stroke-linejoin: round"/>
      <circle cx="25" cy="13" r="0.5" style="fill: none;stroke: #303c42;stroke-linecap: round;stroke-linejoin: round"/>
      <rect x="2.5" y="10.5" width="25" height="9" rx="1.5" ry="1.5" style="fill: none;stroke: #303c42;stroke-linecap: round;stroke-linejoin: round"/>
      <g>
        <path d="M22.5,10.5v-4l-4-4H9A1.5,1.5,0,0,0,7.5,4v6.5" style="fill: none;stroke: #303c42;stroke-linecap: round;stroke-linejoin: round"/>
        <path id="_Path_" data-name="&lt;Path&gt;" d="M18.5,2.5V5A1.5,1.5,0,0,0,20,6.5h2.5" style="fill: none;stroke: #303c42;stroke-linecap: round;stroke-linejoin: round"/>
      </g>
      <path d="M15,27.5v-8" style="fill: none;stroke: #303c42;stroke-linecap: round;stroke-linejoin: round"/>
      <path d="M18.5,27.5a53.84,53.84,0,0,1-1-8" style="fill: none;stroke: #303c42;stroke-linecap: round;stroke-linejoin: round"/>
      <path d="M21.5,26.5a28.93,28.93,0,0,1-1.5-7" style="fill: none;stroke: #303c42;stroke-linecap: round;stroke-linejoin: round"/>
      <path d="M22.5,19.5c0,2.25,2,6,2,6" style="fill: none;stroke: #303c42;stroke-linecap: round;stroke-linejoin: round"/>
    </g>
  </g>
</svg>
