<svg xmlns="http://www.w3.org/2000/svg" viewBox="0 0 30 30">
  <title>Woman 4</title>
  <g id="Woman_4" data-name="Woman 4">
    <g>
      <path id="_Path_" data-name="&lt;Path&gt;" d="M23,22.6c.82,3.49,1.46,6.9,1.46,6.9,1.29,0,1-4,1-4a4.21,4.21,0,0,1,2,1,11.32,11.32,0,0,0-2.44-5.91" style="fill: none;stroke: #303c42;stroke-linecap: round;stroke-linejoin: round"/>
      <path id="_Path_2" data-name="&lt;Path&gt;" d="M25.49,18.47s0-4.26,0-6c0-5.2-3.88-12-10.5-12L14.5,1c-6.62,0-10,6.3-10,11.5,0,2.13,0,5.83,0,5.83" style="fill: none;stroke: #303c42;stroke-linecap: round;stroke-linejoin: round"/>
      <circle id="_Path_3" data-name="&lt;Path&gt;" cx="10.5" cy="16.5" r="0.5" style="fill: none;stroke: #303c42;stroke-linecap: round;stroke-linejoin: round"/>
      <line x1="10.5" y1="16" x2="9.5" y2="16" style="fill: none;stroke: #303c42;stroke-linecap: round;stroke-linejoin: round"/>
      <circle id="_Path_4" data-name="&lt;Path&gt;" cx="19.5" cy="16.5" r="0.5" style="fill: none;stroke: #303c42;stroke-linecap: round;stroke-linejoin: round"/>
      <line x1="19.5" y1="16" x2="20.5" y2="16" style="fill: none;stroke: #303c42;stroke-linecap: round;stroke-linejoin: round"/>
      <path id="_Path_5" data-name="&lt;Path&gt;" d="M24.5,16.5c0-4.15-6.5-8-6.5-8s-12.5,3.85-12.5,8c-.94.4-1,1.26-1,2.5,0,1,1.07,3.38,2.4,3.49,1.89,3.58,5.35,6,8.1,6s6.2-2.43,8.1-6c1.33-.11,2.4-2.46,2.4-3.49C25.5,17.76,25.44,16.9,24.5,16.5Z" style="fill: none;stroke: #303c42;stroke-linecap: round;stroke-linejoin: round"/>
      <path id="_Path_6" data-name="&lt;Path&gt;" d="M7,22.64C6.15,26.13,5.5,29.5,5.5,29.5c-1.29,0-1-4-1-4a4.21,4.21,0,0,0-2,1,11.32,11.32,0,0,1,2.44-5.91" style="fill: none;stroke: #303c42;stroke-linecap: round;stroke-linejoin: round"/>
    </g>
  </g>
</svg>
