<svg xmlns="http://www.w3.org/2000/svg" viewBox="0 0 30 30">
  <title>Dog House</title>
  <g id="Dog_House" data-name="Dog House">
    <g>
      <path d="M15,2.5,2.5,13.5h2L5.92,26.17A1.5,1.5,0,0,0,7.41,27.5H22.59a1.5,1.5,0,0,0,1.49-1.33L25.5,13.5h2Z" style="fill: none;stroke: #303c42;stroke-linecap: round;stroke-linejoin: round"/>
      <path d="M11,27.5,10.18,21A4.86,4.86,0,0,1,15,15.5h0A4.86,4.86,0,0,1,19.82,21L19,27.5" style="fill: none;stroke: #303c42;stroke-linecap: round;stroke-linejoin: round"/>
      <path d="M15,9a1,1,0,0,1,.58.17.94.94,0,0,1,.42.73.59.59,0,0,0,.35.5A1.08,1.08,0,0,1,17,11.6a1.16,1.16,0,0,1-1.71.74.48.48,0,0,0-.53,0A1.16,1.16,0,0,1,13,11.6a1.08,1.08,0,0,1,.63-1.19.59.59,0,0,0,.35-.5.94.94,0,0,1,.42-.73A1,1,0,0,1,15,9Z" style="fill: none;stroke: #303c42;stroke-linecap: round;stroke-linejoin: round"/>
      <ellipse cx="17.79" cy="9.3" rx="0.54" ry="0.45" transform="translate(-1.37 15.3) rotate(-45)" style="fill: none;stroke: #303c42;stroke-miterlimit: 10"/>
      <path d="M16.73,7.8a.56.56,0,0,1-.65.34.45.45,0,0,1-.27-.62.56.56,0,0,1,.65-.34A.45.45,0,0,1,16.73,7.8Z" style="fill: none;stroke: #303c42;stroke-miterlimit: 10"/>
      <ellipse cx="12.22" cy="9.3" rx="0.45" ry="0.54" transform="translate(-3 11.37) rotate(-45)" style="fill: none;stroke: #303c42;stroke-miterlimit: 10"/>
      <path d="M13.21,7.8a.56.56,0,0,0,.65.34.45.45,0,0,0,.27-.62.56.56,0,0,0-.65-.34A.45.45,0,0,0,13.21,7.8Z" style="fill: none;stroke: #303c42;stroke-miterlimit: 10"/>
    </g>
  </g>
</svg>
