<svg xmlns="http://www.w3.org/2000/svg" viewBox="0 0 30 30">
  <title>Shit</title>
  <g id="Shit">
    <g>
      <path d="M17.9,11.5A3.57,3.57,0,0,0,21.5,8a4.4,4.4,0,0,0-4-4.5,3.73,3.73,0,0,1-4,3.5c-2.32,0-4,2-4,4.5" style="fill: none;stroke: #303c42;stroke-linecap: round;stroke-linejoin: round"/>
      <path d="M11.5,11.5h-2a5,5,0,0,0-4.9,5.94" style="fill: none;stroke: #303c42;stroke-linecap: round;stroke-linejoin: round"/>
      <path d="M25.4,17.44a5,5,0,0,0-4.9-5.94h-5" style="fill: none;stroke: #303c42;stroke-linecap: round;stroke-linejoin: round"/>
      <path d="M18.5,16.5h4a5,5,0,0,1,5,5h0a5,5,0,0,1-5,5H7.5a5,5,0,0,1-5-5h0a5,5,0,0,1,5-5h4" style="fill: none;stroke: #303c42;stroke-linecap: round;stroke-linejoin: round"/>
    </g>
  </g>
</svg>
