<svg xmlns="http://www.w3.org/2000/svg" viewBox="0 0 30 30">
  <title>Barcode Scann</title>
  <g id="Barcode_Scann" data-name="Barcode Scann">
    <g id="_Group_" data-name="&lt;Group&gt;">
      <line id="_Path_" data-name="&lt;Path&gt;" x1="13.5" y1="14.5" x2="13.5" y2="18.25" style="fill: none;stroke: #303c42;stroke-linecap: round;stroke-linejoin: round"/>
      <line id="_Path_2" data-name="&lt;Path&gt;" x1="0.5" y1="14.5" x2="29.5" y2="14.5" style="fill: none;stroke: #303c42;stroke-linecap: round;stroke-linejoin: round"/>
      <g id="_Group_2" data-name="&lt;Group&gt;">
        <path d="M.5,8.5V6A1.5,1.5,0,0,1,2,4.5H4.5" style="fill: none;stroke: #303c42;stroke-linecap: round;stroke-linejoin: round"/>
        <path d="M4.5,25.5H2A1.5,1.5,0,0,1,.5,24V21.5" style="fill: none;stroke: #303c42;stroke-linecap: round;stroke-linejoin: round"/>
        <path d="M29.5,21.5V24A1.5,1.5,0,0,1,28,25.5H25.5" style="fill: none;stroke: #303c42;stroke-linecap: round;stroke-linejoin: round"/>
        <path d="M25.5,4.5H28A1.5,1.5,0,0,1,29.5,6V8.5" style="fill: none;stroke: #303c42;stroke-linecap: round;stroke-linejoin: round"/>
        <line id="_Path_3" data-name="&lt;Path&gt;" x1="3.5" y1="14.5" x2="3.5" y2="21.5" style="fill: none;stroke: #303c42;stroke-linecap: round;stroke-linejoin: round"/>
        <line id="_Path_4" data-name="&lt;Path&gt;" x1="16.5" y1="14.5" x2="16.5" y2="21.5" style="fill: none;stroke: #303c42;stroke-linecap: round;stroke-linejoin: round"/>
        <line id="_Path_5" data-name="&lt;Path&gt;" x1="26.5" y1="14.5" x2="26.5" y2="21.5" style="fill: none;stroke: #303c42;stroke-linecap: round;stroke-linejoin: round"/>
        <line id="_Path_6" data-name="&lt;Path&gt;" x1="13.5" y1="14.5" x2="13.5" y2="18.5" style="fill: none;stroke: #303c42;stroke-linecap: round;stroke-linejoin: round"/>
        <line id="_Path_7" data-name="&lt;Path&gt;" x1="13.5" y1="20.5" x2="13.5" y2="21.5" style="fill: none;stroke: #303c42;stroke-linecap: round;stroke-linejoin: round"/>
        <line id="_Path_8" data-name="&lt;Path&gt;" x1="19.5" y1="14.5" x2="19.5" y2="18.5" style="fill: none;stroke: #303c42;stroke-linecap: round;stroke-linejoin: round"/>
        <line id="_Path_9" data-name="&lt;Path&gt;" x1="19.5" y1="20.5" x2="19.5" y2="21.5" style="fill: none;stroke: #303c42;stroke-linecap: round;stroke-linejoin: round"/>
        <line id="_Path_10" data-name="&lt;Path&gt;" x1="23.5" y1="14.5" x2="23.5" y2="18.5" style="fill: none;stroke: #303c42;stroke-linecap: round;stroke-linejoin: round"/>
        <line id="_Path_11" data-name="&lt;Path&gt;" x1="23.5" y1="20.5" x2="23.5" y2="21.5" style="fill: none;stroke: #303c42;stroke-linecap: round;stroke-linejoin: round"/>
        <line id="_Path_12" data-name="&lt;Path&gt;" x1="10.5" y1="14.5" x2="10.5" y2="18.5" style="fill: none;stroke: #303c42;stroke-linecap: round;stroke-linejoin: round"/>
        <line id="_Path_13" data-name="&lt;Path&gt;" x1="10.5" y1="20.5" x2="10.5" y2="21.5" style="fill: none;stroke: #303c42;stroke-linecap: round;stroke-linejoin: round"/>
        <line id="_Path_14" data-name="&lt;Path&gt;" x1="7.5" y1="14.5" x2="7.5" y2="18.5" style="fill: none;stroke: #303c42;stroke-linecap: round;stroke-linejoin: round"/>
        <line id="_Path_15" data-name="&lt;Path&gt;" x1="7.5" y1="20.5" x2="7.5" y2="21.5" style="fill: none;stroke: #303c42;stroke-linecap: round;stroke-linejoin: round"/>
      </g>
      <line x1="26.5" y1="8.5" x2="26.5" y2="12.5" style="fill: none;stroke: #303c42;stroke-linecap: round;stroke-linejoin: round"/>
      <line x1="23.5" y1="8.5" x2="23.5" y2="12.5" style="fill: none;stroke: #303c42;stroke-linecap: round;stroke-linejoin: round"/>
      <line x1="19.5" y1="8.5" x2="19.5" y2="12.5" style="fill: none;stroke: #303c42;stroke-linecap: round;stroke-linejoin: round"/>
      <line x1="16.5" y1="8.5" x2="16.5" y2="12.5" style="fill: none;stroke: #303c42;stroke-linecap: round;stroke-linejoin: round"/>
      <line x1="13.5" y1="12.5" x2="13.5" y2="8.5" style="fill: none;stroke: #303c42;stroke-linecap: round;stroke-linejoin: round"/>
      <line x1="10.5" y1="12.5" x2="10.5" y2="8.5" style="fill: none;stroke: #303c42;stroke-linecap: round;stroke-linejoin: round"/>
      <line x1="7.5" y1="12.5" x2="7.5" y2="8.5" style="fill: none;stroke: #303c42;stroke-linecap: round;stroke-linejoin: round"/>
      <line x1="3.5" y1="12.5" x2="3.5" y2="8.5" style="fill: none;stroke: #303c42;stroke-linecap: round;stroke-linejoin: round"/>
    </g>
  </g>
</svg>
