<svg xmlns="http://www.w3.org/2000/svg" viewBox="0 0 30 30">
  <title>Earthquake</title>
  <g id="Earthquake">
    <g>
      <polyline points="19.5 21.21 25.5 25.5 21.5 19 19.5 17.75" style="fill: none;stroke: #303c42;stroke-linecap: round;stroke-linejoin: round"/>
      <polygon points="6 9.95 0.5 14.5 4.5 14.5 4.5 27.5 10.5 27.5 10.5 15.5 12.43 15.5 11 13.5 6 9.95" style="fill: none;stroke: #303c42;stroke-linecap: round;stroke-linejoin: round"/>
      <polygon points="19.5 27.5 25.5 27.5 25.5 25.5 19.5 21.21 19.5 27.5" style="fill: none;stroke: #303c42;stroke-linecap: round;stroke-linejoin: round"/>
      <polygon points="15 2.5 9.5 7.05 14.5 11 16 14.5 16.75 15.5 19.5 15.5 19.5 17.75 21.5 19 25.5 25.5 25.5 14.5 29.5 14.5 15 2.5" style="fill: none;stroke: #303c42;stroke-linecap: round;stroke-linejoin: round"/>
    </g>
  </g>
</svg>
