<svg xmlns="http://www.w3.org/2000/svg" viewBox="0 0 30 30">
  <title>House Key</title>
  <g id="House_Key" data-name="House Key">
    <g>
      <circle cx="8.5" cy="4.5" r="2" style="fill: none;stroke: #303c42;stroke-linecap: round;stroke-linejoin: round"/>
      <path d="M5.5,25.5V27l3,2.5,3-2.5V17h2l-.58-1.48A8.24,8.24,0,0,0,16.5,8.7,8.1,8.1,0,0,0,8.5.5a8.1,8.1,0,0,0-8,8.2,8.24,8.24,0,0,0,3.58,6.83L3.5,17h2v1l1,1.41-1,1.26,1,1.26-1,1.26,1,1.26Z" style="fill: none;stroke: #303c42;stroke-linecap: round;stroke-linejoin: round"/>
      <polyline points="14.5 14.1 14.5 20.5 18.5 20.5 18.5 13.5 23.5 13.5 23.5 20.5 27.5 20.5 27.5 12.5 29.5 12.5 21 5.5 16.47 9.23" style="fill: none;stroke: #303c42;stroke-linecap: round;stroke-linejoin: round"/>
    </g>
  </g>
</svg>
