<svg xmlns="http://www.w3.org/2000/svg" viewBox="0 0 30 30">
  <title>Recycle 1</title>
  <g id="Recycle_1" data-name="Recycle 1">
    <g id="_Group_" data-name="&lt;Group&gt;">
      <path id="_Path_" data-name="&lt;Path&gt;" d="M7.44,19.41,9.5,15.5l2,1L9,9.5H.5l2.5,2L.73,16.44A2.09,2.09,0,0,0,2.5,19.5h10v8h-4a3.78,3.78,0,0,1-3.11-1.63L1,18.77" style="fill: none;stroke: #303c42;stroke-linecap: round;stroke-linejoin: round"/>
      <path id="_Path_2" data-name="&lt;Path&gt;" d="M19.5,27.5h1.79a3.74,3.74,0,0,0,3.09-1.63l4.86-7.42" style="fill: none;stroke: #303c42;stroke-linecap: round;stroke-linejoin: round"/>
      <path id="_Path_3" data-name="&lt;Path&gt;" d="M23.88,19.41l-3.13-5,5.63-3.15,2.9,5.22A2.1,2.1,0,0,1,27.5,19.5h-8" style="fill: none;stroke: #303c42;stroke-linecap: round;stroke-linejoin: round"/>
      <path id="_Path_4" data-name="&lt;Path&gt;" d="M15.64,4.91,12.48,9.33,5.55,5.54l2.7-3.6A3.56,3.56,0,0,1,14,2.06l4.13,6L15.64,9.33l6.94,1.26L25.5,3,23.2,4.28,21.43,1.62A2.52,2.52,0,0,0,19.33.5H11.85" style="fill: none;stroke: #303c42;stroke-linecap: round;stroke-linejoin: round"/>
      <polyline id="_Path_5" data-name="&lt;Path&gt;" points="19.5 27.5 19.5 29.5 14.5 23.5 19.5 17.5 19.5 19.5" style="fill: none;stroke: #303c42;stroke-linecap: round;stroke-linejoin: round"/>
    </g>
  </g>
</svg>
