<svg xmlns="http://www.w3.org/2000/svg" viewBox="0 0 30 30">
  <title>Gear 2</title>
  <g id="Gear_2" data-name="Gear 2">
    <g>
      <path d="M25.72,15a10.75,10.75,0,0,0-.17-1.84L29,10.26l-2.9-5L21.88,6.78a10.7,10.7,0,0,0-3.2-1.84L17.9.5H12.1l-.78,4.44a10.7,10.7,0,0,0-3.2,1.84L3.89,5.24l-2.9,5,3.46,2.9a10.12,10.12,0,0,0,0,3.69L1,19.74l2.9,5,4.23-1.55a10.7,10.7,0,0,0,3.2,1.84l.78,4.44h5.8l.78-4.44a10.7,10.7,0,0,0,3.2-1.84l4.23,1.55,2.9-5-3.46-2.9A10.75,10.75,0,0,0,25.72,15Z" style="fill: none;stroke: #303c42;stroke-linecap: round;stroke-linejoin: round"/>
      <circle cx="15" cy="15" r="5.5" style="fill: none;stroke: #303c42;stroke-linecap: round;stroke-linejoin: round"/>
    </g>
  </g>
</svg>
