<svg xmlns="http://www.w3.org/2000/svg" viewBox="0 0 30 30">
  <title>Drop Delivery</title>
  <g id="Drop_Delivery" data-name="Drop Delivery">
    <g>
      <path d="M22,9.5c1.93,0,3.5.93,3.5,2A10.76,10.76,0,0,0,15,.5a10.76,10.76,0,0,0-10.5,11c0-1.07,1.57-2,3.5-2s3.5.93,3.5,2c0-1.07,1.57-2,3.5-2s3.5.93,3.5,2C18.5,10.43,20.07,9.5,22,9.5Z" style="fill: none;stroke: #303c42;stroke-linecap: round;stroke-linejoin: round"/>
      <rect x="9.5" y="18.5" width="11" height="11" style="fill: none;stroke: #303c42;stroke-linecap: round;stroke-linejoin: round"/>
      <line x1="9.5" y1="27.5" x2="17.5" y2="20.5" style="fill: none;stroke: #303c42;stroke-linecap: round;stroke-linejoin: round"/>
      <line x1="12.5" y1="27.5" x2="20.5" y2="20.5" style="fill: none;stroke: #303c42;stroke-linecap: round;stroke-linejoin: round"/>
      <line x1="9.5" y1="20.5" x2="20.5" y2="20.5" style="fill: none;stroke: #303c42;stroke-linecap: round;stroke-linejoin: round"/>
      <line x1="9.5" y1="27.5" x2="20.5" y2="27.5" style="fill: none;stroke: #303c42;stroke-linecap: round;stroke-linejoin: round"/>
      <polyline points="4.5 11.5 15 18.5 25.5 11.5" style="fill: none;stroke: #303c42;stroke-linecap: round;stroke-linejoin: round"/>
      <polyline points="11.5 11.5 15 18.5 18.5 11.5" style="fill: none;stroke: #303c42;stroke-linecap: round;stroke-linejoin: round"/>
      <path d="M11.5,11.22C11.5,5.3,13.07.5,15,.5s3.5,4.8,3.5,10.72" style="fill: none;stroke: #303c42;stroke-linecap: round;stroke-linejoin: round"/>
    </g>
  </g>
</svg>
