<svg xmlns="http://www.w3.org/2000/svg" viewBox="0 0 30 30">
  <title>Clouds</title>
  <g id="Clouds">
    <g>
      <path d="M25.5,10.5a4,4,0,0,1,.94.11" style="fill: none;stroke: #303c42;stroke-linecap: round;stroke-linejoin: round"/>
      <path d="M26.94,18.22a4,4,0,0,0-.5-7.6A7,7,0,0,0,13.63,7.7" style="fill: none;stroke: #303c42;stroke-linecap: round;stroke-linejoin: round"/>
      <path d="M22.5,15.5a5,5,0,0,1,1.95.39" style="fill: none;stroke: #303c42;stroke-linecap: round;stroke-linejoin: round"/>
      <path d="M6.5,13.5a6,6,0,0,1,3,.82" style="fill: none;stroke: #303c42;stroke-linecap: round;stroke-linejoin: round"/>
      <path d="M24.47,15.91A9,9,0,0,0,7,13.53l-.51,0a6,6,0,0,0,0,12h16a5,5,0,0,0,2-9.59Z" style="fill: none;stroke: #303c42;stroke-linecap: round;stroke-linejoin: round"/>
    </g>
  </g>
</svg>
