<svg xmlns="http://www.w3.org/2000/svg" viewBox="0 0 30 30">
  <title>Beatle</title>
  <g id="Beatle">
    <g>
      <line x1="0.5" y1="20.5" x2="29.5" y2="20.5" style="fill: none;stroke: #303c42;stroke-linecap: round;stroke-linejoin: round"/>
      <path d="M15,9.5c6.79,0,10.5,1.5,10.5,1.5L23.65,5.32C23,4.71,19.32,3.5,15,3.5S7,4.71,6.35,5.32L4.5,11S8.21,9.5,15,9.5" style="fill: none;stroke: #303c42;stroke-linecap: round;stroke-linejoin: round"/>
      <path d="M15,19.24c0,.67.3,1.26,1,1.26h1a3.84,3.84,0,0,0,3.39-2.06c1.29-2.51,3.39-6.94,5.11-6.94" style="fill: none;stroke: #303c42;stroke-linecap: round;stroke-linejoin: round"/>
      <circle cx="26" cy="17.5" r="1.5" style="fill: none;stroke: #303c42;stroke-linecap: round;stroke-linejoin: round"/>
      <circle cx="29" cy="10" r="0.5" style="fill: none;stroke: #303c42;stroke-linecap: round;stroke-linejoin: round"/>
      <polyline points="28.5 10 25.5 11 25.5 13.5" style="fill: none;stroke: #303c42;stroke-linecap: round;stroke-linejoin: round"/>
      <path d="M25.5,21.78V25a1.5,1.5,0,0,0,3,0V20.48" style="fill: none;stroke: #303c42;stroke-linecap: round;stroke-linejoin: round"/>
      <path d="M21.93,15.48c1-1.31,1.55-2,4.07-2s3.5,2.81,3.5,5c0,4.49-12,3.93-14.5,3.93S.5,23,.5,18.55c0-2.24,1-5,3.5-5a4.18,4.18,0,0,1,4.16,2.15" style="fill: none;stroke: #303c42;stroke-linecap: round;stroke-linejoin: round"/>
      <path d="M15,19.24c0,.67-.3,1.26-1,1.26H13a3.84,3.84,0,0,1-3.39-2.06C8.32,15.93,6.22,11.5,4.5,11.5" style="fill: none;stroke: #303c42;stroke-linecap: round;stroke-linejoin: round"/>
      <circle cx="4" cy="17.5" r="1.5" style="fill: none;stroke: #303c42;stroke-linecap: round;stroke-linejoin: round"/>
      <circle cx="1" cy="10" r="0.5" style="fill: none;stroke: #303c42;stroke-linecap: round;stroke-linejoin: round"/>
      <polyline points="1.5 10 4.5 11 4.5 13.5" style="fill: none;stroke: #303c42;stroke-linecap: round;stroke-linejoin: round"/>
      <path d="M4.5,21.78V25a1.5,1.5,0,0,1-3,0V20.48" style="fill: none;stroke: #303c42;stroke-linecap: round;stroke-linejoin: round"/>
      <line x1="15" y1="19" x2="15" y2="9.5" style="fill: none;stroke: #303c42;stroke-linecap: round;stroke-linejoin: round"/>
    </g>
  </g>
</svg>
