<svg xmlns="http://www.w3.org/2000/svg" viewBox="0 0 24 24">
  <title>Cup 1</title>
  <g id="Cup_1" data-name="Cup 1">
    <g>
      <path d="M17,1.5A1.5,1.5,0,0,1,18.5,3v.5c0,3-1,13-6.5,13s-6.5-10-6.5-13V3A1.5,1.5,0,0,1,7,1.5Z" style="fill: none;stroke: #303c42;stroke-linecap: round;stroke-linejoin: round"/>
      <path d="M5.5,3.5H3.07A1.57,1.57,0,0,0,1.72,5.87l.58,1A12.19,12.19,0,0,0,6.68,11.1" style="fill: none;stroke: #303c42;stroke-linecap: round;stroke-linejoin: round"/>
      <path d="M17.32,11.1A12.19,12.19,0,0,0,21.7,6.84l.58-1A1.57,1.57,0,0,0,20.93,3.5H18.5" style="fill: none;stroke: #303c42;stroke-linecap: round;stroke-linejoin: round"/>
      <path d="M10.5,16.22V19A1.5,1.5,0,0,1,9,20.5H9A1.5,1.5,0,0,0,7.5,22v.5h9V22A1.5,1.5,0,0,0,15,20.5h0A1.5,1.5,0,0,1,13.5,19V16.22" style="fill: none;stroke: #303c42;stroke-linecap: round;stroke-linejoin: round"/>
    </g>
  </g>
</svg>
