<svg xmlns="http://www.w3.org/2000/svg" viewBox="0 0 24 24">
  <title>Toddler 3</title>
  <g id="Toddler_3" data-name="Toddler 3">
    <g>
      <path d="M14.5,15.5h-7v3a2,2,0,0,1-2,2H2A1.5,1.5,0,0,1,.5,19h0A1.5,1.5,0,0,1,2,17.5H4.5L3.07,15a4.35,4.35,0,0,1-.57-2.16h0A4.35,4.35,0,0,1,6.85,8.5h6.62a3,3,0,0,1,2.79,1.89l3,7.6a1.71,1.71,0,0,1,.07,1l0,.17a1.71,1.71,0,0,1-1.66,1.3h0a1.71,1.71,0,0,1-1.59-1.07Z" style="fill: none;stroke: #303c42;stroke-linecap: round;stroke-linejoin: round"/>
      <line x1="7.5" y1="15.5" x2="7.5" y2="8.5" style="fill: none;stroke: #303c42;stroke-linecap: round;stroke-linejoin: round"/>
      <line x1="7.5" y1="15.5" x2="3.5" y2="15.5" style="fill: none;stroke: #303c42;stroke-linecap: round;stroke-linejoin: round"/>
      <circle cx="19.5" cy="7.5" r="4" style="fill: none;stroke: #303c42;stroke-linecap: round;stroke-linejoin: round"/>
    </g>
  </g>
</svg>
