<svg xmlns="http://www.w3.org/2000/svg" viewBox="0 0 24 24">
  <title>Call</title>
  <g id="Call">
    <g id="_Group_" data-name="&lt;Group&gt;">
      <path id="_Path_" data-name="&lt;Path&gt;" d="M7.28,11.06a11.92,11.92,0,0,0,5.67,5.67L15.22,15a.94.94,0,0,1,1-.23,10.77,10.77,0,0,0,3.37.54,1,1,0,0,1,.94.94v3.3a1,1,0,0,1-.94.94A16.05,16.05,0,0,1,3.5,4.44a1,1,0,0,1,.94-.94H7.75a1,1,0,0,1,.94.94,10.73,10.73,0,0,0,.54,3.37,1,1,0,0,1-.24,1Z" style="fill: none;stroke: #303c42;stroke-linecap: round;stroke-linejoin: round"/>
    </g>
  </g>
</svg>
