<svg xmlns="http://www.w3.org/2000/svg" viewBox="0 0 24 24">
  <title>Developer</title>
  <g id="Developer">
    <g>
      <path id="_Path_" data-name="&lt;Path&gt;" d="M2.32,11.5H21.68a1.82,1.82,0,0,1,1.82,1.82h0a1.82,1.82,0,0,1,0,.36l-1.72,8.62a1.5,1.5,0,0,1-1.47,1.21H3.73a1.5,1.5,0,0,1-1.47-1.21L.54,13.68a1.82,1.82,0,0,1,0-.36h0A1.82,1.82,0,0,1,2.32,11.5Z" style="fill: none;stroke: #303c42;stroke-linecap: round;stroke-linejoin: round"/>
      <path id="_Path_2" data-name="&lt;Path&gt;" d="M8,9.79a4,4,0,0,0,.72,1.71h6.18a4,4,0,0,0,.72-1.71c.64,0,1-2.2,1-2.53s-.17-1.05-.72-1.05a2.7,2.7,0,0,0,.72-1.9L17,3.88C17,2.33,15.25.5,12.24.5c-2.14,0-2.86.84-2.86.84a2.35,2.35,0,0,0-1.9,2.11c0,.91-.06,2.48.24,2.75C7.17,6.2,7,6.92,7,7.25S7.31,9.79,8,9.79Z" style="fill: none;stroke: #303c42;stroke-linecap: round;stroke-linejoin: round"/>
      <path id="_Path_3" data-name="&lt;Path&gt;" d="M2.32,11.5H21.68a1.82,1.82,0,0,1,1.82,1.82h0a1.82,1.82,0,0,1,0,.36l-1.72,8.62a1.5,1.5,0,0,1-1.47,1.21H3.73a1.5,1.5,0,0,1-1.47-1.21L.54,13.68a1.82,1.82,0,0,1,0-.36h0A1.82,1.82,0,0,1,2.32,11.5Z" style="fill: none;stroke: #303c42;stroke-linecap: round;stroke-linejoin: round"/>
      <g id="_Group_" data-name="&lt;Group&gt;">
        <path id="_Path_4" data-name="&lt;Path&gt;" d="M13.56,18.44c0-.35.32-.64.76-.74a1.55,1.55,0,0,0-1-.53c-.45,0-.85.2-1.22.2s-.77-.2-1.22-.2A1.48,1.48,0,0,0,9.5,18.54c0,.88.89,2,1.49,2a7.37,7.37,0,0,0,1.08-.2,7.37,7.37,0,0,0,1.08.2c.45,0,1.07-.61,1.34-1.29C14,19.16,13.56,18.84,13.56,18.44Z" style="fill: none;stroke: #303c42;stroke-linecap: round;stroke-linejoin: round"/>
        <path id="_Path_5" data-name="&lt;Path&gt;" d="M13.39,15.5c-.61,0-1.11.37-1.11.83C12.89,16.33,13.39,16,13.39,15.5Z" style="fill: none;stroke: #303c42;stroke-linecap: round;stroke-linejoin: round"/>
      </g>
    </g>
  </g>
</svg>
