<svg xmlns="http://www.w3.org/2000/svg" viewBox="0 0 24 24">
  <title>Condom 1</title>
  <g id="Condom_1" data-name="Condom 1">
    <g id="_Group_" data-name="&lt;Group&gt;">
      <path id="_Path_" data-name="&lt;Path&gt;" d="M12,4.5A7.5,7.5,0,1,1,4.5,12" style="fill: none;stroke: #303c42;stroke-linecap: round;stroke-linejoin: round"/>
      <path id="_Path_2" data-name="&lt;Path&gt;" d="M12,17.5A5.5,5.5,0,1,1,17.5,12" style="fill: none;stroke: #303c42;stroke-linecap: round;stroke-linejoin: round"/>
      <path id="_Path_3" data-name="&lt;Path&gt;" d="M21,1.5h-.65a1,1,0,0,1-1.69,0H17.35a1,1,0,0,1-1.69,0H14.35a1,1,0,0,1-1.69,0H11.35a1,1,0,0,1-1.69,0H8.35a1,1,0,0,1-1.69,0H5.35a1,1,0,0,1-1.69,0H3A1.5,1.5,0,0,0,1.5,3V21A1.5,1.5,0,0,0,3,22.5h.65a1,1,0,0,1,1.69,0H6.65a1,1,0,0,1,1.69,0H9.65a1,1,0,0,1,1.69,0h1.31a1,1,0,0,1,1.69,0h1.31a1,1,0,0,1,1.69,0h1.31a1,1,0,0,1,1.69,0H21A1.5,1.5,0,0,0,22.5,21V3A1.5,1.5,0,0,0,21,1.5Z" style="fill: none;stroke: #303c42;stroke-linecap: round;stroke-linejoin: round"/>
    </g>
  </g>
</svg>
