<svg xmlns="http://www.w3.org/2000/svg" viewBox="0 0 24 24">
  <title>Pencil with Ruler</title>
  <g id="Pencil_with_Ruler" data-name="Pencil with Ruler">
    <g id="_Group_" data-name="&lt;Group&gt;">
      <path id="_Path_" data-name="&lt;Path&gt;" d="M3.5,15.5,16.94,1.94a1.5,1.5,0,0,1,2.12,0l3,3a1.5,1.5,0,0,1,0,2.12L8.5,20.5l-7,2Z" style="fill: none;stroke: #303c42;stroke-linecap: round;stroke-linejoin: round"/>
      <line id="_Path_2" data-name="&lt;Path&gt;" x1="19.5" y1="9.6" x2="14.4" y2="4.5" style="fill: none;stroke: #303c42;stroke-linecap: round;stroke-linejoin: round"/>
      <polyline id="_Path_3" data-name="&lt;Path&gt;" points="8.5 20.5 8.5 18.5 6.5 17.5 5.5 15.5 3.5 15.5" style="fill: none;stroke: #303c42;stroke-linecap: round;stroke-linejoin: round"/>
      <line id="_Path_4" data-name="&lt;Path&gt;" x1="5.46" y1="21.37" x2="2.63" y2="18.53" style="fill: none;stroke: #303c42;stroke-linecap: round;stroke-linejoin: round"/>
      <line id="_Path_5" data-name="&lt;Path&gt;" x1="17" y1="7" x2="6.5" y2="17.5" style="fill: none;stroke: #303c42;stroke-linecap: round;stroke-linejoin: round"/>
      <g id="_Group_2" data-name="&lt;Group&gt;">
        <polyline id="_Path_6" data-name="&lt;Path&gt;" points="6.98 11.98 1.5 6.5 6.5 1.5 11.96 6.96" style="fill: none;stroke: #303c42;stroke-linecap: round;stroke-linejoin: round"/>
        <polyline id="_Path_7" data-name="&lt;Path&gt;" points="17.04 12.04 22.5 17.5 17.5 22.5 12.02 17.02" style="fill: none;stroke: #303c42;stroke-linecap: round;stroke-linejoin: round"/>
      </g>
      <line id="_Path_8" data-name="&lt;Path&gt;" x1="15.5" y1="20.5" x2="17.5" y2="18.5" style="fill: none;stroke: #303c42;stroke-linecap: round;stroke-linejoin: round"/>
      <line id="_Path_9" data-name="&lt;Path&gt;" x1="13.5" y1="18.5" x2="15.5" y2="16.5" style="fill: none;stroke: #303c42;stroke-linecap: round;stroke-linejoin: round"/>
      <line id="_Path_10" data-name="&lt;Path&gt;" x1="5.5" y1="10.5" x2="7.5" y2="8.5" style="fill: none;stroke: #303c42;stroke-linecap: round;stroke-linejoin: round"/>
      <line id="_Path_11" data-name="&lt;Path&gt;" x1="3.5" y1="8.5" x2="5.5" y2="6.5" style="fill: none;stroke: #303c42;stroke-linecap: round;stroke-linejoin: round"/>
    </g>
  </g>
</svg>
