<svg xmlns="http://www.w3.org/2000/svg" viewBox="0 0 24 24">
  <title>Feather</title>
  <g id="Feather">
    <g id="_Group_" data-name="&lt;Group&gt;">
      <path id="_Path_" data-name="&lt;Path&gt;" d="M1.5,22.5c9.33-9.33,9.4-7.4,16-14" style="fill: none;stroke: #303c42;stroke-linecap: round;stroke-linejoin: round"/>
      <path id="_Path_2" data-name="&lt;Path&gt;" d="M22.5,1.5A25,25,0,0,1,14,7L13.5,8.5a5.75,5.75,0,0,0-.4-1.12A13.67,13.67,0,0,0,9.16,9.86,3.73,3.73,0,0,0,9.5,11.5,1.91,1.91,0,0,1,8.18,11,14.65,14.65,0,0,0,5.5,18.5s3.68,1.82,10.5-5S22.5,1.5,22.5,1.5Z" style="fill: none;stroke: #303c42;stroke-linecap: round;stroke-linejoin: round"/>
    </g>
  </g>
</svg>
