<svg xmlns="http://www.w3.org/2000/svg" viewBox="0 0 24 24">
  <title>Bacon</title>
  <g id="Bacon">
    <g>
      <path d="M.5,6.5c1.37,0,1.37,1,2.75,1s1.37-1,2.75-1,1.37,1,2.75,1,1.37-1,2.75-1,1.37,1,2.75,1,1.37-1,2.75-1,1.38,1,2.75,1,1.38-1,2.75-1" style="fill: none;stroke: #303c42;stroke-linecap: round;stroke-linejoin: round"/>
      <path d="M1.5,9.5c0-1.5-1-1.5-1-3s1-1.5,1-3c1.37,0,1.37,1,2.75,1s1.37-1,2.75-1,1.37,1,2.75,1,1.37-1,2.75-1,1.37,1,2.75,1,1.37-1,2.75-1,1.38,1,2.75,1,1.38-1,2.75-1c0,1.5-1,1.5-1,3s1,1.5,1,3c-1.38,0-1.38,1-2.75,1s-1.38-1-2.75-1-1.37,1-2.75,1-1.37-1-2.75-1-1.37,1-2.75,1S8.37,9.5,7,9.5s-1.37,1-2.75,1S2.87,9.5,1.5,9.5Z" style="fill: none;stroke: #303c42;stroke-linecap: round;stroke-linejoin: round"/>
      <path d="M23.5,17.5c-1.37,0-1.37-1-2.75-1s-1.37,1-2.75,1-1.37-1-2.75-1-1.37,1-2.75,1-1.37-1-2.75-1-1.37,1-2.75,1-1.38-1-2.75-1-1.38,1-2.75,1" style="fill: none;stroke: #303c42;stroke-linecap: round;stroke-linejoin: round"/>
      <path d="M22.5,14.5c0,1.5,1,1.5,1,3s-1,1.5-1,3c-1.37,0-1.37-1-2.75-1s-1.37,1-2.75,1-1.37-1-2.75-1-1.37,1-2.75,1-1.37-1-2.75-1-1.37,1-2.75,1-1.38-1-2.75-1-1.38,1-2.75,1c0-1.5,1-1.5,1-3s-1-1.5-1-3c1.38,0,1.38-1,2.75-1s1.38,1,2.75,1,1.37-1,2.75-1,1.37,1,2.75,1,1.37-1,2.75-1,1.37,1,2.75,1,1.37-1,2.75-1S21.13,14.5,22.5,14.5Z" style="fill: none;stroke: #303c42;stroke-linecap: round;stroke-linejoin: round"/>
    </g>
  </g>
</svg>
