<svg xmlns="http://www.w3.org/2000/svg" viewBox="0 0 24 24">
  <title>Heandsfree</title>
  <g id="Heandsfree">
    <g id="_Group_" data-name="&lt;Group&gt;">
      <path id="_Path_" data-name="&lt;Path&gt;" d="M15,20.5a8.5,8.5,0,1,0-8.46-9.22" style="fill: none;stroke: #303c42;stroke-linecap: round;stroke-linejoin: round"/>
      <path id="_Path_2" data-name="&lt;Path&gt;" d="M14.43,13.66h0l-1-3.45h0a1,1,0,0,0-.94-.71C12.23,9.5,1.27,13,1.22,13.06A1,1,0,0,0,.5,14a1,1,0,0,0,0,.22h0l1,3.47h0a1,1,0,0,0,1,.81c.16,0,11.23-3.53,11.28-3.56a1,1,0,0,0,.65-1.29Z" style="fill: none;stroke: #303c42;stroke-linecap: round;stroke-linejoin: round"/>
      <circle id="_Path_3" data-name="&lt;Path&gt;" cx="10.5" cy="13" r="1" style="fill: none;stroke: #303c42;stroke-linecap: round;stroke-linejoin: round"/>
    </g>
  </g>
</svg>
