<svg xmlns="http://www.w3.org/2000/svg" viewBox="0 0 24 24">
  <title>Door Lock</title>
  <g id="Door_Lock" data-name="Door Lock">
    <g>
      <path d="M14.5,6.5V2A1.5,1.5,0,0,0,13,.5H5A1.5,1.5,0,0,0,3.5,2V22A1.5,1.5,0,0,0,5,23.5h8A1.5,1.5,0,0,0,14.5,22V9.5" style="fill: none;stroke: #303c42;stroke-linecap: round;stroke-linejoin: round"/>
      <path d="M10.5,16a1.5,1.5,0,1,0-2.15,1.35L8,20.5h2l-.35-3.15A1.29,1.29,0,0,0,10.5,16Z" style="fill: none;stroke: #303c42;stroke-linecap: round;stroke-linejoin: round"/>
      <path d="M20.5,6.5H11a2.5,2.5,0,1,0,0,3H20.5Z" style="fill: none;stroke: #303c42;stroke-linecap: round;stroke-linejoin: round"/>
    </g>
  </g>
</svg>
