<svg xmlns="http://www.w3.org/2000/svg" viewBox="0 0 24 24">
  <title>Chef&amp;apos;s Hat 2</title>
  <g id="Chef_s_Hat_2" data-name="Chef&apos;s Hat 2">
    <g>
      <path d="M8,10.5c2,0,3,1,4.08,1S13.43,11,15,11" style="fill: none;stroke: #303c42;stroke-linecap: round;stroke-linejoin: round"/>
      <line id="_Path_" data-name="&lt;Path&gt;" x1="5.5" y1="18.5" x2="18.5" y2="18.5" style="fill: none;stroke: #303c42;stroke-linecap: round;stroke-linejoin: round"/>
      <path d="M5.51,13.2V21A1.5,1.5,0,0,0,7,22.5H17A1.5,1.5,0,0,0,18.5,21V12.2" style="fill: none;stroke: #303c42;stroke-linecap: round;stroke-linejoin: round"/>
      <path d="M16.73,12.5c2.63,0,5.77-2.17,5.77-5.5,0-4.09-2.88-5.5-5.77-5.5a12.88,12.88,0,0,0-5.82,1.73" style="fill: none;stroke: #303c42;stroke-linecap: round;stroke-linejoin: round"/>
      <path d="M16.5,6.9A13.77,13.77,0,0,0,7.27,2.5C4.38,2.5,1.5,3.91,1.5,8c0,3.33,3.14,5.5,5.77,5.5" style="fill: none;stroke: #303c42;stroke-linecap: round;stroke-linejoin: round"/>
    </g>
  </g>
</svg>
