<svg xmlns="http://www.w3.org/2000/svg" viewBox="0 0 24 24">
  <title>Medicine 2</title>
  <g id="Medicine_2" data-name="Medicine 2">
    <g id="_Group_" data-name="&lt;Group&gt;">
      <line id="_Path_" data-name="&lt;Path&gt;" x1="7.5" y1="0.5" x2="7.5" y2="6.5" style="fill: none;stroke: #303c42;stroke-linecap: round;stroke-linejoin: round"/>
      <line id="_Path_2" data-name="&lt;Path&gt;" x1="4.5" y1="10.5" x2="19.5" y2="10.5" style="fill: none;stroke: #303c42;stroke-linecap: round;stroke-linejoin: round"/>
      <line id="_Path_3" data-name="&lt;Path&gt;" x1="4.5" y1="19.5" x2="19.5" y2="19.5" style="fill: none;stroke: #303c42;stroke-linecap: round;stroke-linejoin: round"/>
      <line id="_Path_4" data-name="&lt;Path&gt;" x1="8.5" y1="13.5" x2="15.5" y2="13.5" style="fill: none;stroke: #303c42;stroke-linecap: round;stroke-linejoin: round"/>
      <line id="_Path_5" data-name="&lt;Path&gt;" x1="8.5" y1="16.5" x2="15.5" y2="16.5" style="fill: none;stroke: #303c42;stroke-linecap: round;stroke-linejoin: round"/>
      <rect id="_Rectangle_" data-name="&lt;Rectangle&gt;" x="4.5" y="0.5" width="15" height="6" rx="1.5" ry="1.5" style="fill: none;stroke: #303c42;stroke-linecap: round;stroke-linejoin: round"/>
      <path id="_Path_6" data-name="&lt;Path&gt;" d="M6.5,6.5,5.38,7.62A3,3,0,0,0,4.5,9.74V22A1.5,1.5,0,0,0,6,23.5H18A1.5,1.5,0,0,0,19.5,22V9.74a3,3,0,0,0-.88-2.12L17.5,6.5" style="fill: none;stroke: #303c42;stroke-linecap: round;stroke-linejoin: round"/>
      <line id="_Path_7" data-name="&lt;Path&gt;" x1="10.5" y1="0.5" x2="10.5" y2="6.5" style="fill: none;stroke: #303c42;stroke-linecap: round;stroke-linejoin: round"/>
      <line id="_Path_8" data-name="&lt;Path&gt;" x1="13.5" y1="0.5" x2="13.5" y2="6.5" style="fill: none;stroke: #303c42;stroke-linecap: round;stroke-linejoin: round"/>
      <line id="_Path_9" data-name="&lt;Path&gt;" x1="16.5" y1="0.5" x2="16.5" y2="6.5" style="fill: none;stroke: #303c42;stroke-linecap: round;stroke-linejoin: round"/>
    </g>
  </g>
</svg>
