<svg id="Investment" xmlns="http://www.w3.org/2000/svg" viewBox="0 0 24 24">
  <title>Investment</title>
  <g id="_Group_" data-name="&lt;Group&gt;">
    <path id="_Path_" data-name="&lt;Path&gt;" d="M6.24,15a6.47,6.47,0,0,1-.74-3C5.5,8.41,8.41,1.5,12,1.5S18.5,8.41,18.5,12a6.47,6.47,0,0,1-.74,3" style="fill: none;stroke: #303c42;stroke-linecap: round;stroke-linejoin: round"/>
    <path id="_Path_2" data-name="&lt;Path&gt;" d="M4.5,14.6a28,28,0,0,0,7.5.9,28,28,0,0,0,7.5-.9" style="fill: none;stroke: #303c42;stroke-linecap: round;stroke-linejoin: round"/>
    <path id="_Path_3" data-name="&lt;Path&gt;" d="M5.55,11.14c-2.46.59-4.05,2.4-4.05,3.36v2c0,3.31,4.7,6,10.5,6s10.5-2.69,10.5-6v-2c0-1-1.59-2.77-4.05-3.36" style="fill: none;stroke: #303c42;stroke-linecap: round;stroke-linejoin: round"/>
    <g id="_Group_2" data-name="&lt;Group&gt;">
      <path id="_Path_4" data-name="&lt;Path&gt;" d="M13,7.5H12a1,1,0,0,0-1,1h0a1,1,0,0,0,1,1h0a1,1,0,0,1,1,1h0a1,1,0,0,1-1,1H11" style="fill: none;stroke: #303c42;stroke-linecap: round;stroke-linejoin: round"/>
      <line id="_Path_5" data-name="&lt;Path&gt;" x1="12" y1="7.5" x2="12" y2="7" style="fill: none;stroke: #303c42;stroke-linecap: round;stroke-linejoin: round"/>
      <line id="_Path_6" data-name="&lt;Path&gt;" x1="12" y1="11.5" x2="12" y2="12" style="fill: none;stroke: #303c42;stroke-linecap: round;stroke-linejoin: round"/>
    </g>
  </g>
</svg>
