<svg xmlns="http://www.w3.org/2000/svg" viewBox="0 0 24 24">
  <title>Paper Shredder</title>
  <g id="Paper_Shredder" data-name="Paper Shredder">
    <g>
      <path d="M18.5,8.5v-3l-4-4H7A1.5,1.5,0,0,0,5.5,3V8.5" style="fill: none;stroke: #303c42;stroke-linecap: round;stroke-linejoin: round"/>
      <path id="_Path_" data-name="&lt;Path&gt;" d="M14.5,1.5V4A1.5,1.5,0,0,0,16,5.5h2.5" style="fill: none;stroke: #303c42;stroke-linecap: round;stroke-linejoin: round"/>
      <path d="M14.5,22a50.25,50.25,0,0,1-.5-5.5" style="fill: none;stroke: #303c42;stroke-linecap: round;stroke-linejoin: round"/>
      <path d="M17,21.5a21.92,21.92,0,0,1-1-5" style="fill: none;stroke: #303c42;stroke-linecap: round;stroke-linejoin: round"/>
      <path d="M18,16.5c0,1.5,1.5,4,1.5,4" style="fill: none;stroke: #303c42;stroke-linecap: round;stroke-linejoin: round"/>
      <path d="M12,22.5v-6" style="fill: none;stroke: #303c42;stroke-linecap: round;stroke-linejoin: round"/>
      <path d="M9.5,22a50.25,50.25,0,0,0,.5-5.5" style="fill: none;stroke: #303c42;stroke-linecap: round;stroke-linejoin: round"/>
      <path d="M7,21.5a21.92,21.92,0,0,0,1-5" style="fill: none;stroke: #303c42;stroke-linecap: round;stroke-linejoin: round"/>
      <path d="M6,16.5c0,1.5-1.5,4-1.5,4" style="fill: none;stroke: #303c42;stroke-linecap: round;stroke-linejoin: round"/>
      <circle cx="20" cy="11" r="0.5" style="fill: none;stroke: #303c42;stroke-linecap: round;stroke-linejoin: round"/>
      <rect x="1.5" y="8.5" width="21" height="8" rx="1.5" ry="1.5" style="fill: none;stroke: #303c42;stroke-linecap: round;stroke-linejoin: round"/>
    </g>
  </g>
</svg>
