<svg xmlns="http://www.w3.org/2000/svg" viewBox="0 0 24 24">
  <title>Woman 4</title>
  <g id="Woman_4" data-name="Woman 4">
    <g>
      <circle id="_Path_" data-name="&lt;Path&gt;" cx="8.5" cy="13" r="0.5" style="fill: none;stroke: #303c42;stroke-linecap: round;stroke-linejoin: round"/>
      <circle id="_Path_2" data-name="&lt;Path&gt;" cx="15.5" cy="13" r="0.5" style="fill: none;stroke: #303c42;stroke-linecap: round;stroke-linejoin: round"/>
      <path id="_Path_3" data-name="&lt;Path&gt;" d="M19.5,12.5c0-3.29-5-6-5-6s-10,2.71-10,6c-.76.33-1,1-1,2s1,3,2.13,3c.44.85,2.39,5,6.38,5s5.94-4.15,6.38-5c1.12,0,2.13-2.12,2.13-3S20.26,12.83,19.5,12.5Z" style="fill: none;stroke: #303c42;stroke-linecap: round;stroke-linejoin: round"/>
      <path id="_Path_4" data-name="&lt;Path&gt;" d="M4.1,16.25C2.69,18.11,1.5,20.4,1.5,21.5a5.77,5.77,0,0,1,2-1s-.08,3,1,3c0,0,.48-3.15,1.17-5.92l0-.08" style="fill: none;stroke: #303c42;stroke-linecap: round;stroke-linejoin: round"/>
      <path id="_Path_5" data-name="&lt;Path&gt;" d="M18.38,17.5l0,.08C19,20.35,19.5,23.5,19.5,23.5c1.08,0,1-3,1-3a5.77,5.77,0,0,1,2,1c0-1.1-1.19-3.39-2.6-5.25" style="fill: none;stroke: #303c42;stroke-linecap: round;stroke-linejoin: round"/>
      <path id="_Path_6" data-name="&lt;Path&gt;" d="M20.5,14.5V10C20.5,5.88,17.56.5,12,.5l-.5.5c-5.56,0-8,4.88-8,9v4.5" style="fill: none;stroke: #303c42;stroke-linecap: round;stroke-linejoin: round"/>
      <line x1="8.5" y1="12.5" x2="7.5" y2="12.5" style="fill: none;stroke: #303c42;stroke-linecap: round;stroke-linejoin: round"/>
      <line x1="15.5" y1="12.5" x2="16.5" y2="12.5" style="fill: none;stroke: #303c42;stroke-linecap: round;stroke-linejoin: round"/>
    </g>
  </g>
</svg>
