<svg xmlns="http://www.w3.org/2000/svg" viewBox="0 0 24 24">
  <title>Camera Iris 1</title>
  <g id="Camera_Iris_1" data-name="Camera Iris 1">
    <g id="_Group_" data-name="&lt;Group&gt;">
      <circle id="_Path_" data-name="&lt;Path&gt;" cx="20" cy="8" r="0.5" style="fill: none;stroke: #303c42;stroke-linecap: round;stroke-linejoin: round"/>
      <path id="_Path_2" data-name="&lt;Path&gt;" d="M22,4.5H18.83a2,2,0,0,1-1.41-.59L15.59,2.09a2,2,0,0,0-1.41-.59H9.83a2,2,0,0,0-1.41.59L6.59,3.91a2,2,0,0,1-1.41.59H2A1.5,1.5,0,0,0,.5,6V19A1.5,1.5,0,0,0,2,20.5H22A1.5,1.5,0,0,0,23.5,19V6A1.5,1.5,0,0,0,22,4.5Z" style="fill: none;stroke: #303c42;stroke-linecap: round;stroke-linejoin: round"/>
      <line id="_Path_3" data-name="&lt;Path&gt;" x1="10.62" y1="9.5" x2="18" y2="9.5" style="fill: none;stroke: #303c42;stroke-linecap: round;stroke-linejoin: round"/>
      <line id="_Path_4" data-name="&lt;Path&gt;" x1="9.14" y1="11.96" x2="12.83" y2="5.55" style="fill: none;stroke: #303c42;stroke-linecap: round;stroke-linejoin: round"/>
      <line id="_Path_5" data-name="&lt;Path&gt;" x1="10.52" y1="14.44" x2="6.83" y2="8.05" style="fill: none;stroke: #303c42;stroke-linecap: round;stroke-linejoin: round"/>
      <line id="_Path_6" data-name="&lt;Path&gt;" x1="13.29" y1="14.5" x2="6" y2="14.5" style="fill: none;stroke: #303c42;stroke-linecap: round;stroke-linejoin: round"/>
      <line id="_Path_7" data-name="&lt;Path&gt;" x1="14.85" y1="12.07" x2="11.17" y2="18.45" style="fill: none;stroke: #303c42;stroke-linecap: round;stroke-linejoin: round"/>
      <line id="_Path_8" data-name="&lt;Path&gt;" x1="13.46" y1="9.54" x2="17.17" y2="15.95" style="fill: none;stroke: #303c42;stroke-linecap: round;stroke-linejoin: round"/>
      <circle id="_Path_9" data-name="&lt;Path&gt;" cx="12" cy="12" r="6.5" style="fill: none;stroke: #303c42;stroke-linecap: round;stroke-linejoin: round"/>
    </g>
  </g>
</svg>
