<svg xmlns="http://www.w3.org/2000/svg" viewBox="0 0 24 24">
  <title>Lense 2</title>
  <g id="Lense_2" data-name="Lense 2">
    <g id="_Group_" data-name="&lt;Group&gt;">
      <ellipse id="_Path_" data-name="&lt;Path&gt;" cx="12" cy="3" rx="8.5" ry="1.5" style="fill: none;stroke: #303c42;stroke-linecap: round;stroke-linejoin: round"/>
      <path id="_Path_2" data-name="&lt;Path&gt;" d="M21.46,14c-.71.68-.86,2.09-1,4,0,.83-3.81,1.5-8.5,1.5S3.54,18.83,3.5,18c-.09-1.94-.25-3.34-1-4" style="fill: none;stroke: #303c42;stroke-linecap: round;stroke-linejoin: round"/>
      <path id="_Path_3" data-name="&lt;Path&gt;" d="M4.13,2.43C2.5,2.92,1.5,3.55,1.5,4.25,1.5,5.77,6.2,7,12,7S22.5,5.77,22.5,4.25c0-.7-1-1.33-2.63-1.82" style="fill: none;stroke: #303c42;stroke-linecap: round;stroke-linejoin: round"/>
      <path id="_Path_4" data-name="&lt;Path&gt;" d="M1.5,4.25v8.5c0,1.52,4.7,2.75,10.5,2.75s10.5-1.23,10.5-2.75V4.25" style="fill: none;stroke: #303c42;stroke-linecap: round;stroke-linejoin: round"/>
      <path id="_Path_5" data-name="&lt;Path&gt;" d="M19.5,18.7v1.8c0,1.46-3.71,2-7.5,2s-7.5-.54-7.5-2V18.7" style="fill: none;stroke: #303c42;stroke-linecap: round;stroke-linejoin: round"/>
    </g>
  </g>
</svg>
