<svg xmlns="http://www.w3.org/2000/svg" viewBox="0 0 24 24">
  <title>Shit</title>
  <g id="Shit">
    <g>
      <path d="M9.5,13.5h-4a4,4,0,0,0-4,4h0a4,4,0,0,0,4,4h13a4,4,0,0,0,4-4h0a4,4,0,0,0-4-4h-3" style="fill: none;stroke: #303c42;stroke-linecap: round;stroke-linejoin: round"/>
      <path d="M20.35,14a3.46,3.46,0,0,0,.15-1A3.5,3.5,0,0,0,17,9.5H12.5" style="fill: none;stroke: #303c42;stroke-linecap: round;stroke-linejoin: round"/>
      <path d="M9.5,9.5H7A3.5,3.5,0,0,0,3.5,13a3.46,3.46,0,0,0,.15,1" style="fill: none;stroke: #303c42;stroke-linecap: round;stroke-linejoin: round"/>
      <path d="M11,5.5a3.77,3.77,0,0,0-3.5,4" style="fill: none;stroke: #303c42;stroke-linecap: round;stroke-linejoin: round"/>
      <path d="M14.5,2.5a3.28,3.28,0,0,1-3.5,3" style="fill: none;stroke: #303c42;stroke-linecap: round;stroke-linejoin: round"/>
      <path d="M17.5,6.5c0-2.21-1.34-4-3-4" style="fill: none;stroke: #303c42;stroke-linecap: round;stroke-linejoin: round"/>
      <path d="M14.5,9.5a3,3,0,0,0,3-3" style="fill: none;stroke: #303c42;stroke-linecap: round;stroke-linejoin: round"/>
    </g>
  </g>
</svg>
