<svg xmlns="http://www.w3.org/2000/svg" viewBox="0 0 24 24">
  <title>Recycle PET</title>
  <g id="Recycle_PET" data-name="Recycle PET">
    <g id="_Group_" data-name="&lt;Group&gt;">
      <polyline id="_Path_" data-name="&lt;Path&gt;" points="13 14 11 14 11 10 13 10" style="fill: none;stroke: #303c42;stroke-linecap: round;stroke-linejoin: round"/>
      <path id="_Path_2" data-name="&lt;Path&gt;" d="M7,14V10H8a1,1,0,0,1,1,1H9a1,1,0,0,1-1,1H7" style="fill: none;stroke: #303c42;stroke-linecap: round;stroke-linejoin: round"/>
      <line id="_Path_3" data-name="&lt;Path&gt;" x1="11" y1="12" x2="12.5" y2="12" style="fill: none;stroke: #303c42;stroke-linecap: round;stroke-linejoin: round"/>
      <line id="_Path_4" data-name="&lt;Path&gt;" x1="14.5" y1="10" x2="17.5" y2="10" style="fill: none;stroke: #303c42;stroke-linecap: round;stroke-linejoin: round"/>
      <line id="_Path_5" data-name="&lt;Path&gt;" x1="16" y1="10" x2="16" y2="14" style="fill: none;stroke: #303c42;stroke-linecap: round;stroke-linejoin: round"/>
      <g id="_Group_2" data-name="&lt;Group&gt;">
        <polyline id="_Path_6" data-name="&lt;Path&gt;" points="12.5 0.53 9.46 3.54 8.17 1.17" style="fill: none;stroke: #303c42;stroke-linecap: round;stroke-linejoin: round"/>
        <polyline id="_Path_7" data-name="&lt;Path&gt;" points="1.8 17.31 5.95 18.43 4.54 20.73" style="fill: none;stroke: #303c42;stroke-linecap: round;stroke-linejoin: round"/>
        <polyline id="_Path_8" data-name="&lt;Path&gt;" points="21.69 18.17 20.6 14.03 23.29 14.1" style="fill: none;stroke: #303c42;stroke-linecap: round;stroke-linejoin: round"/>
        <path id="_Path_9" data-name="&lt;Path&gt;" d="M1.8,17.31A11.47,11.47,0,0,0,19.72,20.5" style="fill: none;stroke: #303c42;stroke-linecap: round;stroke-linejoin: round"/>
        <path id="_Path_10" data-name="&lt;Path&gt;" d="M12.5.53,12,.5A11.49,11.49,0,0,0,.77,14.44" style="fill: none;stroke: #303c42;stroke-linecap: round;stroke-linejoin: round"/>
        <path id="_Path_11" data-name="&lt;Path&gt;" d="M21.69,18.17A11.48,11.48,0,0,0,15.5,1" style="fill: none;stroke: #303c42;stroke-linecap: round;stroke-linejoin: round"/>
      </g>
    </g>
  </g>
</svg>
