<svg xmlns="http://www.w3.org/2000/svg" viewBox="0 0 24 24">
  <title>Recycle Bin 1</title>
  <g id="Recycle_Bin_1" data-name="Recycle Bin 1">
    <g id="_Group_" data-name="&lt;Group&gt;">
      <path id="_Rectangle_" data-name="&lt;Rectangle&gt;" d="M5,.5H19A1.5,1.5,0,0,1,20.5,2V3.5a0,0,0,0,1,0,0H3.5a0,0,0,0,1,0,0V2A1.5,1.5,0,0,1,5,.5Z" style="fill: none;stroke: #303c42;stroke-linecap: round;stroke-linejoin: round"/>
      <path id="_Path_" data-name="&lt;Path&gt;" d="M7.29,23.38a1.49,1.49,0,0,0,.57.12h8.29a1.5,1.5,0,0,0,1.49-1.35L19.5,3.5H4.5L5.91,17.56" style="fill: none;stroke: #303c42;stroke-linecap: round;stroke-linejoin: round"/>
      <circle id="_Path_2" data-name="&lt;Path&gt;" cx="6.5" cy="20.5" r="3" style="fill: none;stroke: #303c42;stroke-linecap: round;stroke-linejoin: round"/>
      <circle id="_Path_3" data-name="&lt;Path&gt;" cx="6.5" cy="20.5" r="0.5" style="fill: #303c42"/>
      <g id="_Group_2" data-name="&lt;Group&gt;">
        <path id="_Path_4" data-name="&lt;Path&gt;" d="M8.5,12a3.5,3.5,0,0,1,6.4-2" style="fill: none;stroke: #303c42;stroke-linecap: round;stroke-linejoin: round"/>
        <path id="_Path_5" data-name="&lt;Path&gt;" d="M15.5,12a3.5,3.5,0,0,1-6.4,2" style="fill: none;stroke: #303c42;stroke-linecap: round;stroke-linejoin: round"/>
        <line id="_Path_6" data-name="&lt;Path&gt;" x1="8.5" y1="12" x2="10.25" y2="10.83" style="fill: none;stroke: #303c42;stroke-linecap: round;stroke-linejoin: round"/>
        <line id="_Path_7" data-name="&lt;Path&gt;" x1="15.5" y1="12" x2="13.75" y2="13.17" style="fill: none;stroke: #303c42;stroke-linecap: round;stroke-linejoin: round"/>
      </g>
    </g>
  </g>
</svg>
