<svg xmlns="http://www.w3.org/2000/svg" viewBox="0 0 24 24">
  <title>Send Money</title>
  <g id="Send_Money" data-name="Send Money">
    <g id="_Group_" data-name="&lt;Group&gt;">
      <g id="_Group_2" data-name="&lt;Group&gt;">
        <path id="_Path_" data-name="&lt;Path&gt;" d="M1.5,9.5V21A1.5,1.5,0,0,0,3,22.5H21A1.5,1.5,0,0,0,22.5,21V9.5" style="fill: none;stroke: #303c42;stroke-linecap: round;stroke-linejoin: round"/>
        <g id="_Group_3" data-name="&lt;Group&gt;">
          <path id="_Path_2" data-name="&lt;Path&gt;" d="M14.91,3.5c-.78-.63-1.45-1.19-1.9-1.59a1.45,1.45,0,0,0-2,0c-.44.39-1.12,1-1.9,1.59" style="fill: none;stroke: #303c42;stroke-linecap: round;stroke-linejoin: round"/>
          <path id="_Path_3" data-name="&lt;Path&gt;" d="M4.5,7.16,1.5,9.5c.73.56,7.33,5.69,9.47,7.59a1.53,1.53,0,0,0,1,.41,1.57,1.57,0,0,0,1-.41c2.14-1.9,8.76-7,9.49-7.59l-3-2.34" style="fill: none;stroke: #303c42;stroke-linecap: round;stroke-linejoin: round"/>
        </g>
      </g>
      <g id="_Group_4" data-name="&lt;Group&gt;">
        <g id="_Group_5" data-name="&lt;Group&gt;">
          <path id="_Path_4" data-name="&lt;Path&gt;" d="M19.5,11.84V5A1.5,1.5,0,0,0,18,3.5H6A1.5,1.5,0,0,0,4.5,5v6.84" style="fill: none;stroke: #303c42;stroke-linecap: round;stroke-linejoin: round"/>
        </g>
        <path id="_Path_5" data-name="&lt;Path&gt;" d="M19.5,7.5a4,4,0,0,1-4-4" style="fill: none;stroke: #303c42;stroke-linecap: round;stroke-linejoin: round"/>
        <path id="_Path_6" data-name="&lt;Path&gt;" d="M8.5,3.5a4,4,0,0,1-4,4" style="fill: none;stroke: #303c42;stroke-linecap: round;stroke-linejoin: round"/>
        <path id="_Path_7" data-name="&lt;Path&gt;" d="M14.5,14.5V12.75a1.25,1.25,0,0,0-1.25-1.25h0A1.25,1.25,0,0,0,12,12.75v.5a1.25,1.25,0,0,1-1.25,1.25h0A1.25,1.25,0,0,1,9.5,13.25V11.5" style="fill: none;stroke: #303c42;stroke-linecap: round;stroke-linejoin: round"/>
        <line id="_Path_8" data-name="&lt;Path&gt;" x1="14.5" y1="13" x2="15.5" y2="13" style="fill: none;stroke: #303c42;stroke-linecap: round;stroke-linejoin: round"/>
        <line id="_Path_9" data-name="&lt;Path&gt;" x1="9.5" y1="13" x2="8.5" y2="13" style="fill: none;stroke: #303c42;stroke-linecap: round;stroke-linejoin: round"/>
        <circle id="_Path_10" data-name="&lt;Path&gt;" cx="12" cy="8" r="0.5" style="fill: none;stroke: #303c42;stroke-linecap: round;stroke-linejoin: round"/>
      </g>
    </g>
  </g>
</svg>
