<svg xmlns="http://www.w3.org/2000/svg" viewBox="0 0 24 24">
  <title>Palette</title>
  <g id="Palette">
    <g>
      <rect x="1.5" y="16.5" width="3" height="3" style="fill: none;stroke: #303c42;stroke-linecap: round;stroke-linejoin: round"/>
      <rect x="10.5" y="16.5" width="3" height="3" style="fill: none;stroke: #303c42;stroke-linecap: round;stroke-linejoin: round"/>
      <rect x="19.5" y="16.5" width="3" height="3" style="fill: none;stroke: #303c42;stroke-linecap: round;stroke-linejoin: round"/>
      <rect x="1.5" y="10.5" width="3" height="3" style="fill: none;stroke: #303c42;stroke-linecap: round;stroke-linejoin: round"/>
      <rect x="10.5" y="10.5" width="3" height="3" style="fill: none;stroke: #303c42;stroke-linecap: round;stroke-linejoin: round"/>
      <rect x="19.5" y="10.5" width="3" height="3" style="fill: none;stroke: #303c42;stroke-linecap: round;stroke-linejoin: round"/>
      <rect x="1.5" y="4.5" width="3" height="3" style="fill: none;stroke: #303c42;stroke-linecap: round;stroke-linejoin: round"/>
      <rect x="10.5" y="4.5" width="3" height="3" style="fill: none;stroke: #303c42;stroke-linecap: round;stroke-linejoin: round"/>
      <rect x="19.5" y="4.5" width="3" height="3" style="fill: none;stroke: #303c42;stroke-linecap: round;stroke-linejoin: round"/>
      <rect x="10.5" y="-7.5" width="3" height="21" transform="translate(15 -9) rotate(90)" style="fill: none;stroke: #303c42;stroke-linecap: round;stroke-linejoin: round"/>
      <rect x="10.5" y="-1.5" width="3" height="21" transform="translate(21 -3) rotate(90)" style="fill: none;stroke: #303c42;stroke-linecap: round;stroke-linejoin: round"/>
      <rect x="10.5" y="4.5" width="3" height="21" transform="translate(27 3) rotate(90)" style="fill: none;stroke: #303c42;stroke-linecap: round;stroke-linejoin: round"/>
      <rect x="10.5" y="10.5" width="3" height="21" transform="translate(33 9) rotate(90)" style="fill: none;stroke: #303c42;stroke-linecap: round;stroke-linejoin: round"/>
    </g>
  </g>
</svg>
