<svg xmlns="http://www.w3.org/2000/svg" viewBox="0 0 24 24">
  <title>Save Backup</title>
  <g id="Save_Backup" data-name="Save Backup">
    <g id="_Group_" data-name="&lt;Group&gt;">
      <rect id="_Path_" data-name="&lt;Path&gt;" x="10.5" y="2.5" width="2" height="3" style="fill: none;stroke: #303c42;stroke-linecap: round;stroke-linejoin: round"/>
      <path id="_Path_2" data-name="&lt;Path&gt;" d="M18.5,13.51V4L15,.5H2A1.5,1.5,0,0,0,.5,2V17A1.5,1.5,0,0,0,2,18.5H13.56" style="fill: none;stroke: #303c42;stroke-linecap: round;stroke-linejoin: round"/>
      <path id="_Path_3" data-name="&lt;Path&gt;" d="M14.5.5V6A1.5,1.5,0,0,1,13,7.5H6A1.5,1.5,0,0,1,4.5,6V.5" style="fill: none;stroke: #303c42;stroke-linecap: round;stroke-linejoin: round"/>
      <polyline id="_Path_4" data-name="&lt;Path&gt;" points="15.5 14.57 15.5 9.5 3.5 9.5 3.5 18.5" style="fill: none;stroke: #303c42;stroke-linecap: round;stroke-linejoin: round"/>
      <g id="_Group_2" data-name="&lt;Group&gt;">
        <circle id="_Path_5" data-name="&lt;Path&gt;" cx="18.5" cy="18.5" r="5" style="fill: none;stroke: #303c42;stroke-linecap: round;stroke-linejoin: round"/>
      </g>
      <polyline id="_Path_6" data-name="&lt;Path&gt;" points="18.5 15.5 18.5 18.5 20 20" style="fill: none;stroke: #303c42;stroke-linecap: round;stroke-linejoin: round"/>
    </g>
  </g>
</svg>
