<svg xmlns="http://www.w3.org/2000/svg" viewBox="0 0 24 24">
  <title>Cloud Folder 3</title>
  <g id="Cloud_Folder_3" data-name="Cloud Folder 3">
    <g id="_Group_" data-name="&lt;Group&gt;">
      <g id="_Group_2" data-name="&lt;Group&gt;">
        <path id="_Path_" data-name="&lt;Path&gt;" d="M20.48,9.61A7.49,7.49,0,0,0,5.94,7.5" style="fill: none;stroke: #303c42;stroke-linecap: round;stroke-linejoin: round"/>
        <path id="_Path_2" data-name="&lt;Path&gt;" d="M17.5,17.5h2a4,4,0,0,0,0-8" style="fill: none;stroke: #303c42;stroke-linecap: round;stroke-linejoin: round"/>
        <path id="_Path_3" data-name="&lt;Path&gt;" d="M8.5,8.5a5.05,5.05,0,0,0-3-1,5,5,0,0,0,0,10h2" style="fill: none;stroke: #303c42;stroke-linecap: round;stroke-linejoin: round"/>
      </g>
      <path id="_Path_4" data-name="&lt;Path&gt;" d="M16.83,14.5H12.5l-1-1H8.17a.67.67,0,0,0-.67.67h0v6.67a.67.67,0,0,0,.67.67h8.67a.67.67,0,0,0,.67-.67V15.17A.67.67,0,0,0,16.83,14.5Z" style="fill: none;stroke: #303c42;stroke-linecap: round;stroke-linejoin: round"/>
    </g>
  </g>
</svg>
