<svg xmlns="http://www.w3.org/2000/svg" viewBox="0 0 24 24">
  <title>Cocktail</title>
  <g id="Cocktail">
    <g>
      <polygon points="19.65 6.81 20.55 1.5 16.23 4.73 13.96 2.69 20.55 1.5 22.5 7.9 19.65 6.81" style="fill: none;stroke: #303c42;stroke-linecap: round;stroke-linejoin: round"/>
      <line x1="16.24" y1="4.73" x2="19.65" y2="6.81" style="fill: none;stroke: #303c42;stroke-linecap: round;stroke-linejoin: round"/>
      <line x1="17.94" y1="5.77" x2="16" y2="8.5" style="fill: none;stroke: #303c42;stroke-linecap: round;stroke-linejoin: round"/>
      <polyline points="13.5 8.5 14.5 13.5 16 10.5 17 15.5 18.5 8.5" style="fill: none;stroke: #303c42;stroke-linecap: round;stroke-linejoin: round"/>
      <circle cx="9" cy="20" r="0.5" style="fill: #303c42"/>
      <circle cx="10" cy="21" r="0.5" style="fill: #303c42"/>
      <circle cx="11" cy="20" r="0.5" style="fill: #303c42"/>
      <polyline points="11.5 8.5 12.4 6.17 11.21 5.02 13 4.79 11.43 3.46 12.76 3" style="fill: none;stroke: #303c42;stroke-linecap: round;stroke-linejoin: round"/>
      <polyline points="9.5 8.5 8.5 3 6 1.5" style="fill: none;stroke: #303c42;stroke-linecap: round;stroke-linejoin: round"/>
      <path d="M7.5,8.5a3,3,0,1,0-3.92,2.84" style="fill: none;stroke: #303c42;stroke-linecap: round;stroke-linejoin: round"/>
      <path d="M4.56,8.5a7.72,7.72,0,0,0-1.06,4c0,5,4,10,9,10s9-5,9-10a7.72,7.72,0,0,0-1.06-4Z" style="fill: none;stroke: #303c42;stroke-linecap: round;stroke-linejoin: round"/>
    </g>
  </g>
</svg>
