<svg xmlns="http://www.w3.org/2000/svg" viewBox="0 0 24 24">
  <title>Space Invadors</title>
  <g id="Space_Invadors" data-name="Space Invadors">
    <g>
      <rect x="6.5" y="9.5" width="2" height="2" style="fill: none;stroke: #303c42;stroke-linecap: round;stroke-linejoin: round"/>
      <g>
        <rect x="6.5" y="18.5" width="4" height="2" style="fill: none;stroke: #303c42;stroke-linecap: round;stroke-linejoin: round"/>
        <rect x="4.5" y="3.5" width="2" height="2" style="fill: none;stroke: #303c42;stroke-linecap: round;stroke-linejoin: round"/>
        <polygon points="21.5 12.5 21.5 10.5 19.5 10.5 19.5 7.5 17.5 7.5 17.5 5.5 15.5 5.5 15.5 7.5 12 7.5 8.5 7.5 8.5 5.5 6.5 5.5 6.5 7.5 4.5 7.5 4.5 10.5 2.5 10.5 2.5 12.5 0.5 12.5 0.5 18.5 2.5 18.5 2.5 14.5 4.5 14.5 4.5 15.5 4.5 16.5 4.5 18.5 6.5 18.5 6.5 16.5 12 16.5 17.5 16.5 17.5 18.5 19.5 18.5 19.5 16.5 19.5 15.5 19.5 14.5 21.5 14.5 21.5 18.5 23.5 18.5 23.5 12.5 21.5 12.5" style="fill: none;stroke: #303c42;stroke-linecap: round;stroke-linejoin: round"/>
        <rect x="13.5" y="18.5" width="4" height="2" style="fill: none;stroke: #303c42;stroke-linecap: round;stroke-linejoin: round"/>
        <rect x="17.5" y="3.5" width="2" height="2" style="fill: none;stroke: #303c42;stroke-linecap: round;stroke-linejoin: round"/>
      </g>
      <rect x="15.5" y="9.5" width="2" height="2" transform="translate(33 21) rotate(-180)" style="fill: none;stroke: #303c42;stroke-linecap: round;stroke-linejoin: round"/>
    </g>
  </g>
</svg>
